G75*
G70*
%OFA0B0*%
%FSLAX24Y24*%
%IPPOS*%
%LPD*%
%AMOC8*
5,1,8,0,0,1.08239X$1,22.5*
%
%ADD10R,0.0911X0.0911*%
%ADD11C,0.1261*%
%ADD12C,0.1386*%
%ADD13C,0.0714*%
%ADD14OC8,0.0780*%
%ADD15R,0.0780X0.0780*%
%ADD16C,0.0867*%
%ADD17OC8,0.0680*%
%ADD18C,0.0600*%
%ADD19R,0.2015X0.2015*%
D10*
X006720Y015744D03*
X006720Y017909D03*
X024165Y018015D03*
X025818Y018015D03*
X027472Y018015D03*
X029126Y018015D03*
X029126Y015850D03*
X027472Y015850D03*
X025818Y015850D03*
X024165Y015850D03*
D11*
X022314Y017834D03*
X030976Y017834D03*
X008570Y017728D03*
X004870Y017728D03*
D12*
X006527Y006858D03*
X006527Y004622D03*
X011700Y004622D03*
X011700Y006858D03*
X015633Y006858D03*
X015633Y004622D03*
X020807Y004622D03*
X020807Y006858D03*
D13*
X019598Y006720D03*
X018614Y006720D03*
X017826Y006720D03*
X016842Y006720D03*
X016842Y005689D03*
X017826Y005689D03*
X018614Y005689D03*
X019598Y005689D03*
X010492Y005689D03*
X009507Y005689D03*
X008720Y005689D03*
X007736Y005689D03*
X007736Y006720D03*
X008720Y006720D03*
X009507Y006720D03*
X010492Y006720D03*
D14*
X018220Y017720D03*
D15*
X018220Y018720D03*
D16*
X027933Y004220D03*
X027933Y002448D03*
D17*
X031716Y004732D03*
X031716Y006732D03*
D18*
X024826Y005732D03*
X023055Y010063D03*
X016775Y013803D03*
X018330Y015968D03*
X020889Y017543D03*
X019511Y018724D03*
X025220Y019118D03*
X028763Y014787D03*
X014393Y006913D03*
X014196Y008291D03*
X014393Y004748D03*
X006913Y008881D03*
X007700Y009669D03*
X005338Y006913D03*
X012818Y015574D03*
D19*
X002189Y002189D03*
X002189Y017937D03*
X033685Y017937D03*
X033685Y002189D03*
M02*
