%
M48
M72
T01C0.0240
T02C0.0320
T03C0.0354
T04C0.0400
T05C0.0551
T06C0.0787
T07C0.0906
T08C0.1181
T09C0.1535
%
T01
X5338Y6913
X6913Y8881
X7700Y9669
X14196Y8291
X14393Y6913
X14393Y4748
X23055Y10063
X16775Y13803
X18330Y15968
X20889Y17543
X19511Y18724
X25220Y19118
X28763Y14787
X24826Y5732
X12818Y15574
T02
X31716Y6732
X31716Y4732
T03
X19598Y5689
X18614Y5689
X17826Y5689
X16842Y5689
X16842Y6720
X17826Y6720
X18614Y6720
X19598Y6720
X10492Y6720
X9507Y6720
X8720Y6720
X7736Y6720
X7736Y5689
X8720Y5689
X9507Y5689
X10492Y5689
T04
X18220Y17720
X18220Y18720
T05
X24165Y18015
X25818Y18015
X27472Y18015
X29126Y18015
X29126Y15850
X27472Y15850
X25818Y15850
X24165Y15850
X6720Y15744
X6720Y17909
T06
X27933Y4220
X27933Y2448
T07
X20807Y4622
X20807Y6858
X15633Y6858
X15633Y4622
X11700Y4622
X11700Y6858
X6527Y6858
X6527Y4622
T08
X4870Y17728
X8570Y17728
X22314Y17834
X30976Y17834
T09
X2189Y2189
X2189Y17937
X33685Y17937
X33685Y2189
M30
