G75*
G70*
%OFA0B0*%
%FSLAX24Y24*%
%IPPOS*%
%LPD*%
%AMOC8*
5,1,8,0,0,1.08239X$1,22.5*
%
%ADD10R,0.0240X0.0870*%
%ADD11R,0.0831X0.0831*%
%ADD12C,0.1306*%
%ADD13C,0.0634*%
%ADD14R,0.0394X0.0394*%
%ADD15R,0.0984X0.0768*%
%ADD16R,0.0394X0.0433*%
%ADD17R,0.0512X0.0591*%
%ADD18R,0.0591X0.0512*%
%ADD19R,0.0472X0.0472*%
%ADD20OC8,0.0700*%
%ADD21R,0.0700X0.0700*%
%ADD22R,0.1181X0.0787*%
%ADD23OC8,0.0600*%
%ADD24C,0.0240*%
%ADD25C,0.0520*%
%ADD26C,0.0500*%
%ADD27R,0.1935X0.1935*%
D10*
X013470Y013690D03*
X013970Y013690D03*
X014470Y013690D03*
X014970Y013690D03*
X014970Y015750D03*
X014470Y015750D03*
X013970Y015750D03*
X013470Y015750D03*
D11*
X006720Y015744D03*
X006720Y017909D03*
X024165Y018015D03*
X025818Y018015D03*
X027472Y018015D03*
X029126Y018015D03*
X029126Y015850D03*
X027472Y015850D03*
X025818Y015850D03*
X024165Y015850D03*
D12*
X020807Y006858D03*
X020807Y004622D03*
X015633Y004622D03*
X015633Y006858D03*
X011700Y006858D03*
X011700Y004622D03*
X006527Y004622D03*
X006527Y006858D03*
D13*
X007736Y006720D03*
X008720Y006720D03*
X009507Y006720D03*
X010492Y006720D03*
X010492Y005689D03*
X009507Y005689D03*
X008720Y005689D03*
X007736Y005689D03*
X016842Y005689D03*
X017826Y005689D03*
X018614Y005689D03*
X019598Y005689D03*
X019598Y006720D03*
X018614Y006720D03*
X017826Y006720D03*
X016842Y006720D03*
D14*
X013720Y006826D03*
X013720Y007614D03*
X004220Y007614D03*
X004220Y006826D03*
D15*
X010220Y009620D03*
X011720Y009620D03*
X011720Y010820D03*
X010220Y010820D03*
X019720Y010820D03*
X019720Y009620D03*
X021220Y009620D03*
X021220Y010820D03*
D16*
X018220Y011055D03*
X017220Y011055D03*
X017220Y010385D03*
X018220Y010385D03*
X008720Y010385D03*
X007720Y010385D03*
X007720Y011055D03*
X008720Y011055D03*
D17*
X018385Y013720D03*
X019055Y013720D03*
X019055Y014720D03*
X018385Y014720D03*
X020385Y016720D03*
X021055Y016720D03*
X021055Y018720D03*
X020385Y018720D03*
D18*
X033614Y006811D03*
X033614Y006141D03*
X022933Y001555D03*
X022933Y000885D03*
X013933Y002854D03*
X013933Y003523D03*
X004220Y003523D03*
X004220Y002854D03*
D19*
X005200Y001996D03*
X005200Y001169D03*
X014385Y001169D03*
X014385Y001996D03*
X024433Y002027D03*
X024433Y001200D03*
X031645Y001200D03*
X031645Y002027D03*
D20*
X018220Y017720D03*
D21*
X018220Y018720D03*
D22*
X025767Y004811D03*
X025767Y002448D03*
X030098Y002448D03*
X030098Y004811D03*
D23*
X031716Y004732D03*
X031716Y006732D03*
D24*
X031716Y007252D01*
X031501Y007252D01*
X031196Y006947D01*
X031196Y006732D01*
X031716Y006732D01*
X031716Y006732D01*
X031716Y007252D01*
X031931Y007252D01*
X032236Y006947D01*
X032236Y006732D01*
X031716Y006732D01*
X031716Y006732D01*
X031716Y006732D01*
X031716Y006811D01*
X033614Y006811D01*
X032897Y006898D02*
X032236Y006898D01*
X032236Y006732D02*
X031716Y006732D01*
X031196Y006732D01*
X031196Y006516D01*
X031501Y006212D01*
X031716Y006212D01*
X031716Y006732D01*
X031716Y006732D01*
X031716Y006212D01*
X031931Y006212D01*
X032236Y006516D01*
X032236Y006732D01*
X032236Y006660D02*
X032897Y006660D01*
X032897Y006421D02*
X032141Y006421D01*
X031716Y006421D02*
X031716Y006421D01*
X031716Y006660D02*
X031716Y006660D01*
X031716Y006898D02*
X031716Y006898D01*
X031716Y007137D02*
X031716Y007137D01*
X031385Y007137D02*
X026374Y007137D01*
X026613Y006898D02*
X031196Y006898D01*
X031196Y006660D02*
X026851Y006660D01*
X027090Y006421D02*
X031291Y006421D01*
X031519Y006126D02*
X025811Y011834D01*
X028763Y014787D01*
X025023Y014393D02*
X032503Y014393D01*
X032897Y014000D01*
X032897Y006126D01*
X027385Y006126D01*
X024629Y008881D01*
X024629Y014000D01*
X025023Y014393D01*
X024921Y014292D02*
X032605Y014292D01*
X032844Y014053D02*
X024683Y014053D01*
X024629Y013815D02*
X032897Y013815D01*
X032897Y013576D02*
X024629Y013576D01*
X024629Y013338D02*
X032897Y013338D01*
X032897Y013099D02*
X024629Y013099D01*
X024629Y012861D02*
X032897Y012861D01*
X032897Y012622D02*
X024629Y012622D01*
X024629Y012384D02*
X032897Y012384D01*
X032897Y012145D02*
X024629Y012145D01*
X024629Y011907D02*
X032897Y011907D01*
X032897Y011668D02*
X024629Y011668D01*
X024629Y011430D02*
X032897Y011430D01*
X032897Y011191D02*
X024629Y011191D01*
X024629Y010953D02*
X032897Y010953D01*
X032897Y010714D02*
X024629Y010714D01*
X024629Y010476D02*
X032897Y010476D01*
X032897Y010237D02*
X024629Y010237D01*
X024629Y009999D02*
X032897Y009999D01*
X032897Y009760D02*
X024629Y009760D01*
X024629Y009522D02*
X032897Y009522D01*
X032897Y009283D02*
X024629Y009283D01*
X024629Y009045D02*
X032897Y009045D01*
X032897Y008806D02*
X024705Y008806D01*
X024943Y008568D02*
X032897Y008568D01*
X032897Y008329D02*
X025182Y008329D01*
X025420Y008091D02*
X032897Y008091D01*
X032897Y007852D02*
X025659Y007852D01*
X025897Y007614D02*
X032897Y007614D01*
X032897Y007375D02*
X026136Y007375D01*
X027328Y006183D02*
X032897Y006183D01*
X033614Y006141D02*
X033685Y006141D01*
X033685Y004888D01*
X032559Y003763D01*
X031645Y002849D01*
X031645Y002027D01*
X031645Y001200D02*
X031519Y000811D01*
X026236Y000811D01*
X025614Y001433D01*
X025614Y001795D01*
X025614Y002385D01*
X025767Y002448D01*
X025811Y002582D01*
X025811Y004748D01*
X025767Y004811D01*
X025614Y004944D01*
X024826Y005732D01*
X023645Y006913D01*
X023645Y010259D01*
X023251Y010653D01*
X022070Y010653D01*
X022070Y010259D01*
X021283Y009472D01*
X021220Y009620D01*
X021086Y009669D01*
X019905Y009669D01*
X019720Y009620D01*
X019708Y009472D01*
X018921Y010259D01*
X018330Y010259D01*
X018220Y010385D01*
X018133Y010456D01*
X017346Y010456D01*
X017220Y010385D01*
X017149Y010259D01*
X014590Y007700D01*
X013803Y007700D01*
X013720Y007614D01*
X013606Y007700D01*
X013212Y008094D01*
X013212Y000811D01*
X005338Y000811D01*
X005200Y001169D01*
X005141Y001795D02*
X005200Y001996D01*
X005141Y001795D02*
X004354Y002582D01*
X004354Y002779D01*
X004220Y002854D01*
X004220Y003523D02*
X004157Y003566D01*
X003566Y004157D01*
X003566Y007897D01*
X005732Y010063D01*
X006913Y008881D01*
X006527Y009283D02*
X003370Y009283D01*
X003370Y009045D02*
X006289Y009045D01*
X006050Y008806D02*
X003445Y008806D01*
X003370Y008881D02*
X003370Y010298D01*
X005891Y012818D01*
X013836Y012818D01*
X014393Y012262D01*
X014393Y011407D01*
X013836Y010850D01*
X011792Y010850D01*
X011792Y010892D01*
X012432Y010892D01*
X012432Y011233D01*
X012417Y011289D01*
X012388Y011339D01*
X012347Y011380D01*
X012297Y011409D01*
X012241Y011424D01*
X011792Y011424D01*
X011792Y010892D01*
X011648Y010892D01*
X011648Y010850D01*
X010292Y010850D01*
X010292Y010892D01*
X010932Y010892D01*
X010932Y011233D01*
X010917Y011289D01*
X010888Y011339D01*
X010847Y011380D01*
X010797Y011409D01*
X010741Y011424D01*
X010292Y011424D01*
X010292Y010892D01*
X010148Y010892D01*
X010148Y010850D01*
X009137Y010850D01*
X009137Y011055D01*
X009137Y011300D01*
X009122Y011356D01*
X009093Y011406D01*
X009052Y011447D01*
X009002Y011476D01*
X008946Y011491D01*
X008720Y011491D01*
X008494Y011491D01*
X008438Y011476D01*
X008388Y011447D01*
X008347Y011406D01*
X008318Y011356D01*
X008303Y011300D01*
X008303Y011055D01*
X008720Y011055D01*
X008720Y011491D01*
X008720Y011055D01*
X008720Y011055D01*
X008720Y011055D01*
X009137Y011055D01*
X008720Y011055D01*
X008720Y011055D01*
X008881Y011047D01*
X009078Y010850D01*
X010063Y010850D01*
X010220Y010820D01*
X010259Y010850D01*
X011637Y010850D01*
X011720Y010820D01*
X011834Y010850D01*
X012228Y010850D01*
X014393Y013015D01*
X014393Y013606D01*
X014470Y013690D01*
X014000Y013803D02*
X013970Y013690D01*
X014000Y013803D02*
X013409Y013803D01*
X013470Y013690D01*
X013409Y013803D02*
X012228Y014984D01*
X012228Y015936D01*
X012850Y016559D01*
X018527Y016559D01*
X018921Y016165D01*
X018921Y019036D01*
X019199Y019314D01*
X021480Y019314D01*
X021677Y019118D01*
X025220Y019118D01*
X021086Y018527D02*
X021086Y017740D01*
X020889Y017543D01*
X021055Y016720D02*
X021086Y016559D01*
X025811Y011834D01*
X023055Y010063D02*
X023055Y001598D01*
X022933Y001555D01*
X022933Y000885D02*
X023055Y000811D01*
X024433Y000811D01*
X024433Y001200D01*
X024665Y001795D02*
X024433Y002027D01*
X024665Y001795D02*
X025614Y001795D01*
X032047Y007137D02*
X032897Y007137D01*
X021480Y011424D02*
X021292Y011424D01*
X021292Y010892D01*
X021148Y010892D01*
X021148Y010850D01*
X019792Y010850D01*
X019792Y010892D01*
X020432Y010892D01*
X020432Y011233D01*
X020417Y011289D01*
X020388Y011339D01*
X020347Y011380D01*
X020297Y011409D01*
X020241Y011424D01*
X019792Y011424D01*
X019792Y010892D01*
X019648Y010892D01*
X019648Y010850D01*
X018637Y010850D01*
X018637Y011055D01*
X018637Y011300D01*
X018622Y011356D01*
X018593Y011406D01*
X018552Y011447D01*
X018502Y011476D01*
X018446Y011491D01*
X018220Y011491D01*
X017994Y011491D01*
X017938Y011476D01*
X017888Y011447D01*
X017847Y011406D01*
X017818Y011356D01*
X017803Y011300D01*
X017803Y011055D01*
X018220Y011055D01*
X018220Y011491D01*
X018220Y011055D01*
X018220Y011055D01*
X018637Y011055D01*
X018220Y011055D01*
X018220Y011055D01*
X018220Y011055D01*
X018330Y011047D01*
X019708Y011047D01*
X019708Y010850D01*
X019720Y010820D01*
X019905Y010850D01*
X021086Y010850D01*
X021220Y010820D01*
X021148Y010892D02*
X020508Y010892D01*
X020508Y011233D01*
X020523Y011289D01*
X020552Y011339D01*
X020593Y011380D01*
X020643Y011409D01*
X020699Y011424D01*
X021148Y011424D01*
X021148Y010892D01*
X021148Y010953D02*
X021292Y010953D01*
X021292Y011191D02*
X021148Y011191D01*
X021480Y011424D02*
X021480Y012262D01*
X020923Y012818D01*
X015737Y012818D01*
X015181Y012262D01*
X015181Y010850D01*
X014393Y010063D01*
X014393Y008488D01*
X014601Y008488D01*
X016803Y010690D01*
X016803Y010693D01*
X016835Y010725D01*
X016818Y010753D01*
X016803Y010809D01*
X016803Y011055D01*
X017220Y011055D01*
X017220Y011491D01*
X016994Y011491D01*
X016938Y011476D01*
X016888Y011447D01*
X016847Y011406D01*
X016818Y011356D01*
X016803Y011300D01*
X016803Y011055D01*
X017220Y011055D01*
X017220Y011055D01*
X017220Y011491D01*
X017446Y011491D01*
X017502Y011476D01*
X017552Y011447D01*
X017593Y011406D01*
X017622Y011356D01*
X017637Y011300D01*
X017637Y011055D01*
X017220Y011055D01*
X017220Y011055D01*
X017220Y011055D01*
X017149Y011244D01*
X014196Y008291D01*
X014393Y008568D02*
X014681Y008568D01*
X014919Y008806D02*
X014393Y008806D01*
X014393Y009045D02*
X015158Y009045D01*
X015396Y009283D02*
X014393Y009283D01*
X014393Y009522D02*
X015635Y009522D01*
X015873Y009760D02*
X014393Y009760D01*
X014393Y009999D02*
X016112Y009999D01*
X016350Y010237D02*
X014568Y010237D01*
X014806Y010476D02*
X016589Y010476D01*
X016824Y010714D02*
X015045Y010714D01*
X015181Y010953D02*
X016803Y010953D01*
X016803Y011191D02*
X015181Y011191D01*
X015181Y011430D02*
X016870Y011430D01*
X017149Y011440D02*
X017149Y011244D01*
X017220Y011191D02*
X017220Y011191D01*
X017220Y011055D02*
X017346Y011047D01*
X018133Y011047D01*
X018220Y011055D01*
X017803Y011055D01*
X017803Y010850D01*
X017637Y010850D01*
X017637Y011055D01*
X017220Y011055D01*
X017220Y011430D02*
X017220Y011430D01*
X017149Y011440D02*
X014984Y013606D01*
X014970Y013690D01*
X015968Y013803D02*
X014885Y014866D01*
X014492Y015259D01*
X014472Y015555D01*
X014470Y015750D01*
X014000Y015771D02*
X013970Y015750D01*
X014000Y015771D02*
X013409Y015771D01*
X013470Y015750D01*
X013409Y015574D01*
X012818Y015574D01*
X014970Y015750D02*
X014984Y015574D01*
X015771Y014787D01*
X018330Y014787D01*
X018385Y014720D01*
X018330Y014787D02*
X018330Y015968D01*
X018921Y016165D02*
X019118Y015968D01*
X019118Y014787D01*
X019055Y014720D01*
X019118Y014590D01*
X019118Y013803D01*
X019055Y013720D01*
X018385Y013720D02*
X018330Y013803D01*
X016775Y013803D01*
X015541Y012622D02*
X021119Y012622D01*
X021358Y012384D02*
X015302Y012384D01*
X015181Y012145D02*
X021480Y012145D01*
X021480Y011907D02*
X015181Y011907D01*
X015181Y011668D02*
X021480Y011668D01*
X021480Y011430D02*
X018570Y011430D01*
X018637Y011191D02*
X019008Y011191D01*
X019008Y011233D02*
X019008Y010892D01*
X019648Y010892D01*
X019648Y011424D01*
X019199Y011424D01*
X019143Y011409D01*
X019093Y011380D01*
X019052Y011339D01*
X019023Y011289D01*
X019008Y011233D01*
X019008Y010953D02*
X018637Y010953D01*
X018220Y011191D02*
X018220Y011191D01*
X018220Y011430D02*
X018220Y011430D01*
X017870Y011430D02*
X017570Y011430D01*
X017637Y011191D02*
X017803Y011191D01*
X017803Y010953D02*
X017637Y010953D01*
X019648Y010953D02*
X019792Y010953D01*
X019792Y011191D02*
X019648Y011191D01*
X020432Y011191D02*
X020508Y011191D01*
X020508Y010953D02*
X020432Y010953D01*
X014393Y011430D02*
X009070Y011430D01*
X009137Y011191D02*
X009508Y011191D01*
X009508Y011233D02*
X009508Y010892D01*
X010148Y010892D01*
X010148Y011424D01*
X009699Y011424D01*
X009643Y011409D01*
X009593Y011380D01*
X009552Y011339D01*
X009523Y011289D01*
X009508Y011233D01*
X009508Y010953D02*
X009137Y010953D01*
X008720Y011055D02*
X008685Y011047D01*
X007897Y011047D01*
X007720Y011055D01*
X007720Y011491D01*
X007494Y011491D01*
X007438Y011476D01*
X007388Y011447D01*
X007347Y011406D01*
X007318Y011356D01*
X007303Y011300D01*
X007303Y011055D01*
X007720Y011055D01*
X007720Y011055D01*
X007720Y011491D01*
X007946Y011491D01*
X008002Y011476D01*
X008052Y011447D01*
X008093Y011406D01*
X008122Y011356D01*
X008137Y011300D01*
X008137Y011055D01*
X007720Y011055D01*
X007720Y011055D01*
X007720Y011055D01*
X007700Y011047D01*
X006716Y011047D01*
X005732Y010063D01*
X006766Y009522D02*
X003370Y009522D01*
X003370Y009760D02*
X006913Y009760D01*
X006913Y009669D02*
X005732Y008488D01*
X003763Y008488D01*
X003370Y008881D01*
X003684Y008568D02*
X005812Y008568D01*
X006126Y008291D02*
X007260Y008291D01*
X007700Y008731D01*
X007700Y009669D01*
X007700Y010259D01*
X007720Y010385D01*
X007897Y010456D01*
X008685Y010456D01*
X008720Y010385D01*
X008881Y010259D01*
X009472Y010259D01*
X010063Y009669D01*
X010220Y009620D01*
X010259Y009669D01*
X011637Y009669D01*
X011720Y009620D01*
X011834Y009472D01*
X013212Y008094D01*
X013803Y006913D02*
X013720Y006826D01*
X013803Y006913D02*
X014393Y006913D01*
X014393Y004748D02*
X014393Y003960D01*
X014000Y003566D01*
X013933Y003523D01*
X013933Y002854D02*
X014000Y002779D01*
X014000Y001992D01*
X014196Y001795D01*
X014385Y001996D01*
X014385Y001169D02*
X014196Y000811D01*
X013212Y000811D01*
X005338Y006913D02*
X004354Y006913D01*
X004220Y006826D01*
X004220Y007614D02*
X004354Y007700D01*
X005535Y007700D01*
X006126Y008291D01*
X006913Y009669D02*
X006913Y010293D01*
X007303Y010683D01*
X007303Y010693D01*
X007335Y010725D01*
X007318Y010753D01*
X007303Y010809D01*
X007303Y011055D01*
X007720Y011055D01*
X008137Y011055D01*
X008137Y010850D01*
X008303Y010850D01*
X008303Y011055D01*
X008720Y011055D01*
X008720Y011191D02*
X008720Y011191D01*
X008720Y011430D02*
X008720Y011430D01*
X008370Y011430D02*
X008070Y011430D01*
X008137Y011191D02*
X008303Y011191D01*
X008303Y010953D02*
X008137Y010953D01*
X007720Y011191D02*
X007720Y011191D01*
X007720Y011430D02*
X007720Y011430D01*
X007370Y011430D02*
X004502Y011430D01*
X004263Y011191D02*
X007303Y011191D01*
X007303Y010953D02*
X004025Y010953D01*
X003786Y010714D02*
X007324Y010714D01*
X007095Y010476D02*
X003548Y010476D01*
X003370Y010237D02*
X006913Y010237D01*
X006913Y009999D02*
X003370Y009999D01*
X004740Y011668D02*
X014393Y011668D01*
X014393Y011907D02*
X004979Y011907D01*
X005217Y012145D02*
X014393Y012145D01*
X014271Y012384D02*
X005456Y012384D01*
X005694Y012622D02*
X014033Y012622D01*
X014178Y011191D02*
X012432Y011191D01*
X012432Y010953D02*
X013939Y010953D01*
X011792Y010953D02*
X011648Y010953D01*
X011648Y010892D02*
X011648Y011424D01*
X011199Y011424D01*
X011143Y011409D01*
X011093Y011380D01*
X011052Y011339D01*
X011023Y011289D01*
X011008Y011233D01*
X011008Y010892D01*
X011648Y010892D01*
X011648Y011191D02*
X011792Y011191D01*
X011008Y011191D02*
X010932Y011191D01*
X010932Y010953D02*
X011008Y010953D01*
X010292Y010953D02*
X010148Y010953D01*
X010148Y011191D02*
X010292Y011191D01*
X020299Y016755D02*
X020385Y016720D01*
X020299Y016755D02*
X020299Y018527D01*
X020385Y018720D01*
X020299Y018724D01*
X019511Y018724D01*
X021055Y018720D02*
X021086Y018527D01*
D25*
X019511Y018724D03*
X020889Y017543D03*
X018330Y015968D03*
X016775Y013803D03*
X012818Y015574D03*
X007700Y009669D03*
X006913Y008881D03*
X005338Y006913D03*
X014196Y008291D03*
X014393Y006913D03*
X014393Y004748D03*
X023055Y010063D03*
X024826Y005732D03*
X028763Y014787D03*
X025220Y019118D03*
D26*
X016775Y013803D02*
X015968Y013803D01*
X031716Y004732D02*
X031716Y004066D01*
X030098Y002448D01*
D27*
X002189Y002189D03*
X002189Y017937D03*
X033685Y017937D03*
X033685Y002189D03*
M02*
