G75*
G70*
%OFA0B0*%
%FSLAX24Y24*%
%IPPOS*%
%LPD*%
%AMOC8*
5,1,8,0,0,1.08239X$1,22.5*
%
%ADD10C,0.0000*%
%ADD11R,0.1024X0.1417*%
%ADD12R,0.0276X0.0472*%
%ADD13C,0.0476*%
%ADD14R,0.0827X0.0827*%
%ADD15C,0.1000*%
%ADD16R,0.0394X0.0433*%
%ADD17OC8,0.0700*%
%ADD18R,0.0700X0.0700*%
%ADD19R,0.0433X0.0394*%
%ADD20R,0.0600X0.0600*%
%ADD21OC8,0.0600*%
%ADD22C,0.0394*%
%ADD23C,0.0860*%
%ADD24C,0.0240*%
%ADD25C,0.0660*%
%ADD26C,0.0240*%
%ADD27C,0.0120*%
%ADD28C,0.1000*%
%ADD29C,0.0100*%
%ADD30C,0.0320*%
%ADD31C,0.0160*%
%ADD32C,0.0060*%
%ADD33R,0.1778X0.1778*%
%ADD34C,0.0560*%
%ADD35C,0.0500*%
%ADD36C,0.0063*%
%ADD37C,0.0906*%
D10*
X002964Y004456D02*
X002964Y035952D01*
X042334Y035952D01*
X042334Y004456D01*
X002964Y004456D01*
X030916Y024452D02*
X030918Y024500D01*
X030924Y024548D01*
X030934Y024595D01*
X030947Y024641D01*
X030965Y024686D01*
X030985Y024730D01*
X031010Y024772D01*
X031038Y024811D01*
X031068Y024848D01*
X031102Y024882D01*
X031139Y024914D01*
X031177Y024943D01*
X031218Y024968D01*
X031261Y024990D01*
X031306Y025008D01*
X031352Y025022D01*
X031399Y025033D01*
X031447Y025040D01*
X031495Y025043D01*
X031543Y025042D01*
X031591Y025037D01*
X031639Y025028D01*
X031685Y025016D01*
X031730Y024999D01*
X031774Y024979D01*
X031816Y024956D01*
X031856Y024929D01*
X031894Y024899D01*
X031929Y024866D01*
X031961Y024830D01*
X031991Y024792D01*
X032017Y024751D01*
X032039Y024708D01*
X032059Y024664D01*
X032074Y024619D01*
X032086Y024572D01*
X032094Y024524D01*
X032098Y024476D01*
X032098Y024428D01*
X032094Y024380D01*
X032086Y024332D01*
X032074Y024285D01*
X032059Y024240D01*
X032039Y024196D01*
X032017Y024153D01*
X031991Y024112D01*
X031961Y024074D01*
X031929Y024038D01*
X031894Y024005D01*
X031856Y023975D01*
X031816Y023948D01*
X031774Y023925D01*
X031730Y023905D01*
X031685Y023888D01*
X031639Y023876D01*
X031591Y023867D01*
X031543Y023862D01*
X031495Y023861D01*
X031447Y023864D01*
X031399Y023871D01*
X031352Y023882D01*
X031306Y023896D01*
X031261Y023914D01*
X031218Y023936D01*
X031177Y023961D01*
X031139Y023990D01*
X031102Y024022D01*
X031068Y024056D01*
X031038Y024093D01*
X031010Y024132D01*
X030985Y024174D01*
X030965Y024218D01*
X030947Y024263D01*
X030934Y024309D01*
X030924Y024356D01*
X030918Y024404D01*
X030916Y024452D01*
X030916Y031145D02*
X030918Y031193D01*
X030924Y031241D01*
X030934Y031288D01*
X030947Y031334D01*
X030965Y031379D01*
X030985Y031423D01*
X031010Y031465D01*
X031038Y031504D01*
X031068Y031541D01*
X031102Y031575D01*
X031139Y031607D01*
X031177Y031636D01*
X031218Y031661D01*
X031261Y031683D01*
X031306Y031701D01*
X031352Y031715D01*
X031399Y031726D01*
X031447Y031733D01*
X031495Y031736D01*
X031543Y031735D01*
X031591Y031730D01*
X031639Y031721D01*
X031685Y031709D01*
X031730Y031692D01*
X031774Y031672D01*
X031816Y031649D01*
X031856Y031622D01*
X031894Y031592D01*
X031929Y031559D01*
X031961Y031523D01*
X031991Y031485D01*
X032017Y031444D01*
X032039Y031401D01*
X032059Y031357D01*
X032074Y031312D01*
X032086Y031265D01*
X032094Y031217D01*
X032098Y031169D01*
X032098Y031121D01*
X032094Y031073D01*
X032086Y031025D01*
X032074Y030978D01*
X032059Y030933D01*
X032039Y030889D01*
X032017Y030846D01*
X031991Y030805D01*
X031961Y030767D01*
X031929Y030731D01*
X031894Y030698D01*
X031856Y030668D01*
X031816Y030641D01*
X031774Y030618D01*
X031730Y030598D01*
X031685Y030581D01*
X031639Y030569D01*
X031591Y030560D01*
X031543Y030555D01*
X031495Y030554D01*
X031447Y030557D01*
X031399Y030564D01*
X031352Y030575D01*
X031306Y030589D01*
X031261Y030607D01*
X031218Y030629D01*
X031177Y030654D01*
X031139Y030683D01*
X031102Y030715D01*
X031068Y030749D01*
X031038Y030786D01*
X031010Y030825D01*
X030985Y030867D01*
X030965Y030911D01*
X030947Y030956D01*
X030934Y031002D01*
X030924Y031049D01*
X030918Y031097D01*
X030916Y031145D01*
X026826Y033393D02*
X026828Y033447D01*
X026834Y033501D01*
X026844Y033555D01*
X026858Y033607D01*
X026875Y033659D01*
X026896Y033709D01*
X026921Y033757D01*
X026950Y033804D01*
X026981Y033848D01*
X027016Y033889D01*
X027054Y033929D01*
X027094Y033965D01*
X027137Y033998D01*
X027182Y034028D01*
X027230Y034055D01*
X027279Y034078D01*
X027330Y034097D01*
X027382Y034113D01*
X027435Y034125D01*
X027489Y034133D01*
X027543Y034137D01*
X027597Y034137D01*
X027651Y034133D01*
X027705Y034125D01*
X027758Y034113D01*
X027810Y034097D01*
X027861Y034078D01*
X027910Y034055D01*
X027958Y034028D01*
X028003Y033998D01*
X028046Y033965D01*
X028086Y033929D01*
X028124Y033889D01*
X028159Y033848D01*
X028190Y033804D01*
X028219Y033757D01*
X028244Y033709D01*
X028265Y033659D01*
X028282Y033607D01*
X028296Y033555D01*
X028306Y033501D01*
X028312Y033447D01*
X028314Y033393D01*
X028312Y033339D01*
X028306Y033285D01*
X028296Y033231D01*
X028282Y033179D01*
X028265Y033127D01*
X028244Y033077D01*
X028219Y033029D01*
X028190Y032982D01*
X028159Y032938D01*
X028124Y032897D01*
X028086Y032857D01*
X028046Y032821D01*
X028003Y032788D01*
X027958Y032758D01*
X027910Y032731D01*
X027861Y032708D01*
X027810Y032689D01*
X027758Y032673D01*
X027705Y032661D01*
X027651Y032653D01*
X027597Y032649D01*
X027543Y032649D01*
X027489Y032653D01*
X027435Y032661D01*
X027382Y032673D01*
X027330Y032689D01*
X027279Y032708D01*
X027230Y032731D01*
X027182Y032758D01*
X027137Y032788D01*
X027094Y032821D01*
X027054Y032857D01*
X027016Y032897D01*
X026981Y032938D01*
X026950Y032982D01*
X026921Y033029D01*
X026896Y033077D01*
X026875Y033127D01*
X026858Y033179D01*
X026844Y033231D01*
X026834Y033285D01*
X026828Y033339D01*
X026826Y033393D01*
X022569Y032885D02*
X022571Y032933D01*
X022577Y032981D01*
X022587Y033028D01*
X022600Y033074D01*
X022618Y033119D01*
X022638Y033163D01*
X022663Y033205D01*
X022691Y033244D01*
X022721Y033281D01*
X022755Y033315D01*
X022792Y033347D01*
X022830Y033376D01*
X022871Y033401D01*
X022914Y033423D01*
X022959Y033441D01*
X023005Y033455D01*
X023052Y033466D01*
X023100Y033473D01*
X023148Y033476D01*
X023196Y033475D01*
X023244Y033470D01*
X023292Y033461D01*
X023338Y033449D01*
X023383Y033432D01*
X023427Y033412D01*
X023469Y033389D01*
X023509Y033362D01*
X023547Y033332D01*
X023582Y033299D01*
X023614Y033263D01*
X023644Y033225D01*
X023670Y033184D01*
X023692Y033141D01*
X023712Y033097D01*
X023727Y033052D01*
X023739Y033005D01*
X023747Y032957D01*
X023751Y032909D01*
X023751Y032861D01*
X023747Y032813D01*
X023739Y032765D01*
X023727Y032718D01*
X023712Y032673D01*
X023692Y032629D01*
X023670Y032586D01*
X023644Y032545D01*
X023614Y032507D01*
X023582Y032471D01*
X023547Y032438D01*
X023509Y032408D01*
X023469Y032381D01*
X023427Y032358D01*
X023383Y032338D01*
X023338Y032321D01*
X023292Y032309D01*
X023244Y032300D01*
X023196Y032295D01*
X023148Y032294D01*
X023100Y032297D01*
X023052Y032304D01*
X023005Y032315D01*
X022959Y032329D01*
X022914Y032347D01*
X022871Y032369D01*
X022830Y032394D01*
X022792Y032423D01*
X022755Y032455D01*
X022721Y032489D01*
X022691Y032526D01*
X022663Y032565D01*
X022638Y032607D01*
X022618Y032651D01*
X022600Y032696D01*
X022587Y032742D01*
X022577Y032789D01*
X022571Y032837D01*
X022569Y032885D01*
X017215Y032885D02*
X017217Y032933D01*
X017223Y032981D01*
X017233Y033028D01*
X017246Y033074D01*
X017264Y033119D01*
X017284Y033163D01*
X017309Y033205D01*
X017337Y033244D01*
X017367Y033281D01*
X017401Y033315D01*
X017438Y033347D01*
X017476Y033376D01*
X017517Y033401D01*
X017560Y033423D01*
X017605Y033441D01*
X017651Y033455D01*
X017698Y033466D01*
X017746Y033473D01*
X017794Y033476D01*
X017842Y033475D01*
X017890Y033470D01*
X017938Y033461D01*
X017984Y033449D01*
X018029Y033432D01*
X018073Y033412D01*
X018115Y033389D01*
X018155Y033362D01*
X018193Y033332D01*
X018228Y033299D01*
X018260Y033263D01*
X018290Y033225D01*
X018316Y033184D01*
X018338Y033141D01*
X018358Y033097D01*
X018373Y033052D01*
X018385Y033005D01*
X018393Y032957D01*
X018397Y032909D01*
X018397Y032861D01*
X018393Y032813D01*
X018385Y032765D01*
X018373Y032718D01*
X018358Y032673D01*
X018338Y032629D01*
X018316Y032586D01*
X018290Y032545D01*
X018260Y032507D01*
X018228Y032471D01*
X018193Y032438D01*
X018155Y032408D01*
X018115Y032381D01*
X018073Y032358D01*
X018029Y032338D01*
X017984Y032321D01*
X017938Y032309D01*
X017890Y032300D01*
X017842Y032295D01*
X017794Y032294D01*
X017746Y032297D01*
X017698Y032304D01*
X017651Y032315D01*
X017605Y032329D01*
X017560Y032347D01*
X017517Y032369D01*
X017476Y032394D01*
X017438Y032423D01*
X017401Y032455D01*
X017367Y032489D01*
X017337Y032526D01*
X017309Y032565D01*
X017284Y032607D01*
X017264Y032651D01*
X017246Y032696D01*
X017233Y032742D01*
X017223Y032789D01*
X017217Y032837D01*
X017215Y032885D01*
X035758Y017956D02*
X035760Y018004D01*
X035766Y018052D01*
X035776Y018099D01*
X035789Y018145D01*
X035807Y018190D01*
X035827Y018234D01*
X035852Y018276D01*
X035880Y018315D01*
X035910Y018352D01*
X035944Y018386D01*
X035981Y018418D01*
X036019Y018447D01*
X036060Y018472D01*
X036103Y018494D01*
X036148Y018512D01*
X036194Y018526D01*
X036241Y018537D01*
X036289Y018544D01*
X036337Y018547D01*
X036385Y018546D01*
X036433Y018541D01*
X036481Y018532D01*
X036527Y018520D01*
X036572Y018503D01*
X036616Y018483D01*
X036658Y018460D01*
X036698Y018433D01*
X036736Y018403D01*
X036771Y018370D01*
X036803Y018334D01*
X036833Y018296D01*
X036859Y018255D01*
X036881Y018212D01*
X036901Y018168D01*
X036916Y018123D01*
X036928Y018076D01*
X036936Y018028D01*
X036940Y017980D01*
X036940Y017932D01*
X036936Y017884D01*
X036928Y017836D01*
X036916Y017789D01*
X036901Y017744D01*
X036881Y017700D01*
X036859Y017657D01*
X036833Y017616D01*
X036803Y017578D01*
X036771Y017542D01*
X036736Y017509D01*
X036698Y017479D01*
X036658Y017452D01*
X036616Y017429D01*
X036572Y017409D01*
X036527Y017392D01*
X036481Y017380D01*
X036433Y017371D01*
X036385Y017366D01*
X036337Y017365D01*
X036289Y017368D01*
X036241Y017375D01*
X036194Y017386D01*
X036148Y017400D01*
X036103Y017418D01*
X036060Y017440D01*
X036019Y017465D01*
X035981Y017494D01*
X035944Y017526D01*
X035910Y017560D01*
X035880Y017597D01*
X035852Y017636D01*
X035827Y017678D01*
X035807Y017722D01*
X035789Y017767D01*
X035776Y017813D01*
X035766Y017860D01*
X035760Y017908D01*
X035758Y017956D01*
X039459Y017956D02*
X039461Y018004D01*
X039467Y018052D01*
X039477Y018099D01*
X039490Y018145D01*
X039508Y018190D01*
X039528Y018234D01*
X039553Y018276D01*
X039581Y018315D01*
X039611Y018352D01*
X039645Y018386D01*
X039682Y018418D01*
X039720Y018447D01*
X039761Y018472D01*
X039804Y018494D01*
X039849Y018512D01*
X039895Y018526D01*
X039942Y018537D01*
X039990Y018544D01*
X040038Y018547D01*
X040086Y018546D01*
X040134Y018541D01*
X040182Y018532D01*
X040228Y018520D01*
X040273Y018503D01*
X040317Y018483D01*
X040359Y018460D01*
X040399Y018433D01*
X040437Y018403D01*
X040472Y018370D01*
X040504Y018334D01*
X040534Y018296D01*
X040560Y018255D01*
X040582Y018212D01*
X040602Y018168D01*
X040617Y018123D01*
X040629Y018076D01*
X040637Y018028D01*
X040641Y017980D01*
X040641Y017932D01*
X040637Y017884D01*
X040629Y017836D01*
X040617Y017789D01*
X040602Y017744D01*
X040582Y017700D01*
X040560Y017657D01*
X040534Y017616D01*
X040504Y017578D01*
X040472Y017542D01*
X040437Y017509D01*
X040399Y017479D01*
X040359Y017452D01*
X040317Y017429D01*
X040273Y017409D01*
X040228Y017392D01*
X040182Y017380D01*
X040134Y017371D01*
X040086Y017366D01*
X040038Y017365D01*
X039990Y017368D01*
X039942Y017375D01*
X039895Y017386D01*
X039849Y017400D01*
X039804Y017418D01*
X039761Y017440D01*
X039720Y017465D01*
X039682Y017494D01*
X039645Y017526D01*
X039611Y017560D01*
X039581Y017597D01*
X039553Y017636D01*
X039528Y017678D01*
X039508Y017722D01*
X039490Y017767D01*
X039477Y017813D01*
X039467Y017860D01*
X039461Y017908D01*
X039459Y017956D01*
X039577Y024452D02*
X039579Y024500D01*
X039585Y024548D01*
X039595Y024595D01*
X039608Y024641D01*
X039626Y024686D01*
X039646Y024730D01*
X039671Y024772D01*
X039699Y024811D01*
X039729Y024848D01*
X039763Y024882D01*
X039800Y024914D01*
X039838Y024943D01*
X039879Y024968D01*
X039922Y024990D01*
X039967Y025008D01*
X040013Y025022D01*
X040060Y025033D01*
X040108Y025040D01*
X040156Y025043D01*
X040204Y025042D01*
X040252Y025037D01*
X040300Y025028D01*
X040346Y025016D01*
X040391Y024999D01*
X040435Y024979D01*
X040477Y024956D01*
X040517Y024929D01*
X040555Y024899D01*
X040590Y024866D01*
X040622Y024830D01*
X040652Y024792D01*
X040678Y024751D01*
X040700Y024708D01*
X040720Y024664D01*
X040735Y024619D01*
X040747Y024572D01*
X040755Y024524D01*
X040759Y024476D01*
X040759Y024428D01*
X040755Y024380D01*
X040747Y024332D01*
X040735Y024285D01*
X040720Y024240D01*
X040700Y024196D01*
X040678Y024153D01*
X040652Y024112D01*
X040622Y024074D01*
X040590Y024038D01*
X040555Y024005D01*
X040517Y023975D01*
X040477Y023948D01*
X040435Y023925D01*
X040391Y023905D01*
X040346Y023888D01*
X040300Y023876D01*
X040252Y023867D01*
X040204Y023862D01*
X040156Y023861D01*
X040108Y023864D01*
X040060Y023871D01*
X040013Y023882D01*
X039967Y023896D01*
X039922Y023914D01*
X039879Y023936D01*
X039838Y023961D01*
X039800Y023990D01*
X039763Y024022D01*
X039729Y024056D01*
X039699Y024093D01*
X039671Y024132D01*
X039646Y024174D01*
X039626Y024218D01*
X039608Y024263D01*
X039595Y024309D01*
X039585Y024356D01*
X039579Y024404D01*
X039577Y024452D01*
X039577Y031145D02*
X039579Y031193D01*
X039585Y031241D01*
X039595Y031288D01*
X039608Y031334D01*
X039626Y031379D01*
X039646Y031423D01*
X039671Y031465D01*
X039699Y031504D01*
X039729Y031541D01*
X039763Y031575D01*
X039800Y031607D01*
X039838Y031636D01*
X039879Y031661D01*
X039922Y031683D01*
X039967Y031701D01*
X040013Y031715D01*
X040060Y031726D01*
X040108Y031733D01*
X040156Y031736D01*
X040204Y031735D01*
X040252Y031730D01*
X040300Y031721D01*
X040346Y031709D01*
X040391Y031692D01*
X040435Y031672D01*
X040477Y031649D01*
X040517Y031622D01*
X040555Y031592D01*
X040590Y031559D01*
X040622Y031523D01*
X040652Y031485D01*
X040678Y031444D01*
X040700Y031401D01*
X040720Y031357D01*
X040735Y031312D01*
X040747Y031265D01*
X040755Y031217D01*
X040759Y031169D01*
X040759Y031121D01*
X040755Y031073D01*
X040747Y031025D01*
X040735Y030978D01*
X040720Y030933D01*
X040700Y030889D01*
X040678Y030846D01*
X040652Y030805D01*
X040622Y030767D01*
X040590Y030731D01*
X040555Y030698D01*
X040517Y030668D01*
X040477Y030641D01*
X040435Y030618D01*
X040391Y030598D01*
X040346Y030581D01*
X040300Y030569D01*
X040252Y030560D01*
X040204Y030555D01*
X040156Y030554D01*
X040108Y030557D01*
X040060Y030564D01*
X040013Y030575D01*
X039967Y030589D01*
X039922Y030607D01*
X039879Y030629D01*
X039838Y030654D01*
X039800Y030683D01*
X039763Y030715D01*
X039729Y030749D01*
X039699Y030786D01*
X039671Y030825D01*
X039646Y030867D01*
X039626Y030911D01*
X039608Y030956D01*
X039595Y031002D01*
X039585Y031049D01*
X039579Y031097D01*
X039577Y031145D01*
D11*
X015621Y031622D03*
X004086Y031622D03*
D12*
X004105Y028098D03*
X004105Y026641D03*
D13*
X034710Y011649D03*
X034710Y011149D03*
X034710Y010649D03*
D14*
X038200Y015972D03*
X038200Y018137D03*
X038318Y022468D03*
X036664Y022468D03*
X035011Y022468D03*
X033357Y022468D03*
X033357Y024633D03*
X035011Y024633D03*
X036664Y024633D03*
X038318Y024633D03*
X038318Y029161D03*
X036664Y029161D03*
X035011Y029161D03*
X033357Y029161D03*
X033357Y031326D03*
X035011Y031326D03*
X036664Y031326D03*
X038318Y031326D03*
X021310Y032704D03*
X019656Y032704D03*
X019656Y034870D03*
X021310Y034870D03*
D15*
X026070Y034074D03*
X029070Y032712D03*
D16*
X022255Y021326D03*
X022255Y020657D03*
X011625Y012271D03*
X011625Y011602D03*
X010641Y011602D03*
X010641Y012271D03*
X009775Y012271D03*
X009775Y011602D03*
D17*
X020936Y016366D03*
X021936Y016366D03*
X022936Y016366D03*
X023936Y016366D03*
X024936Y016366D03*
D18*
X025936Y016366D03*
D19*
X023574Y017724D03*
X022905Y017724D03*
X022905Y018531D03*
X023574Y018531D03*
X008613Y011346D03*
X007944Y011346D03*
X007944Y010362D03*
X008613Y010362D03*
X008613Y009378D03*
X007944Y009378D03*
D20*
X014094Y020476D03*
D21*
X013094Y020476D03*
X013094Y021476D03*
X014094Y021476D03*
X014094Y022476D03*
X013094Y022476D03*
X013094Y023476D03*
X014094Y023476D03*
D22*
X017531Y018433D03*
X010247Y016661D03*
D23*
X021271Y009181D02*
X021271Y008590D01*
X021271Y006518D01*
X022151Y005637D01*
X030129Y005637D01*
X033357Y022468D02*
X033357Y023354D01*
X033357Y024633D01*
X038318Y024633D02*
X038318Y022468D01*
X038318Y029161D02*
X038318Y031326D01*
X033357Y031326D02*
X033357Y029161D01*
D24*
X032491Y029063D03*
X033279Y027881D03*
X033279Y027291D03*
X032491Y026996D03*
X030916Y027685D03*
X030523Y027685D03*
X030129Y027685D03*
X029342Y028118D03*
X029420Y028708D03*
X029637Y029456D03*
X028554Y029259D03*
X028200Y029259D03*
X028554Y030047D03*
X028436Y030874D03*
X027668Y030834D03*
X026034Y029732D03*
X025483Y029968D03*
X024735Y030204D03*
X022845Y029535D03*
X022452Y028866D03*
X022058Y028866D03*
X021664Y028866D03*
X021271Y028866D03*
X020877Y028866D03*
X020483Y028866D03*
X020483Y028472D03*
X020877Y028472D03*
X021271Y028472D03*
X021664Y028472D03*
X021664Y028078D03*
X021664Y027685D03*
X021664Y027291D03*
X021664Y026897D03*
X021271Y026897D03*
X021271Y026504D03*
X021664Y026504D03*
X022058Y026504D03*
X022058Y026897D03*
X022452Y026897D03*
X022452Y026504D03*
X022885Y027094D03*
X022452Y027291D03*
X022452Y027685D03*
X022452Y028078D03*
X022058Y028078D03*
X022058Y027685D03*
X022058Y027291D03*
X020877Y026897D03*
X020877Y026504D03*
X020483Y026504D03*
X020483Y026897D03*
X020090Y026897D03*
X020090Y026504D03*
X019696Y026504D03*
X019696Y026897D03*
X019696Y027291D03*
X019696Y027685D03*
X019696Y028078D03*
X019302Y026110D03*
X019696Y025913D03*
X019735Y024693D03*
X021310Y025401D03*
X022176Y025165D03*
X022097Y024535D03*
X022727Y024299D03*
X021861Y023826D03*
X022019Y022881D03*
X022649Y022567D03*
X022885Y022803D03*
X022885Y023196D03*
X023475Y022763D03*
X024184Y022488D03*
X024499Y023078D03*
X025090Y022724D03*
X025562Y022881D03*
X025326Y023196D03*
X026271Y022724D03*
X026428Y023196D03*
X026743Y023118D03*
X026349Y023669D03*
X025719Y024102D03*
X025877Y024574D03*
X025090Y024102D03*
X025050Y024574D03*
X024420Y024653D03*
X023830Y025322D03*
X025326Y025913D03*
X026586Y026110D03*
X026979Y025716D03*
X027294Y025677D03*
X027531Y026346D03*
X027294Y026582D03*
X026349Y027173D03*
X025719Y027606D03*
X024066Y026819D03*
X023830Y026622D03*
X023239Y027646D03*
X022452Y028472D03*
X022058Y028472D03*
X020247Y030244D03*
X020286Y030834D03*
X019893Y030834D03*
X019893Y031228D03*
X020286Y031228D03*
X020680Y031228D03*
X019499Y031228D03*
X019499Y030834D03*
X016940Y030637D03*
X016940Y030244D03*
X016940Y031031D03*
X012412Y027094D03*
X014105Y026385D03*
X013160Y024456D03*
X015838Y023826D03*
X015838Y023275D03*
X016349Y022252D03*
X016120Y021372D03*
X015817Y021372D03*
X015514Y021372D03*
X015286Y022094D03*
X014735Y021858D03*
X015365Y020598D03*
X017531Y020204D03*
X018970Y021433D03*
X019273Y021433D03*
X019576Y021433D03*
X020582Y020696D03*
X020877Y020401D03*
X020286Y019712D03*
X020286Y019319D03*
X019499Y019673D03*
X019302Y018433D03*
X020286Y018433D03*
X021468Y018826D03*
X022097Y019732D03*
X023042Y019122D03*
X023338Y019023D03*
X023239Y020007D03*
X022649Y020696D03*
X022649Y021189D03*
X022491Y021819D03*
X022255Y022094D03*
X022019Y021897D03*
X023830Y021189D03*
X024420Y021779D03*
X024184Y022015D03*
X025405Y021543D03*
X025798Y022055D03*
X026034Y021819D03*
X026389Y021779D03*
X027294Y021858D03*
X027294Y021543D03*
X027294Y021110D03*
X027294Y020795D03*
X027885Y020834D03*
X027767Y021267D03*
X027531Y022291D03*
X027294Y022488D03*
X028003Y022448D03*
X027924Y023354D03*
X028003Y023748D03*
X027294Y023984D03*
X026625Y025165D03*
X030227Y025815D03*
X030227Y026110D03*
X030227Y026405D03*
X030523Y026405D03*
X030818Y026405D03*
X030818Y026110D03*
X030523Y026110D03*
X030523Y025815D03*
X030818Y025815D03*
X033357Y023354D03*
X031704Y022763D03*
X031704Y022370D03*
X031310Y022370D03*
X031310Y022763D03*
X032845Y021346D03*
X033082Y019811D03*
X033475Y019811D03*
X033869Y019811D03*
X033869Y018630D03*
X033475Y018630D03*
X033082Y018630D03*
X031901Y018630D03*
X030916Y020007D03*
X027668Y017547D03*
X027373Y017547D03*
X027078Y017547D03*
X027078Y017252D03*
X027373Y017252D03*
X027668Y017252D03*
X027668Y016956D03*
X027373Y016956D03*
X027078Y016956D03*
X026192Y017173D03*
X025700Y017311D03*
X025700Y017645D03*
X025483Y017921D03*
X025286Y018826D03*
X024538Y019259D03*
X025208Y019929D03*
X025168Y020874D03*
X025956Y020874D03*
X026428Y020874D03*
X026192Y020165D03*
X023987Y017921D03*
X022924Y017330D03*
X021664Y017055D03*
X023475Y016070D03*
X023436Y015283D03*
X023436Y014889D03*
X023042Y014889D03*
X022649Y014889D03*
X022649Y015283D03*
X023042Y015283D03*
X022255Y015283D03*
X022255Y014889D03*
X021861Y014889D03*
X021468Y014889D03*
X021468Y015283D03*
X021861Y015283D03*
X021074Y015283D03*
X021074Y014889D03*
X020680Y014889D03*
X020680Y014496D03*
X020286Y014496D03*
X020286Y014889D03*
X020286Y015283D03*
X020680Y015283D03*
X020680Y014102D03*
X020286Y014102D03*
X020286Y013708D03*
X020286Y013315D03*
X020680Y013315D03*
X020680Y013708D03*
X020680Y012921D03*
X020286Y012921D03*
X020286Y012527D03*
X020286Y012133D03*
X020680Y012133D03*
X020680Y012527D03*
X021861Y012330D03*
X022255Y012330D03*
X022649Y012330D03*
X023042Y012330D03*
X023042Y012724D03*
X022649Y012724D03*
X022255Y012724D03*
X021861Y012724D03*
X021861Y013118D03*
X022255Y013118D03*
X022649Y013118D03*
X023042Y013118D03*
X024223Y013315D03*
X024223Y013708D03*
X024223Y014102D03*
X024223Y014496D03*
X024223Y014889D03*
X023830Y014889D03*
X023830Y015283D03*
X024223Y015283D03*
X024617Y015283D03*
X024617Y014889D03*
X024617Y014496D03*
X024617Y014102D03*
X024617Y013708D03*
X024617Y013315D03*
X024617Y012921D03*
X024223Y012921D03*
X024223Y012527D03*
X021664Y009378D03*
X021271Y009378D03*
X020877Y009378D03*
X020877Y008984D03*
X021271Y008984D03*
X021664Y008984D03*
X021664Y008590D03*
X021271Y008590D03*
X020877Y008590D03*
X019499Y008787D03*
X019401Y007507D03*
X019401Y007212D03*
X019696Y007212D03*
X019696Y006917D03*
X019401Y006917D03*
X019105Y006917D03*
X019105Y007212D03*
X019105Y007507D03*
X019696Y007507D03*
X017727Y009181D03*
X017334Y009181D03*
X017334Y009574D03*
X017727Y009574D03*
X016153Y010952D03*
X016153Y011346D03*
X016153Y012133D03*
X016153Y012921D03*
X017727Y013905D03*
X016153Y015283D03*
X016349Y016267D03*
X016546Y017055D03*
X017531Y017055D03*
X017531Y016267D03*
X017924Y018236D03*
X019696Y016267D03*
X020719Y011267D03*
X023830Y007212D03*
X024223Y007212D03*
X024223Y006819D03*
X023830Y006819D03*
X021074Y005441D03*
X020680Y005441D03*
X020680Y005047D03*
X021074Y005047D03*
X013003Y008787D03*
X011330Y008689D03*
X011034Y008689D03*
X010247Y008689D03*
X009952Y008689D03*
X010149Y007409D03*
X010149Y007114D03*
X010149Y006819D03*
X009263Y006917D03*
X009263Y007212D03*
X008968Y007212D03*
X008968Y006917D03*
X008968Y006622D03*
X009263Y006622D03*
X008672Y006622D03*
X008672Y006917D03*
X008672Y007212D03*
X007885Y008787D03*
X011133Y007409D03*
X011133Y007114D03*
X011133Y006819D03*
X012609Y005834D03*
X011231Y005244D03*
X010050Y005244D03*
X005719Y005047D03*
X006507Y011740D03*
X006507Y012133D03*
X006901Y012133D03*
X006901Y011740D03*
X006901Y014496D03*
X006507Y014496D03*
X008475Y014693D03*
X008475Y015086D03*
X008475Y015480D03*
X008869Y015480D03*
X008869Y015086D03*
X008869Y014693D03*
X009263Y014693D03*
X009263Y015086D03*
X009656Y015086D03*
X009656Y014693D03*
X009656Y015480D03*
X009263Y015480D03*
X009460Y016464D03*
X009460Y016858D03*
X009853Y016858D03*
X010838Y017252D03*
X008672Y018630D03*
X008279Y018630D03*
X007885Y018630D03*
X007491Y018630D03*
X007294Y020007D03*
X006901Y020007D03*
X006901Y020401D03*
X007294Y020401D03*
X007294Y020795D03*
X006901Y020795D03*
X008869Y022763D03*
X011389Y021897D03*
X010444Y019811D03*
X013790Y018433D03*
X018318Y022074D03*
X016310Y025007D03*
X017609Y025165D03*
X010247Y030244D03*
X010247Y030637D03*
X009853Y030637D03*
X009853Y030244D03*
X009460Y030244D03*
X009460Y030637D03*
X009460Y031031D03*
X009853Y031031D03*
X010247Y031031D03*
X006901Y031031D03*
X006901Y032015D03*
X006901Y033000D03*
X008475Y033984D03*
X005916Y029456D03*
X005916Y029063D03*
X005916Y028669D03*
X005916Y028275D03*
X005916Y027881D03*
X005916Y027488D03*
X005011Y025519D03*
X005326Y024929D03*
X028948Y016267D03*
X029145Y016070D03*
X029342Y016267D03*
X029145Y016464D03*
X030011Y016740D03*
X032491Y016464D03*
X033082Y016858D03*
X031704Y014299D03*
X030011Y013944D03*
X030011Y013472D03*
X029342Y014299D03*
X032412Y011070D03*
X032412Y010795D03*
X032412Y010519D03*
X029932Y010559D03*
X029735Y010756D03*
X029538Y010559D03*
X029735Y010362D03*
X030326Y008000D03*
X030719Y008000D03*
X030719Y007606D03*
X030326Y007606D03*
X031113Y007606D03*
X031113Y008000D03*
X031507Y008000D03*
X031507Y007606D03*
X033279Y007803D03*
X033279Y008196D03*
X033279Y008590D03*
X034066Y008590D03*
X034460Y008590D03*
X034460Y008196D03*
X034460Y007803D03*
X034460Y007409D03*
X034066Y007409D03*
X033279Y007409D03*
X035641Y007409D03*
X036034Y007409D03*
X036034Y007015D03*
X035641Y007015D03*
X035641Y007803D03*
X036034Y007803D03*
X036034Y008196D03*
X035641Y008196D03*
X035641Y008590D03*
X036034Y008590D03*
X036034Y008984D03*
X035641Y008984D03*
X035641Y009378D03*
X035641Y009771D03*
X036034Y009771D03*
X036034Y009378D03*
X035247Y009378D03*
X035247Y009771D03*
X034853Y009771D03*
X034853Y009378D03*
X036034Y010165D03*
X036034Y010559D03*
X036034Y010952D03*
X036034Y011346D03*
X036034Y011740D03*
X036034Y012133D03*
X036034Y012527D03*
X035641Y012527D03*
X035641Y012921D03*
X036034Y012921D03*
X035247Y012921D03*
X034853Y012921D03*
X034853Y012527D03*
X035247Y012527D03*
X035641Y013905D03*
X036034Y013905D03*
X036428Y013905D03*
X037412Y019220D03*
X038200Y021189D03*
X038594Y021189D03*
X038987Y021189D03*
X039578Y025716D03*
X038003Y027173D03*
X036625Y027173D03*
X036625Y027881D03*
X035641Y027881D03*
X034853Y027881D03*
X034460Y027291D03*
X032255Y030401D03*
X029538Y030441D03*
X030562Y033315D03*
X031704Y033315D03*
X032885Y033196D03*
X034460Y033984D03*
X034853Y034574D03*
X035641Y034574D03*
X036625Y034574D03*
X036625Y033866D03*
X038003Y033866D03*
X039578Y032409D03*
X039775Y030047D03*
X039775Y029653D03*
X039381Y029653D03*
X039381Y030047D03*
X040956Y028669D03*
X041349Y028669D03*
X041349Y028275D03*
X040956Y028275D03*
X033279Y034574D03*
X030129Y006031D03*
X030129Y005637D03*
X029735Y005637D03*
X029342Y005637D03*
X029342Y006031D03*
X029735Y006031D03*
X029735Y005244D03*
X029342Y005244D03*
X030129Y005244D03*
D25*
X029735Y010362D02*
X029735Y012527D01*
X028554Y013708D01*
X028554Y016070D01*
X028751Y016267D01*
X028948Y016267D01*
X029145Y016267D01*
X029145Y016911D01*
X033357Y021124D01*
X033357Y022468D01*
D26*
X033357Y024633D02*
X033357Y025913D01*
X033869Y026425D01*
X033869Y026734D01*
X033312Y027291D01*
X033279Y027291D01*
X036625Y027881D02*
X039890Y027881D01*
X040168Y028160D01*
X040168Y029259D01*
X041153Y030244D01*
X041153Y031772D01*
X040168Y032756D01*
X040168Y034018D01*
X039612Y034574D01*
X036625Y034574D01*
X033357Y034574D02*
X033279Y034574D01*
X033357Y034574D02*
X033357Y031326D01*
X023830Y025322D02*
X023830Y025126D01*
X023633Y024929D01*
X023633Y023118D01*
X023830Y022921D01*
X023830Y021189D01*
X029145Y016267D02*
X029342Y016267D01*
X029145Y016267D02*
X029145Y016070D01*
X030011Y013944D02*
X030011Y013472D01*
X032412Y011070D01*
X032412Y010795D01*
X032412Y010519D01*
X025601Y011543D02*
X020838Y011543D01*
X020779Y011567D01*
X020660Y011567D01*
X020601Y011543D01*
X019893Y011543D01*
X019893Y015040D01*
X020333Y015480D01*
X025161Y015480D01*
X025601Y015040D01*
X025601Y011543D01*
X025601Y011611D02*
X019893Y011611D01*
X019893Y011850D02*
X025601Y011850D01*
X025601Y012088D02*
X019893Y012088D01*
X019893Y012327D02*
X025601Y012327D01*
X025601Y012565D02*
X019893Y012565D01*
X019893Y012804D02*
X025601Y012804D01*
X025601Y013042D02*
X019893Y013042D01*
X019893Y013281D02*
X025601Y013281D01*
X025601Y013519D02*
X019893Y013519D01*
X019893Y013758D02*
X025601Y013758D01*
X025601Y013996D02*
X019893Y013996D01*
X019893Y014235D02*
X025601Y014235D01*
X025601Y014473D02*
X019893Y014473D01*
X019893Y014712D02*
X025601Y014712D01*
X025601Y014950D02*
X019893Y014950D01*
X020042Y015189D02*
X025452Y015189D01*
X025214Y015427D02*
X020280Y015427D01*
X007885Y008787D02*
X006471Y008787D01*
X006271Y008586D01*
X006271Y005067D01*
X005719Y005067D01*
X005719Y005047D01*
D27*
X029342Y014299D02*
X031704Y014299D01*
X032491Y016464D02*
X030835Y016464D01*
X030244Y017055D01*
X029898Y017055D01*
X029342Y016498D01*
X029342Y016267D01*
D28*
X038200Y018236D02*
X038200Y019370D01*
X038640Y019811D01*
X040909Y019811D01*
X041349Y019370D01*
X041349Y016464D01*
X040759Y015874D01*
X040759Y006751D01*
X039645Y005637D01*
X032145Y005637D01*
X031310Y006473D01*
X031310Y007803D01*
X030523Y007803D01*
X024617Y031031D02*
X020286Y031031D01*
X019893Y031031D01*
X019696Y031031D01*
X019656Y034870D02*
X024617Y034870D01*
X024617Y031031D01*
X026070Y034074D02*
X026070Y034870D01*
X019656Y034870D01*
X021310Y034870D01*
D29*
X022058Y034160D02*
X022058Y031819D01*
X018318Y031819D01*
X018318Y025641D01*
X017472Y025641D01*
X008758Y034356D01*
X008690Y034424D01*
X008602Y034460D01*
X007601Y034460D01*
X007513Y034424D01*
X005190Y032101D01*
X005122Y032033D01*
X005086Y031945D01*
X005086Y025845D01*
X005076Y025849D01*
X004945Y025849D01*
X004824Y025799D01*
X004731Y025706D01*
X004681Y025585D01*
X004681Y025454D01*
X004731Y025332D01*
X004771Y025293D01*
X004771Y020951D01*
X004385Y021337D01*
X004385Y026250D01*
X004453Y026318D01*
X004453Y026965D01*
X004330Y027088D01*
X003881Y027088D01*
X003758Y026965D01*
X003758Y026318D01*
X003881Y026195D01*
X003905Y026195D01*
X003905Y021190D01*
X003941Y021102D01*
X004009Y021034D01*
X007995Y017048D01*
X008083Y017012D01*
X009560Y017012D01*
X009523Y016924D01*
X009523Y016792D01*
X009574Y016671D01*
X009666Y016578D01*
X009788Y016528D01*
X009862Y016528D01*
X009902Y016431D01*
X010017Y016316D01*
X010166Y016254D01*
X010328Y016254D01*
X010478Y016316D01*
X010592Y016431D01*
X010654Y016580D01*
X010654Y016742D01*
X010592Y016891D01*
X010478Y017006D01*
X010464Y017012D01*
X010611Y017012D01*
X010651Y016972D01*
X010772Y016922D01*
X010903Y016922D01*
X011025Y016972D01*
X011117Y017065D01*
X011168Y017186D01*
X011168Y017317D01*
X011117Y017439D01*
X011025Y017531D01*
X010903Y017582D01*
X010772Y017582D01*
X010651Y017531D01*
X010611Y017492D01*
X008230Y017492D01*
X007568Y018153D01*
X008956Y018153D01*
X009044Y018190D01*
X009112Y018257D01*
X009148Y018346D01*
X009148Y018756D01*
X009112Y018844D01*
X009044Y018912D01*
X008873Y019083D01*
X008873Y022433D01*
X008935Y022433D01*
X009056Y022484D01*
X009149Y022576D01*
X009199Y022698D01*
X009199Y022720D01*
X012617Y022720D01*
X012584Y022687D01*
X012584Y022265D01*
X012711Y022137D01*
X011615Y022137D01*
X011576Y022177D01*
X011454Y022227D01*
X011323Y022227D01*
X011202Y022177D01*
X011109Y022084D01*
X011059Y021963D01*
X011059Y021832D01*
X011109Y021710D01*
X011202Y021617D01*
X011323Y021567D01*
X011454Y021567D01*
X011576Y021617D01*
X011615Y021657D01*
X012584Y021657D01*
X012584Y021265D01*
X012872Y020976D01*
X012584Y020687D01*
X012584Y020265D01*
X012882Y019966D01*
X013296Y019966D01*
X015913Y017349D01*
X015913Y016220D01*
X015949Y016131D01*
X016017Y016064D01*
X016105Y016027D01*
X016123Y016027D01*
X016162Y015988D01*
X016284Y015937D01*
X016415Y015937D01*
X016536Y015988D01*
X016556Y016007D01*
X017324Y016007D01*
X017344Y015988D01*
X017465Y015937D01*
X017596Y015937D01*
X017717Y015988D01*
X017810Y016080D01*
X017861Y016202D01*
X017861Y016333D01*
X017810Y016454D01*
X017717Y016547D01*
X017596Y016597D01*
X017465Y016597D01*
X017344Y016547D01*
X017324Y016527D01*
X016556Y016527D01*
X016536Y016547D01*
X016415Y016597D01*
X016393Y016597D01*
X016393Y017496D01*
X016356Y017584D01*
X016289Y017652D01*
X013914Y020026D01*
X014044Y020026D01*
X014044Y020426D01*
X014144Y020426D01*
X014144Y020526D01*
X014544Y020526D01*
X014544Y020796D01*
X014533Y020834D01*
X014514Y020868D01*
X014486Y020896D01*
X014451Y020916D01*
X014413Y020926D01*
X014144Y020926D01*
X014144Y020526D01*
X014044Y020526D01*
X014044Y020926D01*
X013774Y020926D01*
X013736Y020916D01*
X013701Y020896D01*
X013673Y020868D01*
X013654Y020834D01*
X013644Y020796D01*
X013644Y020526D01*
X014043Y020526D01*
X014043Y020426D01*
X013644Y020426D01*
X013644Y020297D01*
X013604Y020337D01*
X013604Y020687D01*
X013315Y020976D01*
X013594Y021255D01*
X013882Y020966D01*
X014305Y020966D01*
X014604Y021265D01*
X014604Y021382D01*
X014862Y021382D01*
X014950Y021418D01*
X015017Y021486D01*
X015296Y021764D01*
X015352Y021764D01*
X015473Y021814D01*
X015566Y021907D01*
X015616Y022028D01*
X015616Y022160D01*
X015580Y022248D01*
X016019Y022248D01*
X016019Y022186D01*
X016070Y022065D01*
X016162Y021972D01*
X016284Y021922D01*
X016415Y021922D01*
X016536Y021972D01*
X016615Y022051D01*
X017988Y022051D01*
X017988Y022009D01*
X018038Y021887D01*
X018058Y021868D01*
X018058Y018538D01*
X017990Y018566D01*
X017916Y018566D01*
X017875Y018663D01*
X017761Y018778D01*
X017611Y018840D01*
X017450Y018840D01*
X017300Y018778D01*
X017186Y018663D01*
X017124Y018514D01*
X017124Y018352D01*
X017186Y018202D01*
X017300Y018088D01*
X017450Y018026D01*
X017607Y018026D01*
X017680Y017996D01*
X017698Y017996D01*
X017737Y017956D01*
X017859Y017906D01*
X017990Y017906D01*
X018058Y017934D01*
X018058Y013307D01*
X017932Y013181D01*
X016359Y013181D01*
X016339Y013201D01*
X016218Y013251D01*
X016087Y013251D01*
X015966Y013201D01*
X015873Y013108D01*
X015823Y012987D01*
X015823Y012855D01*
X015873Y012734D01*
X015966Y012641D01*
X016087Y012591D01*
X016218Y012591D01*
X016339Y012641D01*
X016359Y012661D01*
X018091Y012661D01*
X018187Y012700D01*
X018255Y012768D01*
X018255Y012520D01*
X018129Y012393D01*
X016359Y012393D01*
X016339Y012413D01*
X016218Y012463D01*
X016087Y012463D01*
X015966Y012413D01*
X015873Y012320D01*
X015823Y012199D01*
X015823Y012068D01*
X015873Y011947D01*
X015966Y011854D01*
X016087Y011803D01*
X016218Y011803D01*
X016339Y011854D01*
X016359Y011873D01*
X018288Y011873D01*
X018384Y011913D01*
X018452Y011981D01*
X018452Y011732D01*
X018326Y011606D01*
X016359Y011606D01*
X016339Y011626D01*
X016218Y011676D01*
X016087Y011676D01*
X015966Y011626D01*
X015873Y011533D01*
X015823Y011412D01*
X015823Y011280D01*
X015873Y011159D01*
X015883Y011149D01*
X015873Y011139D01*
X015823Y011018D01*
X015823Y010887D01*
X015873Y010765D01*
X015966Y010673D01*
X016087Y010622D01*
X016218Y010622D01*
X016339Y010673D01*
X016359Y010692D01*
X018682Y010692D01*
X018777Y010732D01*
X019056Y011010D01*
X019129Y011083D01*
X019168Y011179D01*
X019168Y018131D01*
X019237Y018103D01*
X019368Y018103D01*
X019489Y018153D01*
X019509Y018173D01*
X020080Y018173D01*
X020099Y018153D01*
X020221Y018103D01*
X020352Y018103D01*
X020420Y018131D01*
X020420Y017753D01*
X019294Y016627D01*
X019221Y016554D01*
X019181Y016458D01*
X019181Y016076D01*
X019221Y015981D01*
X019239Y015963D01*
X019239Y008994D01*
X019219Y008974D01*
X019169Y008853D01*
X019169Y008721D01*
X019219Y008600D01*
X019312Y008507D01*
X019433Y008457D01*
X019565Y008457D01*
X019686Y008507D01*
X019779Y008600D01*
X019829Y008721D01*
X019829Y008853D01*
X019779Y008974D01*
X019759Y008994D01*
X019759Y011027D01*
X020493Y011027D01*
X020533Y010988D01*
X020654Y010937D01*
X020785Y010937D01*
X020906Y010988D01*
X020999Y011080D01*
X021049Y011202D01*
X021049Y011333D01*
X020999Y011454D01*
X020906Y011547D01*
X020785Y011597D01*
X020654Y011597D01*
X020533Y011547D01*
X020493Y011507D01*
X019896Y011507D01*
X019896Y015617D01*
X020395Y016115D01*
X020704Y015806D01*
X021168Y015806D01*
X021436Y016074D01*
X021704Y015806D01*
X022168Y015806D01*
X022436Y016074D01*
X022704Y015806D01*
X023168Y015806D01*
X023221Y015858D01*
X023288Y015791D01*
X023410Y015740D01*
X023466Y015740D01*
X023497Y015710D01*
X023585Y015673D01*
X026589Y015673D01*
X025601Y014685D01*
X025601Y006277D01*
X022416Y006277D01*
X021911Y006783D01*
X021911Y008194D01*
X021925Y008200D01*
X022054Y008330D01*
X022124Y008499D01*
X022124Y009469D01*
X022054Y009638D01*
X021925Y009768D01*
X021756Y009838D01*
X020785Y009838D01*
X020616Y009768D01*
X020487Y009638D01*
X020417Y009469D01*
X020417Y008499D01*
X020487Y008330D01*
X020616Y008200D01*
X020631Y008194D01*
X020631Y006390D01*
X020728Y006155D01*
X020908Y005975D01*
X021788Y005095D01*
X022024Y004997D01*
X025601Y004997D01*
X025601Y004666D01*
X015562Y004666D01*
X015562Y006549D01*
X019828Y006549D01*
X020071Y006650D01*
X020258Y006837D01*
X020359Y007080D01*
X020359Y007344D01*
X020258Y007588D01*
X020071Y007774D01*
X019828Y007875D01*
X015640Y007875D01*
X015562Y007953D01*
X015562Y011149D01*
X014381Y012133D01*
X011972Y012133D01*
X011972Y012223D01*
X011673Y012223D01*
X011673Y012320D01*
X011577Y012320D01*
X011577Y012638D01*
X011408Y012638D01*
X011370Y012628D01*
X011336Y012608D01*
X011308Y012580D01*
X011288Y012546D01*
X011278Y012508D01*
X011278Y012320D01*
X011577Y012320D01*
X011577Y012223D01*
X011278Y012223D01*
X011278Y012133D01*
X010988Y012133D01*
X010988Y012223D01*
X010689Y012223D01*
X010689Y012320D01*
X010592Y012320D01*
X010592Y012638D01*
X010424Y012638D01*
X010386Y012628D01*
X010352Y012608D01*
X010324Y012580D01*
X010304Y012546D01*
X010294Y012508D01*
X010294Y012320D01*
X010592Y012320D01*
X010592Y012223D01*
X010294Y012223D01*
X010294Y012133D01*
X010121Y012133D01*
X010121Y012223D01*
X009823Y012223D01*
X009823Y012320D01*
X009726Y012320D01*
X009726Y012638D01*
X009558Y012638D01*
X009520Y012628D01*
X009486Y012608D01*
X009458Y012580D01*
X009438Y012546D01*
X009428Y012508D01*
X009428Y012320D01*
X009726Y012320D01*
X009726Y012223D01*
X009428Y012223D01*
X009428Y012133D01*
X009339Y012133D01*
X008937Y011732D01*
X008917Y011753D01*
X008310Y011753D01*
X008232Y011675D01*
X008218Y011683D01*
X008180Y011693D01*
X007992Y011693D01*
X007992Y011394D01*
X007895Y011394D01*
X007895Y011298D01*
X007577Y011298D01*
X007577Y011129D01*
X007588Y011091D01*
X007607Y011057D01*
X007635Y011029D01*
X007669Y011009D01*
X007708Y010999D01*
X007895Y010999D01*
X007895Y011298D01*
X007992Y011298D01*
X007992Y010999D01*
X008180Y010999D01*
X008213Y011008D01*
X008082Y010877D01*
X008082Y010709D01*
X007992Y010709D01*
X007992Y010410D01*
X007895Y010410D01*
X007895Y010313D01*
X007577Y010313D01*
X007577Y010145D01*
X007588Y010107D01*
X007607Y010073D01*
X007635Y010045D01*
X007669Y010025D01*
X007708Y010015D01*
X007895Y010015D01*
X007895Y010313D01*
X007992Y010313D01*
X007992Y010015D01*
X008082Y010015D01*
X008082Y009724D01*
X007992Y009724D01*
X007992Y009426D01*
X007895Y009426D01*
X007895Y009329D01*
X007577Y009329D01*
X007577Y009161D01*
X007588Y009123D01*
X007607Y009089D01*
X007635Y009061D01*
X007669Y009041D01*
X007708Y009031D01*
X007895Y009031D01*
X007895Y009329D01*
X007992Y009329D01*
X007992Y009031D01*
X008082Y009031D01*
X008082Y004666D01*
X003174Y004666D01*
X003174Y035742D01*
X017971Y035742D01*
X018318Y035396D01*
X018318Y034181D01*
X019465Y034181D01*
X019515Y034160D01*
X022058Y034160D01*
X022058Y034105D02*
X009009Y034105D01*
X009107Y034006D02*
X022058Y034006D01*
X022058Y033908D02*
X009206Y033908D01*
X009304Y033809D02*
X022058Y033809D01*
X022058Y033711D02*
X009403Y033711D01*
X009501Y033612D02*
X017469Y033612D01*
X017353Y033564D02*
X017127Y033339D01*
X017006Y033045D01*
X017006Y032726D01*
X010388Y032726D01*
X010486Y032627D02*
X017046Y032627D01*
X017087Y032529D02*
X010585Y032529D01*
X010683Y032430D02*
X014997Y032430D01*
X014989Y032422D02*
X014969Y032388D01*
X014959Y032350D01*
X014959Y031672D01*
X015571Y031672D01*
X015571Y032480D01*
X015090Y032480D01*
X015051Y032470D01*
X015017Y032450D01*
X014989Y032422D01*
X014959Y032332D02*
X010782Y032332D01*
X010880Y032233D02*
X014959Y032233D01*
X014959Y032135D02*
X010979Y032135D01*
X011077Y032036D02*
X014959Y032036D01*
X014959Y031938D02*
X011176Y031938D01*
X011274Y031839D02*
X014959Y031839D01*
X014959Y031741D02*
X011373Y031741D01*
X011471Y031642D02*
X015571Y031642D01*
X015571Y031672D02*
X015571Y031572D01*
X014959Y031572D01*
X014959Y030893D01*
X014969Y030855D01*
X014989Y030821D01*
X015017Y030793D01*
X015051Y030773D01*
X015090Y030763D01*
X015571Y030763D01*
X015571Y031572D01*
X015671Y031572D01*
X015671Y031672D01*
X015571Y031672D01*
X015571Y031741D02*
X015671Y031741D01*
X015671Y031672D02*
X015671Y032480D01*
X016153Y032480D01*
X016191Y032470D01*
X016225Y032450D01*
X016253Y032422D01*
X016273Y032388D01*
X016283Y032350D01*
X016283Y031672D01*
X015671Y031672D01*
X015671Y031642D02*
X018318Y031642D01*
X018318Y031544D02*
X016283Y031544D01*
X016283Y031572D02*
X015671Y031572D01*
X015671Y030763D01*
X016153Y030763D01*
X016191Y030773D01*
X016225Y030793D01*
X016253Y030821D01*
X016273Y030855D01*
X016283Y030893D01*
X016283Y031572D01*
X016283Y031445D02*
X018318Y031445D01*
X018318Y031347D02*
X016283Y031347D01*
X016283Y031248D02*
X018318Y031248D01*
X018318Y031150D02*
X016283Y031150D01*
X016283Y031051D02*
X018318Y031051D01*
X018318Y030953D02*
X016283Y030953D01*
X016272Y030854D02*
X018318Y030854D01*
X018318Y030756D02*
X012358Y030756D01*
X012456Y030657D02*
X018318Y030657D01*
X018318Y030559D02*
X012555Y030559D01*
X012653Y030460D02*
X018318Y030460D01*
X018318Y030362D02*
X012752Y030362D01*
X012850Y030263D02*
X018318Y030263D01*
X018318Y030165D02*
X012949Y030165D01*
X013047Y030066D02*
X018318Y030066D01*
X018318Y029968D02*
X013146Y029968D01*
X013244Y029869D02*
X018318Y029869D01*
X018318Y029771D02*
X013343Y029771D01*
X013441Y029672D02*
X018318Y029672D01*
X018318Y029574D02*
X013540Y029574D01*
X013638Y029475D02*
X018318Y029475D01*
X018318Y029377D02*
X013737Y029377D01*
X013835Y029278D02*
X018318Y029278D01*
X018318Y029180D02*
X013934Y029180D01*
X014032Y029081D02*
X018318Y029081D01*
X018318Y028983D02*
X014131Y028983D01*
X014229Y028884D02*
X018318Y028884D01*
X018318Y028786D02*
X014328Y028786D01*
X014426Y028687D02*
X018318Y028687D01*
X018318Y028589D02*
X014525Y028589D01*
X014623Y028490D02*
X018318Y028490D01*
X018318Y028392D02*
X014722Y028392D01*
X014820Y028293D02*
X018318Y028293D01*
X018318Y028195D02*
X014919Y028195D01*
X015017Y028096D02*
X018318Y028096D01*
X018318Y027998D02*
X015116Y027998D01*
X015214Y027899D02*
X018318Y027899D01*
X018318Y027801D02*
X015313Y027801D01*
X015411Y027702D02*
X018318Y027702D01*
X018318Y027604D02*
X015510Y027604D01*
X015608Y027505D02*
X018318Y027505D01*
X018318Y027407D02*
X015707Y027407D01*
X015805Y027308D02*
X018318Y027308D01*
X018318Y027210D02*
X015904Y027210D01*
X016002Y027111D02*
X018318Y027111D01*
X018318Y027013D02*
X016101Y027013D01*
X016199Y026914D02*
X018318Y026914D01*
X018318Y026816D02*
X016298Y026816D01*
X016396Y026717D02*
X018318Y026717D01*
X018318Y026619D02*
X016495Y026619D01*
X016593Y026520D02*
X018318Y026520D01*
X018318Y026422D02*
X016692Y026422D01*
X016790Y026323D02*
X018318Y026323D01*
X018318Y026225D02*
X016889Y026225D01*
X016987Y026126D02*
X018318Y026126D01*
X018318Y026028D02*
X017086Y026028D01*
X017184Y025929D02*
X018318Y025929D01*
X018318Y025831D02*
X017283Y025831D01*
X017381Y025732D02*
X018318Y025732D01*
X019105Y025732D02*
X021128Y025732D01*
X021112Y025716D02*
X019105Y025716D01*
X019105Y029456D01*
X022469Y029456D01*
X022469Y029398D01*
X022548Y029320D01*
X022548Y027666D01*
X022630Y027584D01*
X022745Y027469D01*
X022745Y027279D01*
X022655Y027189D01*
X022655Y026999D01*
X022790Y026864D01*
X022980Y026864D01*
X023115Y026999D01*
X023115Y027189D01*
X023025Y027279D01*
X023025Y027585D01*
X022828Y027782D01*
X022828Y029305D01*
X022941Y029305D01*
X023075Y029440D01*
X023075Y029456D01*
X024223Y029456D01*
X024223Y027667D01*
X023536Y027667D01*
X023454Y027585D01*
X023454Y026485D01*
X023536Y026403D01*
X023929Y026009D01*
X024083Y026009D01*
X024083Y025716D01*
X021508Y025716D01*
X021447Y025777D01*
X021173Y025777D01*
X021112Y025716D01*
X021492Y025732D02*
X024083Y025732D01*
X024083Y025831D02*
X019105Y025831D01*
X019105Y025929D02*
X024083Y025929D01*
X023911Y026028D02*
X019105Y026028D01*
X019105Y026126D02*
X023812Y026126D01*
X023714Y026225D02*
X019105Y026225D01*
X019105Y026323D02*
X023615Y026323D01*
X023536Y026403D02*
X023536Y026403D01*
X023517Y026422D02*
X019105Y026422D01*
X019105Y026520D02*
X023454Y026520D01*
X023454Y026619D02*
X019105Y026619D01*
X019105Y026717D02*
X023454Y026717D01*
X023454Y026816D02*
X019105Y026816D01*
X019105Y026914D02*
X022739Y026914D01*
X022655Y027013D02*
X019105Y027013D01*
X019105Y027111D02*
X022655Y027111D01*
X022675Y027210D02*
X019105Y027210D01*
X019105Y027308D02*
X022745Y027308D01*
X022745Y027407D02*
X019105Y027407D01*
X019105Y027505D02*
X022709Y027505D01*
X022610Y027604D02*
X019105Y027604D01*
X019105Y027702D02*
X022548Y027702D01*
X022548Y027801D02*
X019105Y027801D01*
X019105Y027899D02*
X022548Y027899D01*
X022548Y027998D02*
X019105Y027998D01*
X019105Y028096D02*
X022548Y028096D01*
X022548Y028195D02*
X019105Y028195D01*
X019105Y028293D02*
X022548Y028293D01*
X022548Y028392D02*
X019105Y028392D01*
X019105Y028490D02*
X022548Y028490D01*
X022548Y028589D02*
X019105Y028589D01*
X019105Y028687D02*
X022548Y028687D01*
X022548Y028786D02*
X019105Y028786D01*
X019105Y028884D02*
X022548Y028884D01*
X022548Y028983D02*
X019105Y028983D01*
X019105Y029081D02*
X022548Y029081D01*
X022548Y029180D02*
X019105Y029180D01*
X019105Y029278D02*
X022548Y029278D01*
X022491Y029377D02*
X019105Y029377D01*
X019499Y030834D02*
X019499Y031031D01*
X019499Y031228D01*
X019499Y031031D02*
X019893Y031031D01*
X019893Y030834D01*
X020286Y030834D01*
X020286Y031228D01*
X020286Y031031D01*
X020286Y031228D02*
X020680Y031228D01*
X019893Y031228D02*
X019893Y031031D01*
X019706Y032141D02*
X020090Y032141D01*
X020128Y032151D01*
X020162Y032171D01*
X020190Y032199D01*
X020210Y032233D01*
X020220Y032271D01*
X020220Y032654D01*
X019707Y032654D01*
X019707Y032754D01*
X020220Y032754D01*
X020220Y033137D01*
X020210Y033176D01*
X020190Y033210D01*
X020162Y033238D01*
X020128Y033257D01*
X020090Y033268D01*
X019706Y033268D01*
X019706Y032754D01*
X019606Y032754D01*
X019606Y032654D01*
X019093Y032654D01*
X019093Y032271D01*
X019103Y032233D01*
X019123Y032199D01*
X019151Y032171D01*
X019185Y032151D01*
X019223Y032141D01*
X019606Y032141D01*
X019606Y032654D01*
X019706Y032654D01*
X019706Y032141D01*
X019706Y032233D02*
X019606Y032233D01*
X019606Y032332D02*
X019706Y032332D01*
X019706Y032430D02*
X019606Y032430D01*
X019606Y032529D02*
X019706Y032529D01*
X019706Y032627D02*
X019606Y032627D01*
X019606Y032726D02*
X018607Y032726D01*
X018485Y032432D01*
X018260Y032207D01*
X017965Y032085D01*
X017647Y032085D01*
X017353Y032207D01*
X017127Y032432D01*
X017006Y032726D01*
X017006Y032824D02*
X010289Y032824D01*
X010191Y032923D02*
X017006Y032923D01*
X017006Y033021D02*
X010092Y033021D01*
X009994Y033120D02*
X017037Y033120D01*
X017078Y033218D02*
X009895Y033218D01*
X009797Y033317D02*
X017118Y033317D01*
X017204Y033415D02*
X009698Y033415D01*
X009600Y033514D02*
X017302Y033514D01*
X017353Y033564D02*
X017647Y033686D01*
X017965Y033686D01*
X018260Y033564D01*
X018485Y033339D01*
X018607Y033045D01*
X018607Y032726D01*
X018607Y032824D02*
X019093Y032824D01*
X019093Y032754D02*
X019606Y032754D01*
X019606Y033268D01*
X019223Y033268D01*
X019185Y033257D01*
X019151Y033238D01*
X019123Y033210D01*
X019103Y033176D01*
X019093Y033137D01*
X019093Y032754D01*
X019093Y032627D02*
X018566Y032627D01*
X018525Y032529D02*
X019093Y032529D01*
X019093Y032430D02*
X018483Y032430D01*
X018385Y032332D02*
X019093Y032332D01*
X019103Y032233D02*
X018286Y032233D01*
X018086Y032135D02*
X022058Y032135D01*
X022058Y032233D02*
X021863Y032233D01*
X021873Y032271D01*
X021873Y032654D01*
X021360Y032654D01*
X021360Y032141D01*
X021743Y032141D01*
X021781Y032151D01*
X021816Y032171D01*
X021843Y032199D01*
X021863Y032233D01*
X021873Y032332D02*
X022058Y032332D01*
X022058Y032430D02*
X021873Y032430D01*
X021873Y032529D02*
X022058Y032529D01*
X022058Y032627D02*
X021873Y032627D01*
X021873Y032754D02*
X021873Y033137D01*
X021863Y033176D01*
X021843Y033210D01*
X021816Y033238D01*
X021781Y033257D01*
X021743Y033268D01*
X021360Y033268D01*
X021360Y032754D01*
X021873Y032754D01*
X021873Y032824D02*
X022058Y032824D01*
X022058Y032726D02*
X021360Y032726D01*
X021360Y032754D02*
X021360Y032654D01*
X021260Y032654D01*
X021260Y032141D01*
X020877Y032141D01*
X020839Y032151D01*
X020805Y032171D01*
X020777Y032199D01*
X020757Y032233D01*
X020747Y032271D01*
X020747Y032654D01*
X021260Y032654D01*
X021260Y032754D01*
X020747Y032754D01*
X020747Y033137D01*
X020757Y033176D01*
X020777Y033210D01*
X020805Y033238D01*
X020839Y033257D01*
X020877Y033268D01*
X021260Y033268D01*
X021260Y032754D01*
X021360Y032754D01*
X021360Y032824D02*
X021260Y032824D01*
X021260Y032726D02*
X019707Y032726D01*
X019706Y032824D02*
X019606Y032824D01*
X019606Y032923D02*
X019706Y032923D01*
X019706Y033021D02*
X019606Y033021D01*
X019606Y033120D02*
X019706Y033120D01*
X019706Y033218D02*
X019606Y033218D01*
X019132Y033218D02*
X018535Y033218D01*
X018576Y033120D02*
X019093Y033120D01*
X019093Y033021D02*
X018607Y033021D01*
X018607Y032923D02*
X019093Y032923D01*
X018494Y033317D02*
X022058Y033317D01*
X022058Y033415D02*
X018408Y033415D01*
X018310Y033514D02*
X022058Y033514D01*
X022058Y033612D02*
X018143Y033612D01*
X018318Y034203D02*
X008910Y034203D01*
X008812Y034302D02*
X018318Y034302D01*
X018318Y034400D02*
X008713Y034400D01*
X008475Y033984D02*
X008475Y018826D01*
X008672Y018630D01*
X008279Y018630D02*
X008279Y028373D01*
X006901Y029751D01*
X006901Y031031D01*
X006148Y031051D02*
X005566Y031051D01*
X005566Y030953D02*
X006148Y030953D01*
X006148Y030854D02*
X005566Y030854D01*
X005566Y030756D02*
X006148Y030756D01*
X006148Y030657D02*
X005566Y030657D01*
X005566Y030559D02*
X006148Y030559D01*
X006148Y030460D02*
X005566Y030460D01*
X005566Y030362D02*
X006148Y030362D01*
X006148Y030263D02*
X005566Y030263D01*
X005566Y030165D02*
X006148Y030165D01*
X006148Y030066D02*
X005566Y030066D01*
X005566Y029968D02*
X006148Y029968D01*
X006148Y029869D02*
X005566Y029869D01*
X005566Y029771D02*
X006148Y029771D01*
X006148Y029672D02*
X005566Y029672D01*
X005566Y029574D02*
X006148Y029574D01*
X006148Y029475D02*
X005566Y029475D01*
X005566Y029377D02*
X006187Y029377D01*
X006188Y029376D02*
X006261Y029302D01*
X007625Y027939D01*
X007625Y019131D01*
X007453Y018960D01*
X007425Y018960D01*
X007304Y018909D01*
X007270Y018875D01*
X005251Y020894D01*
X005251Y024603D01*
X005260Y024599D01*
X005391Y024599D01*
X005513Y024649D01*
X005606Y024742D01*
X005656Y024863D01*
X005656Y024994D01*
X005606Y025116D01*
X005566Y025155D01*
X005566Y031798D01*
X006148Y032381D01*
X006148Y029471D01*
X006188Y029376D01*
X006285Y029278D02*
X005566Y029278D01*
X005566Y029180D02*
X006384Y029180D01*
X006482Y029081D02*
X005566Y029081D01*
X005566Y028983D02*
X006581Y028983D01*
X006679Y028884D02*
X005566Y028884D01*
X005566Y028786D02*
X006778Y028786D01*
X006876Y028687D02*
X005566Y028687D01*
X005566Y028589D02*
X006975Y028589D01*
X007073Y028490D02*
X005566Y028490D01*
X005566Y028392D02*
X007172Y028392D01*
X007270Y028293D02*
X005566Y028293D01*
X005566Y028195D02*
X007369Y028195D01*
X007467Y028096D02*
X005566Y028096D01*
X005566Y027998D02*
X007566Y027998D01*
X007625Y027899D02*
X005566Y027899D01*
X005566Y027801D02*
X007625Y027801D01*
X007625Y027702D02*
X005566Y027702D01*
X005566Y027604D02*
X007625Y027604D01*
X007625Y027505D02*
X005566Y027505D01*
X005566Y027407D02*
X007625Y027407D01*
X007625Y027308D02*
X005566Y027308D01*
X005566Y027210D02*
X007625Y027210D01*
X007625Y027111D02*
X005566Y027111D01*
X005566Y027013D02*
X007625Y027013D01*
X007625Y026914D02*
X005566Y026914D01*
X005566Y026816D02*
X007625Y026816D01*
X007625Y026717D02*
X005566Y026717D01*
X005566Y026619D02*
X007625Y026619D01*
X007625Y026520D02*
X005566Y026520D01*
X005566Y026422D02*
X007625Y026422D01*
X007625Y026323D02*
X005566Y026323D01*
X005566Y026225D02*
X007625Y026225D01*
X007625Y026126D02*
X005566Y026126D01*
X005566Y026028D02*
X007625Y026028D01*
X007625Y025929D02*
X005566Y025929D01*
X005566Y025831D02*
X007625Y025831D01*
X007625Y025732D02*
X005566Y025732D01*
X005566Y025634D02*
X007625Y025634D01*
X007625Y025535D02*
X005566Y025535D01*
X005566Y025437D02*
X007625Y025437D01*
X007625Y025338D02*
X005566Y025338D01*
X005566Y025240D02*
X007625Y025240D01*
X007625Y025141D02*
X005580Y025141D01*
X005636Y025043D02*
X007625Y025043D01*
X007625Y024944D02*
X005656Y024944D01*
X005649Y024846D02*
X007625Y024846D01*
X007625Y024747D02*
X005608Y024747D01*
X005512Y024649D02*
X007625Y024649D01*
X007625Y024550D02*
X005251Y024550D01*
X005251Y024452D02*
X007625Y024452D01*
X007625Y024353D02*
X005251Y024353D01*
X005251Y024255D02*
X007625Y024255D01*
X007625Y024156D02*
X005251Y024156D01*
X005251Y024058D02*
X007625Y024058D01*
X007625Y023959D02*
X005251Y023959D01*
X005251Y023861D02*
X007625Y023861D01*
X007625Y023762D02*
X005251Y023762D01*
X005251Y023664D02*
X007625Y023664D01*
X007625Y023565D02*
X005251Y023565D01*
X005251Y023467D02*
X007625Y023467D01*
X007625Y023368D02*
X005251Y023368D01*
X005251Y023270D02*
X007625Y023270D01*
X007625Y023171D02*
X005251Y023171D01*
X005251Y023073D02*
X007625Y023073D01*
X007625Y022974D02*
X005251Y022974D01*
X005251Y022876D02*
X007625Y022876D01*
X007625Y022777D02*
X005251Y022777D01*
X005251Y022679D02*
X007625Y022679D01*
X007625Y022580D02*
X005251Y022580D01*
X005251Y022482D02*
X007625Y022482D01*
X007625Y022383D02*
X005251Y022383D01*
X005251Y022285D02*
X007625Y022285D01*
X007625Y022186D02*
X005251Y022186D01*
X005251Y022088D02*
X007625Y022088D01*
X007625Y021989D02*
X005251Y021989D01*
X005251Y021891D02*
X007625Y021891D01*
X007625Y021792D02*
X005251Y021792D01*
X005251Y021694D02*
X007625Y021694D01*
X007625Y021595D02*
X005251Y021595D01*
X005251Y021497D02*
X007625Y021497D01*
X007625Y021398D02*
X005251Y021398D01*
X005251Y021300D02*
X007625Y021300D01*
X007625Y021201D02*
X005251Y021201D01*
X005251Y021103D02*
X007625Y021103D01*
X007625Y021004D02*
X005251Y021004D01*
X005251Y020906D02*
X007625Y020906D01*
X007625Y020807D02*
X005338Y020807D01*
X005436Y020709D02*
X007625Y020709D01*
X007625Y020610D02*
X005535Y020610D01*
X005633Y020512D02*
X007625Y020512D01*
X007625Y020413D02*
X005732Y020413D01*
X005830Y020315D02*
X007625Y020315D01*
X007625Y020216D02*
X005929Y020216D01*
X006027Y020118D02*
X007625Y020118D01*
X007625Y020019D02*
X006126Y020019D01*
X006224Y019921D02*
X007625Y019921D01*
X007625Y019822D02*
X006323Y019822D01*
X006421Y019724D02*
X007625Y019724D01*
X007625Y019625D02*
X006520Y019625D01*
X006618Y019527D02*
X007625Y019527D01*
X007625Y019428D02*
X006717Y019428D01*
X006815Y019330D02*
X007625Y019330D01*
X007625Y019231D02*
X006914Y019231D01*
X007012Y019133D02*
X007625Y019133D01*
X007528Y019034D02*
X007111Y019034D01*
X007209Y018936D02*
X007368Y018936D01*
X007491Y018630D02*
X007885Y019023D01*
X007885Y028046D01*
X006408Y029523D01*
X006408Y032780D01*
X006629Y033000D01*
X006901Y033000D01*
X006505Y033415D02*
X003174Y033415D01*
X003174Y033317D02*
X006406Y033317D01*
X006308Y033218D02*
X003174Y033218D01*
X003174Y033120D02*
X006209Y033120D01*
X006111Y033021D02*
X003174Y033021D01*
X003174Y032923D02*
X006012Y032923D01*
X005914Y032824D02*
X003174Y032824D01*
X003174Y032726D02*
X005815Y032726D01*
X005717Y032627D02*
X003174Y032627D01*
X003174Y032529D02*
X003475Y032529D01*
X003487Y032540D02*
X003364Y032417D01*
X003364Y030826D01*
X003487Y030703D01*
X003905Y030703D01*
X003905Y028544D01*
X003881Y028544D01*
X003758Y028421D01*
X003758Y027775D01*
X003881Y027652D01*
X004330Y027652D01*
X004453Y027775D01*
X004453Y028421D01*
X004385Y028490D01*
X004385Y030703D01*
X004684Y030703D01*
X004807Y030826D01*
X004807Y032417D01*
X004684Y032540D01*
X003487Y032540D01*
X003377Y032430D02*
X003174Y032430D01*
X003174Y032332D02*
X003364Y032332D01*
X003364Y032233D02*
X003174Y032233D01*
X003174Y032135D02*
X003364Y032135D01*
X003364Y032036D02*
X003174Y032036D01*
X003174Y031938D02*
X003364Y031938D01*
X003364Y031839D02*
X003174Y031839D01*
X003174Y031741D02*
X003364Y031741D01*
X003364Y031642D02*
X003174Y031642D01*
X003174Y031544D02*
X003364Y031544D01*
X003364Y031445D02*
X003174Y031445D01*
X003174Y031347D02*
X003364Y031347D01*
X003364Y031248D02*
X003174Y031248D01*
X003174Y031150D02*
X003364Y031150D01*
X003364Y031051D02*
X003174Y031051D01*
X003174Y030953D02*
X003364Y030953D01*
X003364Y030854D02*
X003174Y030854D01*
X003174Y030756D02*
X003434Y030756D01*
X003174Y030657D02*
X003905Y030657D01*
X003905Y030559D02*
X003174Y030559D01*
X003174Y030460D02*
X003905Y030460D01*
X003905Y030362D02*
X003174Y030362D01*
X003174Y030263D02*
X003905Y030263D01*
X003905Y030165D02*
X003174Y030165D01*
X003174Y030066D02*
X003905Y030066D01*
X003905Y029968D02*
X003174Y029968D01*
X003174Y029869D02*
X003905Y029869D01*
X003905Y029771D02*
X003174Y029771D01*
X003174Y029672D02*
X003905Y029672D01*
X003905Y029574D02*
X003174Y029574D01*
X003174Y029475D02*
X003905Y029475D01*
X003905Y029377D02*
X003174Y029377D01*
X003174Y029278D02*
X003905Y029278D01*
X003905Y029180D02*
X003174Y029180D01*
X003174Y029081D02*
X003905Y029081D01*
X003905Y028983D02*
X003174Y028983D01*
X003174Y028884D02*
X003905Y028884D01*
X003905Y028786D02*
X003174Y028786D01*
X003174Y028687D02*
X003905Y028687D01*
X003905Y028589D02*
X003174Y028589D01*
X003174Y028490D02*
X003827Y028490D01*
X003758Y028392D02*
X003174Y028392D01*
X003174Y028293D02*
X003758Y028293D01*
X003758Y028195D02*
X003174Y028195D01*
X003174Y028096D02*
X003758Y028096D01*
X003758Y027998D02*
X003174Y027998D01*
X003174Y027899D02*
X003758Y027899D01*
X003758Y027801D02*
X003174Y027801D01*
X003174Y027702D02*
X003830Y027702D01*
X003174Y027604D02*
X005086Y027604D01*
X005086Y027702D02*
X004381Y027702D01*
X004453Y027801D02*
X005086Y027801D01*
X005086Y027899D02*
X004453Y027899D01*
X004453Y027998D02*
X005086Y027998D01*
X005086Y028096D02*
X004453Y028096D01*
X004453Y028195D02*
X005086Y028195D01*
X005086Y028293D02*
X004453Y028293D01*
X004453Y028392D02*
X005086Y028392D01*
X005086Y028490D02*
X004385Y028490D01*
X004385Y028589D02*
X005086Y028589D01*
X005086Y028687D02*
X004385Y028687D01*
X004385Y028786D02*
X005086Y028786D01*
X005086Y028884D02*
X004385Y028884D01*
X004385Y028983D02*
X005086Y028983D01*
X005086Y029081D02*
X004385Y029081D01*
X004385Y029180D02*
X005086Y029180D01*
X005086Y029278D02*
X004385Y029278D01*
X004385Y029377D02*
X005086Y029377D01*
X005086Y029475D02*
X004385Y029475D01*
X004385Y029574D02*
X005086Y029574D01*
X005086Y029672D02*
X004385Y029672D01*
X004385Y029771D02*
X005086Y029771D01*
X005086Y029869D02*
X004385Y029869D01*
X004385Y029968D02*
X005086Y029968D01*
X005086Y030066D02*
X004385Y030066D01*
X004385Y030165D02*
X005086Y030165D01*
X005086Y030263D02*
X004385Y030263D01*
X004385Y030362D02*
X005086Y030362D01*
X005086Y030460D02*
X004385Y030460D01*
X004385Y030559D02*
X005086Y030559D01*
X005086Y030657D02*
X004385Y030657D01*
X004737Y030756D02*
X005086Y030756D01*
X005086Y030854D02*
X004807Y030854D01*
X004807Y030953D02*
X005086Y030953D01*
X005086Y031051D02*
X004807Y031051D01*
X004807Y031150D02*
X005086Y031150D01*
X005086Y031248D02*
X004807Y031248D01*
X004807Y031347D02*
X005086Y031347D01*
X005086Y031445D02*
X004807Y031445D01*
X004807Y031544D02*
X005086Y031544D01*
X005086Y031642D02*
X004807Y031642D01*
X004807Y031741D02*
X005086Y031741D01*
X005086Y031839D02*
X004807Y031839D01*
X004807Y031938D02*
X005086Y031938D01*
X005126Y032036D02*
X004807Y032036D01*
X004807Y032135D02*
X005224Y032135D01*
X005323Y032233D02*
X004807Y032233D01*
X004807Y032332D02*
X005421Y032332D01*
X005520Y032430D02*
X004794Y032430D01*
X004696Y032529D02*
X005618Y032529D01*
X006001Y032233D02*
X006148Y032233D01*
X006148Y032135D02*
X005903Y032135D01*
X005804Y032036D02*
X006148Y032036D01*
X006148Y031938D02*
X005706Y031938D01*
X005607Y031839D02*
X006148Y031839D01*
X006148Y031741D02*
X005566Y031741D01*
X005566Y031642D02*
X006148Y031642D01*
X006148Y031544D02*
X005566Y031544D01*
X005566Y031445D02*
X006148Y031445D01*
X006148Y031347D02*
X005566Y031347D01*
X005566Y031248D02*
X006148Y031248D01*
X006148Y031150D02*
X005566Y031150D01*
X006605Y031795D02*
X006825Y032015D01*
X006901Y032015D01*
X006605Y031795D02*
X006605Y029646D01*
X008082Y028170D01*
X008082Y018826D01*
X007885Y018630D01*
X007491Y018630D02*
X007491Y018590D01*
X007574Y018148D02*
X011936Y018148D01*
X011837Y018246D02*
X009101Y018246D01*
X009148Y018345D02*
X011739Y018345D01*
X011640Y018443D02*
X009148Y018443D01*
X009148Y018542D02*
X011542Y018542D01*
X011443Y018640D02*
X009148Y018640D01*
X009148Y018739D02*
X011345Y018739D01*
X011246Y018837D02*
X009115Y018837D01*
X009020Y018936D02*
X011148Y018936D01*
X011049Y019034D02*
X008922Y019034D01*
X008873Y019133D02*
X010951Y019133D01*
X010852Y019231D02*
X008873Y019231D01*
X008873Y019330D02*
X010754Y019330D01*
X010655Y019428D02*
X008873Y019428D01*
X008873Y019527D02*
X010267Y019527D01*
X010257Y019531D02*
X010378Y019481D01*
X010510Y019481D01*
X010576Y019508D01*
X014948Y015136D01*
X015021Y015063D01*
X015117Y015023D01*
X015946Y015023D01*
X015966Y015003D01*
X016087Y014953D01*
X016115Y014953D01*
X017383Y013685D01*
X017479Y013645D01*
X017521Y013645D01*
X017540Y013625D01*
X017662Y013575D01*
X017793Y013575D01*
X017914Y013625D01*
X018007Y013718D01*
X018057Y013839D01*
X018057Y013971D01*
X018007Y014092D01*
X017914Y014185D01*
X017793Y014235D01*
X017662Y014235D01*
X017596Y014208D01*
X017595Y014208D01*
X017596Y014208D02*
X016483Y015321D01*
X016483Y015349D01*
X016432Y015470D01*
X016339Y015563D01*
X016218Y015613D01*
X016087Y015613D01*
X015966Y015563D01*
X015946Y015543D01*
X015276Y015543D01*
X010788Y020031D01*
X010692Y020071D01*
X010651Y020071D01*
X010631Y020090D01*
X010510Y020141D01*
X010378Y020141D01*
X010257Y020090D01*
X010164Y019998D01*
X010114Y019876D01*
X010114Y019745D01*
X010164Y019624D01*
X010257Y019531D01*
X010163Y019625D02*
X008873Y019625D01*
X008873Y019724D02*
X010123Y019724D01*
X010114Y019822D02*
X008873Y019822D01*
X008873Y019921D02*
X010132Y019921D01*
X010186Y020019D02*
X008873Y020019D01*
X008873Y020118D02*
X010323Y020118D01*
X010565Y020118D02*
X012730Y020118D01*
X012632Y020216D02*
X008873Y020216D01*
X008873Y020315D02*
X012584Y020315D01*
X012584Y020413D02*
X008873Y020413D01*
X008873Y020512D02*
X012584Y020512D01*
X012584Y020610D02*
X008873Y020610D01*
X008873Y020709D02*
X012605Y020709D01*
X012704Y020807D02*
X008873Y020807D01*
X008873Y020906D02*
X012802Y020906D01*
X012844Y021004D02*
X008873Y021004D01*
X008873Y021103D02*
X012745Y021103D01*
X012647Y021201D02*
X008873Y021201D01*
X008873Y021300D02*
X012584Y021300D01*
X012584Y021398D02*
X008873Y021398D01*
X008873Y021497D02*
X012584Y021497D01*
X012584Y021595D02*
X011522Y021595D01*
X011255Y021595D02*
X008873Y021595D01*
X008873Y021694D02*
X011125Y021694D01*
X011075Y021792D02*
X008873Y021792D01*
X008873Y021891D02*
X011059Y021891D01*
X011070Y021989D02*
X008873Y021989D01*
X008873Y022088D02*
X011113Y022088D01*
X011224Y022186D02*
X008873Y022186D01*
X008873Y022285D02*
X012584Y022285D01*
X012584Y022383D02*
X008873Y022383D01*
X009052Y022482D02*
X012584Y022482D01*
X012584Y022580D02*
X009150Y022580D01*
X009191Y022679D02*
X012584Y022679D01*
X012662Y022186D02*
X011553Y022186D01*
X013343Y021004D02*
X013844Y021004D01*
X013745Y021103D02*
X013442Y021103D01*
X013540Y021201D02*
X013647Y021201D01*
X013718Y020906D02*
X013385Y020906D01*
X013483Y020807D02*
X013647Y020807D01*
X013644Y020709D02*
X013582Y020709D01*
X013604Y020610D02*
X013644Y020610D01*
X013604Y020512D02*
X014043Y020512D01*
X014044Y020610D02*
X014144Y020610D01*
X014144Y020512D02*
X015044Y020512D01*
X015035Y020532D02*
X015085Y020411D01*
X015178Y020318D01*
X015300Y020268D01*
X015431Y020268D01*
X015552Y020318D01*
X015572Y020338D01*
X017144Y020338D01*
X017204Y020278D01*
X017201Y020270D01*
X017201Y020139D01*
X017251Y020017D01*
X017344Y019925D01*
X017465Y019874D01*
X017596Y019874D01*
X017717Y019925D01*
X017810Y020017D01*
X017861Y020139D01*
X017861Y020270D01*
X017810Y020391D01*
X017762Y020439D01*
X017751Y020467D01*
X017473Y020745D01*
X017399Y020818D01*
X017304Y020858D01*
X015572Y020858D01*
X015552Y020878D01*
X015431Y020928D01*
X015300Y020928D01*
X015178Y020878D01*
X015085Y020785D01*
X015035Y020664D01*
X015035Y020532D01*
X015035Y020610D02*
X014544Y020610D01*
X014544Y020709D02*
X015054Y020709D01*
X015108Y020807D02*
X014540Y020807D01*
X014469Y020906D02*
X015246Y020906D01*
X015484Y020906D02*
X018058Y020906D01*
X018058Y021004D02*
X014343Y021004D01*
X014442Y021103D02*
X018058Y021103D01*
X018058Y021201D02*
X014540Y021201D01*
X014604Y021300D02*
X018058Y021300D01*
X018058Y021398D02*
X014902Y021398D01*
X015029Y021497D02*
X018058Y021497D01*
X018058Y021595D02*
X015127Y021595D01*
X015226Y021694D02*
X018058Y021694D01*
X018058Y021792D02*
X015420Y021792D01*
X015550Y021891D02*
X018037Y021891D01*
X017996Y021989D02*
X016554Y021989D01*
X016145Y021989D02*
X015600Y021989D01*
X015616Y022088D02*
X016060Y022088D01*
X016019Y022186D02*
X015605Y022186D01*
X014144Y020906D02*
X014044Y020906D01*
X014044Y020807D02*
X014144Y020807D01*
X014144Y020709D02*
X014044Y020709D01*
X014044Y020413D02*
X014144Y020413D01*
X014144Y020426D02*
X014144Y020026D01*
X014413Y020026D01*
X014451Y020036D01*
X014486Y020056D01*
X014514Y020084D01*
X014533Y020118D01*
X017209Y020118D01*
X017201Y020216D02*
X014544Y020216D01*
X014544Y020156D02*
X014544Y020426D01*
X014144Y020426D01*
X014144Y020315D02*
X014044Y020315D01*
X014044Y020216D02*
X014144Y020216D01*
X014144Y020118D02*
X014044Y020118D01*
X013921Y020019D02*
X017250Y020019D01*
X017353Y019921D02*
X014020Y019921D01*
X014118Y019822D02*
X018058Y019822D01*
X018058Y019724D02*
X014217Y019724D01*
X014315Y019625D02*
X018058Y019625D01*
X018058Y019527D02*
X014414Y019527D01*
X014512Y019428D02*
X018058Y019428D01*
X018058Y019330D02*
X014611Y019330D01*
X014709Y019231D02*
X018058Y019231D01*
X018058Y019133D02*
X014808Y019133D01*
X014906Y019034D02*
X018058Y019034D01*
X018058Y018936D02*
X015005Y018936D01*
X015103Y018837D02*
X017444Y018837D01*
X017617Y018837D02*
X018058Y018837D01*
X018058Y018739D02*
X017800Y018739D01*
X017885Y018640D02*
X018058Y018640D01*
X018048Y018542D02*
X018058Y018542D01*
X017393Y018049D02*
X015891Y018049D01*
X015990Y017951D02*
X017750Y017951D01*
X018058Y017852D02*
X016088Y017852D01*
X016187Y017754D02*
X018058Y017754D01*
X018058Y017655D02*
X016285Y017655D01*
X016367Y017557D02*
X018058Y017557D01*
X018058Y017458D02*
X016393Y017458D01*
X016393Y017360D02*
X018058Y017360D01*
X018058Y017261D02*
X016393Y017261D01*
X016393Y017163D02*
X018058Y017163D01*
X018058Y017064D02*
X016393Y017064D01*
X016393Y016966D02*
X018058Y016966D01*
X018058Y016867D02*
X016393Y016867D01*
X016393Y016769D02*
X018058Y016769D01*
X018058Y016670D02*
X016393Y016670D01*
X016477Y016572D02*
X017403Y016572D01*
X017658Y016572D02*
X018058Y016572D01*
X018058Y016473D02*
X017791Y016473D01*
X017843Y016375D02*
X018058Y016375D01*
X018058Y016276D02*
X017861Y016276D01*
X017851Y016178D02*
X018058Y016178D01*
X018058Y016079D02*
X017809Y016079D01*
X017701Y015981D02*
X018058Y015981D01*
X018058Y015882D02*
X014937Y015882D01*
X015035Y015784D02*
X018058Y015784D01*
X018058Y015685D02*
X015134Y015685D01*
X015232Y015587D02*
X016024Y015587D01*
X016282Y015587D02*
X018058Y015587D01*
X018058Y015488D02*
X016414Y015488D01*
X016466Y015390D02*
X018058Y015390D01*
X018058Y015291D02*
X016512Y015291D01*
X016610Y015193D02*
X018058Y015193D01*
X018058Y015094D02*
X016709Y015094D01*
X016807Y014996D02*
X018058Y014996D01*
X018058Y014897D02*
X016906Y014897D01*
X017004Y014799D02*
X018058Y014799D01*
X018058Y014700D02*
X017103Y014700D01*
X017201Y014602D02*
X018058Y014602D01*
X018058Y014503D02*
X017300Y014503D01*
X017398Y014405D02*
X018058Y014405D01*
X018058Y014306D02*
X017497Y014306D01*
X017859Y014208D02*
X018058Y014208D01*
X018058Y014109D02*
X017990Y014109D01*
X018041Y014011D02*
X018058Y014011D01*
X018057Y013912D02*
X018058Y013912D01*
X018047Y013814D02*
X018058Y013814D01*
X018058Y013715D02*
X018004Y013715D01*
X018058Y013617D02*
X017894Y013617D01*
X018058Y013518D02*
X003174Y013518D01*
X003174Y013420D02*
X018058Y013420D01*
X018058Y013321D02*
X003174Y013321D01*
X003174Y013223D02*
X016019Y013223D01*
X015889Y013124D02*
X003174Y013124D01*
X003174Y013026D02*
X015839Y013026D01*
X015823Y012927D02*
X003174Y012927D01*
X003174Y012829D02*
X015833Y012829D01*
X015876Y012730D02*
X003174Y012730D01*
X003174Y012632D02*
X009536Y012632D01*
X009435Y012533D02*
X003174Y012533D01*
X003174Y012435D02*
X009428Y012435D01*
X009428Y012336D02*
X003174Y012336D01*
X003174Y012238D02*
X009726Y012238D01*
X009823Y012238D02*
X010592Y012238D01*
X010689Y012238D02*
X011577Y012238D01*
X011673Y012238D02*
X015839Y012238D01*
X015823Y012139D02*
X011972Y012139D01*
X011972Y012320D02*
X011972Y012508D01*
X011962Y012546D01*
X011942Y012580D01*
X011914Y012608D01*
X011880Y012628D01*
X011842Y012638D01*
X011673Y012638D01*
X011673Y012320D01*
X011972Y012320D01*
X011972Y012336D02*
X015889Y012336D01*
X016018Y012435D02*
X011972Y012435D01*
X011965Y012533D02*
X018255Y012533D01*
X018255Y012632D02*
X016317Y012632D01*
X016287Y012435D02*
X018170Y012435D01*
X018217Y012730D02*
X018255Y012730D01*
X018040Y012921D02*
X018318Y013199D01*
X018318Y022074D01*
X018578Y021810D02*
X018930Y021458D01*
X019018Y021421D01*
X021908Y021421D01*
X021908Y021375D01*
X022206Y021375D01*
X022206Y021278D01*
X021908Y021278D01*
X021908Y021090D01*
X021918Y021052D01*
X021926Y021039D01*
X021848Y020961D01*
X021848Y020354D01*
X021965Y020237D01*
X021965Y020147D01*
X022005Y020051D01*
X021911Y020012D01*
X021891Y019992D01*
X021039Y019992D01*
X020944Y019952D01*
X020601Y019609D01*
X020616Y019647D01*
X020616Y019778D01*
X020566Y019899D01*
X020473Y019992D01*
X020352Y020042D01*
X020221Y020042D01*
X020099Y019992D01*
X020040Y019933D01*
X019706Y019933D01*
X019686Y019953D01*
X019565Y020003D01*
X019433Y020003D01*
X019312Y019953D01*
X019219Y019860D01*
X019169Y019738D01*
X019169Y019607D01*
X019181Y019579D01*
X019152Y019579D01*
X019056Y019539D01*
X018983Y019466D01*
X018972Y019454D01*
X018972Y020015D01*
X019098Y020141D01*
X020670Y020141D01*
X020690Y020121D01*
X020811Y020071D01*
X020943Y020071D01*
X021064Y020121D01*
X021157Y020214D01*
X021207Y020336D01*
X021207Y020467D01*
X021157Y020588D01*
X021064Y020681D01*
X020943Y020731D01*
X020912Y020731D01*
X020912Y020762D01*
X020861Y020883D01*
X020769Y020976D01*
X020647Y021026D01*
X020516Y021026D01*
X020395Y020976D01*
X020302Y020883D01*
X020291Y020858D01*
X018741Y020858D01*
X018646Y020818D01*
X018578Y020750D01*
X018578Y021810D01*
X018578Y021792D02*
X018595Y021792D01*
X018578Y021694D02*
X018694Y021694D01*
X018792Y021595D02*
X018578Y021595D01*
X018578Y021497D02*
X018891Y021497D01*
X018578Y021398D02*
X021908Y021398D01*
X021908Y021201D02*
X018578Y021201D01*
X018578Y021103D02*
X021908Y021103D01*
X021892Y021004D02*
X020701Y021004D01*
X020839Y020906D02*
X021848Y020906D01*
X021848Y020807D02*
X020893Y020807D01*
X020997Y020709D02*
X021848Y020709D01*
X021848Y020610D02*
X021134Y020610D01*
X021188Y020512D02*
X021848Y020512D01*
X021848Y020413D02*
X021207Y020413D01*
X021198Y020315D02*
X021887Y020315D01*
X021965Y020216D02*
X021158Y020216D01*
X021055Y020118D02*
X021977Y020118D01*
X021929Y020019D02*
X020407Y020019D01*
X020544Y019921D02*
X020912Y019921D01*
X020814Y019822D02*
X020598Y019822D01*
X020616Y019724D02*
X020715Y019724D01*
X020617Y019625D02*
X020608Y019625D01*
X020680Y019321D02*
X020680Y017645D01*
X019441Y016407D01*
X019441Y016128D01*
X019499Y016070D01*
X019499Y008787D01*
X019169Y008790D02*
X015562Y008790D01*
X015562Y008692D02*
X019181Y008692D01*
X019226Y008593D02*
X015562Y008593D01*
X015562Y008495D02*
X019342Y008495D01*
X019656Y008495D02*
X020419Y008495D01*
X020417Y008593D02*
X019772Y008593D01*
X019817Y008692D02*
X020417Y008692D01*
X020417Y008790D02*
X019829Y008790D01*
X019814Y008889D02*
X020417Y008889D01*
X020417Y008987D02*
X019765Y008987D01*
X019759Y009086D02*
X020417Y009086D01*
X020417Y009184D02*
X019759Y009184D01*
X019759Y009283D02*
X020417Y009283D01*
X020417Y009381D02*
X019759Y009381D01*
X019759Y009480D02*
X020421Y009480D01*
X020462Y009578D02*
X019759Y009578D01*
X019759Y009677D02*
X020526Y009677D01*
X020635Y009775D02*
X019759Y009775D01*
X019759Y009874D02*
X025601Y009874D01*
X025601Y009972D02*
X019759Y009972D01*
X019759Y010071D02*
X025601Y010071D01*
X025601Y010169D02*
X019759Y010169D01*
X019759Y010268D02*
X025601Y010268D01*
X025601Y010366D02*
X019759Y010366D01*
X019759Y010465D02*
X025601Y010465D01*
X025601Y010563D02*
X019759Y010563D01*
X019759Y010662D02*
X025601Y010662D01*
X025601Y010760D02*
X019759Y010760D01*
X019759Y010859D02*
X025601Y010859D01*
X025601Y010957D02*
X020833Y010957D01*
X020975Y011056D02*
X025601Y011056D01*
X025601Y011154D02*
X021030Y011154D01*
X021049Y011253D02*
X025601Y011253D01*
X025601Y011351D02*
X021042Y011351D01*
X021001Y011450D02*
X025601Y011450D01*
X025601Y011548D02*
X020903Y011548D01*
X020536Y011548D02*
X019896Y011548D01*
X019896Y011647D02*
X025601Y011647D01*
X025601Y011745D02*
X019896Y011745D01*
X019896Y011844D02*
X025601Y011844D01*
X025601Y011942D02*
X019896Y011942D01*
X019896Y012041D02*
X025601Y012041D01*
X025601Y012139D02*
X019896Y012139D01*
X019896Y012238D02*
X025601Y012238D01*
X025601Y012336D02*
X019896Y012336D01*
X019896Y012435D02*
X025601Y012435D01*
X025601Y012533D02*
X019896Y012533D01*
X019896Y012632D02*
X025601Y012632D01*
X025601Y012730D02*
X019896Y012730D01*
X019896Y012829D02*
X025601Y012829D01*
X025601Y012927D02*
X019896Y012927D01*
X019896Y013026D02*
X025601Y013026D01*
X025601Y013124D02*
X019896Y013124D01*
X019896Y013223D02*
X025601Y013223D01*
X025601Y013321D02*
X019896Y013321D01*
X019896Y013420D02*
X025601Y013420D01*
X025601Y013518D02*
X019896Y013518D01*
X019896Y013617D02*
X025601Y013617D01*
X025601Y013715D02*
X019896Y013715D01*
X019896Y013814D02*
X025601Y013814D01*
X025601Y013912D02*
X019896Y013912D01*
X019896Y014011D02*
X025601Y014011D01*
X025601Y014109D02*
X019896Y014109D01*
X019896Y014208D02*
X025601Y014208D01*
X025601Y014306D02*
X019896Y014306D01*
X019896Y014405D02*
X025601Y014405D01*
X025601Y014503D02*
X019896Y014503D01*
X019896Y014602D02*
X025601Y014602D01*
X025617Y014700D02*
X019896Y014700D01*
X019896Y014799D02*
X025715Y014799D01*
X025814Y014897D02*
X019896Y014897D01*
X019896Y014996D02*
X025912Y014996D01*
X026011Y015094D02*
X019896Y015094D01*
X019896Y015193D02*
X026109Y015193D01*
X026208Y015291D02*
X019896Y015291D01*
X019896Y015390D02*
X026306Y015390D01*
X026405Y015488D02*
X019896Y015488D01*
X019896Y015587D02*
X026503Y015587D01*
X026979Y016464D02*
X027882Y016464D01*
X032491Y021073D01*
X032491Y026996D01*
X032821Y027013D02*
X034271Y027013D01*
X034273Y027011D02*
X034394Y026961D01*
X034525Y026961D01*
X034647Y027011D01*
X034739Y027104D01*
X034790Y027225D01*
X034790Y027357D01*
X034739Y027478D01*
X034647Y027571D01*
X034525Y027621D01*
X034497Y027621D01*
X034312Y027807D01*
X034216Y027846D01*
X033053Y027846D01*
X032958Y027807D01*
X032885Y027733D01*
X032702Y027551D01*
X028967Y027551D01*
X028872Y027511D01*
X028799Y027438D01*
X028716Y027355D01*
X028716Y028144D01*
X028783Y028212D01*
X029023Y028212D01*
X029012Y028183D01*
X029012Y028052D01*
X029062Y027931D01*
X029155Y027838D01*
X029276Y027788D01*
X029407Y027788D01*
X029528Y027838D01*
X029568Y027878D01*
X035620Y027878D01*
X036149Y027349D01*
X036149Y025242D01*
X036041Y025134D01*
X036041Y024133D01*
X036164Y024010D01*
X037165Y024010D01*
X037288Y024133D01*
X037288Y025134D01*
X037165Y025257D01*
X036629Y025257D01*
X036629Y026843D01*
X036691Y026843D01*
X036787Y026883D01*
X037841Y026883D01*
X037937Y026843D01*
X038069Y026843D01*
X038165Y026883D01*
X038946Y026883D01*
X039288Y026541D01*
X039288Y025878D01*
X039248Y025782D01*
X039248Y025650D01*
X039298Y025529D01*
X039391Y025436D01*
X039512Y025386D01*
X039643Y025386D01*
X039765Y025436D01*
X039858Y025529D01*
X039908Y025650D01*
X039908Y025782D01*
X039868Y025878D01*
X039868Y026719D01*
X039824Y026825D01*
X039742Y026907D01*
X039230Y027419D01*
X039124Y027463D01*
X038165Y027463D01*
X038069Y027503D01*
X037937Y027503D01*
X037841Y027463D01*
X036787Y027463D01*
X036691Y027503D01*
X036626Y027503D01*
X036606Y027551D01*
X039956Y027551D01*
X040077Y027602D01*
X040170Y027695D01*
X040448Y027973D01*
X040498Y028094D01*
X040498Y029123D01*
X041432Y030057D01*
X041483Y030178D01*
X041483Y031838D01*
X041432Y031959D01*
X041339Y032052D01*
X040498Y032893D01*
X040498Y034083D01*
X040448Y034205D01*
X040355Y034297D01*
X039798Y034854D01*
X039677Y034904D01*
X037085Y034904D01*
X037085Y035013D01*
X037015Y035182D01*
X036575Y035622D01*
X036455Y035742D01*
X042124Y035742D01*
X042124Y020598D01*
X034263Y020598D01*
X034263Y019460D01*
X032443Y019460D01*
X032355Y019424D01*
X032288Y019356D01*
X031891Y018960D01*
X031835Y018960D01*
X031714Y018909D01*
X031621Y018816D01*
X031571Y018695D01*
X031571Y018564D01*
X031621Y018443D01*
X031714Y018350D01*
X031835Y018300D01*
X031966Y018300D01*
X032088Y018350D01*
X032180Y018443D01*
X032231Y018564D01*
X032231Y018620D01*
X032591Y018980D01*
X034263Y018980D01*
X034263Y017252D01*
X029209Y017252D01*
X032981Y021024D01*
X033017Y021060D01*
X033032Y021066D01*
X033125Y021159D01*
X033175Y021280D01*
X033175Y021412D01*
X033125Y021533D01*
X033032Y021626D01*
X032911Y021676D01*
X032780Y021676D01*
X032751Y021664D01*
X032751Y026789D01*
X032771Y026809D01*
X032821Y026930D01*
X032821Y027031D01*
X032861Y027031D01*
X032957Y027071D01*
X033213Y027326D01*
X034057Y027326D01*
X034130Y027253D01*
X034130Y027225D01*
X034180Y027104D01*
X034273Y027011D01*
X034177Y027111D02*
X032998Y027111D01*
X033096Y027210D02*
X034136Y027210D01*
X034075Y027308D02*
X033195Y027308D01*
X033105Y027586D02*
X034164Y027586D01*
X034460Y027291D01*
X034769Y027407D02*
X036091Y027407D01*
X036149Y027308D02*
X034790Y027308D01*
X034783Y027210D02*
X036149Y027210D01*
X036149Y027111D02*
X034742Y027111D01*
X034648Y027013D02*
X036149Y027013D01*
X036149Y026914D02*
X032815Y026914D01*
X032774Y026816D02*
X036149Y026816D01*
X036149Y026717D02*
X032751Y026717D01*
X032751Y026619D02*
X036149Y026619D01*
X036149Y026520D02*
X032751Y026520D01*
X032751Y026422D02*
X036149Y026422D01*
X036149Y026323D02*
X032751Y026323D01*
X032751Y026225D02*
X036149Y026225D01*
X036149Y026126D02*
X032751Y026126D01*
X032751Y026028D02*
X036149Y026028D01*
X036149Y025929D02*
X032751Y025929D01*
X032751Y025831D02*
X036149Y025831D01*
X036149Y025732D02*
X032751Y025732D01*
X032751Y025634D02*
X036149Y025634D01*
X036149Y025535D02*
X032751Y025535D01*
X032751Y025437D02*
X036149Y025437D01*
X036149Y025338D02*
X032751Y025338D01*
X032751Y025240D02*
X034493Y025240D01*
X034510Y025257D02*
X034387Y025134D01*
X034387Y024133D01*
X034510Y024010D01*
X035511Y024010D01*
X035634Y024133D01*
X035634Y025134D01*
X035511Y025257D01*
X034510Y025257D01*
X034395Y025141D02*
X033888Y025141D01*
X033891Y025139D02*
X033863Y025167D01*
X033829Y025187D01*
X033790Y025197D01*
X033407Y025197D01*
X033407Y024683D01*
X033921Y024683D01*
X033921Y025067D01*
X033910Y025105D01*
X033891Y025139D01*
X033921Y025043D02*
X034387Y025043D01*
X034387Y024944D02*
X033921Y024944D01*
X033921Y024846D02*
X034387Y024846D01*
X034387Y024747D02*
X033921Y024747D01*
X033921Y024583D02*
X033407Y024583D01*
X033407Y024070D01*
X033790Y024070D01*
X033829Y024080D01*
X033863Y024100D01*
X033891Y024128D01*
X033910Y024162D01*
X033921Y024200D01*
X033921Y024583D01*
X033921Y024550D02*
X034387Y024550D01*
X034387Y024452D02*
X033921Y024452D01*
X033921Y024353D02*
X034387Y024353D01*
X034387Y024255D02*
X033921Y024255D01*
X033907Y024156D02*
X034387Y024156D01*
X034463Y024058D02*
X032751Y024058D01*
X032751Y024156D02*
X032807Y024156D01*
X032804Y024162D02*
X032824Y024128D01*
X032852Y024100D01*
X032886Y024080D01*
X032924Y024070D01*
X033307Y024070D01*
X033307Y024583D01*
X033407Y024583D01*
X033407Y024683D01*
X033307Y024683D01*
X033307Y024583D01*
X032794Y024583D01*
X032794Y024200D01*
X032804Y024162D01*
X032794Y024255D02*
X032751Y024255D01*
X032751Y024353D02*
X032794Y024353D01*
X032794Y024452D02*
X032751Y024452D01*
X032751Y024550D02*
X032794Y024550D01*
X032751Y024649D02*
X033307Y024649D01*
X033307Y024683D02*
X032794Y024683D01*
X032794Y025067D01*
X032804Y025105D01*
X032824Y025139D01*
X032852Y025167D01*
X032886Y025187D01*
X032924Y025197D01*
X033307Y025197D01*
X033307Y024683D01*
X033307Y024747D02*
X033407Y024747D01*
X033407Y024649D02*
X034387Y024649D01*
X033407Y024550D02*
X033307Y024550D01*
X033307Y024452D02*
X033407Y024452D01*
X033407Y024353D02*
X033307Y024353D01*
X033307Y024255D02*
X033407Y024255D01*
X033407Y024156D02*
X033307Y024156D01*
X032751Y023959D02*
X037678Y023959D01*
X037678Y023861D02*
X032751Y023861D01*
X032751Y023762D02*
X037678Y023762D01*
X037678Y023664D02*
X032751Y023664D01*
X032751Y023565D02*
X037678Y023565D01*
X037678Y023467D02*
X032751Y023467D01*
X032751Y023368D02*
X037678Y023368D01*
X037678Y023270D02*
X032751Y023270D01*
X032751Y023171D02*
X037678Y023171D01*
X037678Y023073D02*
X037183Y023073D01*
X037165Y023091D02*
X036164Y023091D01*
X036041Y022968D01*
X036041Y021968D01*
X036164Y021845D01*
X037165Y021845D01*
X037288Y021968D01*
X037288Y022968D01*
X037165Y023091D01*
X037282Y022974D02*
X037678Y022974D01*
X037678Y022876D02*
X037288Y022876D01*
X037288Y022777D02*
X037678Y022777D01*
X037678Y022679D02*
X037288Y022679D01*
X037288Y022580D02*
X037678Y022580D01*
X037678Y022482D02*
X037288Y022482D01*
X037288Y022383D02*
X037678Y022383D01*
X037678Y022341D02*
X037695Y022301D01*
X037695Y021968D01*
X037818Y021845D01*
X038150Y021845D01*
X038191Y021828D01*
X038445Y021828D01*
X038485Y021845D01*
X038818Y021845D01*
X038941Y021968D01*
X038941Y022301D01*
X038958Y022341D01*
X038958Y024761D01*
X038941Y024801D01*
X038941Y025134D01*
X038818Y025257D01*
X038485Y025257D01*
X038445Y025273D01*
X038191Y025273D01*
X038150Y025257D01*
X037818Y025257D01*
X037695Y025134D01*
X037695Y024801D01*
X037678Y024761D01*
X037678Y022341D01*
X037695Y022285D02*
X037288Y022285D01*
X037288Y022186D02*
X037695Y022186D01*
X037695Y022088D02*
X037288Y022088D01*
X037288Y021989D02*
X037695Y021989D01*
X037771Y021891D02*
X037211Y021891D01*
X036118Y021891D02*
X035557Y021891D01*
X035511Y021845D02*
X035634Y021968D01*
X035634Y022968D01*
X035511Y023091D01*
X034510Y023091D01*
X034387Y022968D01*
X034387Y021968D01*
X034510Y021845D01*
X035511Y021845D01*
X035634Y021989D02*
X036041Y021989D01*
X036041Y022088D02*
X035634Y022088D01*
X035634Y022186D02*
X036041Y022186D01*
X036041Y022285D02*
X035634Y022285D01*
X035634Y022383D02*
X036041Y022383D01*
X036041Y022482D02*
X035634Y022482D01*
X035634Y022580D02*
X036041Y022580D01*
X036041Y022679D02*
X035634Y022679D01*
X035634Y022777D02*
X036041Y022777D01*
X036041Y022876D02*
X035634Y022876D01*
X035628Y022974D02*
X036047Y022974D01*
X036145Y023073D02*
X035530Y023073D01*
X035559Y024058D02*
X036116Y024058D01*
X036041Y024156D02*
X035634Y024156D01*
X035634Y024255D02*
X036041Y024255D01*
X036041Y024353D02*
X035634Y024353D01*
X035634Y024452D02*
X036041Y024452D01*
X036041Y024550D02*
X035634Y024550D01*
X035634Y024649D02*
X036041Y024649D01*
X036041Y024747D02*
X035634Y024747D01*
X035634Y024846D02*
X036041Y024846D01*
X036041Y024944D02*
X035634Y024944D01*
X035634Y025043D02*
X036041Y025043D01*
X036049Y025141D02*
X035627Y025141D01*
X035528Y025240D02*
X036147Y025240D01*
X036629Y025338D02*
X042124Y025338D01*
X042124Y025240D02*
X040359Y025240D01*
X040328Y025253D02*
X040009Y025253D01*
X039715Y025131D01*
X039490Y024906D01*
X039368Y024612D01*
X039368Y024293D01*
X039490Y023999D01*
X039715Y023774D01*
X040009Y023652D01*
X040328Y023652D01*
X040622Y023774D01*
X040847Y023999D01*
X040969Y024293D01*
X040969Y024612D01*
X040847Y024906D01*
X040622Y025131D01*
X040328Y025253D01*
X040597Y025141D02*
X042124Y025141D01*
X042124Y025043D02*
X040710Y025043D01*
X040808Y024944D02*
X042124Y024944D01*
X042124Y024846D02*
X040872Y024846D01*
X040913Y024747D02*
X042124Y024747D01*
X042124Y024649D02*
X040953Y024649D01*
X040969Y024550D02*
X042124Y024550D01*
X042124Y024452D02*
X040969Y024452D01*
X040969Y024353D02*
X042124Y024353D01*
X042124Y024255D02*
X040953Y024255D01*
X040912Y024156D02*
X042124Y024156D01*
X042124Y024058D02*
X040871Y024058D01*
X040807Y023959D02*
X042124Y023959D01*
X042124Y023861D02*
X040709Y023861D01*
X040594Y023762D02*
X042124Y023762D01*
X042124Y023664D02*
X040357Y023664D01*
X039980Y023664D02*
X038958Y023664D01*
X038958Y023762D02*
X039742Y023762D01*
X039628Y023861D02*
X038958Y023861D01*
X038958Y023959D02*
X039529Y023959D01*
X039465Y024058D02*
X038958Y024058D01*
X038958Y024156D02*
X039424Y024156D01*
X039384Y024255D02*
X038958Y024255D01*
X038958Y024353D02*
X039368Y024353D01*
X039368Y024452D02*
X038958Y024452D01*
X038958Y024550D02*
X039368Y024550D01*
X039383Y024649D02*
X038958Y024649D01*
X038958Y024747D02*
X039424Y024747D01*
X039465Y024846D02*
X038941Y024846D01*
X038941Y024944D02*
X039528Y024944D01*
X039627Y025043D02*
X038941Y025043D01*
X038934Y025141D02*
X039740Y025141D01*
X039978Y025240D02*
X038835Y025240D01*
X039295Y025535D02*
X036629Y025535D01*
X036629Y025437D02*
X039390Y025437D01*
X039255Y025634D02*
X036629Y025634D01*
X036629Y025732D02*
X039248Y025732D01*
X039268Y025831D02*
X036629Y025831D01*
X036629Y025929D02*
X039288Y025929D01*
X039288Y026028D02*
X036629Y026028D01*
X036629Y026126D02*
X039288Y026126D01*
X039288Y026225D02*
X036629Y026225D01*
X036629Y026323D02*
X039288Y026323D01*
X039288Y026422D02*
X036629Y026422D01*
X036629Y026520D02*
X039288Y026520D01*
X039210Y026619D02*
X036629Y026619D01*
X036629Y026717D02*
X039111Y026717D01*
X039013Y026816D02*
X036629Y026816D01*
X036625Y027505D02*
X042124Y027505D01*
X042124Y027407D02*
X039242Y027407D01*
X039341Y027308D02*
X042124Y027308D01*
X042124Y027210D02*
X039439Y027210D01*
X039538Y027111D02*
X042124Y027111D01*
X042124Y027013D02*
X039636Y027013D01*
X039735Y026914D02*
X042124Y026914D01*
X042124Y026816D02*
X039828Y026816D01*
X039868Y026717D02*
X042124Y026717D01*
X042124Y026619D02*
X039868Y026619D01*
X039868Y026520D02*
X042124Y026520D01*
X042124Y026422D02*
X039868Y026422D01*
X039868Y026323D02*
X042124Y026323D01*
X042124Y026225D02*
X039868Y026225D01*
X039868Y026126D02*
X042124Y026126D01*
X042124Y026028D02*
X039868Y026028D01*
X039868Y025929D02*
X042124Y025929D01*
X042124Y025831D02*
X039887Y025831D01*
X039908Y025732D02*
X042124Y025732D01*
X042124Y025634D02*
X039901Y025634D01*
X039860Y025535D02*
X042124Y025535D01*
X042124Y025437D02*
X039765Y025437D01*
X037801Y025240D02*
X037182Y025240D01*
X037280Y025141D02*
X037702Y025141D01*
X037695Y025043D02*
X037288Y025043D01*
X037288Y024944D02*
X037695Y024944D01*
X037695Y024846D02*
X037288Y024846D01*
X037288Y024747D02*
X037678Y024747D01*
X037678Y024649D02*
X037288Y024649D01*
X037288Y024550D02*
X037678Y024550D01*
X037678Y024452D02*
X037288Y024452D01*
X037288Y024353D02*
X037678Y024353D01*
X037678Y024255D02*
X037288Y024255D01*
X037288Y024156D02*
X037678Y024156D01*
X037678Y024058D02*
X037213Y024058D01*
X038958Y023565D02*
X042124Y023565D01*
X042124Y023467D02*
X038958Y023467D01*
X038958Y023368D02*
X042124Y023368D01*
X042124Y023270D02*
X038958Y023270D01*
X038958Y023171D02*
X042124Y023171D01*
X042124Y023073D02*
X038958Y023073D01*
X038958Y022974D02*
X042124Y022974D01*
X042124Y022876D02*
X038958Y022876D01*
X038958Y022777D02*
X042124Y022777D01*
X042124Y022679D02*
X038958Y022679D01*
X038958Y022580D02*
X042124Y022580D01*
X042124Y022482D02*
X038958Y022482D01*
X038958Y022383D02*
X042124Y022383D01*
X042124Y022285D02*
X038941Y022285D01*
X038941Y022186D02*
X042124Y022186D01*
X042124Y022088D02*
X038941Y022088D01*
X038941Y021989D02*
X042124Y021989D01*
X042124Y021891D02*
X038864Y021891D01*
X042124Y021792D02*
X032751Y021792D01*
X032751Y021694D02*
X042124Y021694D01*
X042124Y021595D02*
X033063Y021595D01*
X033140Y021497D02*
X042124Y021497D01*
X042124Y021398D02*
X033175Y021398D01*
X033175Y021300D02*
X042124Y021300D01*
X042124Y021201D02*
X033143Y021201D01*
X033069Y021103D02*
X042124Y021103D01*
X042124Y021004D02*
X032961Y021004D01*
X032863Y020906D02*
X042124Y020906D01*
X042124Y020807D02*
X032764Y020807D01*
X032666Y020709D02*
X042124Y020709D01*
X042124Y020610D02*
X032567Y020610D01*
X032469Y020512D02*
X034263Y020512D01*
X034263Y020413D02*
X032370Y020413D01*
X032272Y020315D02*
X034263Y020315D01*
X034263Y020216D02*
X032173Y020216D01*
X032075Y020118D02*
X034263Y020118D01*
X034263Y020019D02*
X031976Y020019D01*
X031878Y019921D02*
X034263Y019921D01*
X034263Y019822D02*
X031779Y019822D01*
X031681Y019724D02*
X034263Y019724D01*
X034263Y019625D02*
X031582Y019625D01*
X031484Y019527D02*
X034263Y019527D01*
X034263Y018936D02*
X032546Y018936D01*
X032448Y018837D02*
X034263Y018837D01*
X034263Y018739D02*
X032349Y018739D01*
X032251Y018640D02*
X034263Y018640D01*
X034263Y018542D02*
X032221Y018542D01*
X032181Y018443D02*
X034263Y018443D01*
X034263Y018345D02*
X032076Y018345D01*
X031726Y018345D02*
X030302Y018345D01*
X030400Y018443D02*
X031621Y018443D01*
X031580Y018542D02*
X030499Y018542D01*
X030597Y018640D02*
X031571Y018640D01*
X031589Y018739D02*
X030696Y018739D01*
X030794Y018837D02*
X031642Y018837D01*
X031778Y018936D02*
X030893Y018936D01*
X030991Y019034D02*
X031966Y019034D01*
X032064Y019133D02*
X031090Y019133D01*
X031188Y019231D02*
X032163Y019231D01*
X032261Y019330D02*
X031287Y019330D01*
X031385Y019428D02*
X032367Y019428D01*
X031267Y020216D02*
X031174Y020216D01*
X031156Y020234D02*
X031156Y022664D01*
X031840Y023347D01*
X032231Y023739D01*
X032231Y021181D01*
X031210Y020160D01*
X031196Y020194D01*
X031156Y020234D01*
X031156Y020315D02*
X031365Y020315D01*
X031464Y020413D02*
X031156Y020413D01*
X031156Y020512D02*
X031562Y020512D01*
X031661Y020610D02*
X031156Y020610D01*
X031156Y020709D02*
X031759Y020709D01*
X031858Y020807D02*
X031156Y020807D01*
X031156Y020906D02*
X031956Y020906D01*
X032055Y021004D02*
X031156Y021004D01*
X031156Y021103D02*
X032153Y021103D01*
X032231Y021201D02*
X031156Y021201D01*
X031156Y021300D02*
X032231Y021300D01*
X032231Y021398D02*
X031156Y021398D01*
X031156Y021497D02*
X032231Y021497D01*
X032231Y021595D02*
X031156Y021595D01*
X031156Y021694D02*
X032231Y021694D01*
X032231Y021792D02*
X031156Y021792D01*
X031156Y021891D02*
X032231Y021891D01*
X032231Y021989D02*
X031156Y021989D01*
X031156Y022088D02*
X032231Y022088D01*
X032231Y022186D02*
X031156Y022186D01*
X031156Y022285D02*
X032231Y022285D01*
X032231Y022383D02*
X031156Y022383D01*
X031156Y022482D02*
X032231Y022482D01*
X032231Y022580D02*
X031156Y022580D01*
X031171Y022679D02*
X032231Y022679D01*
X032231Y022777D02*
X031270Y022777D01*
X031368Y022876D02*
X032231Y022876D01*
X032231Y022974D02*
X031467Y022974D01*
X031565Y023073D02*
X032231Y023073D01*
X032231Y023171D02*
X031664Y023171D01*
X031762Y023270D02*
X032231Y023270D01*
X032231Y023368D02*
X031861Y023368D01*
X031959Y023467D02*
X032231Y023467D01*
X032231Y023565D02*
X032058Y023565D01*
X032156Y023664D02*
X032231Y023664D01*
X032751Y023073D02*
X034492Y023073D01*
X034393Y022974D02*
X033890Y022974D01*
X033891Y022974D02*
X033863Y023002D01*
X033829Y023021D01*
X033790Y023031D01*
X033407Y023031D01*
X033407Y022518D01*
X033307Y022518D01*
X033307Y022418D01*
X032794Y022418D01*
X032794Y022035D01*
X032804Y021997D01*
X032824Y021963D01*
X032852Y021935D01*
X032886Y021915D01*
X032924Y021905D01*
X033307Y021905D01*
X033307Y022418D01*
X033407Y022418D01*
X033407Y021905D01*
X033790Y021905D01*
X033829Y021915D01*
X033863Y021935D01*
X033891Y021963D01*
X033910Y021997D01*
X033921Y022035D01*
X033921Y022418D01*
X033407Y022418D01*
X033407Y022518D01*
X033921Y022518D01*
X033921Y022901D01*
X033910Y022939D01*
X033891Y022974D01*
X033921Y022876D02*
X034387Y022876D01*
X034387Y022777D02*
X033921Y022777D01*
X033921Y022679D02*
X034387Y022679D01*
X034387Y022580D02*
X033921Y022580D01*
X033921Y022383D02*
X034387Y022383D01*
X034387Y022285D02*
X033921Y022285D01*
X033921Y022186D02*
X034387Y022186D01*
X034387Y022088D02*
X033921Y022088D01*
X033906Y021989D02*
X034387Y021989D01*
X034464Y021891D02*
X032751Y021891D01*
X032751Y021989D02*
X032808Y021989D01*
X032794Y022088D02*
X032751Y022088D01*
X032751Y022186D02*
X032794Y022186D01*
X032794Y022285D02*
X032751Y022285D01*
X032751Y022383D02*
X032794Y022383D01*
X032751Y022482D02*
X033307Y022482D01*
X033307Y022518D02*
X032794Y022518D01*
X032794Y022901D01*
X032804Y022939D01*
X032824Y022974D01*
X032852Y023002D01*
X032886Y023021D01*
X032924Y023031D01*
X033307Y023031D01*
X033307Y022518D01*
X033307Y022580D02*
X033407Y022580D01*
X033407Y022482D02*
X034387Y022482D01*
X033407Y022383D02*
X033307Y022383D01*
X033307Y022285D02*
X033407Y022285D01*
X033407Y022186D02*
X033307Y022186D01*
X033307Y022088D02*
X033407Y022088D01*
X033407Y021989D02*
X033307Y021989D01*
X033307Y022679D02*
X033407Y022679D01*
X033407Y022777D02*
X033307Y022777D01*
X033307Y022876D02*
X033407Y022876D01*
X033407Y022974D02*
X033307Y022974D01*
X032825Y022974D02*
X032751Y022974D01*
X032751Y022876D02*
X032794Y022876D01*
X032794Y022777D02*
X032751Y022777D01*
X032751Y022679D02*
X032794Y022679D01*
X032794Y022580D02*
X032751Y022580D01*
X032751Y024747D02*
X032794Y024747D01*
X032794Y024846D02*
X032751Y024846D01*
X032751Y024944D02*
X032794Y024944D01*
X032794Y025043D02*
X032751Y025043D01*
X032751Y025141D02*
X032826Y025141D01*
X033307Y025141D02*
X033407Y025141D01*
X033407Y025043D02*
X033307Y025043D01*
X033307Y024944D02*
X033407Y024944D01*
X033407Y024846D02*
X033307Y024846D01*
X032810Y027291D02*
X033105Y027586D01*
X032952Y027801D02*
X029439Y027801D01*
X029244Y027801D02*
X028716Y027801D01*
X028716Y027899D02*
X029093Y027899D01*
X029034Y027998D02*
X028716Y027998D01*
X028716Y028096D02*
X029012Y028096D01*
X029016Y028195D02*
X028766Y028195D01*
X028676Y028472D02*
X033788Y028472D01*
X034066Y028750D01*
X034066Y033590D01*
X034460Y033984D01*
X034767Y034105D02*
X036086Y034105D01*
X036149Y034042D02*
X035620Y034571D01*
X033299Y034571D01*
X032034Y033305D01*
X032034Y033249D01*
X031983Y033128D01*
X031891Y033035D01*
X031769Y032985D01*
X031638Y032985D01*
X031517Y033035D01*
X031454Y033098D01*
X031454Y032558D01*
X031455Y032555D01*
X031455Y032372D01*
X031385Y032203D01*
X030533Y031351D01*
X030364Y031281D01*
X028864Y031281D01*
X028680Y031097D01*
X028716Y031061D01*
X028766Y030939D01*
X028766Y030917D01*
X030735Y030917D01*
X030706Y030986D01*
X030706Y031305D01*
X030828Y031599D01*
X031053Y031824D01*
X031348Y031946D01*
X031666Y031946D01*
X031960Y031824D01*
X032186Y031599D01*
X032231Y031489D01*
X032231Y032854D01*
X032271Y032950D01*
X032555Y033234D01*
X032555Y033262D01*
X032605Y033383D01*
X032698Y033476D01*
X032819Y033526D01*
X032950Y033526D01*
X033072Y033476D01*
X033165Y033383D01*
X033215Y033262D01*
X033215Y033131D01*
X033165Y033010D01*
X033072Y032917D01*
X032950Y032866D01*
X032923Y032866D01*
X032751Y032695D01*
X032751Y029269D01*
X032771Y029250D01*
X032821Y029128D01*
X032821Y029111D01*
X033307Y029111D01*
X033307Y029211D01*
X032794Y029211D01*
X032794Y029594D01*
X032804Y029632D01*
X032824Y029667D01*
X032852Y029694D01*
X032886Y029714D01*
X032924Y029724D01*
X033307Y029724D01*
X033307Y029211D01*
X033407Y029211D01*
X033407Y029724D01*
X033790Y029724D01*
X033806Y029720D01*
X033806Y030767D01*
X033790Y030763D01*
X033407Y030763D01*
X033407Y031276D01*
X033307Y031276D01*
X033307Y030763D01*
X032924Y030763D01*
X032886Y030773D01*
X032852Y030793D01*
X032824Y030821D01*
X032804Y030855D01*
X032794Y030893D01*
X032794Y031276D01*
X033307Y031276D01*
X033307Y031376D01*
X032794Y031376D01*
X032794Y031760D01*
X032804Y031798D01*
X032824Y031832D01*
X032852Y031860D01*
X032886Y031880D01*
X032924Y031890D01*
X033307Y031890D01*
X033307Y031376D01*
X033407Y031376D01*
X033407Y031890D01*
X033790Y031890D01*
X033806Y031886D01*
X033806Y033642D01*
X033846Y033737D01*
X034130Y034022D01*
X034130Y034049D01*
X034180Y034171D01*
X034273Y034264D01*
X034394Y034314D01*
X034525Y034314D01*
X034647Y034264D01*
X034739Y034171D01*
X034790Y034049D01*
X034790Y033918D01*
X034739Y033797D01*
X034647Y033704D01*
X034525Y033654D01*
X034497Y033654D01*
X034326Y033482D01*
X034326Y028699D01*
X034286Y028603D01*
X034213Y028530D01*
X034041Y028358D01*
X035767Y028358D01*
X035855Y028321D01*
X036295Y027882D01*
X036295Y027947D01*
X036345Y028068D01*
X036438Y028161D01*
X036559Y028211D01*
X039753Y028211D01*
X039838Y028297D01*
X039838Y029325D01*
X039889Y029446D01*
X039981Y029539D01*
X040823Y030380D01*
X040823Y030667D01*
X040622Y030467D01*
X040328Y030345D01*
X040009Y030345D01*
X039715Y030467D01*
X039490Y030692D01*
X039368Y030986D01*
X039368Y031305D01*
X039490Y031599D01*
X039715Y031824D01*
X040009Y031946D01*
X040328Y031946D01*
X040622Y031824D01*
X040823Y031623D01*
X040823Y031635D01*
X039889Y032569D01*
X039868Y032620D01*
X039868Y032571D01*
X039908Y032475D01*
X039908Y032343D01*
X039858Y032222D01*
X039765Y032129D01*
X039643Y032079D01*
X039512Y032079D01*
X039391Y032129D01*
X039298Y032222D01*
X039248Y032343D01*
X039248Y032475D01*
X039288Y032571D01*
X039288Y033265D01*
X038977Y033576D01*
X038165Y033576D01*
X038069Y033536D01*
X037937Y033536D01*
X037841Y033576D01*
X036787Y033576D01*
X036691Y033536D01*
X036629Y033536D01*
X036629Y031950D01*
X037165Y031950D01*
X037288Y031827D01*
X037288Y030826D01*
X037165Y030703D01*
X036164Y030703D01*
X036041Y030826D01*
X036041Y031827D01*
X036149Y031935D01*
X036149Y034042D01*
X036149Y034006D02*
X034790Y034006D01*
X034785Y033908D02*
X036149Y033908D01*
X036149Y033809D02*
X034745Y033809D01*
X034653Y033711D02*
X036149Y033711D01*
X036149Y033612D02*
X034456Y033612D01*
X034357Y033514D02*
X036149Y033514D01*
X036149Y033415D02*
X034326Y033415D01*
X034326Y033317D02*
X036149Y033317D01*
X036149Y033218D02*
X034326Y033218D01*
X034326Y033120D02*
X036149Y033120D01*
X036149Y033021D02*
X034326Y033021D01*
X034326Y032923D02*
X036149Y032923D01*
X036149Y032824D02*
X034326Y032824D01*
X034326Y032726D02*
X036149Y032726D01*
X036149Y032627D02*
X034326Y032627D01*
X034326Y032529D02*
X036149Y032529D01*
X036149Y032430D02*
X034326Y032430D01*
X034326Y032332D02*
X036149Y032332D01*
X036149Y032233D02*
X034326Y032233D01*
X034326Y032135D02*
X036149Y032135D01*
X036149Y032036D02*
X034326Y032036D01*
X034326Y031938D02*
X034499Y031938D01*
X034510Y031950D02*
X034387Y031827D01*
X034387Y030826D01*
X034510Y030703D01*
X035511Y030703D01*
X035634Y030826D01*
X035634Y031827D01*
X035511Y031950D01*
X034510Y031950D01*
X034400Y031839D02*
X034326Y031839D01*
X034326Y031741D02*
X034387Y031741D01*
X034387Y031642D02*
X034326Y031642D01*
X034326Y031544D02*
X034387Y031544D01*
X034387Y031445D02*
X034326Y031445D01*
X034326Y031347D02*
X034387Y031347D01*
X034387Y031248D02*
X034326Y031248D01*
X034326Y031150D02*
X034387Y031150D01*
X034387Y031051D02*
X034326Y031051D01*
X034326Y030953D02*
X034387Y030953D01*
X034387Y030854D02*
X034326Y030854D01*
X034326Y030756D02*
X034458Y030756D01*
X034326Y030657D02*
X037678Y030657D01*
X037678Y030559D02*
X034326Y030559D01*
X034326Y030460D02*
X037678Y030460D01*
X037678Y030362D02*
X034326Y030362D01*
X034326Y030263D02*
X037678Y030263D01*
X037678Y030165D02*
X034326Y030165D01*
X034326Y030066D02*
X037678Y030066D01*
X037678Y029968D02*
X034326Y029968D01*
X034326Y029869D02*
X037678Y029869D01*
X037678Y029771D02*
X037178Y029771D01*
X037165Y029784D02*
X036164Y029784D01*
X036041Y029661D01*
X036041Y028661D01*
X036164Y028538D01*
X037165Y028538D01*
X037288Y028661D01*
X037288Y029661D01*
X037165Y029784D01*
X037277Y029672D02*
X037678Y029672D01*
X037678Y029574D02*
X037288Y029574D01*
X037288Y029475D02*
X037678Y029475D01*
X037678Y029377D02*
X037288Y029377D01*
X037288Y029278D02*
X037678Y029278D01*
X037678Y029180D02*
X037288Y029180D01*
X037288Y029081D02*
X037678Y029081D01*
X037678Y029034D02*
X037695Y028994D01*
X037695Y028661D01*
X037818Y028538D01*
X038150Y028538D01*
X038191Y028521D01*
X038445Y028521D01*
X038485Y028538D01*
X038818Y028538D01*
X038941Y028661D01*
X038941Y028994D01*
X038958Y029034D01*
X038958Y031454D01*
X038941Y031494D01*
X038941Y031827D01*
X038818Y031950D01*
X038485Y031950D01*
X038445Y031966D01*
X038191Y031966D01*
X038150Y031950D01*
X037818Y031950D01*
X037695Y031827D01*
X037695Y031494D01*
X037678Y031454D01*
X037678Y029034D01*
X037695Y028983D02*
X037288Y028983D01*
X037288Y028884D02*
X037695Y028884D01*
X037695Y028786D02*
X037288Y028786D01*
X037288Y028687D02*
X037695Y028687D01*
X037766Y028589D02*
X037216Y028589D01*
X036519Y028195D02*
X035982Y028195D01*
X036080Y028096D02*
X036373Y028096D01*
X036316Y027998D02*
X036179Y027998D01*
X036277Y027899D02*
X036295Y027899D01*
X035992Y027505D02*
X034712Y027505D01*
X034567Y027604D02*
X035894Y027604D01*
X035795Y027702D02*
X034416Y027702D01*
X034317Y027801D02*
X035697Y027801D01*
X035641Y027881D02*
X034853Y027881D01*
X033279Y027881D01*
X032853Y027702D02*
X028716Y027702D01*
X028716Y027604D02*
X032755Y027604D01*
X032810Y027291D02*
X029019Y027291D01*
X028712Y026983D01*
X028712Y020136D01*
X025866Y017311D01*
X025700Y017311D01*
X025562Y017055D02*
X025286Y017330D01*
X025286Y017685D01*
X025168Y017803D01*
X025168Y018118D01*
X025286Y018236D01*
X025286Y018826D01*
X025026Y018620D02*
X025026Y018344D01*
X024948Y018265D01*
X024908Y018169D01*
X024908Y017751D01*
X024948Y017655D01*
X024188Y017655D01*
X024174Y017641D02*
X024267Y017734D01*
X024317Y017855D01*
X024317Y017911D01*
X025026Y018620D01*
X025026Y018620D01*
X025026Y018542D02*
X024948Y018542D01*
X025026Y018443D02*
X024849Y018443D01*
X024751Y018345D02*
X025026Y018345D01*
X024940Y018246D02*
X024652Y018246D01*
X024554Y018148D02*
X024908Y018148D01*
X024908Y018049D02*
X024455Y018049D01*
X024357Y017951D02*
X024908Y017951D01*
X024908Y017852D02*
X024316Y017852D01*
X024275Y017754D02*
X024908Y017754D01*
X024948Y017655D02*
X025021Y017582D01*
X025026Y017577D01*
X025026Y017279D01*
X025066Y017183D01*
X025131Y017118D01*
X024518Y017118D01*
X024483Y017202D01*
X024410Y017275D01*
X024315Y017315D01*
X023254Y017315D01*
X023254Y017363D01*
X023286Y017395D01*
X023299Y017387D01*
X023338Y017377D01*
X023525Y017377D01*
X023525Y017676D01*
X023622Y017676D01*
X023622Y017377D01*
X023810Y017377D01*
X023848Y017387D01*
X023882Y017407D01*
X023910Y017435D01*
X023930Y017469D01*
X023940Y017507D01*
X023940Y017591D01*
X024053Y017591D01*
X024174Y017641D01*
X023940Y017557D02*
X025026Y017557D01*
X025026Y017458D02*
X023924Y017458D01*
X023622Y017458D02*
X023525Y017458D01*
X023525Y017557D02*
X023622Y017557D01*
X023622Y017655D02*
X023525Y017655D01*
X023574Y017724D02*
X023574Y018531D01*
X023574Y018964D01*
X023515Y019023D01*
X023338Y019023D01*
X023338Y019197D01*
X023118Y019417D01*
X022845Y019417D01*
X022649Y019220D01*
X022649Y019023D01*
X022452Y018826D01*
X021468Y018826D01*
X020940Y018837D02*
X022500Y018837D01*
X022478Y018815D02*
X022601Y018938D01*
X022645Y018938D01*
X022645Y019036D01*
X022684Y019131D01*
X022712Y019159D01*
X022712Y019187D01*
X022763Y019309D01*
X022855Y019401D01*
X022977Y019452D01*
X023108Y019452D01*
X023229Y019401D01*
X023322Y019309D01*
X023372Y019187D01*
X023372Y019056D01*
X023322Y018935D01*
X023267Y018879D01*
X023286Y018860D01*
X023299Y018868D01*
X023338Y018878D01*
X023525Y018878D01*
X023525Y018580D01*
X023622Y018580D01*
X023622Y018878D01*
X023810Y018878D01*
X023848Y018868D01*
X023882Y018848D01*
X023910Y018820D01*
X023930Y018786D01*
X023940Y018748D01*
X023940Y018580D01*
X023622Y018580D01*
X023622Y018483D01*
X023940Y018483D01*
X023940Y018315D01*
X023930Y018276D01*
X023913Y018248D01*
X023922Y018251D01*
X023978Y018251D01*
X024693Y018966D01*
X024604Y018929D01*
X024473Y018929D01*
X024351Y018980D01*
X024259Y019073D01*
X024208Y019194D01*
X024208Y019325D01*
X024259Y019446D01*
X024351Y019539D01*
X024473Y019589D01*
X024529Y019589D01*
X024878Y019938D01*
X024878Y019994D01*
X024928Y020116D01*
X025021Y020208D01*
X025142Y020259D01*
X025273Y020259D01*
X025395Y020208D01*
X025487Y020116D01*
X025538Y019994D01*
X025538Y019863D01*
X025487Y019742D01*
X025395Y019649D01*
X025273Y019599D01*
X025217Y019599D01*
X024868Y019250D01*
X024868Y019194D01*
X024831Y019104D01*
X024925Y019199D01*
X024925Y019199D01*
X024993Y019266D01*
X025081Y019303D01*
X025952Y019303D01*
X025952Y019938D01*
X025912Y019978D01*
X025862Y020099D01*
X025862Y020231D01*
X025898Y020319D01*
X025436Y020319D01*
X025347Y020355D01*
X025280Y020423D01*
X025159Y020544D01*
X025103Y020544D01*
X024981Y020594D01*
X024889Y020687D01*
X024838Y020808D01*
X024838Y020939D01*
X024889Y021061D01*
X024981Y021153D01*
X025103Y021204D01*
X025234Y021204D01*
X025355Y021153D01*
X025448Y021061D01*
X025498Y020939D01*
X025498Y020883D01*
X025583Y020799D01*
X025630Y020799D01*
X025626Y020808D01*
X025626Y020939D01*
X025676Y021061D01*
X025769Y021153D01*
X025890Y021204D01*
X026021Y021204D01*
X026143Y021153D01*
X026182Y021114D01*
X026201Y021114D01*
X026241Y021153D01*
X026363Y021204D01*
X026494Y021204D01*
X026615Y021153D01*
X026708Y021061D01*
X026758Y020939D01*
X026758Y020808D01*
X026754Y020799D01*
X026964Y020799D01*
X026964Y020861D01*
X027015Y020982D01*
X027107Y021075D01*
X027229Y021125D01*
X027285Y021125D01*
X027382Y021222D01*
X027360Y021213D01*
X027229Y021213D01*
X027107Y021263D01*
X027068Y021303D01*
X025631Y021303D01*
X025591Y021263D01*
X025470Y021213D01*
X025339Y021213D01*
X025218Y021263D01*
X025125Y021356D01*
X025075Y021477D01*
X025075Y021539D01*
X024647Y021539D01*
X024607Y021499D01*
X024486Y021449D01*
X024355Y021449D01*
X024233Y021499D01*
X024141Y021592D01*
X024099Y021694D01*
X023997Y021736D01*
X023904Y021828D01*
X023854Y021950D01*
X023854Y022081D01*
X023904Y022202D01*
X023954Y022252D01*
X023904Y022301D01*
X023854Y022422D01*
X023854Y022553D01*
X023904Y022675D01*
X023997Y022768D01*
X024009Y022772D01*
X023983Y022834D01*
X023983Y023648D01*
X023823Y023809D01*
X023787Y023897D01*
X023787Y024929D01*
X023609Y024929D01*
X023609Y023065D01*
X023662Y023043D01*
X023755Y022950D01*
X023805Y022829D01*
X023805Y022698D01*
X023755Y022576D01*
X023662Y022484D01*
X023609Y022462D01*
X023609Y019934D01*
X023553Y019798D01*
X023449Y019694D01*
X023313Y019637D01*
X023166Y019637D01*
X023030Y019694D01*
X023006Y019717D01*
X022427Y019717D01*
X022427Y019666D01*
X022377Y019545D01*
X022284Y019452D01*
X022163Y019402D01*
X022032Y019402D01*
X021911Y019452D01*
X021891Y019472D01*
X021199Y019472D01*
X020940Y019213D01*
X020940Y017871D01*
X021022Y017905D01*
X022478Y017905D01*
X022478Y018008D01*
X022598Y018128D01*
X022478Y018247D01*
X022478Y018815D01*
X022478Y018739D02*
X020940Y018739D01*
X020940Y018640D02*
X022478Y018640D01*
X022478Y018542D02*
X020940Y018542D01*
X020940Y018443D02*
X022478Y018443D01*
X022478Y018345D02*
X020940Y018345D01*
X020940Y018246D02*
X022479Y018246D01*
X022577Y018148D02*
X020940Y018148D01*
X020940Y018049D02*
X022519Y018049D01*
X022478Y017951D02*
X020940Y017951D01*
X021074Y017645D02*
X022905Y017645D01*
X022905Y017724D01*
X022905Y018531D01*
X022905Y018984D01*
X023042Y019122D01*
X022920Y019428D02*
X022227Y019428D01*
X022359Y019527D02*
X024339Y019527D01*
X024251Y019428D02*
X023164Y019428D01*
X023301Y019330D02*
X024210Y019330D01*
X024208Y019231D02*
X023354Y019231D01*
X023372Y019133D02*
X024234Y019133D01*
X024297Y019034D02*
X023363Y019034D01*
X023323Y018936D02*
X024457Y018936D01*
X024564Y018837D02*
X023893Y018837D01*
X023940Y018739D02*
X024466Y018739D01*
X024367Y018640D02*
X023940Y018640D01*
X023940Y018443D02*
X024170Y018443D01*
X024072Y018345D02*
X023940Y018345D01*
X023784Y018184D02*
X023707Y018108D01*
X023692Y018071D01*
X023622Y018071D01*
X023622Y017772D01*
X023525Y017772D01*
X023525Y018071D01*
X023338Y018071D01*
X023299Y018061D01*
X023286Y018053D01*
X023211Y018128D01*
X023286Y018202D01*
X023299Y018194D01*
X023338Y018184D01*
X023525Y018184D01*
X023525Y018483D01*
X023622Y018483D01*
X023622Y018184D01*
X023784Y018184D01*
X023747Y018148D02*
X023232Y018148D01*
X023525Y018246D02*
X023622Y018246D01*
X023622Y018345D02*
X023525Y018345D01*
X023525Y018443D02*
X023622Y018443D01*
X023622Y018542D02*
X024269Y018542D01*
X024619Y018936D02*
X024663Y018936D01*
X024843Y019133D02*
X024860Y019133D01*
X024868Y019231D02*
X024958Y019231D01*
X024948Y019330D02*
X025952Y019330D01*
X025952Y019428D02*
X025047Y019428D01*
X025145Y019527D02*
X025952Y019527D01*
X025952Y019625D02*
X025338Y019625D01*
X025469Y019724D02*
X025952Y019724D01*
X025952Y019822D02*
X025521Y019822D01*
X025538Y019921D02*
X025952Y019921D01*
X025895Y020019D02*
X025527Y020019D01*
X025485Y020118D02*
X025862Y020118D01*
X025862Y020216D02*
X025376Y020216D01*
X025289Y020413D02*
X023609Y020413D01*
X023609Y020315D02*
X025897Y020315D01*
X025626Y020807D02*
X025574Y020807D01*
X025626Y020906D02*
X025498Y020906D01*
X025471Y021004D02*
X025653Y021004D01*
X025718Y021103D02*
X025406Y021103D01*
X025239Y021201D02*
X025885Y021201D01*
X026027Y021201D02*
X026357Y021201D01*
X026499Y021201D02*
X027361Y021201D01*
X027175Y021103D02*
X026666Y021103D01*
X026731Y021004D02*
X027037Y021004D01*
X026983Y020906D02*
X026758Y020906D01*
X026758Y020807D02*
X026964Y020807D01*
X027071Y021300D02*
X025628Y021300D01*
X025181Y021300D02*
X023609Y021300D01*
X023609Y021398D02*
X025107Y021398D01*
X025075Y021497D02*
X024601Y021497D01*
X024239Y021497D02*
X023609Y021497D01*
X023609Y021595D02*
X024139Y021595D01*
X024098Y021694D02*
X023609Y021694D01*
X023609Y021792D02*
X023940Y021792D01*
X023878Y021891D02*
X023609Y021891D01*
X023609Y021989D02*
X023854Y021989D01*
X023857Y022088D02*
X023609Y022088D01*
X023609Y022186D02*
X023898Y022186D01*
X023920Y022285D02*
X023609Y022285D01*
X023609Y022383D02*
X023870Y022383D01*
X023854Y022482D02*
X023658Y022482D01*
X023757Y022580D02*
X023865Y022580D01*
X023908Y022679D02*
X023798Y022679D01*
X023805Y022777D02*
X024007Y022777D01*
X023983Y022876D02*
X023786Y022876D01*
X023731Y022974D02*
X023983Y022974D01*
X023983Y023073D02*
X023609Y023073D01*
X023609Y023171D02*
X023983Y023171D01*
X023983Y023270D02*
X023609Y023270D01*
X023609Y023368D02*
X023983Y023368D01*
X023983Y023467D02*
X023609Y023467D01*
X023609Y023565D02*
X023983Y023565D01*
X023968Y023664D02*
X023609Y023664D01*
X023609Y023762D02*
X023869Y023762D01*
X023801Y023861D02*
X023609Y023861D01*
X023609Y023959D02*
X023787Y023959D01*
X023787Y024058D02*
X023609Y024058D01*
X023609Y024156D02*
X023787Y024156D01*
X023787Y024255D02*
X023609Y024255D01*
X023609Y024353D02*
X023787Y024353D01*
X023787Y024452D02*
X023609Y024452D01*
X023609Y024550D02*
X023787Y024550D01*
X023787Y024649D02*
X023609Y024649D01*
X023609Y024747D02*
X023787Y024747D01*
X023787Y024846D02*
X023609Y024846D01*
X024420Y024653D02*
X024420Y023157D01*
X024499Y023078D01*
X022869Y022320D02*
X022869Y020943D01*
X022836Y020976D01*
X022714Y021026D01*
X022596Y021026D01*
X022584Y021039D01*
X022592Y021052D01*
X022602Y021090D01*
X022602Y021278D01*
X022303Y021278D01*
X022303Y021084D01*
X022206Y021084D01*
X022206Y021278D01*
X022303Y021278D01*
X022303Y021375D01*
X022602Y021375D01*
X022602Y021507D01*
X022678Y021539D01*
X022771Y021632D01*
X022821Y021753D01*
X022821Y021884D01*
X022771Y022005D01*
X022678Y022098D01*
X022585Y022137D01*
X022585Y022160D01*
X022547Y022251D01*
X022583Y022237D01*
X022714Y022237D01*
X022836Y022287D01*
X022869Y022320D01*
X022869Y022285D02*
X022831Y022285D01*
X022869Y022186D02*
X022574Y022186D01*
X022688Y022088D02*
X022869Y022088D01*
X022869Y021989D02*
X022778Y021989D01*
X022818Y021891D02*
X022869Y021891D01*
X022869Y021792D02*
X022821Y021792D01*
X022797Y021694D02*
X022869Y021694D01*
X022869Y021595D02*
X022735Y021595D01*
X022602Y021497D02*
X022869Y021497D01*
X022869Y021398D02*
X022602Y021398D01*
X022602Y021201D02*
X022869Y021201D01*
X022869Y021103D02*
X022602Y021103D01*
X022768Y021004D02*
X022869Y021004D01*
X022869Y021300D02*
X022303Y021300D01*
X022206Y021300D02*
X018578Y021300D01*
X018578Y021004D02*
X020463Y021004D01*
X020324Y020906D02*
X018578Y020906D01*
X018578Y020807D02*
X018635Y020807D01*
X018793Y020598D02*
X018515Y020320D01*
X018515Y012412D01*
X018236Y012133D01*
X016153Y012133D01*
X016316Y011844D02*
X018452Y011844D01*
X018452Y011942D02*
X018413Y011942D01*
X018452Y011745D02*
X014847Y011745D01*
X014965Y011647D02*
X016016Y011647D01*
X015888Y011548D02*
X015083Y011548D01*
X015201Y011450D02*
X015838Y011450D01*
X015823Y011351D02*
X015319Y011351D01*
X015438Y011253D02*
X015834Y011253D01*
X015878Y011154D02*
X015556Y011154D01*
X015562Y011056D02*
X015838Y011056D01*
X015823Y010957D02*
X015562Y010957D01*
X015562Y010859D02*
X015834Y010859D01*
X015878Y010760D02*
X015562Y010760D01*
X015562Y010662D02*
X015992Y010662D01*
X016313Y010662D02*
X019239Y010662D01*
X019239Y010760D02*
X018806Y010760D01*
X018904Y010859D02*
X019239Y010859D01*
X019239Y010957D02*
X019003Y010957D01*
X019101Y011056D02*
X019239Y011056D01*
X019239Y011154D02*
X019158Y011154D01*
X019168Y011253D02*
X019239Y011253D01*
X019239Y011351D02*
X019168Y011351D01*
X019168Y011450D02*
X019239Y011450D01*
X019239Y011548D02*
X019168Y011548D01*
X019168Y011647D02*
X019239Y011647D01*
X019239Y011745D02*
X019168Y011745D01*
X019168Y011844D02*
X019239Y011844D01*
X019239Y011942D02*
X019168Y011942D01*
X019168Y012041D02*
X019239Y012041D01*
X019239Y012139D02*
X019168Y012139D01*
X019168Y012238D02*
X019239Y012238D01*
X019239Y012336D02*
X019168Y012336D01*
X019168Y012435D02*
X019239Y012435D01*
X019239Y012533D02*
X019168Y012533D01*
X019168Y012632D02*
X019239Y012632D01*
X019239Y012730D02*
X019168Y012730D01*
X019168Y012829D02*
X019239Y012829D01*
X019239Y012927D02*
X019168Y012927D01*
X019168Y013026D02*
X019239Y013026D01*
X019239Y013124D02*
X019168Y013124D01*
X019168Y013223D02*
X019239Y013223D01*
X019239Y013321D02*
X019168Y013321D01*
X019168Y013420D02*
X019239Y013420D01*
X019239Y013518D02*
X019168Y013518D01*
X019168Y013617D02*
X019239Y013617D01*
X019239Y013715D02*
X019168Y013715D01*
X019168Y013814D02*
X019239Y013814D01*
X019239Y013912D02*
X019168Y013912D01*
X019168Y014011D02*
X019239Y014011D01*
X019239Y014109D02*
X019168Y014109D01*
X019168Y014208D02*
X019239Y014208D01*
X019239Y014306D02*
X019168Y014306D01*
X019168Y014405D02*
X019239Y014405D01*
X019239Y014503D02*
X019168Y014503D01*
X019168Y014602D02*
X019239Y014602D01*
X019239Y014700D02*
X019168Y014700D01*
X019168Y014799D02*
X019239Y014799D01*
X019239Y014897D02*
X019168Y014897D01*
X019168Y014996D02*
X019239Y014996D01*
X019239Y015094D02*
X019168Y015094D01*
X019168Y015193D02*
X019239Y015193D01*
X019239Y015291D02*
X019168Y015291D01*
X019168Y015390D02*
X019239Y015390D01*
X019239Y015488D02*
X019168Y015488D01*
X019168Y015587D02*
X019239Y015587D01*
X019239Y015685D02*
X019168Y015685D01*
X019168Y015784D02*
X019239Y015784D01*
X019239Y015882D02*
X019168Y015882D01*
X019168Y015981D02*
X019221Y015981D01*
X019181Y016079D02*
X019168Y016079D01*
X019168Y016178D02*
X019181Y016178D01*
X019168Y016276D02*
X019181Y016276D01*
X019168Y016375D02*
X019181Y016375D01*
X019168Y016473D02*
X019188Y016473D01*
X019168Y016572D02*
X019239Y016572D01*
X019168Y016670D02*
X019337Y016670D01*
X019436Y016769D02*
X019168Y016769D01*
X019168Y016867D02*
X019534Y016867D01*
X019633Y016966D02*
X019168Y016966D01*
X019168Y017064D02*
X019731Y017064D01*
X019830Y017163D02*
X019168Y017163D01*
X019168Y017261D02*
X019928Y017261D01*
X020027Y017360D02*
X019168Y017360D01*
X019168Y017458D02*
X020125Y017458D01*
X020224Y017557D02*
X019168Y017557D01*
X019168Y017655D02*
X020322Y017655D01*
X020420Y017754D02*
X019168Y017754D01*
X019168Y017852D02*
X020420Y017852D01*
X020420Y017951D02*
X019168Y017951D01*
X019168Y018049D02*
X020420Y018049D01*
X020112Y018148D02*
X019477Y018148D01*
X019302Y018433D02*
X020286Y018433D01*
X020940Y018936D02*
X022599Y018936D01*
X022645Y019034D02*
X020940Y019034D01*
X020940Y019133D02*
X022686Y019133D01*
X022731Y019231D02*
X020958Y019231D01*
X021057Y019330D02*
X022784Y019330D01*
X022410Y019625D02*
X024565Y019625D01*
X024663Y019724D02*
X023479Y019724D01*
X023563Y019822D02*
X024762Y019822D01*
X024860Y019921D02*
X023604Y019921D01*
X023609Y020019D02*
X024888Y020019D01*
X024930Y020118D02*
X023609Y020118D01*
X023609Y020216D02*
X025040Y020216D01*
X025191Y020512D02*
X023609Y020512D01*
X023609Y020610D02*
X024965Y020610D01*
X024879Y020709D02*
X023609Y020709D01*
X023609Y020807D02*
X024839Y020807D01*
X024838Y020906D02*
X023609Y020906D01*
X023609Y021004D02*
X024865Y021004D01*
X024931Y021103D02*
X023609Y021103D01*
X023609Y021201D02*
X025097Y021201D01*
X023622Y018837D02*
X023525Y018837D01*
X023525Y018739D02*
X023622Y018739D01*
X023622Y018640D02*
X023525Y018640D01*
X023525Y018049D02*
X023622Y018049D01*
X023622Y017951D02*
X023525Y017951D01*
X023525Y017852D02*
X023622Y017852D01*
X023254Y017360D02*
X025026Y017360D01*
X025034Y017261D02*
X024424Y017261D01*
X024499Y017163D02*
X025086Y017163D01*
X024263Y017055D02*
X024263Y016858D01*
X026586Y016858D01*
X026979Y016464D01*
X026192Y017173D02*
X026074Y017055D01*
X025562Y017055D01*
X025700Y017645D02*
X025909Y017657D01*
X028456Y020204D01*
X028456Y028252D01*
X028676Y028472D01*
X028239Y028944D02*
X028554Y029259D01*
X028239Y028944D02*
X028239Y020318D01*
X025842Y017921D01*
X025483Y017921D01*
X024263Y017055D02*
X021664Y017055D01*
X021074Y017645D02*
X019696Y016267D01*
X020162Y015882D02*
X020627Y015882D01*
X020529Y015981D02*
X020261Y015981D01*
X020359Y016079D02*
X020430Y016079D01*
X020064Y015784D02*
X023305Y015784D01*
X023555Y015685D02*
X019965Y015685D01*
X021245Y015882D02*
X021627Y015882D01*
X021529Y015981D02*
X021343Y015981D01*
X022245Y015882D02*
X022627Y015882D01*
X022529Y015981D02*
X022343Y015981D01*
X019204Y019319D02*
X018908Y019023D01*
X018908Y011231D01*
X018630Y010952D01*
X016153Y010952D01*
X016153Y011346D02*
X018433Y011346D01*
X018712Y011624D01*
X018712Y020123D01*
X018990Y020401D01*
X020877Y020401D01*
X020699Y020118D02*
X019074Y020118D01*
X018976Y020019D02*
X020166Y020019D01*
X020286Y019712D02*
X020247Y019673D01*
X019499Y019673D01*
X019280Y019921D02*
X018972Y019921D01*
X018972Y019822D02*
X019204Y019822D01*
X019169Y019724D02*
X018972Y019724D01*
X018972Y019625D02*
X019169Y019625D01*
X019044Y019527D02*
X018972Y019527D01*
X019204Y019319D02*
X020286Y019319D01*
X020680Y019321D02*
X021091Y019732D01*
X022097Y019732D01*
X021968Y019428D02*
X021155Y019428D01*
X020483Y020598D02*
X020582Y020696D01*
X020483Y020598D02*
X018793Y020598D01*
X018058Y020610D02*
X017608Y020610D01*
X017706Y020512D02*
X018058Y020512D01*
X018058Y020413D02*
X017788Y020413D01*
X017842Y020315D02*
X018058Y020315D01*
X018058Y020216D02*
X017861Y020216D01*
X017852Y020118D02*
X018058Y020118D01*
X018058Y020019D02*
X017811Y020019D01*
X017708Y019921D02*
X018058Y019921D01*
X017531Y020204D02*
X017531Y020320D01*
X017252Y020598D01*
X015365Y020598D01*
X015187Y020315D02*
X014544Y020315D01*
X014544Y020413D02*
X015084Y020413D01*
X015544Y020315D02*
X017168Y020315D01*
X017509Y020709D02*
X018058Y020709D01*
X018058Y020807D02*
X017411Y020807D01*
X017261Y018739D02*
X015202Y018739D01*
X015300Y018640D02*
X017176Y018640D01*
X017135Y018542D02*
X015399Y018542D01*
X015497Y018443D02*
X017124Y018443D01*
X017127Y018345D02*
X015596Y018345D01*
X015694Y018246D02*
X017167Y018246D01*
X017240Y018148D02*
X015793Y018148D01*
X015409Y017852D02*
X012967Y017852D01*
X013065Y017754D02*
X015508Y017754D01*
X015606Y017655D02*
X013164Y017655D01*
X013262Y017557D02*
X015705Y017557D01*
X015803Y017458D02*
X013361Y017458D01*
X013459Y017360D02*
X015902Y017360D01*
X015913Y017261D02*
X013558Y017261D01*
X013656Y017163D02*
X015913Y017163D01*
X015913Y017064D02*
X013755Y017064D01*
X013853Y016966D02*
X015913Y016966D01*
X015913Y016867D02*
X013952Y016867D01*
X014050Y016769D02*
X015913Y016769D01*
X015913Y016670D02*
X014149Y016670D01*
X014247Y016572D02*
X015913Y016572D01*
X015913Y016473D02*
X014346Y016473D01*
X014444Y016375D02*
X015913Y016375D01*
X015913Y016276D02*
X014543Y016276D01*
X014641Y016178D02*
X015930Y016178D01*
X016001Y016079D02*
X014740Y016079D01*
X014838Y015981D02*
X016179Y015981D01*
X016349Y016267D02*
X017531Y016267D01*
X017360Y015981D02*
X016520Y015981D01*
X016153Y015283D02*
X015168Y015283D01*
X010641Y019811D01*
X010444Y019811D01*
X010800Y020019D02*
X012829Y020019D01*
X013341Y019921D02*
X010898Y019921D01*
X010997Y019822D02*
X013439Y019822D01*
X013538Y019724D02*
X011095Y019724D01*
X011194Y019625D02*
X013636Y019625D01*
X013735Y019527D02*
X011292Y019527D01*
X011391Y019428D02*
X013833Y019428D01*
X013932Y019330D02*
X011489Y019330D01*
X011588Y019231D02*
X014030Y019231D01*
X014129Y019133D02*
X011686Y019133D01*
X011785Y019034D02*
X014227Y019034D01*
X014326Y018936D02*
X011883Y018936D01*
X011982Y018837D02*
X014424Y018837D01*
X014523Y018739D02*
X012080Y018739D01*
X012179Y018640D02*
X014621Y018640D01*
X014720Y018542D02*
X012277Y018542D01*
X012376Y018443D02*
X014818Y018443D01*
X014917Y018345D02*
X012474Y018345D01*
X012573Y018246D02*
X015015Y018246D01*
X015114Y018148D02*
X012671Y018148D01*
X012770Y018049D02*
X015212Y018049D01*
X015311Y017951D02*
X012868Y017951D01*
X012527Y017557D02*
X010963Y017557D01*
X011098Y017458D02*
X012625Y017458D01*
X012724Y017360D02*
X011150Y017360D01*
X011168Y017261D02*
X012822Y017261D01*
X012921Y017163D02*
X011158Y017163D01*
X011117Y017064D02*
X013019Y017064D01*
X013118Y016966D02*
X011010Y016966D01*
X010665Y016966D02*
X010518Y016966D01*
X010602Y016867D02*
X013216Y016867D01*
X013315Y016769D02*
X010643Y016769D01*
X010654Y016670D02*
X013413Y016670D01*
X013512Y016572D02*
X010650Y016572D01*
X010610Y016473D02*
X013610Y016473D01*
X013709Y016375D02*
X010536Y016375D01*
X010381Y016276D02*
X013807Y016276D01*
X013906Y016178D02*
X003174Y016178D01*
X003174Y016276D02*
X010113Y016276D01*
X009958Y016375D02*
X003174Y016375D01*
X003174Y016473D02*
X009884Y016473D01*
X009682Y016572D02*
X003174Y016572D01*
X003174Y016670D02*
X009574Y016670D01*
X009533Y016769D02*
X003174Y016769D01*
X003174Y016867D02*
X009523Y016867D01*
X009541Y016966D02*
X003174Y016966D01*
X003174Y017064D02*
X007978Y017064D01*
X007880Y017163D02*
X003174Y017163D01*
X003174Y017261D02*
X007781Y017261D01*
X007683Y017360D02*
X003174Y017360D01*
X003174Y017458D02*
X007584Y017458D01*
X007486Y017557D02*
X003174Y017557D01*
X003174Y017655D02*
X007387Y017655D01*
X007289Y017754D02*
X003174Y017754D01*
X003174Y017852D02*
X007190Y017852D01*
X007092Y017951D02*
X003174Y017951D01*
X003174Y018049D02*
X006993Y018049D01*
X006895Y018148D02*
X003174Y018148D01*
X003174Y018246D02*
X006796Y018246D01*
X006698Y018345D02*
X003174Y018345D01*
X003174Y018443D02*
X006599Y018443D01*
X006501Y018542D02*
X003174Y018542D01*
X003174Y018640D02*
X006402Y018640D01*
X006304Y018739D02*
X003174Y018739D01*
X003174Y018837D02*
X006205Y018837D01*
X006107Y018936D02*
X003174Y018936D01*
X003174Y019034D02*
X006008Y019034D01*
X005910Y019133D02*
X003174Y019133D01*
X003174Y019231D02*
X005811Y019231D01*
X005713Y019330D02*
X003174Y019330D01*
X003174Y019428D02*
X005614Y019428D01*
X005516Y019527D02*
X003174Y019527D01*
X003174Y019625D02*
X005417Y019625D01*
X005319Y019724D02*
X003174Y019724D01*
X003174Y019822D02*
X005220Y019822D01*
X005122Y019921D02*
X003174Y019921D01*
X003174Y020019D02*
X005023Y020019D01*
X004925Y020118D02*
X003174Y020118D01*
X003174Y020216D02*
X004826Y020216D01*
X004728Y020315D02*
X003174Y020315D01*
X003174Y020413D02*
X004629Y020413D01*
X004531Y020512D02*
X003174Y020512D01*
X003174Y020610D02*
X004432Y020610D01*
X004334Y020709D02*
X003174Y020709D01*
X003174Y020807D02*
X004235Y020807D01*
X004137Y020906D02*
X003174Y020906D01*
X003174Y021004D02*
X004038Y021004D01*
X003941Y021103D02*
X003174Y021103D01*
X003174Y021201D02*
X003905Y021201D01*
X003905Y021300D02*
X003174Y021300D01*
X003174Y021398D02*
X003905Y021398D01*
X003905Y021497D02*
X003174Y021497D01*
X003174Y021595D02*
X003905Y021595D01*
X003905Y021694D02*
X003174Y021694D01*
X003174Y021792D02*
X003905Y021792D01*
X003905Y021891D02*
X003174Y021891D01*
X003174Y021989D02*
X003905Y021989D01*
X003905Y022088D02*
X003174Y022088D01*
X003174Y022186D02*
X003905Y022186D01*
X003905Y022285D02*
X003174Y022285D01*
X003174Y022383D02*
X003905Y022383D01*
X003905Y022482D02*
X003174Y022482D01*
X003174Y022580D02*
X003905Y022580D01*
X003905Y022679D02*
X003174Y022679D01*
X003174Y022777D02*
X003905Y022777D01*
X003905Y022876D02*
X003174Y022876D01*
X003174Y022974D02*
X003905Y022974D01*
X003905Y023073D02*
X003174Y023073D01*
X003174Y023171D02*
X003905Y023171D01*
X003905Y023270D02*
X003174Y023270D01*
X003174Y023368D02*
X003905Y023368D01*
X003905Y023467D02*
X003174Y023467D01*
X003174Y023565D02*
X003905Y023565D01*
X003905Y023664D02*
X003174Y023664D01*
X003174Y023762D02*
X003905Y023762D01*
X003905Y023861D02*
X003174Y023861D01*
X003174Y023959D02*
X003905Y023959D01*
X003905Y024058D02*
X003174Y024058D01*
X003174Y024156D02*
X003905Y024156D01*
X003905Y024255D02*
X003174Y024255D01*
X003174Y024353D02*
X003905Y024353D01*
X003905Y024452D02*
X003174Y024452D01*
X003174Y024550D02*
X003905Y024550D01*
X003905Y024649D02*
X003174Y024649D01*
X003174Y024747D02*
X003905Y024747D01*
X003905Y024846D02*
X003174Y024846D01*
X003174Y024944D02*
X003905Y024944D01*
X003905Y025043D02*
X003174Y025043D01*
X003174Y025141D02*
X003905Y025141D01*
X003905Y025240D02*
X003174Y025240D01*
X003174Y025338D02*
X003905Y025338D01*
X003905Y025437D02*
X003174Y025437D01*
X003174Y025535D02*
X003905Y025535D01*
X003905Y025634D02*
X003174Y025634D01*
X003174Y025732D02*
X003905Y025732D01*
X003905Y025831D02*
X003174Y025831D01*
X003174Y025929D02*
X003905Y025929D01*
X003905Y026028D02*
X003174Y026028D01*
X003174Y026126D02*
X003905Y026126D01*
X003851Y026225D02*
X003174Y026225D01*
X003174Y026323D02*
X003758Y026323D01*
X003758Y026422D02*
X003174Y026422D01*
X003174Y026520D02*
X003758Y026520D01*
X003758Y026619D02*
X003174Y026619D01*
X003174Y026717D02*
X003758Y026717D01*
X003758Y026816D02*
X003174Y026816D01*
X003174Y026914D02*
X003758Y026914D01*
X003806Y027013D02*
X003174Y027013D01*
X003174Y027111D02*
X005086Y027111D01*
X005086Y027013D02*
X004405Y027013D01*
X004453Y026914D02*
X005086Y026914D01*
X005086Y026816D02*
X004453Y026816D01*
X004453Y026717D02*
X005086Y026717D01*
X005086Y026619D02*
X004453Y026619D01*
X004453Y026520D02*
X005086Y026520D01*
X005086Y026422D02*
X004453Y026422D01*
X004453Y026323D02*
X005086Y026323D01*
X005086Y026225D02*
X004385Y026225D01*
X004385Y026126D02*
X005086Y026126D01*
X005086Y026028D02*
X004385Y026028D01*
X004385Y025929D02*
X005086Y025929D01*
X004901Y025831D02*
X004385Y025831D01*
X004385Y025732D02*
X004757Y025732D01*
X004701Y025634D02*
X004385Y025634D01*
X004385Y025535D02*
X004681Y025535D01*
X004688Y025437D02*
X004385Y025437D01*
X004385Y025338D02*
X004729Y025338D01*
X004771Y025240D02*
X004385Y025240D01*
X004385Y025141D02*
X004771Y025141D01*
X004771Y025043D02*
X004385Y025043D01*
X004385Y024944D02*
X004771Y024944D01*
X004771Y024846D02*
X004385Y024846D01*
X004385Y024747D02*
X004771Y024747D01*
X004771Y024649D02*
X004385Y024649D01*
X004385Y024550D02*
X004771Y024550D01*
X004771Y024452D02*
X004385Y024452D01*
X004385Y024353D02*
X004771Y024353D01*
X004771Y024255D02*
X004385Y024255D01*
X004385Y024156D02*
X004771Y024156D01*
X004771Y024058D02*
X004385Y024058D01*
X004385Y023959D02*
X004771Y023959D01*
X004771Y023861D02*
X004385Y023861D01*
X004385Y023762D02*
X004771Y023762D01*
X004771Y023664D02*
X004385Y023664D01*
X004385Y023565D02*
X004771Y023565D01*
X004771Y023467D02*
X004385Y023467D01*
X004385Y023368D02*
X004771Y023368D01*
X004771Y023270D02*
X004385Y023270D01*
X004385Y023171D02*
X004771Y023171D01*
X004771Y023073D02*
X004385Y023073D01*
X004385Y022974D02*
X004771Y022974D01*
X004771Y022876D02*
X004385Y022876D01*
X004385Y022777D02*
X004771Y022777D01*
X004771Y022679D02*
X004385Y022679D01*
X004385Y022580D02*
X004771Y022580D01*
X004771Y022482D02*
X004385Y022482D01*
X004385Y022383D02*
X004771Y022383D01*
X004771Y022285D02*
X004385Y022285D01*
X004385Y022186D02*
X004771Y022186D01*
X004771Y022088D02*
X004385Y022088D01*
X004385Y021989D02*
X004771Y021989D01*
X004771Y021891D02*
X004385Y021891D01*
X004385Y021792D02*
X004771Y021792D01*
X004771Y021694D02*
X004385Y021694D01*
X004385Y021595D02*
X004771Y021595D01*
X004771Y021497D02*
X004385Y021497D01*
X004385Y021398D02*
X004771Y021398D01*
X004771Y021300D02*
X004422Y021300D01*
X004520Y021201D02*
X004771Y021201D01*
X004771Y021103D02*
X004619Y021103D01*
X004717Y021004D02*
X004771Y021004D01*
X007672Y018049D02*
X012034Y018049D01*
X012133Y017951D02*
X007771Y017951D01*
X007869Y017852D02*
X012231Y017852D01*
X012330Y017754D02*
X007968Y017754D01*
X008066Y017655D02*
X012428Y017655D01*
X010712Y017557D02*
X008165Y017557D01*
X003174Y016079D02*
X014004Y016079D01*
X014103Y015981D02*
X003174Y015981D01*
X003174Y015882D02*
X014201Y015882D01*
X014300Y015784D02*
X003174Y015784D01*
X003174Y015685D02*
X014398Y015685D01*
X014497Y015587D02*
X003174Y015587D01*
X003174Y015488D02*
X014595Y015488D01*
X014694Y015390D02*
X003174Y015390D01*
X003174Y015291D02*
X014792Y015291D01*
X014891Y015193D02*
X003174Y015193D01*
X003174Y015094D02*
X014989Y015094D01*
X015984Y014996D02*
X003174Y014996D01*
X003174Y014897D02*
X016171Y014897D01*
X016269Y014799D02*
X003174Y014799D01*
X003174Y014700D02*
X016368Y014700D01*
X016466Y014602D02*
X003174Y014602D01*
X003174Y014503D02*
X016565Y014503D01*
X016663Y014405D02*
X003174Y014405D01*
X003174Y014306D02*
X016762Y014306D01*
X016860Y014208D02*
X003174Y014208D01*
X003174Y014109D02*
X016959Y014109D01*
X017057Y014011D02*
X003174Y014011D01*
X003174Y013912D02*
X017156Y013912D01*
X017254Y013814D02*
X003174Y013814D01*
X003174Y013715D02*
X017353Y013715D01*
X017561Y013617D02*
X003174Y013617D01*
X003174Y012139D02*
X009428Y012139D01*
X009246Y012041D02*
X003174Y012041D01*
X003174Y011942D02*
X009147Y011942D01*
X009049Y011844D02*
X003174Y011844D01*
X003174Y011745D02*
X008302Y011745D01*
X007992Y011647D02*
X007895Y011647D01*
X007895Y011693D02*
X007708Y011693D01*
X007669Y011683D01*
X007635Y011663D01*
X007607Y011635D01*
X007588Y011601D01*
X007577Y011563D01*
X007577Y011394D01*
X007895Y011394D01*
X007895Y011693D01*
X007895Y011548D02*
X007992Y011548D01*
X007992Y011450D02*
X007895Y011450D01*
X007895Y011351D02*
X003174Y011351D01*
X003174Y011253D02*
X007577Y011253D01*
X007577Y011154D02*
X003174Y011154D01*
X003174Y011056D02*
X007609Y011056D01*
X007895Y011056D02*
X007992Y011056D01*
X007992Y011154D02*
X007895Y011154D01*
X007895Y011253D02*
X007992Y011253D01*
X008162Y010957D02*
X003174Y010957D01*
X003174Y010859D02*
X008082Y010859D01*
X008082Y010760D02*
X003174Y010760D01*
X003174Y010662D02*
X007618Y010662D01*
X007607Y010651D02*
X007588Y010617D01*
X007577Y010578D01*
X007577Y010410D01*
X007895Y010410D01*
X007895Y010709D01*
X007708Y010709D01*
X007669Y010698D01*
X007635Y010679D01*
X007607Y010651D01*
X007577Y010563D02*
X003174Y010563D01*
X003174Y010465D02*
X007577Y010465D01*
X007577Y010268D02*
X003174Y010268D01*
X003174Y010366D02*
X007895Y010366D01*
X007895Y010268D02*
X007992Y010268D01*
X007992Y010169D02*
X007895Y010169D01*
X007895Y010071D02*
X007992Y010071D01*
X008082Y009972D02*
X003174Y009972D01*
X003174Y009874D02*
X008082Y009874D01*
X008082Y009775D02*
X003174Y009775D01*
X003174Y009677D02*
X007618Y009677D01*
X007607Y009667D02*
X007588Y009632D01*
X007577Y009594D01*
X007577Y009426D01*
X007895Y009426D01*
X007895Y009724D01*
X007708Y009724D01*
X007669Y009714D01*
X007635Y009694D01*
X007607Y009667D01*
X007577Y009578D02*
X003174Y009578D01*
X003174Y009480D02*
X007577Y009480D01*
X007577Y009283D02*
X003174Y009283D01*
X003174Y009381D02*
X007895Y009381D01*
X007895Y009283D02*
X007992Y009283D01*
X007992Y009184D02*
X007895Y009184D01*
X007895Y009086D02*
X007992Y009086D01*
X008082Y008987D02*
X003174Y008987D01*
X003174Y008889D02*
X008082Y008889D01*
X008082Y008790D02*
X003174Y008790D01*
X003174Y008692D02*
X008082Y008692D01*
X008082Y008593D02*
X003174Y008593D01*
X003174Y008495D02*
X008082Y008495D01*
X008082Y008396D02*
X003174Y008396D01*
X003174Y008298D02*
X008082Y008298D01*
X008082Y008199D02*
X003174Y008199D01*
X003174Y008101D02*
X008082Y008101D01*
X008082Y008002D02*
X003174Y008002D01*
X003174Y007904D02*
X008082Y007904D01*
X008082Y007805D02*
X003174Y007805D01*
X003174Y007707D02*
X008082Y007707D01*
X008082Y007608D02*
X003174Y007608D01*
X003174Y007510D02*
X008082Y007510D01*
X008082Y007411D02*
X003174Y007411D01*
X003174Y007313D02*
X008082Y007313D01*
X008082Y007214D02*
X003174Y007214D01*
X003174Y007116D02*
X008082Y007116D01*
X008082Y007017D02*
X003174Y007017D01*
X003174Y006919D02*
X008082Y006919D01*
X008082Y006820D02*
X003174Y006820D01*
X003174Y006722D02*
X008082Y006722D01*
X008082Y006623D02*
X003174Y006623D01*
X003174Y006525D02*
X008082Y006525D01*
X008082Y006426D02*
X003174Y006426D01*
X003174Y006328D02*
X008082Y006328D01*
X008082Y006229D02*
X003174Y006229D01*
X003174Y006131D02*
X008082Y006131D01*
X008082Y006032D02*
X003174Y006032D01*
X003174Y005934D02*
X008082Y005934D01*
X008082Y005835D02*
X003174Y005835D01*
X003174Y005737D02*
X008082Y005737D01*
X008082Y005638D02*
X003174Y005638D01*
X003174Y005540D02*
X008082Y005540D01*
X008082Y005441D02*
X003174Y005441D01*
X003174Y005343D02*
X008082Y005343D01*
X008082Y005244D02*
X003174Y005244D01*
X003174Y005146D02*
X008082Y005146D01*
X008082Y005047D02*
X003174Y005047D01*
X003174Y004949D02*
X008082Y004949D01*
X008082Y004850D02*
X003174Y004850D01*
X003174Y004752D02*
X008082Y004752D01*
X009656Y005325D02*
X009935Y005047D01*
X011347Y005047D01*
X009934Y005047D01*
X009836Y005146D02*
X011446Y005146D01*
X011544Y005244D02*
X009737Y005244D01*
X009656Y005325D02*
X009656Y008705D01*
X009935Y008984D01*
X011428Y008984D01*
X011625Y008787D01*
X011625Y005325D01*
X011347Y005047D01*
X011625Y005343D02*
X009656Y005343D01*
X009656Y005441D02*
X011625Y005441D01*
X011625Y005540D02*
X009656Y005540D01*
X009656Y005638D02*
X011625Y005638D01*
X011625Y005737D02*
X009656Y005737D01*
X009656Y005835D02*
X011625Y005835D01*
X011625Y005934D02*
X009656Y005934D01*
X009656Y006032D02*
X011625Y006032D01*
X011625Y006131D02*
X009656Y006131D01*
X009656Y006229D02*
X011625Y006229D01*
X011625Y006328D02*
X009656Y006328D01*
X009656Y006426D02*
X011625Y006426D01*
X011625Y006525D02*
X009656Y006525D01*
X009656Y006623D02*
X011625Y006623D01*
X011625Y006722D02*
X009656Y006722D01*
X009656Y006820D02*
X011625Y006820D01*
X011625Y006919D02*
X009656Y006919D01*
X009656Y007017D02*
X011625Y007017D01*
X011625Y007116D02*
X009656Y007116D01*
X009656Y007214D02*
X011625Y007214D01*
X011625Y007313D02*
X009656Y007313D01*
X009656Y007411D02*
X011625Y007411D01*
X011625Y007510D02*
X009656Y007510D01*
X009656Y007608D02*
X011625Y007608D01*
X011625Y007707D02*
X009656Y007707D01*
X009656Y007805D02*
X011625Y007805D01*
X011625Y007904D02*
X009656Y007904D01*
X009656Y008002D02*
X011625Y008002D01*
X011625Y008101D02*
X009656Y008101D01*
X009656Y008199D02*
X011625Y008199D01*
X011625Y008298D02*
X009656Y008298D01*
X009656Y008396D02*
X011625Y008396D01*
X011625Y008495D02*
X009656Y008495D01*
X009656Y008593D02*
X011625Y008593D01*
X011625Y008692D02*
X009656Y008692D01*
X009741Y008790D02*
X011622Y008790D01*
X011523Y008889D02*
X009840Y008889D01*
X007992Y009480D02*
X007895Y009480D01*
X007895Y009578D02*
X007992Y009578D01*
X007992Y009677D02*
X007895Y009677D01*
X007609Y010071D02*
X003174Y010071D01*
X003174Y010169D02*
X007577Y010169D01*
X007895Y010465D02*
X007992Y010465D01*
X007992Y010563D02*
X007895Y010563D01*
X007895Y010662D02*
X007992Y010662D01*
X007577Y011450D02*
X003174Y011450D01*
X003174Y011548D02*
X007577Y011548D01*
X007619Y011647D02*
X003174Y011647D01*
X003174Y009184D02*
X007577Y009184D01*
X007610Y009086D02*
X003174Y009086D01*
X008924Y011745D02*
X008950Y011745D01*
X009726Y012336D02*
X009823Y012336D01*
X009823Y012320D02*
X009823Y012638D01*
X009991Y012638D01*
X010029Y012628D01*
X010064Y012608D01*
X010091Y012580D01*
X010111Y012546D01*
X010121Y012508D01*
X010121Y012320D01*
X009823Y012320D01*
X009823Y012435D02*
X009726Y012435D01*
X009726Y012533D02*
X009823Y012533D01*
X009823Y012632D02*
X009726Y012632D01*
X010014Y012632D02*
X010402Y012632D01*
X010301Y012533D02*
X010115Y012533D01*
X010121Y012435D02*
X010294Y012435D01*
X010294Y012336D02*
X010121Y012336D01*
X010121Y012139D02*
X010294Y012139D01*
X010592Y012336D02*
X010689Y012336D01*
X010689Y012320D02*
X010689Y012638D01*
X010857Y012638D01*
X010895Y012628D01*
X010930Y012608D01*
X010958Y012580D01*
X010977Y012546D01*
X010988Y012508D01*
X010988Y012320D01*
X010689Y012320D01*
X010689Y012435D02*
X010592Y012435D01*
X010592Y012533D02*
X010689Y012533D01*
X010689Y012632D02*
X010592Y012632D01*
X010880Y012632D02*
X011386Y012632D01*
X011285Y012533D02*
X010981Y012533D01*
X010988Y012435D02*
X011278Y012435D01*
X011278Y012336D02*
X010988Y012336D01*
X010988Y012139D02*
X011278Y012139D01*
X011577Y012336D02*
X011673Y012336D01*
X011673Y012435D02*
X011577Y012435D01*
X011577Y012533D02*
X011673Y012533D01*
X011673Y012632D02*
X011577Y012632D01*
X011864Y012632D02*
X015988Y012632D01*
X016153Y012921D02*
X018040Y012921D01*
X017974Y013223D02*
X016286Y013223D01*
X015834Y012041D02*
X014492Y012041D01*
X014610Y011942D02*
X015877Y011942D01*
X015989Y011844D02*
X014728Y011844D01*
X015562Y010563D02*
X019239Y010563D01*
X019239Y010465D02*
X015562Y010465D01*
X015562Y010366D02*
X019239Y010366D01*
X019239Y010268D02*
X015562Y010268D01*
X015562Y010169D02*
X019239Y010169D01*
X019239Y010071D02*
X015562Y010071D01*
X015562Y009972D02*
X019239Y009972D01*
X019239Y009874D02*
X015562Y009874D01*
X015562Y009775D02*
X019239Y009775D01*
X019239Y009677D02*
X015562Y009677D01*
X015562Y009578D02*
X019239Y009578D01*
X019239Y009480D02*
X015562Y009480D01*
X015562Y009381D02*
X019239Y009381D01*
X019239Y009283D02*
X015562Y009283D01*
X015562Y009184D02*
X019239Y009184D01*
X019239Y009086D02*
X015562Y009086D01*
X015562Y008987D02*
X019233Y008987D01*
X019184Y008889D02*
X015562Y008889D01*
X015562Y008396D02*
X020459Y008396D01*
X020519Y008298D02*
X015562Y008298D01*
X015562Y008199D02*
X020619Y008199D01*
X020631Y008101D02*
X015562Y008101D01*
X015562Y008002D02*
X020631Y008002D01*
X020631Y007904D02*
X015611Y007904D01*
X015562Y006525D02*
X020631Y006525D01*
X020631Y006623D02*
X020006Y006623D01*
X020143Y006722D02*
X020631Y006722D01*
X020631Y006820D02*
X020241Y006820D01*
X020292Y006919D02*
X020631Y006919D01*
X020631Y007017D02*
X020332Y007017D01*
X020359Y007116D02*
X020631Y007116D01*
X020631Y007214D02*
X020359Y007214D01*
X020359Y007313D02*
X020631Y007313D01*
X020631Y007411D02*
X020331Y007411D01*
X020290Y007510D02*
X020631Y007510D01*
X020631Y007608D02*
X020237Y007608D01*
X020139Y007707D02*
X020631Y007707D01*
X020631Y007805D02*
X019996Y007805D01*
X020631Y006426D02*
X015562Y006426D01*
X015562Y006328D02*
X020657Y006328D01*
X020697Y006229D02*
X015562Y006229D01*
X015562Y006131D02*
X020753Y006131D01*
X020851Y006032D02*
X015562Y006032D01*
X015562Y005934D02*
X020950Y005934D01*
X021048Y005835D02*
X015562Y005835D01*
X015562Y005737D02*
X021147Y005737D01*
X021245Y005638D02*
X015562Y005638D01*
X015562Y005540D02*
X021344Y005540D01*
X021442Y005441D02*
X015562Y005441D01*
X015562Y005343D02*
X021541Y005343D01*
X021639Y005244D02*
X015562Y005244D01*
X015562Y005146D02*
X021738Y005146D01*
X021903Y005047D02*
X015562Y005047D01*
X015562Y004949D02*
X025601Y004949D01*
X025601Y004850D02*
X015562Y004850D01*
X015562Y004752D02*
X025601Y004752D01*
X025601Y006328D02*
X022366Y006328D01*
X022267Y006426D02*
X025601Y006426D01*
X025601Y006525D02*
X022169Y006525D01*
X022070Y006623D02*
X025601Y006623D01*
X025601Y006722D02*
X021972Y006722D01*
X021911Y006820D02*
X025601Y006820D01*
X025601Y006919D02*
X021911Y006919D01*
X021911Y007017D02*
X025601Y007017D01*
X025601Y007116D02*
X021911Y007116D01*
X021911Y007214D02*
X025601Y007214D01*
X025601Y007313D02*
X021911Y007313D01*
X021911Y007411D02*
X025601Y007411D01*
X025601Y007510D02*
X021911Y007510D01*
X021911Y007608D02*
X025601Y007608D01*
X025601Y007707D02*
X021911Y007707D01*
X021911Y007805D02*
X025601Y007805D01*
X025601Y007904D02*
X021911Y007904D01*
X021911Y008002D02*
X025601Y008002D01*
X025601Y008101D02*
X021911Y008101D01*
X021923Y008199D02*
X025601Y008199D01*
X025601Y008298D02*
X022023Y008298D01*
X022082Y008396D02*
X025601Y008396D01*
X025601Y008495D02*
X022123Y008495D01*
X022124Y008593D02*
X025601Y008593D01*
X025601Y008692D02*
X022124Y008692D01*
X022124Y008790D02*
X025601Y008790D01*
X025601Y008889D02*
X022124Y008889D01*
X022124Y008987D02*
X025601Y008987D01*
X025601Y009086D02*
X022124Y009086D01*
X022124Y009184D02*
X025601Y009184D01*
X025601Y009283D02*
X022124Y009283D01*
X022124Y009381D02*
X025601Y009381D01*
X025601Y009480D02*
X022120Y009480D01*
X022079Y009578D02*
X025601Y009578D01*
X025601Y009677D02*
X022016Y009677D01*
X021906Y009775D02*
X025601Y009775D01*
X020606Y010957D02*
X019759Y010957D01*
X018366Y011647D02*
X016289Y011647D01*
X017531Y013905D02*
X016153Y015283D01*
X017531Y013905D02*
X017727Y013905D01*
X017531Y017055D02*
X016546Y017055D01*
X014533Y020118D02*
X014544Y020156D01*
X013644Y020315D02*
X013626Y020315D01*
X013644Y020413D02*
X013604Y020413D01*
X009313Y024649D02*
X008735Y024649D01*
X008735Y024747D02*
X009411Y024747D01*
X009510Y024846D02*
X008735Y024846D01*
X008735Y024944D02*
X009608Y024944D01*
X009707Y025043D02*
X008735Y025043D01*
X008735Y025141D02*
X009805Y025141D01*
X009904Y025240D02*
X008735Y025240D01*
X008735Y025338D02*
X010002Y025338D01*
X010101Y025437D02*
X008735Y025437D01*
X008735Y025535D02*
X010199Y025535D01*
X010298Y025634D02*
X008735Y025634D01*
X008735Y025732D02*
X010396Y025732D01*
X010495Y025831D02*
X008735Y025831D01*
X008735Y025929D02*
X010593Y025929D01*
X010692Y026028D02*
X008735Y026028D01*
X008735Y026126D02*
X010790Y026126D01*
X010889Y026225D02*
X008735Y026225D01*
X008735Y026323D02*
X010987Y026323D01*
X011086Y026422D02*
X008735Y026422D01*
X008735Y026520D02*
X011184Y026520D01*
X011283Y026619D02*
X008735Y026619D01*
X008735Y026717D02*
X011381Y026717D01*
X011480Y026816D02*
X008735Y026816D01*
X008735Y026914D02*
X011578Y026914D01*
X011677Y027013D02*
X008735Y027013D01*
X008735Y027111D02*
X011775Y027111D01*
X011874Y027210D02*
X008735Y027210D01*
X008735Y027308D02*
X011972Y027308D01*
X012071Y027407D02*
X008735Y027407D01*
X008735Y027505D02*
X012169Y027505D01*
X012198Y027534D02*
X008735Y024071D01*
X008735Y033699D01*
X017237Y025198D01*
X017279Y025180D01*
X017279Y025099D01*
X017316Y025011D01*
X016640Y025011D01*
X016640Y025073D01*
X016590Y025194D01*
X016497Y025287D01*
X016376Y025337D01*
X016319Y025337D01*
X015136Y026521D01*
X015068Y026589D01*
X014980Y026625D01*
X014332Y026625D01*
X014292Y026665D01*
X014171Y026715D01*
X014040Y026715D01*
X013918Y026665D01*
X013826Y026572D01*
X013775Y026451D01*
X013775Y026386D01*
X012695Y027466D01*
X012627Y027534D01*
X012539Y027570D01*
X012286Y027570D01*
X012198Y027534D01*
X012656Y027505D02*
X014929Y027505D01*
X014831Y027604D02*
X008735Y027604D01*
X008735Y027702D02*
X014732Y027702D01*
X014634Y027801D02*
X008735Y027801D01*
X008735Y027899D02*
X014535Y027899D01*
X014437Y027998D02*
X008735Y027998D01*
X008735Y028096D02*
X014338Y028096D01*
X014240Y028195D02*
X008735Y028195D01*
X008735Y028293D02*
X014141Y028293D01*
X014043Y028392D02*
X008735Y028392D01*
X008735Y028490D02*
X013944Y028490D01*
X013846Y028589D02*
X008735Y028589D01*
X008735Y028687D02*
X013747Y028687D01*
X013649Y028786D02*
X008735Y028786D01*
X008735Y028884D02*
X013550Y028884D01*
X013452Y028983D02*
X008735Y028983D01*
X008735Y029081D02*
X013353Y029081D01*
X013255Y029180D02*
X008735Y029180D01*
X008735Y029278D02*
X013156Y029278D01*
X013058Y029377D02*
X008735Y029377D01*
X008735Y029475D02*
X012959Y029475D01*
X012861Y029574D02*
X008735Y029574D01*
X008735Y029672D02*
X012762Y029672D01*
X012664Y029771D02*
X008735Y029771D01*
X008735Y029869D02*
X012565Y029869D01*
X012467Y029968D02*
X008735Y029968D01*
X008735Y030066D02*
X012368Y030066D01*
X012270Y030165D02*
X008735Y030165D01*
X008735Y030263D02*
X012171Y030263D01*
X012073Y030362D02*
X008735Y030362D01*
X008735Y030460D02*
X011974Y030460D01*
X011876Y030559D02*
X008735Y030559D01*
X008735Y030657D02*
X011777Y030657D01*
X011679Y030756D02*
X008735Y030756D01*
X008735Y030854D02*
X011580Y030854D01*
X011482Y030953D02*
X008735Y030953D01*
X008735Y031051D02*
X011383Y031051D01*
X011285Y031150D02*
X008735Y031150D01*
X008735Y031248D02*
X011186Y031248D01*
X011088Y031347D02*
X008735Y031347D01*
X008735Y031445D02*
X010989Y031445D01*
X010891Y031544D02*
X008735Y031544D01*
X008735Y031642D02*
X010792Y031642D01*
X010694Y031741D02*
X008735Y031741D01*
X008735Y031839D02*
X010595Y031839D01*
X010497Y031938D02*
X008735Y031938D01*
X008735Y032036D02*
X010398Y032036D01*
X010300Y032135D02*
X008735Y032135D01*
X008735Y032233D02*
X010201Y032233D01*
X010103Y032332D02*
X008735Y032332D01*
X008735Y032430D02*
X010004Y032430D01*
X009906Y032529D02*
X008735Y032529D01*
X008735Y032627D02*
X009807Y032627D01*
X009709Y032726D02*
X008735Y032726D01*
X008735Y032824D02*
X009610Y032824D01*
X009512Y032923D02*
X008735Y032923D01*
X008735Y033021D02*
X009413Y033021D01*
X009315Y033120D02*
X008735Y033120D01*
X008735Y033218D02*
X009216Y033218D01*
X009118Y033317D02*
X008735Y033317D01*
X008735Y033415D02*
X009019Y033415D01*
X008921Y033514D02*
X008735Y033514D01*
X008735Y033612D02*
X008822Y033612D01*
X007490Y034400D02*
X003174Y034400D01*
X003174Y034302D02*
X007391Y034302D01*
X007293Y034203D02*
X003174Y034203D01*
X003174Y034105D02*
X007194Y034105D01*
X007096Y034006D02*
X003174Y034006D01*
X003174Y033908D02*
X006997Y033908D01*
X006899Y033809D02*
X003174Y033809D01*
X003174Y033711D02*
X006800Y033711D01*
X006702Y033612D02*
X003174Y033612D01*
X003174Y033514D02*
X006603Y033514D01*
X006148Y032332D02*
X006100Y032332D01*
X003174Y034499D02*
X018318Y034499D01*
X018318Y034597D02*
X003174Y034597D01*
X003174Y034696D02*
X018318Y034696D01*
X018318Y034794D02*
X003174Y034794D01*
X003174Y034893D02*
X018318Y034893D01*
X018318Y034991D02*
X003174Y034991D01*
X003174Y035090D02*
X018318Y035090D01*
X018318Y035188D02*
X003174Y035188D01*
X003174Y035287D02*
X018318Y035287D01*
X018318Y035385D02*
X003174Y035385D01*
X003174Y035484D02*
X018230Y035484D01*
X018131Y035582D02*
X003174Y035582D01*
X003174Y035681D02*
X018033Y035681D01*
X020181Y033218D02*
X020785Y033218D01*
X020747Y033120D02*
X020220Y033120D01*
X020220Y033021D02*
X020747Y033021D01*
X020747Y032923D02*
X020220Y032923D01*
X020220Y032824D02*
X020747Y032824D01*
X020747Y032627D02*
X020220Y032627D01*
X020220Y032529D02*
X020747Y032529D01*
X020747Y032430D02*
X020220Y032430D01*
X020220Y032332D02*
X020747Y032332D01*
X020757Y032233D02*
X020210Y032233D01*
X021260Y032233D02*
X021360Y032233D01*
X021360Y032332D02*
X021260Y032332D01*
X021260Y032430D02*
X021360Y032430D01*
X021360Y032529D02*
X021260Y032529D01*
X021260Y032627D02*
X021360Y032627D01*
X021360Y032923D02*
X021260Y032923D01*
X021260Y033021D02*
X021360Y033021D01*
X021360Y033120D02*
X021260Y033120D01*
X021260Y033218D02*
X021360Y033218D01*
X021835Y033218D02*
X022058Y033218D01*
X022058Y033120D02*
X021873Y033120D01*
X021873Y033021D02*
X022058Y033021D01*
X022058Y032923D02*
X021873Y032923D01*
X022058Y032036D02*
X016283Y032036D01*
X016283Y031938D02*
X022058Y031938D01*
X022058Y031839D02*
X016283Y031839D01*
X016283Y031741D02*
X018318Y031741D01*
X017526Y032135D02*
X016283Y032135D01*
X016283Y032233D02*
X017326Y032233D01*
X017228Y032332D02*
X016283Y032332D01*
X016245Y032430D02*
X017129Y032430D01*
X015671Y032430D02*
X015571Y032430D01*
X015571Y032332D02*
X015671Y032332D01*
X015671Y032233D02*
X015571Y032233D01*
X015571Y032135D02*
X015671Y032135D01*
X015671Y032036D02*
X015571Y032036D01*
X015571Y031938D02*
X015671Y031938D01*
X015671Y031839D02*
X015571Y031839D01*
X015571Y031544D02*
X015671Y031544D01*
X015671Y031445D02*
X015571Y031445D01*
X015571Y031347D02*
X015671Y031347D01*
X015671Y031248D02*
X015571Y031248D01*
X015571Y031150D02*
X015671Y031150D01*
X015671Y031051D02*
X015571Y031051D01*
X015571Y030953D02*
X015671Y030953D01*
X015671Y030854D02*
X015571Y030854D01*
X014970Y030854D02*
X012259Y030854D01*
X012161Y030953D02*
X014959Y030953D01*
X014959Y031051D02*
X012062Y031051D01*
X011964Y031150D02*
X014959Y031150D01*
X014959Y031248D02*
X011865Y031248D01*
X011767Y031347D02*
X014959Y031347D01*
X014959Y031445D02*
X011668Y031445D01*
X011570Y031544D02*
X014959Y031544D01*
X015028Y027407D02*
X012754Y027407D01*
X012853Y027308D02*
X015126Y027308D01*
X015225Y027210D02*
X012951Y027210D01*
X013050Y027111D02*
X015323Y027111D01*
X015422Y027013D02*
X013148Y027013D01*
X013247Y026914D02*
X015520Y026914D01*
X015619Y026816D02*
X013345Y026816D01*
X013444Y026717D02*
X015717Y026717D01*
X015816Y026619D02*
X014996Y026619D01*
X015137Y026520D02*
X015914Y026520D01*
X016013Y026422D02*
X015235Y026422D01*
X015334Y026323D02*
X016111Y026323D01*
X016210Y026225D02*
X015432Y026225D01*
X015531Y026126D02*
X016308Y026126D01*
X016407Y026028D02*
X015629Y026028D01*
X015728Y025929D02*
X016505Y025929D01*
X016604Y025831D02*
X015826Y025831D01*
X015925Y025732D02*
X016702Y025732D01*
X016801Y025634D02*
X016023Y025634D01*
X016122Y025535D02*
X016899Y025535D01*
X016998Y025437D02*
X016220Y025437D01*
X016319Y025338D02*
X017096Y025338D01*
X017195Y025240D02*
X016544Y025240D01*
X016612Y025141D02*
X017279Y025141D01*
X017303Y025043D02*
X016640Y025043D01*
X013872Y026619D02*
X013542Y026619D01*
X013641Y026520D02*
X013804Y026520D01*
X013775Y026422D02*
X013739Y026422D01*
X009214Y024550D02*
X008735Y024550D01*
X008735Y024452D02*
X009116Y024452D01*
X009017Y024353D02*
X008735Y024353D01*
X008735Y024255D02*
X008919Y024255D01*
X008820Y024156D02*
X008735Y024156D01*
X005086Y027210D02*
X003174Y027210D01*
X003174Y027308D02*
X005086Y027308D01*
X005086Y027407D02*
X003174Y027407D01*
X003174Y027505D02*
X005086Y027505D01*
X022206Y021201D02*
X022303Y021201D01*
X022303Y021103D02*
X022206Y021103D01*
X023030Y026914D02*
X023454Y026914D01*
X023454Y027013D02*
X023115Y027013D01*
X023115Y027111D02*
X023454Y027111D01*
X023454Y027210D02*
X023094Y027210D01*
X023025Y027308D02*
X023454Y027308D01*
X023454Y027407D02*
X023025Y027407D01*
X023025Y027505D02*
X023454Y027505D01*
X023472Y027604D02*
X023006Y027604D01*
X022908Y027702D02*
X024223Y027702D01*
X024223Y027801D02*
X022828Y027801D01*
X022828Y027899D02*
X024223Y027899D01*
X024223Y027998D02*
X022828Y027998D01*
X022828Y028096D02*
X024223Y028096D01*
X024223Y028195D02*
X022828Y028195D01*
X022828Y028293D02*
X024223Y028293D01*
X024223Y028392D02*
X022828Y028392D01*
X022828Y028490D02*
X024223Y028490D01*
X024223Y028589D02*
X022828Y028589D01*
X022828Y028687D02*
X024223Y028687D01*
X024223Y028786D02*
X022828Y028786D01*
X022828Y028884D02*
X024223Y028884D01*
X024223Y028983D02*
X022828Y028983D01*
X022828Y029081D02*
X024223Y029081D01*
X024223Y029180D02*
X022828Y029180D01*
X022828Y029278D02*
X024223Y029278D01*
X024223Y029377D02*
X023013Y029377D01*
X027668Y030834D02*
X027668Y030864D01*
X027735Y030864D01*
X027735Y030834D01*
X027767Y030834D01*
X028720Y031051D02*
X030706Y031051D01*
X030706Y031150D02*
X028733Y031150D01*
X028831Y031248D02*
X030706Y031248D01*
X030724Y031347D02*
X030523Y031347D01*
X030627Y031445D02*
X030765Y031445D01*
X030726Y031544D02*
X030805Y031544D01*
X030824Y031642D02*
X030872Y031642D01*
X030923Y031741D02*
X030970Y031741D01*
X031021Y031839D02*
X031091Y031839D01*
X031120Y031938D02*
X031328Y031938D01*
X031218Y032036D02*
X032231Y032036D01*
X032231Y031938D02*
X031685Y031938D01*
X031923Y031839D02*
X032231Y031839D01*
X032231Y031741D02*
X032043Y031741D01*
X032142Y031642D02*
X032231Y031642D01*
X032231Y031544D02*
X032208Y031544D01*
X032751Y031544D02*
X032794Y031544D01*
X032794Y031642D02*
X032751Y031642D01*
X032751Y031741D02*
X032794Y031741D01*
X032831Y031839D02*
X032751Y031839D01*
X032751Y031938D02*
X033806Y031938D01*
X033806Y032036D02*
X032751Y032036D01*
X032751Y032135D02*
X033806Y032135D01*
X033806Y032233D02*
X032751Y032233D01*
X032751Y032332D02*
X033806Y032332D01*
X033806Y032430D02*
X032751Y032430D01*
X032751Y032529D02*
X033806Y032529D01*
X033806Y032627D02*
X032751Y032627D01*
X032782Y032726D02*
X033806Y032726D01*
X033806Y032824D02*
X032880Y032824D01*
X033078Y032923D02*
X033806Y032923D01*
X033806Y033021D02*
X033170Y033021D01*
X033210Y033120D02*
X033806Y033120D01*
X033806Y033218D02*
X033215Y033218D01*
X033192Y033317D02*
X033806Y033317D01*
X033806Y033415D02*
X033133Y033415D01*
X032981Y033514D02*
X033806Y033514D01*
X033806Y033612D02*
X032341Y033612D01*
X032242Y033514D02*
X032789Y033514D01*
X032637Y033415D02*
X032144Y033415D01*
X032045Y033317D02*
X032578Y033317D01*
X032539Y033218D02*
X032021Y033218D01*
X031976Y033120D02*
X032441Y033120D01*
X032342Y033021D02*
X031858Y033021D01*
X031549Y033021D02*
X031454Y033021D01*
X031454Y032923D02*
X032259Y032923D01*
X032231Y032824D02*
X031454Y032824D01*
X031454Y032726D02*
X032231Y032726D01*
X032231Y032627D02*
X031454Y032627D01*
X031455Y032529D02*
X032231Y032529D01*
X032231Y032430D02*
X031455Y032430D01*
X031438Y032332D02*
X032231Y032332D01*
X032231Y032233D02*
X031398Y032233D01*
X031317Y032135D02*
X032231Y032135D01*
X032491Y032803D02*
X032885Y033196D01*
X032491Y032803D02*
X032491Y029063D01*
X029585Y029063D01*
X028601Y030047D01*
X028554Y030047D01*
X028760Y030953D02*
X030720Y030953D01*
X029637Y030342D02*
X029538Y030441D01*
X029637Y030342D02*
X029637Y029456D01*
X028866Y027505D02*
X028716Y027505D01*
X028716Y027407D02*
X028767Y027407D01*
X030227Y026405D02*
X030523Y026405D01*
X030818Y026405D01*
X030719Y026405D01*
X030719Y026504D01*
X030523Y026405D02*
X030523Y026110D01*
X030523Y025815D01*
X030227Y025815D01*
X030818Y025815D02*
X030818Y026110D01*
X034075Y028392D02*
X039838Y028392D01*
X039838Y028490D02*
X034174Y028490D01*
X034272Y028589D02*
X034459Y028589D01*
X034510Y028538D02*
X035511Y028538D01*
X035634Y028661D01*
X035634Y029661D01*
X035511Y029784D01*
X034510Y029784D01*
X034387Y029661D01*
X034387Y028661D01*
X034510Y028538D01*
X034387Y028687D02*
X034321Y028687D01*
X034326Y028786D02*
X034387Y028786D01*
X034387Y028884D02*
X034326Y028884D01*
X034326Y028983D02*
X034387Y028983D01*
X034387Y029081D02*
X034326Y029081D01*
X034326Y029180D02*
X034387Y029180D01*
X034387Y029278D02*
X034326Y029278D01*
X034326Y029377D02*
X034387Y029377D01*
X034387Y029475D02*
X034326Y029475D01*
X034326Y029574D02*
X034387Y029574D01*
X034398Y029672D02*
X034326Y029672D01*
X034326Y029771D02*
X034497Y029771D01*
X033806Y029771D02*
X032751Y029771D01*
X032751Y029869D02*
X033806Y029869D01*
X033806Y029968D02*
X032751Y029968D01*
X032751Y030066D02*
X033806Y030066D01*
X033806Y030165D02*
X032751Y030165D01*
X032751Y030263D02*
X033806Y030263D01*
X033806Y030362D02*
X032751Y030362D01*
X032751Y030460D02*
X033806Y030460D01*
X033806Y030559D02*
X032751Y030559D01*
X032751Y030657D02*
X033806Y030657D01*
X033806Y030756D02*
X032751Y030756D01*
X032751Y030854D02*
X032805Y030854D01*
X032794Y030953D02*
X032751Y030953D01*
X032751Y031051D02*
X032794Y031051D01*
X032794Y031150D02*
X032751Y031150D01*
X032751Y031248D02*
X032794Y031248D01*
X032751Y031347D02*
X033307Y031347D01*
X033307Y031445D02*
X033407Y031445D01*
X033407Y031544D02*
X033307Y031544D01*
X033307Y031642D02*
X033407Y031642D01*
X033407Y031741D02*
X033307Y031741D01*
X033307Y031839D02*
X033407Y031839D01*
X033407Y031248D02*
X033307Y031248D01*
X033307Y031150D02*
X033407Y031150D01*
X033407Y031051D02*
X033307Y031051D01*
X033307Y030953D02*
X033407Y030953D01*
X033407Y030854D02*
X033307Y030854D01*
X032794Y031445D02*
X032751Y031445D01*
X032751Y029672D02*
X032830Y029672D01*
X032794Y029574D02*
X032751Y029574D01*
X032751Y029475D02*
X032794Y029475D01*
X032794Y029377D02*
X032751Y029377D01*
X032751Y029278D02*
X032794Y029278D01*
X032800Y029180D02*
X033307Y029180D01*
X033307Y029278D02*
X033407Y029278D01*
X033407Y029377D02*
X033307Y029377D01*
X033307Y029475D02*
X033407Y029475D01*
X033407Y029574D02*
X033307Y029574D01*
X033307Y029672D02*
X033407Y029672D01*
X035525Y029771D02*
X036150Y029771D01*
X036052Y029672D02*
X035623Y029672D01*
X035634Y029574D02*
X036041Y029574D01*
X036041Y029475D02*
X035634Y029475D01*
X035634Y029377D02*
X036041Y029377D01*
X036041Y029278D02*
X035634Y029278D01*
X035634Y029180D02*
X036041Y029180D01*
X036041Y029081D02*
X035634Y029081D01*
X035634Y028983D02*
X036041Y028983D01*
X036041Y028884D02*
X035634Y028884D01*
X035634Y028786D02*
X036041Y028786D01*
X036041Y028687D02*
X035634Y028687D01*
X035562Y028589D02*
X036113Y028589D01*
X035883Y028293D02*
X039835Y028293D01*
X039838Y028589D02*
X038870Y028589D01*
X038941Y028687D02*
X039838Y028687D01*
X039838Y028786D02*
X038941Y028786D01*
X038941Y028884D02*
X039838Y028884D01*
X039838Y028983D02*
X038941Y028983D01*
X038958Y029081D02*
X039838Y029081D01*
X039838Y029180D02*
X038958Y029180D01*
X038958Y029278D02*
X039838Y029278D01*
X039860Y029377D02*
X038958Y029377D01*
X038958Y029475D02*
X039918Y029475D01*
X040016Y029574D02*
X038958Y029574D01*
X038958Y029672D02*
X040115Y029672D01*
X040213Y029771D02*
X038958Y029771D01*
X038958Y029869D02*
X040312Y029869D01*
X040410Y029968D02*
X038958Y029968D01*
X038958Y030066D02*
X040509Y030066D01*
X040607Y030165D02*
X038958Y030165D01*
X038958Y030263D02*
X040706Y030263D01*
X040804Y030362D02*
X040369Y030362D01*
X040607Y030460D02*
X040823Y030460D01*
X040823Y030559D02*
X040714Y030559D01*
X040813Y030657D02*
X040823Y030657D01*
X041483Y030657D02*
X042124Y030657D01*
X042124Y030559D02*
X041483Y030559D01*
X041483Y030460D02*
X042124Y030460D01*
X042124Y030362D02*
X041483Y030362D01*
X041483Y030263D02*
X042124Y030263D01*
X042124Y030165D02*
X041477Y030165D01*
X041436Y030066D02*
X042124Y030066D01*
X042124Y029968D02*
X041343Y029968D01*
X041245Y029869D02*
X042124Y029869D01*
X042124Y029771D02*
X041146Y029771D01*
X041048Y029672D02*
X042124Y029672D01*
X042124Y029574D02*
X040949Y029574D01*
X040851Y029475D02*
X042124Y029475D01*
X042124Y029377D02*
X040752Y029377D01*
X040654Y029278D02*
X042124Y029278D01*
X042124Y029180D02*
X040555Y029180D01*
X040498Y029081D02*
X042124Y029081D01*
X042124Y028983D02*
X040498Y028983D01*
X040498Y028884D02*
X042124Y028884D01*
X042124Y028786D02*
X040498Y028786D01*
X040498Y028687D02*
X042124Y028687D01*
X042124Y028589D02*
X040498Y028589D01*
X040498Y028490D02*
X042124Y028490D01*
X042124Y028392D02*
X040498Y028392D01*
X040498Y028293D02*
X042124Y028293D01*
X042124Y028195D02*
X040498Y028195D01*
X040498Y028096D02*
X042124Y028096D01*
X042124Y027998D02*
X040458Y027998D01*
X040374Y027899D02*
X042124Y027899D01*
X042124Y027801D02*
X040276Y027801D01*
X040177Y027702D02*
X042124Y027702D01*
X042124Y027604D02*
X040079Y027604D01*
X039968Y030362D02*
X038958Y030362D01*
X038958Y030460D02*
X039730Y030460D01*
X039623Y030559D02*
X038958Y030559D01*
X038958Y030657D02*
X039524Y030657D01*
X039463Y030756D02*
X038958Y030756D01*
X038958Y030854D02*
X039422Y030854D01*
X039381Y030953D02*
X038958Y030953D01*
X038958Y031051D02*
X039368Y031051D01*
X039368Y031150D02*
X038958Y031150D01*
X038958Y031248D02*
X039368Y031248D01*
X039385Y031347D02*
X038958Y031347D01*
X038958Y031445D02*
X039426Y031445D01*
X039467Y031544D02*
X038941Y031544D01*
X038941Y031642D02*
X039533Y031642D01*
X039632Y031741D02*
X038941Y031741D01*
X038929Y031839D02*
X039752Y031839D01*
X039990Y031938D02*
X038830Y031938D01*
X039293Y032233D02*
X036629Y032233D01*
X036629Y032135D02*
X039385Y032135D01*
X039253Y032332D02*
X036629Y032332D01*
X036629Y032430D02*
X039248Y032430D01*
X039270Y032529D02*
X036629Y032529D01*
X036629Y032627D02*
X039288Y032627D01*
X039288Y032726D02*
X036629Y032726D01*
X036629Y032824D02*
X039288Y032824D01*
X039288Y032923D02*
X036629Y032923D01*
X036629Y033021D02*
X039288Y033021D01*
X039288Y033120D02*
X036629Y033120D01*
X036629Y033218D02*
X039288Y033218D01*
X039236Y033317D02*
X036629Y033317D01*
X036629Y033415D02*
X039137Y033415D01*
X039039Y033514D02*
X036629Y033514D01*
X035987Y034203D02*
X034707Y034203D01*
X034554Y034302D02*
X035889Y034302D01*
X035790Y034400D02*
X033129Y034400D01*
X033030Y034302D02*
X034365Y034302D01*
X034212Y034203D02*
X032932Y034203D01*
X032833Y034105D02*
X034153Y034105D01*
X034114Y034006D02*
X032735Y034006D01*
X032636Y033908D02*
X034016Y033908D01*
X033917Y033809D02*
X032538Y033809D01*
X032439Y033711D02*
X033835Y033711D01*
X033227Y034499D02*
X035692Y034499D01*
X035641Y034574D02*
X034853Y034574D01*
X033279Y034574D01*
X035523Y031938D02*
X036149Y031938D01*
X036054Y031839D02*
X035622Y031839D01*
X035634Y031741D02*
X036041Y031741D01*
X036041Y031642D02*
X035634Y031642D01*
X035634Y031544D02*
X036041Y031544D01*
X036041Y031445D02*
X035634Y031445D01*
X035634Y031347D02*
X036041Y031347D01*
X036041Y031248D02*
X035634Y031248D01*
X035634Y031150D02*
X036041Y031150D01*
X036041Y031051D02*
X035634Y031051D01*
X035634Y030953D02*
X036041Y030953D01*
X036041Y030854D02*
X035634Y030854D01*
X035564Y030756D02*
X036111Y030756D01*
X037218Y030756D02*
X037678Y030756D01*
X037678Y030854D02*
X037288Y030854D01*
X037288Y030953D02*
X037678Y030953D01*
X037678Y031051D02*
X037288Y031051D01*
X037288Y031150D02*
X037678Y031150D01*
X037678Y031248D02*
X037288Y031248D01*
X037288Y031347D02*
X037678Y031347D01*
X037678Y031445D02*
X037288Y031445D01*
X037288Y031544D02*
X037695Y031544D01*
X037695Y031642D02*
X037288Y031642D01*
X037288Y031741D02*
X037695Y031741D01*
X037707Y031839D02*
X037275Y031839D01*
X037177Y031938D02*
X037806Y031938D01*
X036629Y032036D02*
X040422Y032036D01*
X040347Y031938D02*
X040520Y031938D01*
X040585Y031839D02*
X040619Y031839D01*
X040705Y031741D02*
X040717Y031741D01*
X040803Y031642D02*
X040816Y031642D01*
X041256Y032135D02*
X042124Y032135D01*
X042124Y032233D02*
X041158Y032233D01*
X041059Y032332D02*
X042124Y032332D01*
X042124Y032430D02*
X040961Y032430D01*
X040862Y032529D02*
X042124Y032529D01*
X042124Y032627D02*
X040764Y032627D01*
X040665Y032726D02*
X042124Y032726D01*
X042124Y032824D02*
X040567Y032824D01*
X040498Y032923D02*
X042124Y032923D01*
X042124Y033021D02*
X040498Y033021D01*
X040498Y033120D02*
X042124Y033120D01*
X042124Y033218D02*
X040498Y033218D01*
X040498Y033317D02*
X042124Y033317D01*
X042124Y033415D02*
X040498Y033415D01*
X040498Y033514D02*
X042124Y033514D01*
X042124Y033612D02*
X040498Y033612D01*
X040498Y033711D02*
X042124Y033711D01*
X042124Y033809D02*
X040498Y033809D01*
X040498Y033908D02*
X042124Y033908D01*
X042124Y034006D02*
X040498Y034006D01*
X040489Y034105D02*
X042124Y034105D01*
X042124Y034203D02*
X040449Y034203D01*
X040351Y034302D02*
X042124Y034302D01*
X042124Y034400D02*
X040252Y034400D01*
X040154Y034499D02*
X042124Y034499D01*
X042124Y034597D02*
X040055Y034597D01*
X039957Y034696D02*
X042124Y034696D01*
X042124Y034794D02*
X039858Y034794D01*
X039705Y034893D02*
X042124Y034893D01*
X042124Y034991D02*
X037085Y034991D01*
X037053Y035090D02*
X042124Y035090D01*
X042124Y035188D02*
X037009Y035188D01*
X036910Y035287D02*
X042124Y035287D01*
X042124Y035385D02*
X036812Y035385D01*
X036713Y035484D02*
X042124Y035484D01*
X042124Y035582D02*
X036615Y035582D01*
X036516Y035681D02*
X042124Y035681D01*
X039929Y032529D02*
X039885Y032529D01*
X039908Y032430D02*
X040028Y032430D01*
X040126Y032332D02*
X039903Y032332D01*
X039862Y032233D02*
X040225Y032233D01*
X040323Y032135D02*
X039770Y032135D01*
X041355Y032036D02*
X042124Y032036D01*
X042124Y031938D02*
X041441Y031938D01*
X041482Y031839D02*
X042124Y031839D01*
X042124Y031741D02*
X041483Y031741D01*
X041483Y031642D02*
X042124Y031642D01*
X042124Y031544D02*
X041483Y031544D01*
X041483Y031445D02*
X042124Y031445D01*
X042124Y031347D02*
X041483Y031347D01*
X041483Y031248D02*
X042124Y031248D01*
X042124Y031150D02*
X041483Y031150D01*
X041483Y031051D02*
X042124Y031051D01*
X042124Y030953D02*
X041483Y030953D01*
X041483Y030854D02*
X042124Y030854D01*
X042124Y030756D02*
X041483Y030756D01*
X034263Y018246D02*
X030203Y018246D01*
X030105Y018148D02*
X034263Y018148D01*
X034263Y018049D02*
X030006Y018049D01*
X029908Y017951D02*
X034263Y017951D01*
X034263Y017852D02*
X029809Y017852D01*
X029711Y017754D02*
X034263Y017754D01*
X034263Y017655D02*
X029612Y017655D01*
X029514Y017557D02*
X034263Y017557D01*
X034263Y017458D02*
X029415Y017458D01*
X029317Y017360D02*
X034263Y017360D01*
X034263Y017261D02*
X029218Y017261D01*
X030011Y016740D02*
X030011Y015064D01*
X030382Y014693D01*
X032491Y014693D01*
X033279Y013905D01*
X035641Y013905D01*
X036034Y013905D01*
X036428Y013905D01*
X036231Y013118D02*
X036231Y006819D01*
X032688Y006819D01*
X032688Y009181D01*
X034460Y009181D01*
X034460Y010351D01*
X034462Y010348D01*
X034526Y010306D01*
X034597Y010276D01*
X034671Y010261D01*
X034691Y010261D01*
X034691Y010630D01*
X034729Y010630D01*
X034729Y010668D01*
X035097Y010668D01*
X035097Y010687D01*
X035083Y010762D01*
X035053Y010833D01*
X035011Y010896D01*
X035008Y010899D01*
X035011Y010902D01*
X035053Y010966D01*
X035083Y011036D01*
X035097Y011111D01*
X035097Y011130D01*
X034729Y011130D01*
X034729Y011168D01*
X035097Y011168D01*
X035097Y011187D01*
X035083Y011262D01*
X035053Y011333D01*
X035011Y011396D01*
X035008Y011399D01*
X035011Y011402D01*
X035053Y011466D01*
X035083Y011536D01*
X035097Y011611D01*
X035097Y011630D01*
X034729Y011630D01*
X034729Y011668D01*
X035097Y011668D01*
X035097Y011687D01*
X035083Y011762D01*
X035053Y011833D01*
X035011Y011896D01*
X034957Y011950D01*
X034893Y011993D01*
X034823Y012022D01*
X034748Y012037D01*
X034729Y012037D01*
X034729Y011668D01*
X034691Y011668D01*
X034691Y012037D01*
X034671Y012037D01*
X034597Y012022D01*
X034526Y011993D01*
X034462Y011950D01*
X034460Y011948D01*
X034460Y013118D01*
X036231Y013118D01*
X036231Y013026D02*
X034460Y013026D01*
X034460Y012927D02*
X036231Y012927D01*
X036231Y012829D02*
X034460Y012829D01*
X034460Y012730D02*
X036231Y012730D01*
X036231Y012632D02*
X034460Y012632D01*
X034460Y012533D02*
X036231Y012533D01*
X036231Y012435D02*
X034460Y012435D01*
X034460Y012336D02*
X036231Y012336D01*
X036231Y012238D02*
X034460Y012238D01*
X034460Y012139D02*
X036231Y012139D01*
X036231Y012041D02*
X034460Y012041D01*
X034691Y011942D02*
X034729Y011942D01*
X034729Y011844D02*
X034691Y011844D01*
X034691Y011745D02*
X034729Y011745D01*
X034729Y011647D02*
X036231Y011647D01*
X036231Y011745D02*
X035086Y011745D01*
X035046Y011844D02*
X036231Y011844D01*
X036231Y011942D02*
X034965Y011942D01*
X034729Y011630D02*
X034729Y011168D01*
X034691Y011168D01*
X034691Y011537D01*
X034691Y011630D01*
X034729Y011630D01*
X034729Y011548D02*
X034691Y011548D01*
X034691Y011450D02*
X034729Y011450D01*
X034729Y011351D02*
X034691Y011351D01*
X034691Y011253D02*
X034729Y011253D01*
X034729Y011154D02*
X036231Y011154D01*
X036231Y011056D02*
X035086Y011056D01*
X035048Y010957D02*
X036231Y010957D01*
X036231Y010859D02*
X035036Y010859D01*
X035083Y010760D02*
X036231Y010760D01*
X036231Y010662D02*
X034729Y010662D01*
X034729Y010668D02*
X034691Y010668D01*
X034691Y011037D01*
X034691Y011130D01*
X034729Y011130D01*
X034729Y010668D01*
X034729Y010630D02*
X035097Y010630D01*
X035097Y010611D01*
X035083Y010536D01*
X035053Y010466D01*
X035011Y010402D01*
X034957Y010348D01*
X034893Y010306D01*
X034823Y010276D01*
X034748Y010261D01*
X034729Y010261D01*
X034729Y010630D01*
X034729Y010563D02*
X034691Y010563D01*
X034691Y010465D02*
X034729Y010465D01*
X034729Y010366D02*
X034691Y010366D01*
X034691Y010268D02*
X034729Y010268D01*
X034780Y010268D02*
X036231Y010268D01*
X036231Y010366D02*
X034975Y010366D01*
X035053Y010465D02*
X036231Y010465D01*
X036231Y010563D02*
X035088Y010563D01*
X034729Y010760D02*
X034691Y010760D01*
X034691Y010859D02*
X034729Y010859D01*
X034729Y010957D02*
X034691Y010957D01*
X034691Y011056D02*
X034729Y011056D01*
X035084Y011253D02*
X036231Y011253D01*
X036231Y011351D02*
X035041Y011351D01*
X035043Y011450D02*
X036231Y011450D01*
X036231Y011548D02*
X035085Y011548D01*
X034639Y010268D02*
X034460Y010268D01*
X034460Y010169D02*
X036231Y010169D01*
X036231Y010071D02*
X034460Y010071D01*
X034460Y009972D02*
X036231Y009972D01*
X036231Y009874D02*
X034460Y009874D01*
X034460Y009775D02*
X036231Y009775D01*
X036231Y009677D02*
X034460Y009677D01*
X034460Y009578D02*
X036231Y009578D01*
X036231Y009480D02*
X034460Y009480D01*
X034460Y009381D02*
X036231Y009381D01*
X036231Y009283D02*
X034460Y009283D01*
X034460Y009184D02*
X036231Y009184D01*
X036231Y009086D02*
X032688Y009086D01*
X032688Y008987D02*
X036231Y008987D01*
X036231Y008889D02*
X032688Y008889D01*
X032688Y008790D02*
X036231Y008790D01*
X036231Y008692D02*
X032688Y008692D01*
X032688Y008593D02*
X036231Y008593D01*
X036231Y008495D02*
X032688Y008495D01*
X032688Y008396D02*
X036231Y008396D01*
X036231Y008298D02*
X032688Y008298D01*
X032688Y008199D02*
X036231Y008199D01*
X036231Y008101D02*
X032688Y008101D01*
X032688Y008002D02*
X036231Y008002D01*
X036231Y007904D02*
X032688Y007904D01*
X032688Y007805D02*
X036231Y007805D01*
X036231Y007707D02*
X032688Y007707D01*
X032688Y007608D02*
X036231Y007608D01*
X036231Y007510D02*
X032688Y007510D01*
X032688Y007411D02*
X036231Y007411D01*
X036231Y007313D02*
X032688Y007313D01*
X032688Y007214D02*
X036231Y007214D01*
X036231Y007116D02*
X032688Y007116D01*
X032688Y007017D02*
X036231Y007017D01*
X036231Y006919D02*
X032688Y006919D01*
X032688Y006820D02*
X036231Y006820D01*
X031507Y007606D02*
X031507Y007803D01*
X031310Y007803D01*
X031507Y008000D02*
X031113Y008000D01*
X032491Y016464D02*
X032688Y016464D01*
X033082Y016858D01*
X013003Y008787D02*
X012806Y008787D01*
X012609Y008590D01*
X012609Y005834D01*
D30*
X008968Y009378D02*
X008613Y009378D01*
X008968Y009378D02*
X008968Y010362D01*
X008613Y010362D01*
X008613Y011346D02*
X009775Y011346D01*
X009775Y011602D01*
X010641Y011602D01*
X011625Y011602D01*
X009775Y011602D02*
X009775Y011149D01*
X009628Y011149D01*
X023239Y020007D02*
X023239Y022763D01*
X023239Y027646D01*
X023830Y021189D02*
X023830Y021110D01*
X023830Y020007D01*
X027078Y017547D02*
X027078Y016956D01*
X027668Y016956D01*
X027668Y017547D01*
X027373Y017547D02*
X027078Y017547D01*
D31*
X023830Y019220D02*
X023830Y020007D01*
X023239Y020007D02*
X022452Y020007D01*
X022255Y020204D01*
X022255Y020657D01*
X022255Y020696D01*
X022649Y020696D01*
X022649Y021189D02*
X022255Y021189D01*
X022255Y021326D01*
X023830Y019220D02*
X023633Y019023D01*
X023633Y018531D01*
X023574Y018531D01*
X036625Y027173D02*
X038003Y027173D01*
X039066Y027173D01*
X039578Y026661D01*
X039578Y025716D01*
X039578Y032409D02*
X039578Y033385D01*
X039097Y033866D01*
X038003Y033866D01*
X036625Y033866D01*
D32*
X036389Y034141D02*
X036389Y031346D01*
X036664Y031346D01*
X036664Y031326D01*
X036389Y034141D02*
X035719Y034811D01*
X033200Y034811D01*
X031704Y033315D01*
X030562Y033315D02*
X028830Y033315D01*
X025956Y030441D01*
X020444Y030441D01*
X020247Y030244D01*
X019336Y030007D02*
X018948Y029620D01*
X018948Y025637D01*
X019027Y025559D01*
X021153Y025559D01*
X021231Y025637D01*
X021389Y025637D01*
X021468Y025559D01*
X022293Y025559D01*
X022964Y024888D01*
X022964Y024220D01*
X022885Y024141D01*
X022885Y023196D01*
X022885Y022803D02*
X021861Y023826D01*
X021389Y023826D02*
X015838Y023826D01*
X015838Y023275D02*
X021625Y023275D01*
X022019Y022881D01*
X021428Y022488D02*
X014105Y022488D01*
X014094Y022476D01*
X013987Y022567D01*
X013594Y022960D01*
X012412Y022960D01*
X009066Y022960D01*
X008869Y022763D01*
X008633Y023630D02*
X008633Y018905D01*
X008712Y018905D01*
X008908Y018708D01*
X008908Y018393D01*
X007412Y018393D01*
X005011Y020795D01*
X005011Y025519D01*
X005326Y024929D02*
X005326Y031897D01*
X007649Y034220D01*
X008554Y034220D01*
X017373Y025401D01*
X021310Y025401D01*
X022176Y025165D02*
X017609Y025165D01*
X016310Y025007D02*
X014932Y026385D01*
X014105Y026385D01*
X012412Y027094D02*
X012412Y022960D01*
X013094Y022476D02*
X013515Y022055D01*
X014538Y022055D01*
X014735Y021858D01*
X014814Y021622D02*
X014538Y021622D01*
X014263Y021897D01*
X011389Y021897D01*
X013094Y020476D02*
X013200Y020401D01*
X016153Y017448D01*
X016153Y016267D01*
X016349Y016267D01*
X017531Y017055D02*
X014184Y020401D01*
X014094Y020476D01*
X014814Y021622D02*
X015286Y022094D01*
X016349Y022252D02*
X016389Y022291D01*
X018436Y022291D01*
X019066Y021661D01*
X022334Y021661D01*
X022491Y021819D01*
X022255Y022094D02*
X021310Y023039D01*
X014538Y023039D01*
X014105Y023472D01*
X014094Y023476D01*
X013908Y024299D02*
X013121Y023511D01*
X013094Y023476D01*
X013908Y024299D02*
X022727Y024299D01*
X022097Y024535D02*
X022019Y024456D01*
X013160Y024456D01*
X015050Y024771D02*
X012491Y027330D01*
X012334Y027330D01*
X008633Y023630D01*
X004145Y021237D02*
X004145Y026504D01*
X004105Y026641D01*
X004105Y028098D02*
X004145Y028275D01*
X004145Y031622D01*
X004086Y031622D01*
X015050Y024771D02*
X019656Y024771D01*
X019735Y024693D01*
X021389Y023826D02*
X022649Y022567D01*
X023239Y022763D02*
X023475Y022763D01*
X024184Y022488D02*
X024342Y022330D01*
X025838Y022330D01*
X026389Y021779D01*
X026034Y021819D02*
X025995Y021779D01*
X024420Y021779D01*
X024184Y022015D02*
X025759Y022015D01*
X025798Y022055D01*
X025405Y021543D02*
X027294Y021543D01*
X027294Y021858D02*
X027491Y022055D01*
X027609Y022055D01*
X028003Y022448D01*
X027531Y022291D02*
X027531Y023078D01*
X027649Y023078D01*
X027924Y023354D01*
X028003Y023748D02*
X027058Y022803D01*
X026349Y022803D01*
X026271Y022724D01*
X025956Y022960D02*
X026586Y022960D01*
X026743Y023118D01*
X026428Y023196D02*
X027216Y023984D01*
X027294Y023984D01*
X028003Y023748D02*
X028003Y026582D01*
X027294Y026582D01*
X027294Y026346D02*
X027216Y026346D01*
X027058Y026504D01*
X027058Y029220D01*
X028160Y029220D01*
X028200Y029259D01*
X028633Y029496D02*
X029420Y028708D01*
X029342Y028118D02*
X035719Y028118D01*
X036389Y027448D01*
X036389Y024653D01*
X036664Y024653D01*
X036664Y024633D01*
X032845Y021346D02*
X032845Y021228D01*
X027531Y015913D01*
X023633Y015913D01*
X023475Y016070D01*
X022885Y017291D02*
X021231Y017291D01*
X019656Y015716D01*
X019656Y011267D01*
X020719Y011267D01*
X026192Y017173D02*
X026192Y017252D01*
X028554Y019614D01*
X028948Y019614D01*
X028948Y025716D01*
X029932Y026700D01*
X031854Y026700D01*
X032294Y026260D01*
X032294Y024141D01*
X031704Y023551D01*
X030916Y022763D01*
X030916Y020007D01*
X031901Y018630D02*
X032491Y019220D01*
X037412Y019220D01*
X038200Y018236D02*
X038200Y018137D01*
X027885Y020834D02*
X027609Y020559D01*
X025483Y020559D01*
X025168Y020874D01*
X025956Y020874D02*
X026428Y020874D01*
X026192Y020165D02*
X026192Y019063D01*
X025129Y019063D01*
X023987Y017921D01*
X022924Y017330D02*
X022885Y017291D01*
X024538Y019259D02*
X025208Y019929D01*
X023830Y021110D02*
X027294Y021110D01*
X027294Y020795D02*
X027767Y021267D01*
X027294Y022488D02*
X024617Y022488D01*
X024223Y022881D01*
X024223Y023748D01*
X024027Y023944D01*
X024027Y024929D01*
X024223Y025126D01*
X024223Y026149D01*
X023987Y026149D01*
X023594Y026543D01*
X023594Y027527D01*
X025168Y027527D01*
X027137Y029496D01*
X028633Y029496D01*
X028633Y030677D02*
X030956Y030677D01*
X031231Y030401D01*
X032255Y030401D01*
X028633Y030677D02*
X028436Y030874D01*
X026034Y029732D02*
X023042Y029732D01*
X022845Y029535D01*
X022688Y029378D02*
X022609Y029456D01*
X022609Y029704D01*
X022873Y029968D01*
X025483Y029968D01*
X024735Y030204D02*
X022649Y030204D01*
X022452Y030007D01*
X019336Y030007D01*
X018908Y032015D02*
X019499Y032606D01*
X019656Y032704D01*
X018908Y032015D02*
X016153Y032015D01*
X015759Y031622D01*
X015621Y031622D01*
X022688Y029378D02*
X022688Y027724D01*
X022885Y027527D01*
X022885Y027094D01*
X023830Y026622D02*
X024145Y026307D01*
X024381Y026307D01*
X024381Y025756D01*
X025719Y024417D01*
X025719Y024102D01*
X025995Y023866D02*
X025995Y024574D01*
X025877Y024574D01*
X025090Y024102D02*
X025050Y024102D01*
X025050Y024574D01*
X025641Y025244D02*
X024066Y026819D01*
X025326Y026149D02*
X025326Y025913D01*
X025326Y026149D02*
X026349Y027173D01*
X026428Y026937D02*
X026349Y026858D01*
X026349Y026031D01*
X026507Y025874D01*
X026625Y025874D01*
X026625Y025165D01*
X026349Y025244D02*
X025641Y025244D01*
X026349Y025244D02*
X026349Y023669D01*
X026428Y023433D02*
X026113Y023433D01*
X025562Y022881D01*
X025641Y022645D02*
X025168Y022645D01*
X025090Y022724D01*
X025326Y023196D02*
X025995Y023866D01*
X026428Y023433D02*
X027531Y024535D01*
X027531Y026346D01*
X027294Y026346D02*
X027294Y025677D01*
X026979Y025716D02*
X026586Y026110D01*
X026428Y026937D02*
X026586Y027094D01*
X026586Y027376D01*
X026356Y027606D01*
X025719Y027606D01*
X025956Y022960D02*
X025641Y022645D01*
X022019Y021897D02*
X021428Y022488D01*
X017531Y018433D02*
X017727Y018236D01*
X017924Y018236D01*
X010838Y017252D02*
X008131Y017252D01*
X004145Y021237D01*
X009853Y016858D02*
X010050Y016858D01*
X010247Y016661D01*
D33*
X004735Y018236D03*
X004538Y007212D03*
X035838Y015874D03*
D34*
X023239Y027646D02*
X023239Y029259D01*
X026192Y029259D01*
X026218Y029259D01*
D35*
X026192Y029259D02*
X027767Y030834D01*
X028673Y031741D01*
X030272Y031741D01*
X030995Y032464D01*
X030994Y032464D01*
X030994Y034715D01*
X031641Y035362D01*
X036185Y035362D01*
X036625Y034922D01*
X036625Y034574D01*
X021664Y009378D02*
X021271Y009378D01*
X020877Y009378D01*
X020877Y008984D01*
X020877Y008590D01*
X021271Y008590D01*
X021664Y008590D01*
X021664Y008984D01*
X021664Y009378D01*
X029342Y006031D02*
X029342Y005244D01*
X029735Y005244D01*
X030129Y005244D01*
X030129Y005637D01*
X030129Y006031D01*
X029735Y006031D01*
X029342Y006031D01*
D36*
X019302Y026110D02*
X019302Y026504D01*
X019696Y026504D01*
D37*
X029932Y025831D02*
X029932Y025553D01*
X030489Y026110D01*
X030523Y026110D01*
X030818Y026110D01*
X030489Y026110D02*
X030210Y026110D01*
X029932Y025831D01*
X029932Y025553D02*
X029932Y019811D01*
X027373Y017252D01*
X019696Y007212D02*
X015365Y007212D01*
X014775Y007803D01*
X014775Y010439D01*
X014065Y011149D01*
X009628Y011149D01*
X008968Y010489D01*
X008968Y010362D01*
X008968Y006917D01*
M02*
