%
M48
M72
T01C0.0120
T02C0.0276
T03C0.0400
T04C0.0500
T05C0.0551
T06C0.1181
T07C0.1378
T08C0.1488
%
T01
X5719Y5047
X8672Y6622
X8672Y6917
X8672Y7212
X8968Y7212
X9263Y7212
X9263Y6917
X9263Y6622
X8968Y6622
X8968Y6917
X10149Y6819
X10149Y7114
X10149Y7409
X11133Y7409
X11133Y7114
X11133Y6819
X12609Y5834
X11231Y5244
X10050Y5244
X9952Y8689
X10247Y8689
X11034Y8689
X11330Y8689
X13003Y8787
X16153Y10952
X16153Y11346
X16153Y12133
X16153Y12921
X17727Y13905
X16153Y15283
X16349Y16267
X16546Y17055
X17531Y17055
X17531Y16267
X17924Y18236
X19302Y18433
X20286Y18433
X20286Y19319
X20286Y19712
X19499Y19673
X20582Y20696
X20877Y20401
X22097Y19732
X21468Y18826
X23042Y19122
X23338Y19023
X23239Y20007
X22649Y20696
X22649Y21189
X22491Y21819
X22255Y22094
X22019Y21897
X22649Y22567
X22885Y22803
X22885Y23196
X23475Y22763
X24184Y22488
X24499Y23078
X25090Y22724
X25562Y22881
X25326Y23196
X26271Y22724
X26428Y23196
X26743Y23118
X26349Y23669
X25719Y24102
X25877Y24574
X25090Y24102
X25050Y24574
X24420Y24653
X23830Y25322
X22727Y24299
X22097Y24535
X22176Y25165
X21310Y25401
X21271Y26504
X21271Y26897
X21664Y26897
X21664Y26504
X22058Y26504
X22058Y26897
X22452Y26897
X22452Y26504
X22885Y27094
X22452Y27291
X22452Y27685
X22452Y28078
X22058Y28078
X22058Y27685
X21664Y27685
X21664Y28078
X21664Y28472
X21271Y28472
X20877Y28472
X20483Y28472
X20483Y28866
X20877Y28866
X21271Y28866
X21664Y28866
X22058Y28866
X22452Y28866
X22845Y29535
X22452Y28472
X22058Y28472
X22058Y27291
X21664Y27291
X20877Y26897
X20877Y26504
X20483Y26504
X20483Y26897
X20090Y26897
X20090Y26504
X19696Y26504
X19696Y26897
X19696Y27291
X19696Y27685
X19696Y28078
X19302Y26110
X19696Y25913
X19735Y24693
X17609Y25165
X16310Y25007
X15838Y23826
X15838Y23275
X16349Y22252
X16120Y21372
X15817Y21372
X15514Y21372
X15286Y22094
X14735Y21858
X15365Y20598
X17531Y20204
X18970Y21433
X19273Y21433
X19576Y21433
X18318Y22074
X22019Y22881
X21861Y23826
X24184Y22015
X24420Y21779
X23830Y21189
X25168Y20874
X25405Y21543
X25798Y22055
X26034Y21819
X26389Y21779
X27294Y21858
X27294Y21543
X27294Y21110
X27294Y20795
X27885Y20834
X27767Y21267
X27531Y22291
X27294Y22488
X28003Y22448
X27924Y23354
X28003Y23748
X27294Y23984
X26625Y25165
X26979Y25716
X27294Y25677
X27531Y26346
X27294Y26582
X26586Y26110
X26349Y27173
X25719Y27606
X25326Y25913
X24066Y26819
X23830Y26622
X23239Y27646
X25483Y29968
X24735Y30204
X26034Y29732
X27668Y30834
X28436Y30874
X28554Y30047
X28554Y29259
X28200Y29259
X29420Y28708
X29342Y28118
X30129Y27685
X30523Y27685
X30916Y27685
X30818Y26405
X30818Y26110
X30523Y26110
X30523Y26405
X30227Y26405
X30227Y26110
X30227Y25815
X30523Y25815
X30818Y25815
X32491Y26996
X33279Y27291
X33279Y27881
X34460Y27291
X34853Y27881
X35641Y27881
X36625Y27881
X36625Y27173
X38003Y27173
X39578Y25716
X40956Y28275
X41349Y28275
X41349Y28669
X40956Y28669
X39775Y29653
X39775Y30047
X39381Y30047
X39381Y29653
X39578Y32409
X38003Y33866
X36625Y33866
X36625Y34574
X35641Y34574
X34853Y34574
X34460Y33984
X33279Y34574
X32885Y33196
X31704Y33315
X30562Y33315
X29538Y30441
X29637Y29456
X32255Y30401
X32491Y29063
X33357Y23354
X31704Y22763
X31704Y22370
X31310Y22370
X31310Y22763
X32845Y21346
X33082Y19811
X33475Y19811
X33869Y19811
X33869Y18630
X33475Y18630
X33082Y18630
X31901Y18630
X30916Y20007
X27668Y17547
X27373Y17547
X27078Y17547
X27078Y17252
X27373Y17252
X27668Y17252
X27668Y16956
X27373Y16956
X27078Y16956
X26192Y17173
X25700Y17311
X25700Y17645
X25483Y17921
X25286Y18826
X24538Y19259
X25208Y19929
X26192Y20165
X26428Y20874
X25956Y20874
X23987Y17921
X22924Y17330
X21664Y17055
X23475Y16070
X23436Y15283
X23436Y14889
X23042Y14889
X22649Y14889
X22649Y15283
X23042Y15283
X22255Y15283
X22255Y14889
X21861Y14889
X21468Y14889
X21468Y15283
X21861Y15283
X21074Y15283
X21074Y14889
X20680Y14889
X20680Y14496
X20286Y14496
X20286Y14889
X20286Y15283
X20680Y15283
X20680Y14102
X20286Y14102
X20286Y13708
X20286Y13315
X20680Y13315
X20680Y13708
X20680Y12921
X20286Y12921
X20286Y12527
X20286Y12133
X20680Y12133
X20680Y12527
X21861Y12330
X22255Y12330
X22649Y12330
X23042Y12330
X23042Y12724
X22649Y12724
X22255Y12724
X21861Y12724
X21861Y13118
X22255Y13118
X22649Y13118
X23042Y13118
X24223Y13315
X24223Y13708
X24223Y14102
X24223Y14496
X24223Y14889
X23830Y14889
X23830Y15283
X24223Y15283
X24617Y15283
X24617Y14889
X24617Y14496
X24617Y14102
X24617Y13708
X24617Y13315
X24617Y12921
X24223Y12921
X24223Y12527
X21664Y9378
X21271Y9378
X20877Y9378
X20877Y8984
X21271Y8984
X21664Y8984
X21664Y8590
X21271Y8590
X20877Y8590
X19499Y8787
X19401Y7507
X19401Y7212
X19696Y7212
X19696Y6917
X19401Y6917
X19105Y6917
X19105Y7212
X19105Y7507
X19696Y7507
X17727Y9181
X17334Y9181
X17334Y9574
X17727Y9574
X20719Y11267
X23830Y7212
X24223Y7212
X24223Y6819
X23830Y6819
X21074Y5441
X20680Y5441
X20680Y5047
X21074Y5047
X29342Y5244
X29735Y5244
X30129Y5244
X30129Y5637
X29735Y5637
X29342Y5637
X29342Y6031
X29735Y6031
X30129Y6031
X30326Y7606
X30719Y7606
X30719Y8000
X30326Y8000
X31113Y8000
X31507Y8000
X31507Y7606
X31113Y7606
X33279Y7803
X33279Y8196
X33279Y8590
X34066Y8590
X34460Y8590
X34460Y8196
X34460Y7803
X34460Y7409
X34066Y7409
X33279Y7409
X35641Y7409
X36034Y7409
X36034Y7015
X35641Y7015
X35641Y7803
X36034Y7803
X36034Y8196
X35641Y8196
X35641Y8590
X36034Y8590
X36034Y8984
X35641Y8984
X35641Y9378
X35641Y9771
X36034Y9771
X36034Y9378
X35247Y9378
X35247Y9771
X34853Y9771
X34853Y9378
X36034Y10165
X36034Y10559
X36034Y10952
X36034Y11346
X36034Y11740
X36034Y12133
X36034Y12527
X35641Y12527
X35641Y12921
X36034Y12921
X35247Y12921
X34853Y12921
X34853Y12527
X35247Y12527
X35641Y13905
X36034Y13905
X36428Y13905
X33082Y16858
X32491Y16464
X31704Y14299
X30011Y13944
X30011Y13472
X29342Y14299
X29145Y16070
X29342Y16267
X29145Y16464
X28948Y16267
X30011Y16740
X32412Y11070
X32412Y10795
X32412Y10519
X29932Y10559
X29735Y10756
X29538Y10559
X29735Y10362
X19696Y16267
X13790Y18433
X10838Y17252
X9853Y16858
X9460Y16858
X9460Y16464
X9656Y15480
X9263Y15480
X9263Y15086
X9263Y14693
X9656Y14693
X9656Y15086
X8869Y15086
X8869Y14693
X8475Y14693
X8475Y15086
X8475Y15480
X8869Y15480
X6901Y14496
X6507Y14496
X6507Y12133
X6507Y11740
X6901Y11740
X6901Y12133
X7885Y8787
X7885Y18630
X8279Y18630
X8672Y18630
X7491Y18630
X7294Y20007
X6901Y20007
X6901Y20401
X7294Y20401
X7294Y20795
X6901Y20795
X8869Y22763
X11389Y21897
X10444Y19811
X13160Y24456
X14105Y26385
X12412Y27094
X10247Y30244
X10247Y30637
X9853Y30637
X9853Y30244
X9460Y30244
X9460Y30637
X9460Y31031
X9853Y31031
X10247Y31031
X6901Y31031
X6901Y32015
X6901Y33000
X8475Y33984
X5916Y29456
X5916Y29063
X5916Y28669
X5916Y28275
X5916Y27881
X5916Y27488
X5011Y25519
X5326Y24929
X16940Y30244
X16940Y30637
X16940Y31031
X19499Y30834
X19893Y30834
X20286Y30834
X20286Y31228
X19893Y31228
X19499Y31228
X20680Y31228
X20247Y30244
X37412Y19220
X38200Y21189
X38594Y21189
X38987Y21189
T02
X34710Y11649
X34710Y11149
X34710Y10649
T03
X25936Y16366
X24936Y16366
X23936Y16366
X22936Y16366
X21936Y16366
X20936Y16366
X14094Y20476
X13094Y20476
X13094Y21476
X14094Y21476
X14094Y22476
X13094Y22476
X13094Y23476
X14094Y23476
T04
X26070Y34074
X29070Y32712
T05
X33357Y31326
X35011Y31326
X36664Y31326
X38318Y31326
X38318Y29161
X36664Y29161
X35011Y29161
X33357Y29161
X33357Y24633
X35011Y24633
X36664Y24633
X38318Y24633
X38318Y22468
X36664Y22468
X35011Y22468
X33357Y22468
X38200Y18137
X38200Y15972
X21310Y32704
X19656Y32704
X19656Y34870
X21310Y34870
T06
X23160Y32885
X17806Y32885
X31507Y31145
X31507Y24452
X36349Y17956
X40050Y17956
X40168Y24452
X40168Y31145
T07
X35838Y15874
X4735Y18236
X4538Y7212
T08
X27570Y33393
M30
