G75*
G70*
%OFA0B0*%
%FSLAX24Y24*%
%IPPOS*%
%LPD*%
%AMOC8*
5,1,8,0,0,1.08239X$1,22.5*
%
%ADD10C,0.0000*%
%ADD11C,0.0050*%
%ADD12R,0.1064X0.1457*%
%ADD13R,0.4331X0.2756*%
%ADD14R,0.0316X0.0512*%
%ADD15R,0.0867X0.0867*%
%ADD16C,0.1221*%
%ADD17C,0.1040*%
%ADD18C,0.1528*%
%ADD19R,0.0434X0.0473*%
%ADD20OC8,0.0740*%
%ADD21R,0.0740X0.0740*%
%ADD22R,0.0473X0.0434*%
%ADD23R,0.0640X0.0640*%
%ADD24OC8,0.0640*%
%ADD25C,0.0434*%
%ADD26R,0.1818X0.1818*%
D10*
X002964Y004456D02*
X002964Y035952D01*
X042334Y035952D01*
X042334Y004456D01*
X002964Y004456D01*
X030916Y024452D02*
X030918Y024500D01*
X030924Y024548D01*
X030934Y024595D01*
X030947Y024641D01*
X030965Y024686D01*
X030985Y024730D01*
X031010Y024772D01*
X031038Y024811D01*
X031068Y024848D01*
X031102Y024882D01*
X031139Y024914D01*
X031177Y024943D01*
X031218Y024968D01*
X031261Y024990D01*
X031306Y025008D01*
X031352Y025022D01*
X031399Y025033D01*
X031447Y025040D01*
X031495Y025043D01*
X031543Y025042D01*
X031591Y025037D01*
X031639Y025028D01*
X031685Y025016D01*
X031730Y024999D01*
X031774Y024979D01*
X031816Y024956D01*
X031856Y024929D01*
X031894Y024899D01*
X031929Y024866D01*
X031961Y024830D01*
X031991Y024792D01*
X032017Y024751D01*
X032039Y024708D01*
X032059Y024664D01*
X032074Y024619D01*
X032086Y024572D01*
X032094Y024524D01*
X032098Y024476D01*
X032098Y024428D01*
X032094Y024380D01*
X032086Y024332D01*
X032074Y024285D01*
X032059Y024240D01*
X032039Y024196D01*
X032017Y024153D01*
X031991Y024112D01*
X031961Y024074D01*
X031929Y024038D01*
X031894Y024005D01*
X031856Y023975D01*
X031816Y023948D01*
X031774Y023925D01*
X031730Y023905D01*
X031685Y023888D01*
X031639Y023876D01*
X031591Y023867D01*
X031543Y023862D01*
X031495Y023861D01*
X031447Y023864D01*
X031399Y023871D01*
X031352Y023882D01*
X031306Y023896D01*
X031261Y023914D01*
X031218Y023936D01*
X031177Y023961D01*
X031139Y023990D01*
X031102Y024022D01*
X031068Y024056D01*
X031038Y024093D01*
X031010Y024132D01*
X030985Y024174D01*
X030965Y024218D01*
X030947Y024263D01*
X030934Y024309D01*
X030924Y024356D01*
X030918Y024404D01*
X030916Y024452D01*
X030916Y031145D02*
X030918Y031193D01*
X030924Y031241D01*
X030934Y031288D01*
X030947Y031334D01*
X030965Y031379D01*
X030985Y031423D01*
X031010Y031465D01*
X031038Y031504D01*
X031068Y031541D01*
X031102Y031575D01*
X031139Y031607D01*
X031177Y031636D01*
X031218Y031661D01*
X031261Y031683D01*
X031306Y031701D01*
X031352Y031715D01*
X031399Y031726D01*
X031447Y031733D01*
X031495Y031736D01*
X031543Y031735D01*
X031591Y031730D01*
X031639Y031721D01*
X031685Y031709D01*
X031730Y031692D01*
X031774Y031672D01*
X031816Y031649D01*
X031856Y031622D01*
X031894Y031592D01*
X031929Y031559D01*
X031961Y031523D01*
X031991Y031485D01*
X032017Y031444D01*
X032039Y031401D01*
X032059Y031357D01*
X032074Y031312D01*
X032086Y031265D01*
X032094Y031217D01*
X032098Y031169D01*
X032098Y031121D01*
X032094Y031073D01*
X032086Y031025D01*
X032074Y030978D01*
X032059Y030933D01*
X032039Y030889D01*
X032017Y030846D01*
X031991Y030805D01*
X031961Y030767D01*
X031929Y030731D01*
X031894Y030698D01*
X031856Y030668D01*
X031816Y030641D01*
X031774Y030618D01*
X031730Y030598D01*
X031685Y030581D01*
X031639Y030569D01*
X031591Y030560D01*
X031543Y030555D01*
X031495Y030554D01*
X031447Y030557D01*
X031399Y030564D01*
X031352Y030575D01*
X031306Y030589D01*
X031261Y030607D01*
X031218Y030629D01*
X031177Y030654D01*
X031139Y030683D01*
X031102Y030715D01*
X031068Y030749D01*
X031038Y030786D01*
X031010Y030825D01*
X030985Y030867D01*
X030965Y030911D01*
X030947Y030956D01*
X030934Y031002D01*
X030924Y031049D01*
X030918Y031097D01*
X030916Y031145D01*
X026826Y033393D02*
X026828Y033447D01*
X026834Y033501D01*
X026844Y033555D01*
X026858Y033607D01*
X026875Y033659D01*
X026896Y033709D01*
X026921Y033757D01*
X026950Y033804D01*
X026981Y033848D01*
X027016Y033889D01*
X027054Y033929D01*
X027094Y033965D01*
X027137Y033998D01*
X027182Y034028D01*
X027230Y034055D01*
X027279Y034078D01*
X027330Y034097D01*
X027382Y034113D01*
X027435Y034125D01*
X027489Y034133D01*
X027543Y034137D01*
X027597Y034137D01*
X027651Y034133D01*
X027705Y034125D01*
X027758Y034113D01*
X027810Y034097D01*
X027861Y034078D01*
X027910Y034055D01*
X027958Y034028D01*
X028003Y033998D01*
X028046Y033965D01*
X028086Y033929D01*
X028124Y033889D01*
X028159Y033848D01*
X028190Y033804D01*
X028219Y033757D01*
X028244Y033709D01*
X028265Y033659D01*
X028282Y033607D01*
X028296Y033555D01*
X028306Y033501D01*
X028312Y033447D01*
X028314Y033393D01*
X028312Y033339D01*
X028306Y033285D01*
X028296Y033231D01*
X028282Y033179D01*
X028265Y033127D01*
X028244Y033077D01*
X028219Y033029D01*
X028190Y032982D01*
X028159Y032938D01*
X028124Y032897D01*
X028086Y032857D01*
X028046Y032821D01*
X028003Y032788D01*
X027958Y032758D01*
X027910Y032731D01*
X027861Y032708D01*
X027810Y032689D01*
X027758Y032673D01*
X027705Y032661D01*
X027651Y032653D01*
X027597Y032649D01*
X027543Y032649D01*
X027489Y032653D01*
X027435Y032661D01*
X027382Y032673D01*
X027330Y032689D01*
X027279Y032708D01*
X027230Y032731D01*
X027182Y032758D01*
X027137Y032788D01*
X027094Y032821D01*
X027054Y032857D01*
X027016Y032897D01*
X026981Y032938D01*
X026950Y032982D01*
X026921Y033029D01*
X026896Y033077D01*
X026875Y033127D01*
X026858Y033179D01*
X026844Y033231D01*
X026834Y033285D01*
X026828Y033339D01*
X026826Y033393D01*
X022569Y032885D02*
X022571Y032933D01*
X022577Y032981D01*
X022587Y033028D01*
X022600Y033074D01*
X022618Y033119D01*
X022638Y033163D01*
X022663Y033205D01*
X022691Y033244D01*
X022721Y033281D01*
X022755Y033315D01*
X022792Y033347D01*
X022830Y033376D01*
X022871Y033401D01*
X022914Y033423D01*
X022959Y033441D01*
X023005Y033455D01*
X023052Y033466D01*
X023100Y033473D01*
X023148Y033476D01*
X023196Y033475D01*
X023244Y033470D01*
X023292Y033461D01*
X023338Y033449D01*
X023383Y033432D01*
X023427Y033412D01*
X023469Y033389D01*
X023509Y033362D01*
X023547Y033332D01*
X023582Y033299D01*
X023614Y033263D01*
X023644Y033225D01*
X023670Y033184D01*
X023692Y033141D01*
X023712Y033097D01*
X023727Y033052D01*
X023739Y033005D01*
X023747Y032957D01*
X023751Y032909D01*
X023751Y032861D01*
X023747Y032813D01*
X023739Y032765D01*
X023727Y032718D01*
X023712Y032673D01*
X023692Y032629D01*
X023670Y032586D01*
X023644Y032545D01*
X023614Y032507D01*
X023582Y032471D01*
X023547Y032438D01*
X023509Y032408D01*
X023469Y032381D01*
X023427Y032358D01*
X023383Y032338D01*
X023338Y032321D01*
X023292Y032309D01*
X023244Y032300D01*
X023196Y032295D01*
X023148Y032294D01*
X023100Y032297D01*
X023052Y032304D01*
X023005Y032315D01*
X022959Y032329D01*
X022914Y032347D01*
X022871Y032369D01*
X022830Y032394D01*
X022792Y032423D01*
X022755Y032455D01*
X022721Y032489D01*
X022691Y032526D01*
X022663Y032565D01*
X022638Y032607D01*
X022618Y032651D01*
X022600Y032696D01*
X022587Y032742D01*
X022577Y032789D01*
X022571Y032837D01*
X022569Y032885D01*
X017215Y032885D02*
X017217Y032933D01*
X017223Y032981D01*
X017233Y033028D01*
X017246Y033074D01*
X017264Y033119D01*
X017284Y033163D01*
X017309Y033205D01*
X017337Y033244D01*
X017367Y033281D01*
X017401Y033315D01*
X017438Y033347D01*
X017476Y033376D01*
X017517Y033401D01*
X017560Y033423D01*
X017605Y033441D01*
X017651Y033455D01*
X017698Y033466D01*
X017746Y033473D01*
X017794Y033476D01*
X017842Y033475D01*
X017890Y033470D01*
X017938Y033461D01*
X017984Y033449D01*
X018029Y033432D01*
X018073Y033412D01*
X018115Y033389D01*
X018155Y033362D01*
X018193Y033332D01*
X018228Y033299D01*
X018260Y033263D01*
X018290Y033225D01*
X018316Y033184D01*
X018338Y033141D01*
X018358Y033097D01*
X018373Y033052D01*
X018385Y033005D01*
X018393Y032957D01*
X018397Y032909D01*
X018397Y032861D01*
X018393Y032813D01*
X018385Y032765D01*
X018373Y032718D01*
X018358Y032673D01*
X018338Y032629D01*
X018316Y032586D01*
X018290Y032545D01*
X018260Y032507D01*
X018228Y032471D01*
X018193Y032438D01*
X018155Y032408D01*
X018115Y032381D01*
X018073Y032358D01*
X018029Y032338D01*
X017984Y032321D01*
X017938Y032309D01*
X017890Y032300D01*
X017842Y032295D01*
X017794Y032294D01*
X017746Y032297D01*
X017698Y032304D01*
X017651Y032315D01*
X017605Y032329D01*
X017560Y032347D01*
X017517Y032369D01*
X017476Y032394D01*
X017438Y032423D01*
X017401Y032455D01*
X017367Y032489D01*
X017337Y032526D01*
X017309Y032565D01*
X017284Y032607D01*
X017264Y032651D01*
X017246Y032696D01*
X017233Y032742D01*
X017223Y032789D01*
X017217Y032837D01*
X017215Y032885D01*
X035758Y017956D02*
X035760Y018004D01*
X035766Y018052D01*
X035776Y018099D01*
X035789Y018145D01*
X035807Y018190D01*
X035827Y018234D01*
X035852Y018276D01*
X035880Y018315D01*
X035910Y018352D01*
X035944Y018386D01*
X035981Y018418D01*
X036019Y018447D01*
X036060Y018472D01*
X036103Y018494D01*
X036148Y018512D01*
X036194Y018526D01*
X036241Y018537D01*
X036289Y018544D01*
X036337Y018547D01*
X036385Y018546D01*
X036433Y018541D01*
X036481Y018532D01*
X036527Y018520D01*
X036572Y018503D01*
X036616Y018483D01*
X036658Y018460D01*
X036698Y018433D01*
X036736Y018403D01*
X036771Y018370D01*
X036803Y018334D01*
X036833Y018296D01*
X036859Y018255D01*
X036881Y018212D01*
X036901Y018168D01*
X036916Y018123D01*
X036928Y018076D01*
X036936Y018028D01*
X036940Y017980D01*
X036940Y017932D01*
X036936Y017884D01*
X036928Y017836D01*
X036916Y017789D01*
X036901Y017744D01*
X036881Y017700D01*
X036859Y017657D01*
X036833Y017616D01*
X036803Y017578D01*
X036771Y017542D01*
X036736Y017509D01*
X036698Y017479D01*
X036658Y017452D01*
X036616Y017429D01*
X036572Y017409D01*
X036527Y017392D01*
X036481Y017380D01*
X036433Y017371D01*
X036385Y017366D01*
X036337Y017365D01*
X036289Y017368D01*
X036241Y017375D01*
X036194Y017386D01*
X036148Y017400D01*
X036103Y017418D01*
X036060Y017440D01*
X036019Y017465D01*
X035981Y017494D01*
X035944Y017526D01*
X035910Y017560D01*
X035880Y017597D01*
X035852Y017636D01*
X035827Y017678D01*
X035807Y017722D01*
X035789Y017767D01*
X035776Y017813D01*
X035766Y017860D01*
X035760Y017908D01*
X035758Y017956D01*
X039459Y017956D02*
X039461Y018004D01*
X039467Y018052D01*
X039477Y018099D01*
X039490Y018145D01*
X039508Y018190D01*
X039528Y018234D01*
X039553Y018276D01*
X039581Y018315D01*
X039611Y018352D01*
X039645Y018386D01*
X039682Y018418D01*
X039720Y018447D01*
X039761Y018472D01*
X039804Y018494D01*
X039849Y018512D01*
X039895Y018526D01*
X039942Y018537D01*
X039990Y018544D01*
X040038Y018547D01*
X040086Y018546D01*
X040134Y018541D01*
X040182Y018532D01*
X040228Y018520D01*
X040273Y018503D01*
X040317Y018483D01*
X040359Y018460D01*
X040399Y018433D01*
X040437Y018403D01*
X040472Y018370D01*
X040504Y018334D01*
X040534Y018296D01*
X040560Y018255D01*
X040582Y018212D01*
X040602Y018168D01*
X040617Y018123D01*
X040629Y018076D01*
X040637Y018028D01*
X040641Y017980D01*
X040641Y017932D01*
X040637Y017884D01*
X040629Y017836D01*
X040617Y017789D01*
X040602Y017744D01*
X040582Y017700D01*
X040560Y017657D01*
X040534Y017616D01*
X040504Y017578D01*
X040472Y017542D01*
X040437Y017509D01*
X040399Y017479D01*
X040359Y017452D01*
X040317Y017429D01*
X040273Y017409D01*
X040228Y017392D01*
X040182Y017380D01*
X040134Y017371D01*
X040086Y017366D01*
X040038Y017365D01*
X039990Y017368D01*
X039942Y017375D01*
X039895Y017386D01*
X039849Y017400D01*
X039804Y017418D01*
X039761Y017440D01*
X039720Y017465D01*
X039682Y017494D01*
X039645Y017526D01*
X039611Y017560D01*
X039581Y017597D01*
X039553Y017636D01*
X039528Y017678D01*
X039508Y017722D01*
X039490Y017767D01*
X039477Y017813D01*
X039467Y017860D01*
X039461Y017908D01*
X039459Y017956D01*
X039577Y024452D02*
X039579Y024500D01*
X039585Y024548D01*
X039595Y024595D01*
X039608Y024641D01*
X039626Y024686D01*
X039646Y024730D01*
X039671Y024772D01*
X039699Y024811D01*
X039729Y024848D01*
X039763Y024882D01*
X039800Y024914D01*
X039838Y024943D01*
X039879Y024968D01*
X039922Y024990D01*
X039967Y025008D01*
X040013Y025022D01*
X040060Y025033D01*
X040108Y025040D01*
X040156Y025043D01*
X040204Y025042D01*
X040252Y025037D01*
X040300Y025028D01*
X040346Y025016D01*
X040391Y024999D01*
X040435Y024979D01*
X040477Y024956D01*
X040517Y024929D01*
X040555Y024899D01*
X040590Y024866D01*
X040622Y024830D01*
X040652Y024792D01*
X040678Y024751D01*
X040700Y024708D01*
X040720Y024664D01*
X040735Y024619D01*
X040747Y024572D01*
X040755Y024524D01*
X040759Y024476D01*
X040759Y024428D01*
X040755Y024380D01*
X040747Y024332D01*
X040735Y024285D01*
X040720Y024240D01*
X040700Y024196D01*
X040678Y024153D01*
X040652Y024112D01*
X040622Y024074D01*
X040590Y024038D01*
X040555Y024005D01*
X040517Y023975D01*
X040477Y023948D01*
X040435Y023925D01*
X040391Y023905D01*
X040346Y023888D01*
X040300Y023876D01*
X040252Y023867D01*
X040204Y023862D01*
X040156Y023861D01*
X040108Y023864D01*
X040060Y023871D01*
X040013Y023882D01*
X039967Y023896D01*
X039922Y023914D01*
X039879Y023936D01*
X039838Y023961D01*
X039800Y023990D01*
X039763Y024022D01*
X039729Y024056D01*
X039699Y024093D01*
X039671Y024132D01*
X039646Y024174D01*
X039626Y024218D01*
X039608Y024263D01*
X039595Y024309D01*
X039585Y024356D01*
X039579Y024404D01*
X039577Y024452D01*
X039577Y031145D02*
X039579Y031193D01*
X039585Y031241D01*
X039595Y031288D01*
X039608Y031334D01*
X039626Y031379D01*
X039646Y031423D01*
X039671Y031465D01*
X039699Y031504D01*
X039729Y031541D01*
X039763Y031575D01*
X039800Y031607D01*
X039838Y031636D01*
X039879Y031661D01*
X039922Y031683D01*
X039967Y031701D01*
X040013Y031715D01*
X040060Y031726D01*
X040108Y031733D01*
X040156Y031736D01*
X040204Y031735D01*
X040252Y031730D01*
X040300Y031721D01*
X040346Y031709D01*
X040391Y031692D01*
X040435Y031672D01*
X040477Y031649D01*
X040517Y031622D01*
X040555Y031592D01*
X040590Y031559D01*
X040622Y031523D01*
X040652Y031485D01*
X040678Y031444D01*
X040700Y031401D01*
X040720Y031357D01*
X040735Y031312D01*
X040747Y031265D01*
X040755Y031217D01*
X040759Y031169D01*
X040759Y031121D01*
X040755Y031073D01*
X040747Y031025D01*
X040735Y030978D01*
X040720Y030933D01*
X040700Y030889D01*
X040678Y030846D01*
X040652Y030805D01*
X040622Y030767D01*
X040590Y030731D01*
X040555Y030698D01*
X040517Y030668D01*
X040477Y030641D01*
X040435Y030618D01*
X040391Y030598D01*
X040346Y030581D01*
X040300Y030569D01*
X040252Y030560D01*
X040204Y030555D01*
X040156Y030554D01*
X040108Y030557D01*
X040060Y030564D01*
X040013Y030575D01*
X039967Y030589D01*
X039922Y030607D01*
X039879Y030629D01*
X039838Y030654D01*
X039800Y030683D01*
X039763Y030715D01*
X039729Y030749D01*
X039699Y030786D01*
X039671Y030825D01*
X039646Y030867D01*
X039626Y030911D01*
X039608Y030956D01*
X039595Y031002D01*
X039585Y031049D01*
X039579Y031097D01*
X039577Y031145D01*
D11*
X020852Y033615D02*
X020677Y033615D01*
X020618Y033674D01*
X020618Y033732D01*
X020677Y033790D01*
X020852Y033790D01*
X020852Y033615D02*
X020852Y033965D01*
X020677Y033965D01*
X020618Y033907D01*
X020618Y033849D01*
X020677Y033790D01*
X020484Y033907D02*
X020484Y033674D01*
X020425Y033615D01*
X020309Y033615D01*
X020250Y033674D01*
X020250Y033907D01*
X020309Y033965D01*
X020425Y033965D01*
X020484Y033907D01*
X020115Y033965D02*
X019882Y033965D01*
X019999Y033965D02*
X019999Y033615D01*
D12*
X015621Y031622D03*
X004086Y031622D03*
D13*
X009853Y031622D03*
D14*
X004105Y028098D03*
X004105Y026641D03*
D15*
X019656Y032704D03*
X021310Y032704D03*
X021310Y034870D03*
X019656Y034870D03*
X033357Y031326D03*
X035011Y031326D03*
X036664Y031326D03*
X038318Y031326D03*
X038318Y029161D03*
X036664Y029161D03*
X035011Y029161D03*
X033357Y029161D03*
X033357Y024633D03*
X035011Y024633D03*
X036664Y024633D03*
X038318Y024633D03*
X038318Y022468D03*
X036664Y022468D03*
X035011Y022468D03*
X033357Y022468D03*
X038200Y018137D03*
X038200Y015972D03*
D16*
X040050Y017956D03*
X036349Y017956D03*
X040168Y024452D03*
X040168Y031145D03*
X031507Y031145D03*
X031507Y024452D03*
X023160Y032885D03*
X017806Y032885D03*
D17*
X026070Y034074D03*
X029070Y032712D03*
D18*
X027570Y033393D03*
D19*
X022255Y021326D03*
X022255Y020657D03*
X011625Y012271D03*
X011625Y011602D03*
X010641Y011602D03*
X010641Y012271D03*
X009775Y012271D03*
X009775Y011602D03*
D20*
X020936Y016366D03*
X021936Y016366D03*
X022936Y016366D03*
X023936Y016366D03*
X024936Y016366D03*
D21*
X025936Y016366D03*
D22*
X023574Y017724D03*
X022905Y017724D03*
X022905Y018531D03*
X023574Y018531D03*
X008613Y011346D03*
X007944Y011346D03*
X007944Y010362D03*
X008613Y010362D03*
X008613Y009378D03*
X007944Y009378D03*
D23*
X014094Y020476D03*
D24*
X013094Y020476D03*
X013094Y021476D03*
X014094Y021476D03*
X014094Y022476D03*
X013094Y022476D03*
X013094Y023476D03*
X014094Y023476D03*
D25*
X017531Y018433D03*
X010247Y016661D03*
D26*
X004735Y018236D03*
X004538Y007212D03*
X035838Y015874D03*
M02*
