G75*
G70*
%OFA0B0*%
%FSLAX24Y24*%
%IPPOS*%
%LPD*%
%AMOC8*
5,1,8,0,0,1.08239X$1,22.5*
%
%ADD10C,0.0000*%
%ADD11C,0.0050*%
%ADD12C,0.0080*%
%ADD13C,0.0040*%
D10*
X002964Y004456D02*
X002964Y035952D01*
X042334Y035952D01*
X042334Y004456D01*
X002964Y004456D01*
X030916Y024452D02*
X030918Y024500D01*
X030924Y024548D01*
X030934Y024595D01*
X030947Y024641D01*
X030965Y024686D01*
X030985Y024730D01*
X031010Y024772D01*
X031038Y024811D01*
X031068Y024848D01*
X031102Y024882D01*
X031139Y024914D01*
X031177Y024943D01*
X031218Y024968D01*
X031261Y024990D01*
X031306Y025008D01*
X031352Y025022D01*
X031399Y025033D01*
X031447Y025040D01*
X031495Y025043D01*
X031543Y025042D01*
X031591Y025037D01*
X031639Y025028D01*
X031685Y025016D01*
X031730Y024999D01*
X031774Y024979D01*
X031816Y024956D01*
X031856Y024929D01*
X031894Y024899D01*
X031929Y024866D01*
X031961Y024830D01*
X031991Y024792D01*
X032017Y024751D01*
X032039Y024708D01*
X032059Y024664D01*
X032074Y024619D01*
X032086Y024572D01*
X032094Y024524D01*
X032098Y024476D01*
X032098Y024428D01*
X032094Y024380D01*
X032086Y024332D01*
X032074Y024285D01*
X032059Y024240D01*
X032039Y024196D01*
X032017Y024153D01*
X031991Y024112D01*
X031961Y024074D01*
X031929Y024038D01*
X031894Y024005D01*
X031856Y023975D01*
X031816Y023948D01*
X031774Y023925D01*
X031730Y023905D01*
X031685Y023888D01*
X031639Y023876D01*
X031591Y023867D01*
X031543Y023862D01*
X031495Y023861D01*
X031447Y023864D01*
X031399Y023871D01*
X031352Y023882D01*
X031306Y023896D01*
X031261Y023914D01*
X031218Y023936D01*
X031177Y023961D01*
X031139Y023990D01*
X031102Y024022D01*
X031068Y024056D01*
X031038Y024093D01*
X031010Y024132D01*
X030985Y024174D01*
X030965Y024218D01*
X030947Y024263D01*
X030934Y024309D01*
X030924Y024356D01*
X030918Y024404D01*
X030916Y024452D01*
X030916Y031145D02*
X030918Y031193D01*
X030924Y031241D01*
X030934Y031288D01*
X030947Y031334D01*
X030965Y031379D01*
X030985Y031423D01*
X031010Y031465D01*
X031038Y031504D01*
X031068Y031541D01*
X031102Y031575D01*
X031139Y031607D01*
X031177Y031636D01*
X031218Y031661D01*
X031261Y031683D01*
X031306Y031701D01*
X031352Y031715D01*
X031399Y031726D01*
X031447Y031733D01*
X031495Y031736D01*
X031543Y031735D01*
X031591Y031730D01*
X031639Y031721D01*
X031685Y031709D01*
X031730Y031692D01*
X031774Y031672D01*
X031816Y031649D01*
X031856Y031622D01*
X031894Y031592D01*
X031929Y031559D01*
X031961Y031523D01*
X031991Y031485D01*
X032017Y031444D01*
X032039Y031401D01*
X032059Y031357D01*
X032074Y031312D01*
X032086Y031265D01*
X032094Y031217D01*
X032098Y031169D01*
X032098Y031121D01*
X032094Y031073D01*
X032086Y031025D01*
X032074Y030978D01*
X032059Y030933D01*
X032039Y030889D01*
X032017Y030846D01*
X031991Y030805D01*
X031961Y030767D01*
X031929Y030731D01*
X031894Y030698D01*
X031856Y030668D01*
X031816Y030641D01*
X031774Y030618D01*
X031730Y030598D01*
X031685Y030581D01*
X031639Y030569D01*
X031591Y030560D01*
X031543Y030555D01*
X031495Y030554D01*
X031447Y030557D01*
X031399Y030564D01*
X031352Y030575D01*
X031306Y030589D01*
X031261Y030607D01*
X031218Y030629D01*
X031177Y030654D01*
X031139Y030683D01*
X031102Y030715D01*
X031068Y030749D01*
X031038Y030786D01*
X031010Y030825D01*
X030985Y030867D01*
X030965Y030911D01*
X030947Y030956D01*
X030934Y031002D01*
X030924Y031049D01*
X030918Y031097D01*
X030916Y031145D01*
X026826Y033393D02*
X026828Y033447D01*
X026834Y033501D01*
X026844Y033555D01*
X026858Y033607D01*
X026875Y033659D01*
X026896Y033709D01*
X026921Y033757D01*
X026950Y033804D01*
X026981Y033848D01*
X027016Y033889D01*
X027054Y033929D01*
X027094Y033965D01*
X027137Y033998D01*
X027182Y034028D01*
X027230Y034055D01*
X027279Y034078D01*
X027330Y034097D01*
X027382Y034113D01*
X027435Y034125D01*
X027489Y034133D01*
X027543Y034137D01*
X027597Y034137D01*
X027651Y034133D01*
X027705Y034125D01*
X027758Y034113D01*
X027810Y034097D01*
X027861Y034078D01*
X027910Y034055D01*
X027958Y034028D01*
X028003Y033998D01*
X028046Y033965D01*
X028086Y033929D01*
X028124Y033889D01*
X028159Y033848D01*
X028190Y033804D01*
X028219Y033757D01*
X028244Y033709D01*
X028265Y033659D01*
X028282Y033607D01*
X028296Y033555D01*
X028306Y033501D01*
X028312Y033447D01*
X028314Y033393D01*
X028312Y033339D01*
X028306Y033285D01*
X028296Y033231D01*
X028282Y033179D01*
X028265Y033127D01*
X028244Y033077D01*
X028219Y033029D01*
X028190Y032982D01*
X028159Y032938D01*
X028124Y032897D01*
X028086Y032857D01*
X028046Y032821D01*
X028003Y032788D01*
X027958Y032758D01*
X027910Y032731D01*
X027861Y032708D01*
X027810Y032689D01*
X027758Y032673D01*
X027705Y032661D01*
X027651Y032653D01*
X027597Y032649D01*
X027543Y032649D01*
X027489Y032653D01*
X027435Y032661D01*
X027382Y032673D01*
X027330Y032689D01*
X027279Y032708D01*
X027230Y032731D01*
X027182Y032758D01*
X027137Y032788D01*
X027094Y032821D01*
X027054Y032857D01*
X027016Y032897D01*
X026981Y032938D01*
X026950Y032982D01*
X026921Y033029D01*
X026896Y033077D01*
X026875Y033127D01*
X026858Y033179D01*
X026844Y033231D01*
X026834Y033285D01*
X026828Y033339D01*
X026826Y033393D01*
X022569Y032885D02*
X022571Y032933D01*
X022577Y032981D01*
X022587Y033028D01*
X022600Y033074D01*
X022618Y033119D01*
X022638Y033163D01*
X022663Y033205D01*
X022691Y033244D01*
X022721Y033281D01*
X022755Y033315D01*
X022792Y033347D01*
X022830Y033376D01*
X022871Y033401D01*
X022914Y033423D01*
X022959Y033441D01*
X023005Y033455D01*
X023052Y033466D01*
X023100Y033473D01*
X023148Y033476D01*
X023196Y033475D01*
X023244Y033470D01*
X023292Y033461D01*
X023338Y033449D01*
X023383Y033432D01*
X023427Y033412D01*
X023469Y033389D01*
X023509Y033362D01*
X023547Y033332D01*
X023582Y033299D01*
X023614Y033263D01*
X023644Y033225D01*
X023670Y033184D01*
X023692Y033141D01*
X023712Y033097D01*
X023727Y033052D01*
X023739Y033005D01*
X023747Y032957D01*
X023751Y032909D01*
X023751Y032861D01*
X023747Y032813D01*
X023739Y032765D01*
X023727Y032718D01*
X023712Y032673D01*
X023692Y032629D01*
X023670Y032586D01*
X023644Y032545D01*
X023614Y032507D01*
X023582Y032471D01*
X023547Y032438D01*
X023509Y032408D01*
X023469Y032381D01*
X023427Y032358D01*
X023383Y032338D01*
X023338Y032321D01*
X023292Y032309D01*
X023244Y032300D01*
X023196Y032295D01*
X023148Y032294D01*
X023100Y032297D01*
X023052Y032304D01*
X023005Y032315D01*
X022959Y032329D01*
X022914Y032347D01*
X022871Y032369D01*
X022830Y032394D01*
X022792Y032423D01*
X022755Y032455D01*
X022721Y032489D01*
X022691Y032526D01*
X022663Y032565D01*
X022638Y032607D01*
X022618Y032651D01*
X022600Y032696D01*
X022587Y032742D01*
X022577Y032789D01*
X022571Y032837D01*
X022569Y032885D01*
X017215Y032885D02*
X017217Y032933D01*
X017223Y032981D01*
X017233Y033028D01*
X017246Y033074D01*
X017264Y033119D01*
X017284Y033163D01*
X017309Y033205D01*
X017337Y033244D01*
X017367Y033281D01*
X017401Y033315D01*
X017438Y033347D01*
X017476Y033376D01*
X017517Y033401D01*
X017560Y033423D01*
X017605Y033441D01*
X017651Y033455D01*
X017698Y033466D01*
X017746Y033473D01*
X017794Y033476D01*
X017842Y033475D01*
X017890Y033470D01*
X017938Y033461D01*
X017984Y033449D01*
X018029Y033432D01*
X018073Y033412D01*
X018115Y033389D01*
X018155Y033362D01*
X018193Y033332D01*
X018228Y033299D01*
X018260Y033263D01*
X018290Y033225D01*
X018316Y033184D01*
X018338Y033141D01*
X018358Y033097D01*
X018373Y033052D01*
X018385Y033005D01*
X018393Y032957D01*
X018397Y032909D01*
X018397Y032861D01*
X018393Y032813D01*
X018385Y032765D01*
X018373Y032718D01*
X018358Y032673D01*
X018338Y032629D01*
X018316Y032586D01*
X018290Y032545D01*
X018260Y032507D01*
X018228Y032471D01*
X018193Y032438D01*
X018155Y032408D01*
X018115Y032381D01*
X018073Y032358D01*
X018029Y032338D01*
X017984Y032321D01*
X017938Y032309D01*
X017890Y032300D01*
X017842Y032295D01*
X017794Y032294D01*
X017746Y032297D01*
X017698Y032304D01*
X017651Y032315D01*
X017605Y032329D01*
X017560Y032347D01*
X017517Y032369D01*
X017476Y032394D01*
X017438Y032423D01*
X017401Y032455D01*
X017367Y032489D01*
X017337Y032526D01*
X017309Y032565D01*
X017284Y032607D01*
X017264Y032651D01*
X017246Y032696D01*
X017233Y032742D01*
X017223Y032789D01*
X017217Y032837D01*
X017215Y032885D01*
X035758Y017956D02*
X035760Y018004D01*
X035766Y018052D01*
X035776Y018099D01*
X035789Y018145D01*
X035807Y018190D01*
X035827Y018234D01*
X035852Y018276D01*
X035880Y018315D01*
X035910Y018352D01*
X035944Y018386D01*
X035981Y018418D01*
X036019Y018447D01*
X036060Y018472D01*
X036103Y018494D01*
X036148Y018512D01*
X036194Y018526D01*
X036241Y018537D01*
X036289Y018544D01*
X036337Y018547D01*
X036385Y018546D01*
X036433Y018541D01*
X036481Y018532D01*
X036527Y018520D01*
X036572Y018503D01*
X036616Y018483D01*
X036658Y018460D01*
X036698Y018433D01*
X036736Y018403D01*
X036771Y018370D01*
X036803Y018334D01*
X036833Y018296D01*
X036859Y018255D01*
X036881Y018212D01*
X036901Y018168D01*
X036916Y018123D01*
X036928Y018076D01*
X036936Y018028D01*
X036940Y017980D01*
X036940Y017932D01*
X036936Y017884D01*
X036928Y017836D01*
X036916Y017789D01*
X036901Y017744D01*
X036881Y017700D01*
X036859Y017657D01*
X036833Y017616D01*
X036803Y017578D01*
X036771Y017542D01*
X036736Y017509D01*
X036698Y017479D01*
X036658Y017452D01*
X036616Y017429D01*
X036572Y017409D01*
X036527Y017392D01*
X036481Y017380D01*
X036433Y017371D01*
X036385Y017366D01*
X036337Y017365D01*
X036289Y017368D01*
X036241Y017375D01*
X036194Y017386D01*
X036148Y017400D01*
X036103Y017418D01*
X036060Y017440D01*
X036019Y017465D01*
X035981Y017494D01*
X035944Y017526D01*
X035910Y017560D01*
X035880Y017597D01*
X035852Y017636D01*
X035827Y017678D01*
X035807Y017722D01*
X035789Y017767D01*
X035776Y017813D01*
X035766Y017860D01*
X035760Y017908D01*
X035758Y017956D01*
X039459Y017956D02*
X039461Y018004D01*
X039467Y018052D01*
X039477Y018099D01*
X039490Y018145D01*
X039508Y018190D01*
X039528Y018234D01*
X039553Y018276D01*
X039581Y018315D01*
X039611Y018352D01*
X039645Y018386D01*
X039682Y018418D01*
X039720Y018447D01*
X039761Y018472D01*
X039804Y018494D01*
X039849Y018512D01*
X039895Y018526D01*
X039942Y018537D01*
X039990Y018544D01*
X040038Y018547D01*
X040086Y018546D01*
X040134Y018541D01*
X040182Y018532D01*
X040228Y018520D01*
X040273Y018503D01*
X040317Y018483D01*
X040359Y018460D01*
X040399Y018433D01*
X040437Y018403D01*
X040472Y018370D01*
X040504Y018334D01*
X040534Y018296D01*
X040560Y018255D01*
X040582Y018212D01*
X040602Y018168D01*
X040617Y018123D01*
X040629Y018076D01*
X040637Y018028D01*
X040641Y017980D01*
X040641Y017932D01*
X040637Y017884D01*
X040629Y017836D01*
X040617Y017789D01*
X040602Y017744D01*
X040582Y017700D01*
X040560Y017657D01*
X040534Y017616D01*
X040504Y017578D01*
X040472Y017542D01*
X040437Y017509D01*
X040399Y017479D01*
X040359Y017452D01*
X040317Y017429D01*
X040273Y017409D01*
X040228Y017392D01*
X040182Y017380D01*
X040134Y017371D01*
X040086Y017366D01*
X040038Y017365D01*
X039990Y017368D01*
X039942Y017375D01*
X039895Y017386D01*
X039849Y017400D01*
X039804Y017418D01*
X039761Y017440D01*
X039720Y017465D01*
X039682Y017494D01*
X039645Y017526D01*
X039611Y017560D01*
X039581Y017597D01*
X039553Y017636D01*
X039528Y017678D01*
X039508Y017722D01*
X039490Y017767D01*
X039477Y017813D01*
X039467Y017860D01*
X039461Y017908D01*
X039459Y017956D01*
X039577Y024452D02*
X039579Y024500D01*
X039585Y024548D01*
X039595Y024595D01*
X039608Y024641D01*
X039626Y024686D01*
X039646Y024730D01*
X039671Y024772D01*
X039699Y024811D01*
X039729Y024848D01*
X039763Y024882D01*
X039800Y024914D01*
X039838Y024943D01*
X039879Y024968D01*
X039922Y024990D01*
X039967Y025008D01*
X040013Y025022D01*
X040060Y025033D01*
X040108Y025040D01*
X040156Y025043D01*
X040204Y025042D01*
X040252Y025037D01*
X040300Y025028D01*
X040346Y025016D01*
X040391Y024999D01*
X040435Y024979D01*
X040477Y024956D01*
X040517Y024929D01*
X040555Y024899D01*
X040590Y024866D01*
X040622Y024830D01*
X040652Y024792D01*
X040678Y024751D01*
X040700Y024708D01*
X040720Y024664D01*
X040735Y024619D01*
X040747Y024572D01*
X040755Y024524D01*
X040759Y024476D01*
X040759Y024428D01*
X040755Y024380D01*
X040747Y024332D01*
X040735Y024285D01*
X040720Y024240D01*
X040700Y024196D01*
X040678Y024153D01*
X040652Y024112D01*
X040622Y024074D01*
X040590Y024038D01*
X040555Y024005D01*
X040517Y023975D01*
X040477Y023948D01*
X040435Y023925D01*
X040391Y023905D01*
X040346Y023888D01*
X040300Y023876D01*
X040252Y023867D01*
X040204Y023862D01*
X040156Y023861D01*
X040108Y023864D01*
X040060Y023871D01*
X040013Y023882D01*
X039967Y023896D01*
X039922Y023914D01*
X039879Y023936D01*
X039838Y023961D01*
X039800Y023990D01*
X039763Y024022D01*
X039729Y024056D01*
X039699Y024093D01*
X039671Y024132D01*
X039646Y024174D01*
X039626Y024218D01*
X039608Y024263D01*
X039595Y024309D01*
X039585Y024356D01*
X039579Y024404D01*
X039577Y024452D01*
X039577Y031145D02*
X039579Y031193D01*
X039585Y031241D01*
X039595Y031288D01*
X039608Y031334D01*
X039626Y031379D01*
X039646Y031423D01*
X039671Y031465D01*
X039699Y031504D01*
X039729Y031541D01*
X039763Y031575D01*
X039800Y031607D01*
X039838Y031636D01*
X039879Y031661D01*
X039922Y031683D01*
X039967Y031701D01*
X040013Y031715D01*
X040060Y031726D01*
X040108Y031733D01*
X040156Y031736D01*
X040204Y031735D01*
X040252Y031730D01*
X040300Y031721D01*
X040346Y031709D01*
X040391Y031692D01*
X040435Y031672D01*
X040477Y031649D01*
X040517Y031622D01*
X040555Y031592D01*
X040590Y031559D01*
X040622Y031523D01*
X040652Y031485D01*
X040678Y031444D01*
X040700Y031401D01*
X040720Y031357D01*
X040735Y031312D01*
X040747Y031265D01*
X040755Y031217D01*
X040759Y031169D01*
X040759Y031121D01*
X040755Y031073D01*
X040747Y031025D01*
X040735Y030978D01*
X040720Y030933D01*
X040700Y030889D01*
X040678Y030846D01*
X040652Y030805D01*
X040622Y030767D01*
X040590Y030731D01*
X040555Y030698D01*
X040517Y030668D01*
X040477Y030641D01*
X040435Y030618D01*
X040391Y030598D01*
X040346Y030581D01*
X040300Y030569D01*
X040252Y030560D01*
X040204Y030555D01*
X040156Y030554D01*
X040108Y030557D01*
X040060Y030564D01*
X040013Y030575D01*
X039967Y030589D01*
X039922Y030607D01*
X039879Y030629D01*
X039838Y030654D01*
X039800Y030683D01*
X039763Y030715D01*
X039729Y030749D01*
X039699Y030786D01*
X039671Y030825D01*
X039646Y030867D01*
X039626Y030911D01*
X039608Y030956D01*
X039595Y031002D01*
X039585Y031049D01*
X039579Y031097D01*
X039577Y031145D01*
D11*
X031285Y035190D02*
X031285Y035460D01*
X031105Y035460D01*
X030990Y035370D02*
X030990Y035235D01*
X030945Y035190D01*
X030810Y035190D01*
X030810Y035370D01*
X030696Y035325D02*
X030651Y035370D01*
X030516Y035370D01*
X030561Y035280D02*
X030651Y035280D01*
X030696Y035325D01*
X030696Y035190D02*
X030561Y035190D01*
X030516Y035235D01*
X030561Y035280D01*
X030401Y035190D02*
X030311Y035190D01*
X030356Y035190D02*
X030356Y035370D01*
X030401Y035370D01*
X030356Y035460D02*
X030356Y035505D01*
X030205Y035325D02*
X030205Y035235D01*
X030160Y035190D01*
X030070Y035190D01*
X030024Y035235D01*
X030024Y035325D01*
X030070Y035370D01*
X030160Y035370D01*
X030205Y035325D01*
X029910Y035370D02*
X029775Y035370D01*
X029730Y035325D01*
X029730Y035190D01*
X029910Y035190D02*
X029910Y035370D01*
X029321Y035415D02*
X029321Y035235D01*
X029276Y035190D01*
X029186Y035190D01*
X029141Y035235D01*
X029141Y035415D01*
X029186Y035460D01*
X029276Y035460D01*
X029321Y035415D01*
X029026Y035370D02*
X029026Y035190D01*
X029026Y035280D02*
X028936Y035370D01*
X028891Y035370D01*
X028780Y035325D02*
X028735Y035370D01*
X028600Y035370D01*
X028600Y035460D02*
X028600Y035190D01*
X028735Y035190D01*
X028780Y035235D01*
X028780Y035325D01*
X028486Y035325D02*
X028441Y035370D01*
X028351Y035370D01*
X028306Y035325D01*
X028306Y035280D01*
X028486Y035280D01*
X028486Y035235D02*
X028486Y035325D01*
X028486Y035235D02*
X028441Y035190D01*
X028351Y035190D01*
X028191Y035190D02*
X028191Y035370D01*
X028191Y035280D02*
X028101Y035370D01*
X028056Y035370D01*
X027651Y035325D02*
X027561Y035370D01*
X027516Y035370D01*
X027471Y035325D01*
X027471Y035235D01*
X027516Y035190D01*
X027606Y035190D01*
X027651Y035235D01*
X027651Y035325D02*
X027651Y035460D01*
X027471Y035460D01*
X027356Y035415D02*
X027311Y035460D01*
X027221Y035460D01*
X027176Y035415D01*
X027176Y035370D01*
X027356Y035190D01*
X027176Y035190D01*
X027062Y035235D02*
X027017Y035190D01*
X026927Y035190D01*
X026882Y035235D01*
X026882Y035280D01*
X026927Y035325D01*
X026972Y035325D01*
X026927Y035325D02*
X026882Y035370D01*
X026882Y035415D01*
X026927Y035460D01*
X027017Y035460D01*
X027062Y035415D01*
X026767Y035415D02*
X026767Y035370D01*
X026722Y035325D01*
X026632Y035325D01*
X026587Y035280D01*
X026587Y035235D01*
X026632Y035190D01*
X026722Y035190D01*
X026767Y035235D01*
X026767Y035280D01*
X026722Y035325D01*
X026632Y035325D02*
X026587Y035370D01*
X026587Y035415D01*
X026632Y035460D01*
X026722Y035460D01*
X026767Y035415D01*
X026472Y035325D02*
X026337Y035325D01*
X026292Y035280D01*
X026292Y035235D01*
X026337Y035190D01*
X026427Y035190D01*
X026472Y035235D01*
X026472Y035325D01*
X026382Y035415D01*
X026292Y035460D01*
X025883Y035460D02*
X025883Y035190D01*
X025748Y035190D01*
X025703Y035235D01*
X025703Y035280D01*
X025748Y035325D01*
X025883Y035325D01*
X025748Y035325D02*
X025703Y035370D01*
X025703Y035415D01*
X025748Y035460D01*
X025883Y035460D01*
X025588Y035325D02*
X025588Y035235D01*
X025543Y035190D01*
X025453Y035190D01*
X025408Y035235D01*
X025408Y035325D01*
X025453Y035370D01*
X025543Y035370D01*
X025588Y035325D01*
X025294Y035235D02*
X025249Y035190D01*
X025114Y035190D01*
X025114Y035325D01*
X025159Y035370D01*
X025249Y035370D01*
X025249Y035280D02*
X025114Y035280D01*
X024999Y035280D02*
X024909Y035370D01*
X024864Y035370D01*
X024754Y035325D02*
X024709Y035370D01*
X024573Y035370D01*
X024573Y035460D02*
X024573Y035190D01*
X024709Y035190D01*
X024754Y035235D01*
X024754Y035325D01*
X024999Y035370D02*
X024999Y035190D01*
X025249Y035280D02*
X025294Y035235D01*
X024164Y035190D02*
X024164Y035370D01*
X024074Y035460D01*
X023984Y035370D01*
X023984Y035190D01*
X023984Y035325D02*
X024164Y035325D01*
X031195Y035325D02*
X031285Y035325D01*
X016349Y034771D02*
X016349Y028472D01*
X003357Y028472D01*
X003357Y034771D01*
X016349Y034771D01*
X013569Y033178D02*
X013569Y032828D01*
X013393Y032828D01*
X013335Y032886D01*
X013335Y032945D01*
X013393Y033003D01*
X013569Y033003D01*
X013569Y033178D02*
X013393Y033178D01*
X013335Y033120D01*
X013335Y033061D01*
X013393Y033003D01*
X013200Y033120D02*
X013200Y032886D01*
X013142Y032828D01*
X013025Y032828D01*
X012967Y032886D01*
X012967Y033120D01*
X013025Y033178D01*
X013142Y033178D01*
X013200Y033120D01*
X012832Y033178D02*
X012598Y033178D01*
X012715Y033178D02*
X012715Y032828D01*
X012347Y032828D02*
X012347Y033178D01*
X012464Y033178D02*
X012230Y033178D01*
X012095Y033120D02*
X012095Y032886D01*
X012037Y032828D01*
X011920Y032828D01*
X011862Y032886D01*
X011862Y033120D01*
X011920Y033178D01*
X012037Y033178D01*
X012095Y033120D01*
X011727Y033178D02*
X011610Y033061D01*
X011493Y033178D01*
X011493Y032828D01*
X011727Y032828D02*
X011727Y033178D01*
X005916Y031622D02*
X005921Y031815D01*
X005935Y032008D01*
X005959Y032200D01*
X005992Y032390D01*
X006034Y032579D01*
X006086Y032765D01*
X006146Y032948D01*
X006216Y033129D01*
X006294Y033305D01*
X006381Y033478D01*
X006476Y033646D01*
X006580Y033809D01*
X006691Y033967D01*
X006810Y034120D01*
X006936Y034266D01*
X007069Y034406D01*
X007209Y034539D01*
X007355Y034665D01*
X007508Y034784D01*
X007666Y034895D01*
X007829Y034999D01*
X007997Y035094D01*
X008170Y035181D01*
X008346Y035259D01*
X008527Y035329D01*
X008710Y035389D01*
X008896Y035441D01*
X009085Y035483D01*
X009275Y035516D01*
X009467Y035540D01*
X009660Y035554D01*
X009853Y035559D01*
X010046Y035554D01*
X010239Y035540D01*
X010431Y035516D01*
X010621Y035483D01*
X010810Y035441D01*
X010996Y035389D01*
X011179Y035329D01*
X011360Y035259D01*
X011536Y035181D01*
X011709Y035094D01*
X011877Y034999D01*
X012040Y034895D01*
X012198Y034784D01*
X012351Y034665D01*
X012497Y034539D01*
X012637Y034406D01*
X012770Y034266D01*
X012896Y034120D01*
X013015Y033967D01*
X013126Y033809D01*
X013230Y033646D01*
X013325Y033478D01*
X013412Y033305D01*
X013490Y033129D01*
X013560Y032948D01*
X013620Y032765D01*
X013672Y032579D01*
X013714Y032390D01*
X013747Y032200D01*
X013771Y032008D01*
X013785Y031815D01*
X013790Y031622D01*
X013785Y031429D01*
X013771Y031236D01*
X013747Y031044D01*
X013714Y030854D01*
X013672Y030665D01*
X013620Y030479D01*
X013560Y030296D01*
X013490Y030115D01*
X013412Y029939D01*
X013325Y029766D01*
X013230Y029598D01*
X013126Y029435D01*
X013015Y029277D01*
X012896Y029124D01*
X012770Y028978D01*
X012637Y028838D01*
X012497Y028705D01*
X012351Y028579D01*
X012198Y028460D01*
X012040Y028349D01*
X011877Y028245D01*
X011709Y028150D01*
X011536Y028063D01*
X011360Y027985D01*
X011179Y027915D01*
X010996Y027855D01*
X010810Y027803D01*
X010621Y027761D01*
X010431Y027728D01*
X010239Y027704D01*
X010046Y027690D01*
X009853Y027685D01*
X009660Y027690D01*
X009467Y027704D01*
X009275Y027728D01*
X009085Y027761D01*
X008896Y027803D01*
X008710Y027855D01*
X008527Y027915D01*
X008346Y027985D01*
X008170Y028063D01*
X007997Y028150D01*
X007829Y028245D01*
X007666Y028349D01*
X007508Y028460D01*
X007355Y028579D01*
X007209Y028705D01*
X007069Y028838D01*
X006936Y028978D01*
X006810Y029124D01*
X006691Y029277D01*
X006580Y029435D01*
X006476Y029598D01*
X006381Y029766D01*
X006294Y029939D01*
X006216Y030115D01*
X006146Y030296D01*
X006086Y030479D01*
X006034Y030665D01*
X005992Y030854D01*
X005959Y031044D01*
X005935Y031236D01*
X005921Y031429D01*
X005916Y031622D01*
X003666Y029653D02*
X003668Y029700D01*
X003674Y029746D01*
X003683Y029792D01*
X003697Y029836D01*
X003714Y029880D01*
X003735Y029921D01*
X003759Y029961D01*
X003786Y029999D01*
X003817Y030034D01*
X003850Y030067D01*
X003886Y030097D01*
X003925Y030123D01*
X003965Y030147D01*
X004007Y030166D01*
X004051Y030183D01*
X004096Y030195D01*
X004142Y030204D01*
X004188Y030209D01*
X004235Y030210D01*
X004281Y030207D01*
X004327Y030200D01*
X004373Y030189D01*
X004417Y030175D01*
X004460Y030157D01*
X004501Y030135D01*
X004541Y030110D01*
X004578Y030082D01*
X004613Y030051D01*
X004645Y030017D01*
X004674Y029980D01*
X004699Y029942D01*
X004722Y029901D01*
X004741Y029858D01*
X004756Y029814D01*
X004768Y029769D01*
X004776Y029723D01*
X004780Y029676D01*
X004780Y029630D01*
X004776Y029583D01*
X004768Y029537D01*
X004756Y029492D01*
X004741Y029448D01*
X004722Y029405D01*
X004699Y029364D01*
X004674Y029326D01*
X004645Y029289D01*
X004613Y029255D01*
X004578Y029224D01*
X004541Y029196D01*
X004502Y029171D01*
X004460Y029149D01*
X004417Y029131D01*
X004373Y029117D01*
X004327Y029106D01*
X004281Y029099D01*
X004235Y029096D01*
X004188Y029097D01*
X004142Y029102D01*
X004096Y029111D01*
X004051Y029123D01*
X004007Y029140D01*
X003965Y029159D01*
X003925Y029183D01*
X003886Y029209D01*
X003850Y029239D01*
X003817Y029272D01*
X003786Y029307D01*
X003759Y029345D01*
X003735Y029385D01*
X003714Y029426D01*
X003697Y029470D01*
X003683Y029514D01*
X003674Y029560D01*
X003668Y029606D01*
X003666Y029653D01*
X003805Y028070D02*
X003805Y026670D01*
X004405Y026670D01*
X004405Y028070D01*
X003805Y028070D01*
D12*
X004251Y029299D02*
X004251Y029913D01*
X004558Y029606D02*
X003944Y029606D01*
D13*
X004519Y027724D02*
X004519Y027417D01*
X004826Y027724D01*
X004903Y027724D01*
X004979Y027647D01*
X004979Y027494D01*
X004903Y027417D01*
X004903Y027264D02*
X004596Y027264D01*
X004519Y027187D01*
X004519Y026957D01*
X004979Y026957D01*
X004979Y027187D01*
X004903Y027264D01*
X010774Y027795D02*
X010928Y027949D01*
X010851Y027949D02*
X011081Y027949D01*
X011081Y027795D02*
X011081Y028256D01*
X010851Y028256D01*
X010774Y028179D01*
X010774Y028025D01*
X010851Y027949D01*
X011235Y027795D02*
X011542Y027795D01*
X011542Y028256D01*
X011235Y028256D01*
X011388Y028025D02*
X011542Y028025D01*
X011695Y027872D02*
X011695Y028179D01*
X011772Y028256D01*
X012002Y028256D01*
X012002Y027795D01*
X011772Y027795D01*
X011695Y027872D01*
X012155Y027795D02*
X012462Y027795D01*
X012462Y028256D01*
X012616Y028179D02*
X012616Y027872D01*
X012693Y027795D01*
X012846Y027795D01*
X012923Y027872D01*
X012923Y028179D01*
X012846Y028256D01*
X012693Y028256D01*
X012616Y028179D01*
X013076Y028256D02*
X013076Y027795D01*
X013076Y028025D02*
X013383Y028025D01*
X013537Y028025D02*
X013844Y028025D01*
X013997Y028102D02*
X013997Y028179D01*
X014074Y028256D01*
X014227Y028256D01*
X014304Y028179D01*
X014457Y028179D02*
X014457Y028102D01*
X014534Y028025D01*
X014457Y027949D01*
X014457Y027872D01*
X014534Y027795D01*
X014688Y027795D01*
X014764Y027872D01*
X014918Y027872D02*
X014994Y027795D01*
X015148Y027795D01*
X015225Y027872D01*
X014918Y028179D01*
X014918Y027872D01*
X015225Y027872D02*
X015225Y028179D01*
X015148Y028256D01*
X014994Y028256D01*
X014918Y028179D01*
X014764Y028179D02*
X014688Y028256D01*
X014534Y028256D01*
X014457Y028179D01*
X014534Y028025D02*
X014611Y028025D01*
X014304Y027795D02*
X013997Y028102D01*
X013997Y027795D02*
X014304Y027795D01*
X014865Y027468D02*
X014865Y027008D01*
X015018Y027008D02*
X014711Y027008D01*
X015018Y027315D02*
X014865Y027468D01*
X015172Y027468D02*
X015479Y027468D01*
X015325Y027468D02*
X015325Y027008D01*
X015632Y027008D02*
X015632Y027315D01*
X015785Y027468D01*
X015939Y027315D01*
X015939Y027008D01*
X016092Y027085D02*
X016169Y027008D01*
X016399Y027008D01*
X016399Y027468D01*
X016169Y027468D01*
X016092Y027391D01*
X016092Y027315D01*
X016169Y027238D01*
X016399Y027238D01*
X016169Y027238D02*
X016092Y027161D01*
X016092Y027085D01*
X015939Y027238D02*
X015632Y027238D01*
X015685Y027795D02*
X015378Y028102D01*
X015378Y028179D01*
X015455Y028256D01*
X015608Y028256D01*
X015685Y028179D01*
X015839Y028179D02*
X015839Y028025D01*
X015915Y027949D01*
X016145Y027949D01*
X015992Y027949D02*
X015839Y027795D01*
X015685Y027795D02*
X015378Y027795D01*
X015839Y028179D02*
X015915Y028256D01*
X016145Y028256D01*
X016145Y027795D01*
X016299Y027872D02*
X016376Y027795D01*
X016529Y027795D01*
X016606Y027872D01*
X016606Y028179D01*
X016529Y028256D01*
X016376Y028256D01*
X016299Y028179D01*
X013383Y028256D02*
X013383Y027795D01*
X022575Y021813D02*
X023035Y021813D01*
X022805Y021583D01*
X022805Y021889D01*
X022882Y021429D02*
X022959Y021429D01*
X023035Y021352D01*
X023035Y021199D01*
X022959Y021122D01*
X022959Y020969D02*
X023035Y020892D01*
X023035Y020738D01*
X022959Y020662D01*
X022652Y020662D01*
X022575Y020738D01*
X022575Y020892D01*
X022652Y020969D01*
X022575Y021122D02*
X022882Y021429D01*
X022575Y021429D02*
X022575Y021122D01*
X023099Y018211D02*
X023023Y018135D01*
X023330Y017828D01*
X023253Y017751D01*
X023099Y017751D01*
X023023Y017828D01*
X023023Y018135D01*
X023099Y018211D02*
X023253Y018211D01*
X023330Y018135D01*
X023330Y017828D01*
X023483Y017828D02*
X023560Y017751D01*
X023713Y017751D01*
X023790Y017828D01*
X023943Y017828D02*
X024020Y017751D01*
X024174Y017751D01*
X024250Y017828D01*
X024250Y018135D01*
X024174Y018211D01*
X024020Y018211D01*
X023943Y018135D01*
X023790Y018135D02*
X023713Y018211D01*
X023560Y018211D01*
X023483Y018135D01*
X023483Y018058D01*
X023560Y017981D01*
X023483Y017905D01*
X023483Y017828D01*
X023560Y017981D02*
X023636Y017981D01*
X023560Y017404D02*
X023483Y017328D01*
X023483Y017251D01*
X023560Y017174D01*
X023483Y017097D01*
X023483Y017021D01*
X023560Y016944D01*
X023713Y016944D01*
X023790Y017021D01*
X023943Y017021D02*
X024020Y016944D01*
X024174Y016944D01*
X024250Y017021D01*
X024250Y017328D01*
X024174Y017404D01*
X024020Y017404D01*
X023943Y017328D01*
X023790Y017328D02*
X023713Y017404D01*
X023560Y017404D01*
X023560Y017174D02*
X023636Y017174D01*
X023330Y017328D02*
X023253Y017404D01*
X023099Y017404D01*
X023023Y017328D01*
X023023Y017251D01*
X023330Y016944D01*
X023023Y016944D01*
X017554Y018669D02*
X017554Y019130D01*
X017707Y019130D02*
X017400Y019130D01*
X017247Y019130D02*
X017017Y019130D01*
X016940Y019053D01*
X016940Y018899D01*
X017017Y018823D01*
X017247Y018823D01*
X017247Y018669D02*
X017247Y019130D01*
X016787Y019053D02*
X016787Y018976D01*
X016710Y018899D01*
X016480Y018899D01*
X016480Y018746D02*
X016480Y019053D01*
X016556Y019130D01*
X016710Y019130D01*
X016787Y019053D01*
X016787Y018746D02*
X016710Y018669D01*
X016556Y018669D01*
X016480Y018746D01*
X011819Y013925D02*
X011896Y013848D01*
X011896Y013695D01*
X011819Y013618D01*
X011666Y013464D02*
X011666Y013157D01*
X011896Y013388D01*
X011436Y013388D01*
X011436Y013618D02*
X011742Y013925D01*
X011819Y013925D01*
X011436Y013925D02*
X011436Y013618D01*
X010912Y013695D02*
X010912Y013848D01*
X010835Y013925D01*
X010758Y013925D01*
X010681Y013848D01*
X010681Y013695D01*
X010758Y013618D01*
X010835Y013618D01*
X010912Y013695D01*
X010681Y013695D02*
X010605Y013618D01*
X010528Y013618D01*
X010451Y013695D01*
X010451Y013848D01*
X010528Y013925D01*
X010605Y013925D01*
X010681Y013848D01*
X010605Y013464D02*
X010528Y013464D01*
X010451Y013388D01*
X010451Y013234D01*
X010528Y013157D01*
X010528Y013004D02*
X010451Y012927D01*
X010451Y012774D01*
X010528Y012697D01*
X010835Y012697D01*
X010912Y012774D01*
X010912Y012927D01*
X010835Y013004D01*
X010835Y013157D02*
X010912Y013234D01*
X010912Y013388D01*
X010835Y013464D01*
X010758Y013464D01*
X010681Y013388D01*
X010605Y013464D01*
X010681Y013388D02*
X010681Y013311D01*
X010046Y013388D02*
X009815Y013157D01*
X009815Y013464D01*
X009892Y013618D02*
X010046Y013771D01*
X009585Y013771D01*
X009585Y013618D02*
X009585Y013925D01*
X009585Y013388D02*
X010046Y013388D01*
X009969Y013004D02*
X010046Y012927D01*
X010046Y012774D01*
X009969Y012697D01*
X009662Y012697D01*
X009585Y012774D01*
X009585Y012927D01*
X009662Y013004D01*
X011436Y012927D02*
X011512Y013004D01*
X011436Y012927D02*
X011436Y012774D01*
X011512Y012697D01*
X011819Y012697D01*
X011896Y012774D01*
X011896Y012927D01*
X011819Y013004D01*
X007518Y011343D02*
X007518Y011036D01*
X007441Y010960D01*
X007288Y010960D01*
X007211Y011036D01*
X007058Y011036D02*
X006981Y010960D01*
X006827Y010960D01*
X006751Y011036D01*
X006751Y011113D01*
X006827Y011190D01*
X006904Y011190D01*
X006827Y011190D02*
X006751Y011267D01*
X006751Y011343D01*
X006827Y011420D01*
X006981Y011420D01*
X007058Y011343D01*
X007211Y011343D02*
X007288Y011420D01*
X007441Y011420D01*
X007518Y011343D01*
X006597Y011343D02*
X006597Y011267D01*
X006521Y011190D01*
X006290Y011190D01*
X006290Y011343D02*
X006290Y011036D01*
X006367Y010960D01*
X006521Y010960D01*
X006597Y011036D01*
X006597Y011343D02*
X006521Y011420D01*
X006367Y011420D01*
X006290Y011343D01*
X006367Y010436D02*
X006290Y010359D01*
X006290Y010282D01*
X006367Y010206D01*
X006290Y010129D01*
X006290Y010052D01*
X006367Y009976D01*
X006521Y009976D01*
X006597Y010052D01*
X006444Y010206D02*
X006367Y010206D01*
X006367Y010436D02*
X006521Y010436D01*
X006597Y010359D01*
X006751Y010206D02*
X007058Y010206D01*
X006827Y010436D01*
X006827Y009976D01*
X007211Y010052D02*
X007288Y009976D01*
X007441Y009976D01*
X007518Y010052D01*
X007518Y010359D01*
X007441Y010436D01*
X007288Y010436D01*
X007211Y010359D01*
X007288Y009452D02*
X007441Y009452D01*
X007518Y009375D01*
X007518Y009068D01*
X007441Y008991D01*
X007288Y008991D01*
X007211Y009068D01*
X007058Y009221D02*
X006751Y009221D01*
X006597Y009068D02*
X006290Y009375D01*
X006290Y009068D01*
X006367Y008991D01*
X006521Y008991D01*
X006597Y009068D01*
X006597Y009375D01*
X006521Y009452D01*
X006367Y009452D01*
X006290Y009375D01*
X006827Y009452D02*
X007058Y009221D01*
X007211Y009375D02*
X007288Y009452D01*
X006827Y009452D02*
X006827Y008991D01*
X008813Y016898D02*
X008966Y016898D01*
X009043Y016974D01*
X008736Y017281D01*
X008736Y016974D01*
X008813Y016898D01*
X009043Y016974D02*
X009043Y017281D01*
X008966Y017358D01*
X008813Y017358D01*
X008736Y017281D01*
X009196Y016898D02*
X009503Y016898D01*
X009350Y016898D02*
X009350Y017358D01*
X009503Y017204D01*
X009657Y017128D02*
X009657Y017281D01*
X009733Y017358D01*
X009964Y017358D01*
X009964Y016898D01*
X009964Y017051D02*
X009733Y017051D01*
X009657Y017128D01*
X010117Y017358D02*
X010424Y017358D01*
X010270Y017358D02*
X010270Y016898D01*
M02*
