G75*
G70*
%OFA0B0*%
%FSLAX24Y24*%
%IPPOS*%
%LPD*%
%AMOC8*
5,1,8,0,0,1.08239X$1,22.5*
%
%ADD10C,0.0000*%
%ADD11C,0.0100*%
%ADD12C,0.0040*%
%ADD13R,0.0984X0.0197*%
%ADD14R,0.0197X0.0984*%
%ADD15C,0.0120*%
%ADD16C,0.0060*%
%ADD17C,0.0050*%
%ADD18C,0.0030*%
%ADD19C,0.0080*%
%ADD20C,0.0320*%
%ADD21R,0.0079X0.0079*%
%ADD22C,0.0010*%
%ADD23R,0.0300X0.0340*%
%ADD24R,0.0354X0.0315*%
%ADD25R,0.0236X0.0591*%
%ADD26C,0.0043*%
%ADD27C,0.0070*%
%ADD28C,0.0020*%
%ADD29R,0.0197X0.0246*%
D10*
X002964Y004456D02*
X002964Y035952D01*
X042334Y035952D01*
X042334Y004456D01*
X002964Y004456D01*
X030916Y024452D02*
X030918Y024500D01*
X030924Y024548D01*
X030934Y024595D01*
X030947Y024641D01*
X030965Y024686D01*
X030985Y024730D01*
X031010Y024772D01*
X031038Y024811D01*
X031068Y024848D01*
X031102Y024882D01*
X031139Y024914D01*
X031177Y024943D01*
X031218Y024968D01*
X031261Y024990D01*
X031306Y025008D01*
X031352Y025022D01*
X031399Y025033D01*
X031447Y025040D01*
X031495Y025043D01*
X031543Y025042D01*
X031591Y025037D01*
X031639Y025028D01*
X031685Y025016D01*
X031730Y024999D01*
X031774Y024979D01*
X031816Y024956D01*
X031856Y024929D01*
X031894Y024899D01*
X031929Y024866D01*
X031961Y024830D01*
X031991Y024792D01*
X032017Y024751D01*
X032039Y024708D01*
X032059Y024664D01*
X032074Y024619D01*
X032086Y024572D01*
X032094Y024524D01*
X032098Y024476D01*
X032098Y024428D01*
X032094Y024380D01*
X032086Y024332D01*
X032074Y024285D01*
X032059Y024240D01*
X032039Y024196D01*
X032017Y024153D01*
X031991Y024112D01*
X031961Y024074D01*
X031929Y024038D01*
X031894Y024005D01*
X031856Y023975D01*
X031816Y023948D01*
X031774Y023925D01*
X031730Y023905D01*
X031685Y023888D01*
X031639Y023876D01*
X031591Y023867D01*
X031543Y023862D01*
X031495Y023861D01*
X031447Y023864D01*
X031399Y023871D01*
X031352Y023882D01*
X031306Y023896D01*
X031261Y023914D01*
X031218Y023936D01*
X031177Y023961D01*
X031139Y023990D01*
X031102Y024022D01*
X031068Y024056D01*
X031038Y024093D01*
X031010Y024132D01*
X030985Y024174D01*
X030965Y024218D01*
X030947Y024263D01*
X030934Y024309D01*
X030924Y024356D01*
X030918Y024404D01*
X030916Y024452D01*
X030916Y031145D02*
X030918Y031193D01*
X030924Y031241D01*
X030934Y031288D01*
X030947Y031334D01*
X030965Y031379D01*
X030985Y031423D01*
X031010Y031465D01*
X031038Y031504D01*
X031068Y031541D01*
X031102Y031575D01*
X031139Y031607D01*
X031177Y031636D01*
X031218Y031661D01*
X031261Y031683D01*
X031306Y031701D01*
X031352Y031715D01*
X031399Y031726D01*
X031447Y031733D01*
X031495Y031736D01*
X031543Y031735D01*
X031591Y031730D01*
X031639Y031721D01*
X031685Y031709D01*
X031730Y031692D01*
X031774Y031672D01*
X031816Y031649D01*
X031856Y031622D01*
X031894Y031592D01*
X031929Y031559D01*
X031961Y031523D01*
X031991Y031485D01*
X032017Y031444D01*
X032039Y031401D01*
X032059Y031357D01*
X032074Y031312D01*
X032086Y031265D01*
X032094Y031217D01*
X032098Y031169D01*
X032098Y031121D01*
X032094Y031073D01*
X032086Y031025D01*
X032074Y030978D01*
X032059Y030933D01*
X032039Y030889D01*
X032017Y030846D01*
X031991Y030805D01*
X031961Y030767D01*
X031929Y030731D01*
X031894Y030698D01*
X031856Y030668D01*
X031816Y030641D01*
X031774Y030618D01*
X031730Y030598D01*
X031685Y030581D01*
X031639Y030569D01*
X031591Y030560D01*
X031543Y030555D01*
X031495Y030554D01*
X031447Y030557D01*
X031399Y030564D01*
X031352Y030575D01*
X031306Y030589D01*
X031261Y030607D01*
X031218Y030629D01*
X031177Y030654D01*
X031139Y030683D01*
X031102Y030715D01*
X031068Y030749D01*
X031038Y030786D01*
X031010Y030825D01*
X030985Y030867D01*
X030965Y030911D01*
X030947Y030956D01*
X030934Y031002D01*
X030924Y031049D01*
X030918Y031097D01*
X030916Y031145D01*
X026826Y033393D02*
X026828Y033447D01*
X026834Y033501D01*
X026844Y033555D01*
X026858Y033607D01*
X026875Y033659D01*
X026896Y033709D01*
X026921Y033757D01*
X026950Y033804D01*
X026981Y033848D01*
X027016Y033889D01*
X027054Y033929D01*
X027094Y033965D01*
X027137Y033998D01*
X027182Y034028D01*
X027230Y034055D01*
X027279Y034078D01*
X027330Y034097D01*
X027382Y034113D01*
X027435Y034125D01*
X027489Y034133D01*
X027543Y034137D01*
X027597Y034137D01*
X027651Y034133D01*
X027705Y034125D01*
X027758Y034113D01*
X027810Y034097D01*
X027861Y034078D01*
X027910Y034055D01*
X027958Y034028D01*
X028003Y033998D01*
X028046Y033965D01*
X028086Y033929D01*
X028124Y033889D01*
X028159Y033848D01*
X028190Y033804D01*
X028219Y033757D01*
X028244Y033709D01*
X028265Y033659D01*
X028282Y033607D01*
X028296Y033555D01*
X028306Y033501D01*
X028312Y033447D01*
X028314Y033393D01*
X028312Y033339D01*
X028306Y033285D01*
X028296Y033231D01*
X028282Y033179D01*
X028265Y033127D01*
X028244Y033077D01*
X028219Y033029D01*
X028190Y032982D01*
X028159Y032938D01*
X028124Y032897D01*
X028086Y032857D01*
X028046Y032821D01*
X028003Y032788D01*
X027958Y032758D01*
X027910Y032731D01*
X027861Y032708D01*
X027810Y032689D01*
X027758Y032673D01*
X027705Y032661D01*
X027651Y032653D01*
X027597Y032649D01*
X027543Y032649D01*
X027489Y032653D01*
X027435Y032661D01*
X027382Y032673D01*
X027330Y032689D01*
X027279Y032708D01*
X027230Y032731D01*
X027182Y032758D01*
X027137Y032788D01*
X027094Y032821D01*
X027054Y032857D01*
X027016Y032897D01*
X026981Y032938D01*
X026950Y032982D01*
X026921Y033029D01*
X026896Y033077D01*
X026875Y033127D01*
X026858Y033179D01*
X026844Y033231D01*
X026834Y033285D01*
X026828Y033339D01*
X026826Y033393D01*
X022569Y032885D02*
X022571Y032933D01*
X022577Y032981D01*
X022587Y033028D01*
X022600Y033074D01*
X022618Y033119D01*
X022638Y033163D01*
X022663Y033205D01*
X022691Y033244D01*
X022721Y033281D01*
X022755Y033315D01*
X022792Y033347D01*
X022830Y033376D01*
X022871Y033401D01*
X022914Y033423D01*
X022959Y033441D01*
X023005Y033455D01*
X023052Y033466D01*
X023100Y033473D01*
X023148Y033476D01*
X023196Y033475D01*
X023244Y033470D01*
X023292Y033461D01*
X023338Y033449D01*
X023383Y033432D01*
X023427Y033412D01*
X023469Y033389D01*
X023509Y033362D01*
X023547Y033332D01*
X023582Y033299D01*
X023614Y033263D01*
X023644Y033225D01*
X023670Y033184D01*
X023692Y033141D01*
X023712Y033097D01*
X023727Y033052D01*
X023739Y033005D01*
X023747Y032957D01*
X023751Y032909D01*
X023751Y032861D01*
X023747Y032813D01*
X023739Y032765D01*
X023727Y032718D01*
X023712Y032673D01*
X023692Y032629D01*
X023670Y032586D01*
X023644Y032545D01*
X023614Y032507D01*
X023582Y032471D01*
X023547Y032438D01*
X023509Y032408D01*
X023469Y032381D01*
X023427Y032358D01*
X023383Y032338D01*
X023338Y032321D01*
X023292Y032309D01*
X023244Y032300D01*
X023196Y032295D01*
X023148Y032294D01*
X023100Y032297D01*
X023052Y032304D01*
X023005Y032315D01*
X022959Y032329D01*
X022914Y032347D01*
X022871Y032369D01*
X022830Y032394D01*
X022792Y032423D01*
X022755Y032455D01*
X022721Y032489D01*
X022691Y032526D01*
X022663Y032565D01*
X022638Y032607D01*
X022618Y032651D01*
X022600Y032696D01*
X022587Y032742D01*
X022577Y032789D01*
X022571Y032837D01*
X022569Y032885D01*
X017215Y032885D02*
X017217Y032933D01*
X017223Y032981D01*
X017233Y033028D01*
X017246Y033074D01*
X017264Y033119D01*
X017284Y033163D01*
X017309Y033205D01*
X017337Y033244D01*
X017367Y033281D01*
X017401Y033315D01*
X017438Y033347D01*
X017476Y033376D01*
X017517Y033401D01*
X017560Y033423D01*
X017605Y033441D01*
X017651Y033455D01*
X017698Y033466D01*
X017746Y033473D01*
X017794Y033476D01*
X017842Y033475D01*
X017890Y033470D01*
X017938Y033461D01*
X017984Y033449D01*
X018029Y033432D01*
X018073Y033412D01*
X018115Y033389D01*
X018155Y033362D01*
X018193Y033332D01*
X018228Y033299D01*
X018260Y033263D01*
X018290Y033225D01*
X018316Y033184D01*
X018338Y033141D01*
X018358Y033097D01*
X018373Y033052D01*
X018385Y033005D01*
X018393Y032957D01*
X018397Y032909D01*
X018397Y032861D01*
X018393Y032813D01*
X018385Y032765D01*
X018373Y032718D01*
X018358Y032673D01*
X018338Y032629D01*
X018316Y032586D01*
X018290Y032545D01*
X018260Y032507D01*
X018228Y032471D01*
X018193Y032438D01*
X018155Y032408D01*
X018115Y032381D01*
X018073Y032358D01*
X018029Y032338D01*
X017984Y032321D01*
X017938Y032309D01*
X017890Y032300D01*
X017842Y032295D01*
X017794Y032294D01*
X017746Y032297D01*
X017698Y032304D01*
X017651Y032315D01*
X017605Y032329D01*
X017560Y032347D01*
X017517Y032369D01*
X017476Y032394D01*
X017438Y032423D01*
X017401Y032455D01*
X017367Y032489D01*
X017337Y032526D01*
X017309Y032565D01*
X017284Y032607D01*
X017264Y032651D01*
X017246Y032696D01*
X017233Y032742D01*
X017223Y032789D01*
X017217Y032837D01*
X017215Y032885D01*
X035758Y017956D02*
X035760Y018004D01*
X035766Y018052D01*
X035776Y018099D01*
X035789Y018145D01*
X035807Y018190D01*
X035827Y018234D01*
X035852Y018276D01*
X035880Y018315D01*
X035910Y018352D01*
X035944Y018386D01*
X035981Y018418D01*
X036019Y018447D01*
X036060Y018472D01*
X036103Y018494D01*
X036148Y018512D01*
X036194Y018526D01*
X036241Y018537D01*
X036289Y018544D01*
X036337Y018547D01*
X036385Y018546D01*
X036433Y018541D01*
X036481Y018532D01*
X036527Y018520D01*
X036572Y018503D01*
X036616Y018483D01*
X036658Y018460D01*
X036698Y018433D01*
X036736Y018403D01*
X036771Y018370D01*
X036803Y018334D01*
X036833Y018296D01*
X036859Y018255D01*
X036881Y018212D01*
X036901Y018168D01*
X036916Y018123D01*
X036928Y018076D01*
X036936Y018028D01*
X036940Y017980D01*
X036940Y017932D01*
X036936Y017884D01*
X036928Y017836D01*
X036916Y017789D01*
X036901Y017744D01*
X036881Y017700D01*
X036859Y017657D01*
X036833Y017616D01*
X036803Y017578D01*
X036771Y017542D01*
X036736Y017509D01*
X036698Y017479D01*
X036658Y017452D01*
X036616Y017429D01*
X036572Y017409D01*
X036527Y017392D01*
X036481Y017380D01*
X036433Y017371D01*
X036385Y017366D01*
X036337Y017365D01*
X036289Y017368D01*
X036241Y017375D01*
X036194Y017386D01*
X036148Y017400D01*
X036103Y017418D01*
X036060Y017440D01*
X036019Y017465D01*
X035981Y017494D01*
X035944Y017526D01*
X035910Y017560D01*
X035880Y017597D01*
X035852Y017636D01*
X035827Y017678D01*
X035807Y017722D01*
X035789Y017767D01*
X035776Y017813D01*
X035766Y017860D01*
X035760Y017908D01*
X035758Y017956D01*
X039459Y017956D02*
X039461Y018004D01*
X039467Y018052D01*
X039477Y018099D01*
X039490Y018145D01*
X039508Y018190D01*
X039528Y018234D01*
X039553Y018276D01*
X039581Y018315D01*
X039611Y018352D01*
X039645Y018386D01*
X039682Y018418D01*
X039720Y018447D01*
X039761Y018472D01*
X039804Y018494D01*
X039849Y018512D01*
X039895Y018526D01*
X039942Y018537D01*
X039990Y018544D01*
X040038Y018547D01*
X040086Y018546D01*
X040134Y018541D01*
X040182Y018532D01*
X040228Y018520D01*
X040273Y018503D01*
X040317Y018483D01*
X040359Y018460D01*
X040399Y018433D01*
X040437Y018403D01*
X040472Y018370D01*
X040504Y018334D01*
X040534Y018296D01*
X040560Y018255D01*
X040582Y018212D01*
X040602Y018168D01*
X040617Y018123D01*
X040629Y018076D01*
X040637Y018028D01*
X040641Y017980D01*
X040641Y017932D01*
X040637Y017884D01*
X040629Y017836D01*
X040617Y017789D01*
X040602Y017744D01*
X040582Y017700D01*
X040560Y017657D01*
X040534Y017616D01*
X040504Y017578D01*
X040472Y017542D01*
X040437Y017509D01*
X040399Y017479D01*
X040359Y017452D01*
X040317Y017429D01*
X040273Y017409D01*
X040228Y017392D01*
X040182Y017380D01*
X040134Y017371D01*
X040086Y017366D01*
X040038Y017365D01*
X039990Y017368D01*
X039942Y017375D01*
X039895Y017386D01*
X039849Y017400D01*
X039804Y017418D01*
X039761Y017440D01*
X039720Y017465D01*
X039682Y017494D01*
X039645Y017526D01*
X039611Y017560D01*
X039581Y017597D01*
X039553Y017636D01*
X039528Y017678D01*
X039508Y017722D01*
X039490Y017767D01*
X039477Y017813D01*
X039467Y017860D01*
X039461Y017908D01*
X039459Y017956D01*
X039577Y024452D02*
X039579Y024500D01*
X039585Y024548D01*
X039595Y024595D01*
X039608Y024641D01*
X039626Y024686D01*
X039646Y024730D01*
X039671Y024772D01*
X039699Y024811D01*
X039729Y024848D01*
X039763Y024882D01*
X039800Y024914D01*
X039838Y024943D01*
X039879Y024968D01*
X039922Y024990D01*
X039967Y025008D01*
X040013Y025022D01*
X040060Y025033D01*
X040108Y025040D01*
X040156Y025043D01*
X040204Y025042D01*
X040252Y025037D01*
X040300Y025028D01*
X040346Y025016D01*
X040391Y024999D01*
X040435Y024979D01*
X040477Y024956D01*
X040517Y024929D01*
X040555Y024899D01*
X040590Y024866D01*
X040622Y024830D01*
X040652Y024792D01*
X040678Y024751D01*
X040700Y024708D01*
X040720Y024664D01*
X040735Y024619D01*
X040747Y024572D01*
X040755Y024524D01*
X040759Y024476D01*
X040759Y024428D01*
X040755Y024380D01*
X040747Y024332D01*
X040735Y024285D01*
X040720Y024240D01*
X040700Y024196D01*
X040678Y024153D01*
X040652Y024112D01*
X040622Y024074D01*
X040590Y024038D01*
X040555Y024005D01*
X040517Y023975D01*
X040477Y023948D01*
X040435Y023925D01*
X040391Y023905D01*
X040346Y023888D01*
X040300Y023876D01*
X040252Y023867D01*
X040204Y023862D01*
X040156Y023861D01*
X040108Y023864D01*
X040060Y023871D01*
X040013Y023882D01*
X039967Y023896D01*
X039922Y023914D01*
X039879Y023936D01*
X039838Y023961D01*
X039800Y023990D01*
X039763Y024022D01*
X039729Y024056D01*
X039699Y024093D01*
X039671Y024132D01*
X039646Y024174D01*
X039626Y024218D01*
X039608Y024263D01*
X039595Y024309D01*
X039585Y024356D01*
X039579Y024404D01*
X039577Y024452D01*
X039577Y031145D02*
X039579Y031193D01*
X039585Y031241D01*
X039595Y031288D01*
X039608Y031334D01*
X039626Y031379D01*
X039646Y031423D01*
X039671Y031465D01*
X039699Y031504D01*
X039729Y031541D01*
X039763Y031575D01*
X039800Y031607D01*
X039838Y031636D01*
X039879Y031661D01*
X039922Y031683D01*
X039967Y031701D01*
X040013Y031715D01*
X040060Y031726D01*
X040108Y031733D01*
X040156Y031736D01*
X040204Y031735D01*
X040252Y031730D01*
X040300Y031721D01*
X040346Y031709D01*
X040391Y031692D01*
X040435Y031672D01*
X040477Y031649D01*
X040517Y031622D01*
X040555Y031592D01*
X040590Y031559D01*
X040622Y031523D01*
X040652Y031485D01*
X040678Y031444D01*
X040700Y031401D01*
X040720Y031357D01*
X040735Y031312D01*
X040747Y031265D01*
X040755Y031217D01*
X040759Y031169D01*
X040759Y031121D01*
X040755Y031073D01*
X040747Y031025D01*
X040735Y030978D01*
X040720Y030933D01*
X040700Y030889D01*
X040678Y030846D01*
X040652Y030805D01*
X040622Y030767D01*
X040590Y030731D01*
X040555Y030698D01*
X040517Y030668D01*
X040477Y030641D01*
X040435Y030618D01*
X040391Y030598D01*
X040346Y030581D01*
X040300Y030569D01*
X040252Y030560D01*
X040204Y030555D01*
X040156Y030554D01*
X040108Y030557D01*
X040060Y030564D01*
X040013Y030575D01*
X039967Y030589D01*
X039922Y030607D01*
X039879Y030629D01*
X039838Y030654D01*
X039800Y030683D01*
X039763Y030715D01*
X039729Y030749D01*
X039699Y030786D01*
X039671Y030825D01*
X039646Y030867D01*
X039626Y030911D01*
X039608Y030956D01*
X039595Y031002D01*
X039585Y031049D01*
X039579Y031097D01*
X039577Y031145D01*
D11*
X039656Y030756D02*
X039381Y030756D01*
X039617Y031503D02*
X039646Y031544D01*
X039678Y031583D01*
X039713Y031620D01*
X039750Y031653D01*
X039790Y031684D01*
X039832Y031711D01*
X039876Y031736D01*
X039922Y031756D01*
X039970Y031773D01*
X040018Y031787D01*
X040068Y031796D01*
X040118Y031802D01*
X040168Y031804D01*
X040218Y031802D01*
X040268Y031796D01*
X040318Y031787D01*
X040366Y031773D01*
X040414Y031756D01*
X040460Y031736D01*
X040504Y031711D01*
X040546Y031684D01*
X040586Y031653D01*
X040623Y031620D01*
X040658Y031583D01*
X040690Y031544D01*
X040719Y031503D01*
X040719Y031504D02*
X040719Y030795D01*
X040690Y030754D01*
X040658Y030715D01*
X040623Y030678D01*
X040586Y030645D01*
X040546Y030614D01*
X040504Y030587D01*
X040460Y030562D01*
X040414Y030542D01*
X040366Y030525D01*
X040318Y030511D01*
X040268Y030502D01*
X040218Y030496D01*
X040168Y030494D01*
X040118Y030496D01*
X040068Y030502D01*
X040018Y030511D01*
X039970Y030525D01*
X039922Y030542D01*
X039876Y030562D01*
X039832Y030587D01*
X039790Y030614D01*
X039750Y030645D01*
X039713Y030678D01*
X039678Y030715D01*
X039646Y030754D01*
X039617Y030795D01*
X039656Y031543D02*
X039381Y031543D01*
X039342Y032015D02*
X039342Y029378D01*
X039370Y029376D01*
X039398Y029371D01*
X039425Y029361D01*
X039451Y029349D01*
X039474Y029333D01*
X039495Y029314D01*
X039514Y029293D01*
X039530Y029269D01*
X039542Y029244D01*
X039552Y029217D01*
X039557Y029189D01*
X039559Y029161D01*
X039557Y029133D01*
X039552Y029105D01*
X039542Y029078D01*
X039530Y029052D01*
X039514Y029029D01*
X039495Y029008D01*
X039474Y028989D01*
X039450Y028973D01*
X039425Y028961D01*
X039398Y028951D01*
X039370Y028946D01*
X039342Y028944D01*
X039342Y028315D01*
X032334Y028315D01*
X032334Y032015D01*
X039342Y032015D01*
X032294Y031543D02*
X032019Y031543D01*
X032058Y030795D02*
X032029Y030754D01*
X031997Y030715D01*
X031962Y030678D01*
X031925Y030645D01*
X031885Y030614D01*
X031843Y030587D01*
X031799Y030562D01*
X031753Y030542D01*
X031705Y030525D01*
X031657Y030511D01*
X031607Y030502D01*
X031557Y030496D01*
X031507Y030494D01*
X031457Y030496D01*
X031407Y030502D01*
X031357Y030511D01*
X031309Y030525D01*
X031261Y030542D01*
X031215Y030562D01*
X031171Y030587D01*
X031129Y030614D01*
X031089Y030645D01*
X031052Y030678D01*
X031017Y030715D01*
X030985Y030754D01*
X030956Y030795D01*
X030956Y031504D01*
X030956Y031503D02*
X030985Y031544D01*
X031017Y031583D01*
X031052Y031620D01*
X031089Y031653D01*
X031129Y031684D01*
X031171Y031711D01*
X031215Y031736D01*
X031261Y031756D01*
X031309Y031773D01*
X031357Y031787D01*
X031407Y031796D01*
X031457Y031802D01*
X031507Y031804D01*
X031557Y031802D01*
X031607Y031796D01*
X031657Y031787D01*
X031705Y031773D01*
X031753Y031756D01*
X031799Y031736D01*
X031843Y031711D01*
X031885Y031684D01*
X031925Y031653D01*
X031962Y031620D01*
X031997Y031583D01*
X032029Y031544D01*
X032058Y031503D01*
X032019Y030756D02*
X032294Y030756D01*
X032334Y025322D02*
X032334Y021622D01*
X039342Y021622D01*
X039342Y022252D01*
X039342Y022251D02*
X039370Y022253D01*
X039398Y022258D01*
X039425Y022268D01*
X039450Y022280D01*
X039474Y022296D01*
X039495Y022315D01*
X039514Y022336D01*
X039530Y022359D01*
X039542Y022385D01*
X039552Y022412D01*
X039557Y022440D01*
X039559Y022468D01*
X039557Y022496D01*
X039552Y022524D01*
X039542Y022551D01*
X039530Y022576D01*
X039514Y022600D01*
X039495Y022621D01*
X039474Y022640D01*
X039451Y022656D01*
X039425Y022668D01*
X039398Y022678D01*
X039370Y022683D01*
X039342Y022685D01*
X039342Y025322D01*
X032334Y025322D01*
X032294Y024850D02*
X032019Y024850D01*
X032058Y024102D02*
X032029Y024061D01*
X031997Y024022D01*
X031962Y023985D01*
X031925Y023952D01*
X031885Y023921D01*
X031843Y023894D01*
X031799Y023869D01*
X031753Y023849D01*
X031705Y023832D01*
X031657Y023818D01*
X031607Y023809D01*
X031557Y023803D01*
X031507Y023801D01*
X031457Y023803D01*
X031407Y023809D01*
X031357Y023818D01*
X031309Y023832D01*
X031261Y023849D01*
X031215Y023869D01*
X031171Y023894D01*
X031129Y023921D01*
X031089Y023952D01*
X031052Y023985D01*
X031017Y024022D01*
X030985Y024061D01*
X030956Y024102D01*
X030956Y024811D01*
X030956Y024810D02*
X030985Y024851D01*
X031017Y024890D01*
X031052Y024927D01*
X031089Y024960D01*
X031129Y024991D01*
X031171Y025018D01*
X031215Y025043D01*
X031261Y025063D01*
X031309Y025080D01*
X031357Y025094D01*
X031407Y025103D01*
X031457Y025109D01*
X031507Y025111D01*
X031557Y025109D01*
X031607Y025103D01*
X031657Y025094D01*
X031705Y025080D01*
X031753Y025063D01*
X031799Y025043D01*
X031843Y025018D01*
X031885Y024991D01*
X031925Y024960D01*
X031962Y024927D01*
X031997Y024890D01*
X032029Y024851D01*
X032058Y024810D01*
X032019Y024063D02*
X032294Y024063D01*
X037176Y018826D02*
X037176Y015126D01*
X039223Y015126D01*
X039223Y015756D01*
X039223Y015755D02*
X039251Y015757D01*
X039279Y015762D01*
X039306Y015772D01*
X039331Y015784D01*
X039355Y015800D01*
X039376Y015819D01*
X039395Y015840D01*
X039411Y015863D01*
X039423Y015889D01*
X039433Y015916D01*
X039438Y015944D01*
X039440Y015972D01*
X039438Y016000D01*
X039433Y016028D01*
X039423Y016055D01*
X039411Y016080D01*
X039395Y016104D01*
X039376Y016125D01*
X039355Y016144D01*
X039332Y016160D01*
X039306Y016172D01*
X039279Y016182D01*
X039251Y016187D01*
X039223Y016189D01*
X039223Y018826D01*
X037176Y018826D01*
X037137Y018354D02*
X036861Y018354D01*
X036900Y017606D02*
X036871Y017565D01*
X036839Y017526D01*
X036804Y017489D01*
X036767Y017456D01*
X036727Y017425D01*
X036685Y017398D01*
X036641Y017373D01*
X036595Y017353D01*
X036547Y017336D01*
X036499Y017322D01*
X036449Y017313D01*
X036399Y017307D01*
X036349Y017305D01*
X036299Y017307D01*
X036249Y017313D01*
X036199Y017322D01*
X036151Y017336D01*
X036103Y017353D01*
X036057Y017373D01*
X036013Y017398D01*
X035971Y017425D01*
X035931Y017456D01*
X035894Y017489D01*
X035859Y017526D01*
X035827Y017565D01*
X035798Y017606D01*
X035798Y018315D01*
X035798Y018314D02*
X035827Y018355D01*
X035859Y018394D01*
X035894Y018431D01*
X035931Y018464D01*
X035971Y018495D01*
X036013Y018522D01*
X036057Y018547D01*
X036103Y018567D01*
X036151Y018584D01*
X036199Y018598D01*
X036249Y018607D01*
X036299Y018613D01*
X036349Y018615D01*
X036399Y018613D01*
X036449Y018607D01*
X036499Y018598D01*
X036547Y018584D01*
X036595Y018567D01*
X036641Y018547D01*
X036685Y018522D01*
X036727Y018495D01*
X036767Y018464D01*
X036804Y018431D01*
X036839Y018394D01*
X036871Y018355D01*
X036900Y018314D01*
X036861Y017567D02*
X037137Y017567D01*
X039263Y017567D02*
X039538Y017567D01*
X039499Y018314D02*
X039528Y018355D01*
X039560Y018394D01*
X039595Y018431D01*
X039632Y018464D01*
X039672Y018495D01*
X039714Y018522D01*
X039758Y018547D01*
X039804Y018567D01*
X039852Y018584D01*
X039900Y018598D01*
X039950Y018607D01*
X040000Y018613D01*
X040050Y018615D01*
X040100Y018613D01*
X040150Y018607D01*
X040200Y018598D01*
X040248Y018584D01*
X040296Y018567D01*
X040342Y018547D01*
X040386Y018522D01*
X040428Y018495D01*
X040468Y018464D01*
X040505Y018431D01*
X040540Y018394D01*
X040572Y018355D01*
X040601Y018314D01*
X040601Y018315D02*
X040601Y017606D01*
X040572Y017565D01*
X040540Y017526D01*
X040505Y017489D01*
X040468Y017456D01*
X040428Y017425D01*
X040386Y017398D01*
X040342Y017373D01*
X040296Y017353D01*
X040248Y017336D01*
X040200Y017322D01*
X040150Y017313D01*
X040100Y017307D01*
X040050Y017305D01*
X040000Y017307D01*
X039950Y017313D01*
X039900Y017322D01*
X039852Y017336D01*
X039804Y017353D01*
X039758Y017373D01*
X039714Y017398D01*
X039672Y017425D01*
X039632Y017456D01*
X039595Y017489D01*
X039560Y017526D01*
X039528Y017565D01*
X039499Y017606D01*
X039538Y018354D02*
X039263Y018354D01*
X039381Y024063D02*
X039656Y024063D01*
X039617Y024810D02*
X039646Y024851D01*
X039678Y024890D01*
X039713Y024927D01*
X039750Y024960D01*
X039790Y024991D01*
X039832Y025018D01*
X039876Y025043D01*
X039922Y025063D01*
X039970Y025080D01*
X040018Y025094D01*
X040068Y025103D01*
X040118Y025109D01*
X040168Y025111D01*
X040218Y025109D01*
X040268Y025103D01*
X040318Y025094D01*
X040366Y025080D01*
X040414Y025063D01*
X040460Y025043D01*
X040504Y025018D01*
X040546Y024991D01*
X040586Y024960D01*
X040623Y024927D01*
X040658Y024890D01*
X040690Y024851D01*
X040719Y024810D01*
X040719Y024811D02*
X040719Y024102D01*
X040690Y024061D01*
X040658Y024022D01*
X040623Y023985D01*
X040586Y023952D01*
X040546Y023921D01*
X040504Y023894D01*
X040460Y023869D01*
X040414Y023849D01*
X040366Y023832D01*
X040318Y023818D01*
X040268Y023809D01*
X040218Y023803D01*
X040168Y023801D01*
X040118Y023803D01*
X040068Y023809D01*
X040018Y023818D01*
X039970Y023832D01*
X039922Y023849D01*
X039876Y023869D01*
X039832Y023894D01*
X039790Y023921D01*
X039750Y023952D01*
X039713Y023985D01*
X039678Y024022D01*
X039646Y024061D01*
X039617Y024102D01*
X039656Y024850D02*
X039381Y024850D01*
X026436Y016866D02*
X026436Y015866D01*
X025436Y015866D01*
X025436Y016866D01*
X020436Y016866D01*
X020436Y015866D01*
X025436Y015866D01*
X025436Y016866D02*
X026436Y016866D01*
X022255Y022763D02*
X022257Y022790D01*
X022263Y022817D01*
X022272Y022843D01*
X022285Y022867D01*
X022301Y022890D01*
X022320Y022909D01*
X022342Y022926D01*
X022366Y022940D01*
X022391Y022950D01*
X022418Y022957D01*
X022445Y022960D01*
X022473Y022959D01*
X022500Y022954D01*
X022526Y022946D01*
X022550Y022934D01*
X022573Y022918D01*
X022594Y022900D01*
X022611Y022879D01*
X022626Y022855D01*
X022637Y022830D01*
X022645Y022804D01*
X022649Y022777D01*
X022649Y022749D01*
X022645Y022722D01*
X022637Y022696D01*
X022626Y022671D01*
X022611Y022647D01*
X022594Y022626D01*
X022573Y022608D01*
X022551Y022592D01*
X022526Y022580D01*
X022500Y022572D01*
X022473Y022567D01*
X022445Y022566D01*
X022418Y022569D01*
X022391Y022576D01*
X022366Y022586D01*
X022342Y022600D01*
X022320Y022617D01*
X022301Y022636D01*
X022285Y022659D01*
X022272Y022683D01*
X022263Y022709D01*
X022257Y022736D01*
X022255Y022763D01*
X014775Y024535D02*
X014775Y019811D01*
X010247Y019811D01*
X010247Y020204D01*
X009460Y020204D01*
X009460Y019811D01*
X002964Y019811D01*
X002964Y025716D01*
X003554Y025716D01*
X003554Y025322D01*
X004932Y025322D01*
X004932Y025519D01*
X008279Y025519D01*
X008279Y025126D01*
X009066Y025126D01*
X009066Y025716D01*
X014184Y025716D01*
X014184Y024535D01*
X014775Y024535D01*
X014594Y023976D02*
X012594Y023976D01*
X012594Y019976D01*
X013594Y019976D01*
X013594Y020976D01*
X014594Y020976D01*
X014594Y023976D01*
X014594Y020976D02*
X014594Y019976D01*
X013594Y019976D01*
X018633Y032015D02*
X018633Y034653D01*
X018605Y034655D01*
X018577Y034660D01*
X018550Y034670D01*
X018524Y034682D01*
X018501Y034698D01*
X018480Y034717D01*
X018461Y034738D01*
X018445Y034762D01*
X018433Y034787D01*
X018423Y034814D01*
X018418Y034842D01*
X018416Y034870D01*
X018418Y034898D01*
X018423Y034926D01*
X018433Y034953D01*
X018445Y034979D01*
X018461Y035002D01*
X018480Y035023D01*
X018501Y035042D01*
X018524Y035058D01*
X018550Y035070D01*
X018577Y035080D01*
X018605Y035085D01*
X018633Y035087D01*
X018633Y035086D02*
X018633Y035716D01*
X022334Y035716D01*
X022334Y032015D01*
X018633Y032015D01*
X018594Y032488D02*
X018318Y032488D01*
X018357Y033235D02*
X018328Y033276D01*
X018296Y033315D01*
X018261Y033352D01*
X018224Y033385D01*
X018184Y033416D01*
X018142Y033443D01*
X018098Y033468D01*
X018052Y033488D01*
X018004Y033505D01*
X017956Y033519D01*
X017906Y033528D01*
X017856Y033534D01*
X017806Y033536D01*
X017756Y033534D01*
X017706Y033528D01*
X017656Y033519D01*
X017608Y033505D01*
X017560Y033488D01*
X017514Y033468D01*
X017470Y033443D01*
X017428Y033416D01*
X017388Y033385D01*
X017351Y033352D01*
X017316Y033315D01*
X017284Y033276D01*
X017255Y033235D01*
X017255Y033236D02*
X017255Y032527D01*
X017284Y032486D01*
X017316Y032447D01*
X017351Y032410D01*
X017388Y032377D01*
X017428Y032346D01*
X017470Y032319D01*
X017514Y032294D01*
X017560Y032274D01*
X017608Y032257D01*
X017656Y032243D01*
X017706Y032234D01*
X017756Y032228D01*
X017806Y032226D01*
X017856Y032228D01*
X017906Y032234D01*
X017956Y032243D01*
X018004Y032257D01*
X018052Y032274D01*
X018098Y032294D01*
X018142Y032319D01*
X018184Y032346D01*
X018224Y032377D01*
X018261Y032410D01*
X018296Y032447D01*
X018328Y032486D01*
X018357Y032527D01*
X018318Y033275D02*
X018594Y033275D01*
X022373Y033275D02*
X022649Y033275D01*
X022609Y033235D02*
X022638Y033276D01*
X022670Y033315D01*
X022705Y033352D01*
X022742Y033385D01*
X022782Y033416D01*
X022824Y033443D01*
X022868Y033468D01*
X022914Y033488D01*
X022962Y033505D01*
X023010Y033519D01*
X023060Y033528D01*
X023110Y033534D01*
X023160Y033536D01*
X023210Y033534D01*
X023260Y033528D01*
X023310Y033519D01*
X023358Y033505D01*
X023406Y033488D01*
X023452Y033468D01*
X023496Y033443D01*
X023538Y033416D01*
X023578Y033385D01*
X023615Y033352D01*
X023650Y033315D01*
X023682Y033276D01*
X023711Y033235D01*
X023712Y033236D02*
X023712Y032527D01*
X023711Y032527D02*
X023682Y032486D01*
X023650Y032447D01*
X023615Y032410D01*
X023578Y032377D01*
X023538Y032346D01*
X023496Y032319D01*
X023452Y032294D01*
X023406Y032274D01*
X023358Y032257D01*
X023310Y032243D01*
X023260Y032234D01*
X023210Y032228D01*
X023160Y032226D01*
X023110Y032228D01*
X023060Y032234D01*
X023010Y032243D01*
X022962Y032257D01*
X022914Y032274D01*
X022868Y032294D01*
X022824Y032319D01*
X022782Y032346D01*
X022742Y032377D01*
X022705Y032410D01*
X022670Y032447D01*
X022638Y032486D01*
X022609Y032527D01*
X022649Y032488D02*
X022373Y032488D01*
D12*
X024394Y030366D02*
X024394Y030059D01*
X024164Y030289D01*
X024625Y030289D01*
X024625Y029906D02*
X024625Y029599D01*
X024625Y029752D02*
X024164Y029752D01*
X024318Y029599D01*
X024241Y029445D02*
X024164Y029369D01*
X024164Y029215D01*
X024241Y029138D01*
X024548Y029138D01*
X024625Y029215D01*
X024625Y029369D01*
X024548Y029445D01*
X027004Y029868D02*
X027080Y029791D01*
X027387Y029791D01*
X027464Y029868D01*
X027464Y030022D01*
X027387Y030098D01*
X027464Y030252D02*
X027464Y030559D01*
X027464Y030405D02*
X027004Y030405D01*
X027157Y030252D01*
X027080Y030098D02*
X027004Y030022D01*
X027004Y029868D01*
X027630Y030911D02*
X027630Y031371D01*
X027861Y031371D01*
X027937Y031294D01*
X027937Y031141D01*
X027861Y031064D01*
X027630Y031064D01*
X027784Y031064D02*
X027937Y030911D01*
X028091Y030911D02*
X028398Y031217D01*
X028398Y031294D01*
X028321Y031371D01*
X028168Y031371D01*
X028091Y031294D01*
X028091Y030911D02*
X028398Y030911D01*
X029194Y028152D02*
X029118Y028076D01*
X029118Y027769D01*
X029194Y027692D01*
X029348Y027692D01*
X029425Y027769D01*
X029578Y027692D02*
X029885Y027999D01*
X029885Y028076D01*
X029808Y028152D01*
X029655Y028152D01*
X029578Y028076D01*
X029425Y028076D02*
X029348Y028152D01*
X029194Y028152D01*
X029578Y027692D02*
X029885Y027692D01*
X030039Y027769D02*
X030115Y027692D01*
X030269Y027692D01*
X030345Y027769D01*
X030345Y028076D01*
X030039Y027769D01*
X030039Y028076D01*
X030115Y028152D01*
X030269Y028152D01*
X030345Y028076D01*
X031611Y028508D02*
X032072Y028815D01*
X031841Y028968D02*
X031841Y029275D01*
X031611Y029198D02*
X031841Y028968D01*
X031611Y028815D02*
X032072Y028508D01*
X032072Y029198D02*
X031611Y029198D01*
X032989Y027698D02*
X033450Y027698D01*
X033450Y027851D02*
X033450Y027544D01*
X033296Y027314D02*
X033296Y027084D01*
X033450Y027084D02*
X032989Y027084D01*
X032989Y027314D01*
X033066Y027391D01*
X033220Y027391D01*
X033296Y027314D01*
X033143Y027544D02*
X032989Y027698D01*
X032989Y026930D02*
X033450Y026930D01*
X033450Y026623D02*
X032989Y026623D01*
X033143Y026777D01*
X032989Y026930D01*
X032989Y026470D02*
X032989Y026317D01*
X032989Y026393D02*
X033373Y026393D01*
X033450Y026317D01*
X033450Y026240D01*
X033373Y026163D01*
X033339Y026056D02*
X033569Y026056D01*
X033646Y025979D01*
X033646Y025826D01*
X033569Y025749D01*
X033339Y025749D01*
X033339Y025596D02*
X033339Y026056D01*
X033493Y025749D02*
X033646Y025596D01*
X033799Y025672D02*
X033876Y025596D01*
X034030Y025596D01*
X034106Y025672D01*
X034106Y025826D01*
X034030Y025903D01*
X033953Y025903D01*
X033799Y025826D01*
X033799Y026056D01*
X034106Y026056D01*
X035523Y026470D02*
X035600Y026393D01*
X035753Y026393D01*
X035830Y026470D01*
X035983Y026393D02*
X036290Y026700D01*
X036290Y026776D01*
X036214Y026853D01*
X036060Y026853D01*
X035983Y026776D01*
X035830Y026776D02*
X035753Y026853D01*
X035600Y026853D01*
X035523Y026776D01*
X035523Y026470D01*
X035983Y026393D02*
X036290Y026393D01*
X036722Y027429D02*
X036645Y027506D01*
X036645Y027813D01*
X036722Y027889D01*
X036875Y027889D01*
X036952Y027813D01*
X036952Y027506D01*
X036875Y027429D01*
X036722Y027429D01*
X036798Y027583D02*
X036952Y027429D01*
X037105Y027429D02*
X037412Y027736D01*
X037412Y027813D01*
X037336Y027889D01*
X037182Y027889D01*
X037105Y027813D01*
X037105Y027429D02*
X037412Y027429D01*
X038023Y027506D02*
X038023Y027813D01*
X038100Y027889D01*
X038253Y027889D01*
X038330Y027813D01*
X038330Y027506D01*
X038253Y027429D01*
X038100Y027429D01*
X038023Y027506D01*
X038176Y027583D02*
X038330Y027429D01*
X038483Y027429D02*
X038790Y027429D01*
X038637Y027429D02*
X038637Y027889D01*
X038483Y027736D01*
X039338Y027772D02*
X039798Y027772D01*
X039798Y027925D02*
X039798Y027618D01*
X039798Y027465D02*
X039645Y027311D01*
X039645Y027388D02*
X039645Y027158D01*
X039798Y027158D02*
X039338Y027158D01*
X039338Y027388D01*
X039415Y027465D01*
X039568Y027465D01*
X039645Y027388D01*
X039491Y027618D02*
X039338Y027772D01*
X039415Y028079D02*
X039338Y028155D01*
X039338Y028309D01*
X039415Y028386D01*
X039722Y028079D01*
X039798Y028155D01*
X039798Y028309D01*
X039722Y028386D01*
X039415Y028386D01*
X039415Y028079D02*
X039722Y028079D01*
X040710Y028039D02*
X040940Y027809D01*
X040940Y028116D01*
X041170Y028039D02*
X040710Y028039D01*
X040786Y027655D02*
X041093Y027655D01*
X041170Y027579D01*
X041170Y027425D01*
X041093Y027348D01*
X040786Y027348D01*
X040710Y027425D01*
X040710Y027579D01*
X040786Y027655D01*
X041016Y027502D02*
X041170Y027655D01*
X041110Y029796D02*
X041110Y030026D01*
X041186Y030103D01*
X041340Y030103D01*
X041416Y030026D01*
X041416Y029796D01*
X041416Y029949D02*
X041570Y030103D01*
X041570Y030256D02*
X041263Y030563D01*
X041186Y030563D01*
X041110Y030486D01*
X041110Y030333D01*
X041186Y030256D01*
X041570Y030256D02*
X041570Y030563D01*
X041570Y030716D02*
X041570Y031023D01*
X041570Y030870D02*
X041110Y030870D01*
X041263Y030716D01*
X041110Y029796D02*
X041570Y029796D01*
X041133Y034041D02*
X040826Y034041D01*
X040749Y034118D01*
X040749Y034271D01*
X040826Y034348D01*
X041133Y034348D01*
X041209Y034271D01*
X041209Y034118D01*
X041133Y034041D01*
X041056Y034195D02*
X041209Y034348D01*
X041209Y034502D02*
X041133Y034502D01*
X040826Y034809D01*
X040749Y034809D01*
X040749Y034502D01*
X039798Y034429D02*
X039798Y034736D01*
X039798Y034583D02*
X039338Y034583D01*
X039491Y034429D01*
X039415Y034276D02*
X039568Y034276D01*
X039645Y034199D01*
X039645Y033969D01*
X039645Y034122D02*
X039798Y034276D01*
X039798Y033969D02*
X039338Y033969D01*
X039338Y034199D01*
X039415Y034276D01*
X039338Y034890D02*
X039338Y035197D01*
X039415Y035197D01*
X039722Y034890D01*
X039798Y034890D01*
X038790Y034582D02*
X038483Y034582D01*
X038483Y034352D01*
X038637Y034429D01*
X038714Y034429D01*
X038790Y034352D01*
X038790Y034199D01*
X038714Y034122D01*
X038560Y034122D01*
X038483Y034199D01*
X038330Y034199D02*
X038253Y034122D01*
X038100Y034122D01*
X038023Y034199D01*
X038023Y034506D01*
X038100Y034582D01*
X038253Y034582D01*
X038330Y034506D01*
X038330Y034199D01*
X038330Y034122D02*
X038176Y034275D01*
X037412Y034275D02*
X037336Y034352D01*
X037105Y034352D01*
X037105Y034199D01*
X037182Y034122D01*
X037336Y034122D01*
X037412Y034199D01*
X037412Y034275D01*
X037259Y034506D02*
X037105Y034352D01*
X036952Y034199D02*
X036875Y034122D01*
X036722Y034122D01*
X036645Y034199D01*
X036645Y034506D01*
X036722Y034582D01*
X036875Y034582D01*
X036952Y034506D01*
X036952Y034199D01*
X036952Y034122D02*
X036798Y034275D01*
X037259Y034506D02*
X037412Y034582D01*
X036645Y034976D02*
X036338Y034976D01*
X036645Y035282D01*
X036645Y035359D01*
X036568Y035436D01*
X036414Y035436D01*
X036338Y035359D01*
X036031Y035436D02*
X036031Y034976D01*
X036184Y034976D02*
X035877Y034976D01*
X035724Y035052D02*
X035647Y034976D01*
X035494Y034976D01*
X035417Y035052D01*
X035417Y035359D01*
X035494Y035436D01*
X035647Y035436D01*
X035724Y035359D01*
X035877Y035282D02*
X036031Y035436D01*
X033253Y034741D02*
X033253Y034434D01*
X032946Y034741D01*
X032869Y034741D01*
X032793Y034664D01*
X032793Y034511D01*
X032869Y034434D01*
X032869Y034281D02*
X033023Y034281D01*
X033100Y034204D01*
X033100Y033974D01*
X033253Y033974D02*
X032793Y033974D01*
X032793Y034204D01*
X032869Y034281D01*
X032793Y033820D02*
X033253Y033820D01*
X033253Y033513D02*
X032793Y033513D01*
X032946Y033667D01*
X032793Y033820D01*
X032793Y033360D02*
X032793Y033206D01*
X032793Y033283D02*
X033176Y033283D01*
X033253Y033206D01*
X033253Y033130D01*
X033176Y033053D01*
X033362Y032749D02*
X033362Y032289D01*
X033209Y032289D02*
X033516Y032289D01*
X033669Y032365D02*
X033746Y032289D01*
X033900Y032289D01*
X033976Y032365D01*
X033976Y032442D01*
X033900Y032519D01*
X033669Y032519D01*
X033669Y032365D01*
X033669Y032519D02*
X033823Y032672D01*
X033976Y032749D01*
X033362Y032749D02*
X033209Y032595D01*
X033055Y032519D02*
X032979Y032442D01*
X032749Y032442D01*
X032902Y032442D02*
X033055Y032289D01*
X033055Y032519D02*
X033055Y032672D01*
X032979Y032749D01*
X032749Y032749D01*
X032749Y032289D01*
X030086Y024725D02*
X030086Y024264D01*
X030239Y024264D02*
X029932Y024264D01*
X029779Y024264D02*
X029472Y024264D01*
X029779Y024571D01*
X029779Y024648D01*
X029702Y024725D01*
X029549Y024725D01*
X029472Y024648D01*
X029318Y024648D02*
X029242Y024725D01*
X029088Y024725D01*
X029012Y024648D01*
X029012Y024341D01*
X029088Y024264D01*
X029242Y024264D01*
X029318Y024341D01*
X029932Y024571D02*
X030086Y024725D01*
X030029Y023200D02*
X029799Y023200D01*
X029799Y022740D01*
X029799Y022893D02*
X030029Y022893D01*
X030106Y022970D01*
X030106Y023123D01*
X030029Y023200D01*
X030259Y023123D02*
X030336Y023200D01*
X030490Y023200D01*
X030566Y023123D01*
X030566Y023047D01*
X030259Y022740D01*
X030566Y022740D01*
X030720Y022816D02*
X030796Y022740D01*
X030950Y022740D01*
X031027Y022816D01*
X031027Y022893D01*
X030950Y022970D01*
X030873Y022970D01*
X030950Y022970D02*
X031027Y023047D01*
X031027Y023123D01*
X030950Y023200D01*
X030796Y023200D01*
X030720Y023123D01*
X030106Y022740D02*
X029952Y022893D01*
X030029Y022295D02*
X029799Y022295D01*
X029799Y021834D01*
X029799Y021988D02*
X030029Y021988D01*
X030106Y022064D01*
X030106Y022218D01*
X030029Y022295D01*
X030259Y022218D02*
X030336Y022295D01*
X030490Y022295D01*
X030566Y022218D01*
X030566Y022141D01*
X030259Y021834D01*
X030566Y021834D01*
X030720Y021834D02*
X031027Y022141D01*
X031027Y022218D01*
X030950Y022295D01*
X030796Y022295D01*
X030720Y022218D01*
X030720Y021834D02*
X031027Y021834D01*
X030542Y021460D02*
X030389Y021383D01*
X030235Y021229D01*
X030466Y021229D01*
X030542Y021153D01*
X030542Y021076D01*
X030466Y020999D01*
X030312Y020999D01*
X030235Y021076D01*
X030235Y021229D01*
X030082Y021306D02*
X030082Y021383D01*
X030005Y021460D01*
X029852Y021460D01*
X029775Y021383D01*
X029622Y021383D02*
X029545Y021460D01*
X029391Y021460D01*
X029315Y021383D01*
X029315Y021076D01*
X029391Y020999D01*
X029545Y020999D01*
X029622Y021076D01*
X029775Y020999D02*
X030082Y021306D01*
X030082Y020999D02*
X029775Y020999D01*
X030106Y021834D02*
X029952Y021988D01*
X031611Y022122D02*
X032072Y021815D01*
X032072Y022122D02*
X031611Y021815D01*
X031688Y022275D02*
X031611Y022352D01*
X031611Y022505D01*
X031688Y022582D01*
X031765Y022582D01*
X032072Y022275D01*
X032072Y022582D01*
X030542Y020160D02*
X030235Y020160D01*
X030082Y020084D02*
X030005Y020160D01*
X029852Y020160D01*
X029775Y020084D01*
X029622Y020084D02*
X029545Y020160D01*
X029391Y020160D01*
X029315Y020084D01*
X029315Y019777D01*
X029391Y019700D01*
X029545Y019700D01*
X029622Y019777D01*
X029775Y019700D02*
X030082Y020007D01*
X030082Y020084D01*
X030235Y019777D02*
X030235Y019700D01*
X030235Y019777D02*
X030542Y020084D01*
X030542Y020160D01*
X030082Y019700D02*
X029775Y019700D01*
X029852Y019294D02*
X029775Y019217D01*
X029852Y019294D02*
X030005Y019294D01*
X030082Y019217D01*
X030082Y019141D01*
X029775Y018834D01*
X030082Y018834D01*
X030235Y018911D02*
X030235Y018987D01*
X030312Y019064D01*
X030466Y019064D01*
X030542Y018987D01*
X030542Y018911D01*
X030466Y018834D01*
X030312Y018834D01*
X030235Y018911D01*
X030312Y019064D02*
X030235Y019141D01*
X030235Y019217D01*
X030312Y019294D01*
X030466Y019294D01*
X030542Y019217D01*
X030542Y019141D01*
X030466Y019064D01*
X030956Y018745D02*
X030956Y018438D01*
X031033Y018361D01*
X031186Y018361D01*
X031263Y018438D01*
X031416Y018438D02*
X031493Y018361D01*
X031647Y018361D01*
X031723Y018438D01*
X031723Y018515D01*
X031647Y018592D01*
X031416Y018592D01*
X031416Y018438D01*
X031416Y018592D02*
X031570Y018745D01*
X031723Y018822D01*
X031263Y018745D02*
X031186Y018822D01*
X031033Y018822D01*
X030956Y018745D01*
X029971Y018698D02*
X029971Y018545D01*
X029894Y018468D01*
X029741Y018468D02*
X029664Y018621D01*
X029664Y018698D01*
X029741Y018775D01*
X029894Y018775D01*
X029971Y018698D01*
X029741Y018468D02*
X029511Y018468D01*
X029511Y018775D01*
X029545Y018834D02*
X029622Y018911D01*
X029545Y018834D02*
X029391Y018834D01*
X029315Y018911D01*
X029315Y019217D01*
X029391Y019294D01*
X029545Y019294D01*
X029622Y019217D01*
X029588Y018314D02*
X029741Y018314D01*
X029818Y018238D01*
X029818Y018008D01*
X029971Y018008D02*
X029511Y018008D01*
X029511Y018238D01*
X029588Y018314D01*
X029511Y017854D02*
X029511Y017547D01*
X029511Y017701D02*
X029971Y017701D01*
X028711Y017679D02*
X028635Y017602D01*
X028481Y017602D01*
X028481Y017832D01*
X028558Y017909D01*
X028635Y017909D01*
X028711Y017832D01*
X028711Y017679D01*
X028481Y017602D02*
X028328Y017755D01*
X028251Y017909D01*
X028328Y017448D02*
X028481Y017448D01*
X028558Y017372D01*
X028558Y017141D01*
X028711Y017141D02*
X028251Y017141D01*
X028251Y017372D01*
X028328Y017448D01*
X028251Y016988D02*
X028251Y016681D01*
X028251Y016834D02*
X028711Y016834D01*
X029076Y016413D02*
X028999Y016336D01*
X028999Y016182D01*
X029076Y016106D01*
X029076Y015952D02*
X029229Y015952D01*
X029306Y015876D01*
X029306Y015645D01*
X029459Y015645D02*
X028999Y015645D01*
X028999Y015876D01*
X029076Y015952D01*
X029459Y016106D02*
X029152Y016413D01*
X029076Y016413D01*
X029459Y016413D02*
X029459Y016106D01*
X028999Y015492D02*
X028999Y015185D01*
X028999Y015338D02*
X029459Y015338D01*
X028184Y015514D02*
X027724Y015514D01*
X027954Y015283D01*
X027954Y015590D01*
X028184Y015130D02*
X028184Y014823D01*
X028184Y014976D02*
X027724Y014976D01*
X027877Y014823D01*
X027800Y014669D02*
X027954Y014669D01*
X028031Y014593D01*
X028031Y014363D01*
X028031Y014516D02*
X028184Y014669D01*
X028184Y014363D02*
X027724Y014363D01*
X027724Y014593D01*
X027800Y014669D01*
X028618Y013921D02*
X028618Y013614D01*
X028695Y013538D01*
X028848Y013538D01*
X028925Y013614D01*
X029078Y013614D02*
X029155Y013538D01*
X029308Y013538D01*
X029385Y013614D01*
X029385Y013768D01*
X029308Y013845D01*
X029232Y013845D01*
X029078Y013768D01*
X029078Y013998D01*
X029385Y013998D01*
X028925Y013921D02*
X028848Y013998D01*
X028695Y013998D01*
X028618Y013921D01*
X028030Y013738D02*
X028030Y013661D01*
X027953Y013584D01*
X028030Y013508D01*
X028030Y013431D01*
X027953Y013354D01*
X027800Y013354D01*
X027723Y013431D01*
X027570Y013584D02*
X027493Y013508D01*
X027263Y013508D01*
X027263Y013354D02*
X027263Y013815D01*
X027493Y013815D01*
X027570Y013738D01*
X027570Y013584D01*
X027723Y013738D02*
X027800Y013815D01*
X027953Y013815D01*
X028030Y013738D01*
X027953Y013584D02*
X027877Y013584D01*
X027109Y013815D02*
X026802Y013815D01*
X026956Y013815D02*
X026956Y013354D01*
X025644Y012667D02*
X025644Y012514D01*
X025567Y012437D01*
X025260Y012744D01*
X025567Y012744D01*
X025644Y012667D01*
X025567Y012437D02*
X025260Y012437D01*
X025184Y012514D01*
X025184Y012667D01*
X025260Y012744D01*
X025260Y012283D02*
X025184Y012207D01*
X025184Y012053D01*
X025260Y011976D01*
X025260Y011823D02*
X025414Y011823D01*
X025491Y011746D01*
X025491Y011516D01*
X025644Y011516D02*
X025184Y011516D01*
X025184Y011746D01*
X025260Y011823D01*
X025491Y011669D02*
X025644Y011823D01*
X025644Y011976D02*
X025337Y012283D01*
X025260Y012283D01*
X025644Y012283D02*
X025644Y011976D01*
X025567Y011169D02*
X025491Y011169D01*
X025414Y011092D01*
X025414Y010939D01*
X025337Y010862D01*
X025260Y010862D01*
X025184Y010939D01*
X025184Y011092D01*
X025260Y011169D01*
X025337Y011169D01*
X025414Y011092D01*
X025414Y010939D02*
X025491Y010862D01*
X025567Y010862D01*
X025644Y010939D01*
X025644Y011092D01*
X025567Y011169D01*
X025644Y010709D02*
X025644Y010402D01*
X025644Y010555D02*
X025184Y010555D01*
X025337Y010402D01*
X025260Y010248D02*
X025414Y010248D01*
X025491Y010171D01*
X025491Y009941D01*
X025644Y009941D02*
X025184Y009941D01*
X025184Y010171D01*
X025260Y010248D01*
X025491Y010095D02*
X025644Y010248D01*
X025645Y008925D02*
X025492Y008848D01*
X025338Y008695D01*
X025568Y008695D01*
X025645Y008618D01*
X025645Y008541D01*
X025568Y008464D01*
X025415Y008464D01*
X025338Y008541D01*
X025338Y008695D01*
X025185Y008464D02*
X024878Y008464D01*
X025031Y008464D02*
X025031Y008925D01*
X024878Y008771D01*
X024724Y008848D02*
X024648Y008925D01*
X024494Y008925D01*
X024417Y008848D01*
X024417Y008541D01*
X024494Y008464D01*
X024648Y008464D01*
X024724Y008541D01*
X027089Y006751D02*
X027243Y006598D01*
X027166Y006444D02*
X027320Y006444D01*
X027396Y006368D01*
X027396Y006137D01*
X027550Y006137D02*
X027089Y006137D01*
X027089Y006368D01*
X027166Y006444D01*
X027089Y006751D02*
X027550Y006751D01*
X027550Y006598D02*
X027550Y006905D01*
X027089Y005984D02*
X027089Y005677D01*
X027089Y005831D02*
X027550Y005831D01*
X028558Y005718D02*
X028558Y005488D01*
X029018Y005488D01*
X029018Y005718D01*
X028942Y005795D01*
X028635Y005795D01*
X028558Y005718D01*
X028711Y005948D02*
X028558Y006101D01*
X029018Y006101D01*
X029018Y005948D02*
X029018Y006255D01*
X029018Y005334D02*
X029018Y005027D01*
X028558Y005027D01*
X028558Y005334D01*
X028788Y005181D02*
X028788Y005027D01*
X029018Y004874D02*
X029018Y004567D01*
X028558Y004567D01*
X031921Y005340D02*
X031997Y005264D01*
X032151Y005264D01*
X032228Y005340D01*
X032228Y005494D01*
X032151Y005571D01*
X032074Y005571D01*
X031921Y005494D01*
X031921Y005724D01*
X032228Y005724D01*
X032381Y005724D02*
X032381Y005417D01*
X032534Y005264D01*
X032688Y005417D01*
X032688Y005724D01*
X032615Y005945D02*
X032615Y006405D01*
X032461Y006252D01*
X032308Y006405D01*
X032308Y005945D01*
X032154Y005945D02*
X031847Y005945D01*
X031847Y006405D01*
X032768Y006328D02*
X032845Y006405D01*
X032998Y006405D01*
X033075Y006328D01*
X033075Y006252D01*
X032768Y005945D01*
X033075Y005945D01*
X033229Y006022D02*
X033305Y005945D01*
X033459Y005945D01*
X033536Y006022D01*
X033536Y006175D01*
X033459Y006252D01*
X033382Y006252D01*
X033229Y006175D01*
X033229Y006405D01*
X033536Y006405D01*
X033689Y006328D02*
X033766Y006405D01*
X033919Y006405D01*
X033996Y006328D01*
X033689Y006022D01*
X033766Y005945D01*
X033919Y005945D01*
X033996Y006022D01*
X033996Y006328D01*
X034149Y006328D02*
X034149Y006252D01*
X034226Y006175D01*
X034380Y006175D01*
X034456Y006098D01*
X034456Y006022D01*
X034380Y005945D01*
X034226Y005945D01*
X034149Y006022D01*
X034149Y006098D01*
X034226Y006175D01*
X034380Y006175D02*
X034456Y006252D01*
X034456Y006328D01*
X034380Y006405D01*
X034226Y006405D01*
X034149Y006328D01*
X033689Y006328D02*
X033689Y006022D01*
X033532Y005724D02*
X033609Y005647D01*
X033609Y005494D01*
X033532Y005417D01*
X033532Y005571D01*
X033378Y005571D01*
X033378Y005417D01*
X033532Y005417D01*
X033609Y005340D02*
X033532Y005264D01*
X033378Y005264D01*
X033302Y005340D01*
X033302Y005647D01*
X033378Y005724D01*
X033532Y005724D01*
X034223Y005494D02*
X034453Y005494D01*
X034529Y005417D01*
X034529Y005340D01*
X034453Y005264D01*
X034299Y005264D01*
X034223Y005340D01*
X034223Y005494D01*
X034376Y005647D01*
X034529Y005724D01*
X034683Y005571D02*
X034836Y005724D01*
X034990Y005571D01*
X034990Y005264D01*
X034990Y005494D02*
X034683Y005494D01*
X034683Y005571D02*
X034683Y005264D01*
X034687Y005945D02*
X034610Y006022D01*
X034687Y005945D02*
X034840Y005945D01*
X034917Y006022D01*
X034917Y006175D01*
X034840Y006252D01*
X034763Y006252D01*
X034610Y006175D01*
X034610Y006405D01*
X034917Y006405D01*
X035948Y006468D02*
X036101Y006315D01*
X035948Y006468D02*
X036408Y006468D01*
X036408Y006315D02*
X036408Y006622D01*
X036408Y006161D02*
X036408Y005854D01*
X035948Y005854D01*
X032960Y009520D02*
X032653Y009520D01*
X032806Y009520D02*
X032806Y009980D01*
X032653Y009827D01*
X032499Y009903D02*
X032422Y009980D01*
X032192Y009980D01*
X032192Y009520D01*
X032422Y009520D01*
X032499Y009596D01*
X032499Y009903D01*
X032463Y010998D02*
X032156Y010998D01*
X032080Y011075D01*
X032080Y011229D01*
X032156Y011305D01*
X032156Y011459D02*
X032233Y011459D01*
X032310Y011536D01*
X032310Y011766D01*
X032463Y011766D02*
X032156Y011766D01*
X032080Y011689D01*
X032080Y011536D01*
X032156Y011459D01*
X032463Y011459D02*
X032540Y011536D01*
X032540Y011689D01*
X032463Y011766D01*
X032463Y011305D02*
X032540Y011229D01*
X032540Y011075D01*
X032463Y010998D01*
X033730Y012296D02*
X033806Y012219D01*
X033960Y012219D01*
X034037Y012296D01*
X034037Y012603D01*
X033960Y012680D01*
X033806Y012680D01*
X033730Y012603D01*
X033730Y012296D01*
X033883Y012373D02*
X034037Y012219D01*
X034190Y012296D02*
X034267Y012219D01*
X034420Y012219D01*
X034497Y012296D01*
X034497Y012373D01*
X034420Y012449D01*
X034344Y012449D01*
X034420Y012449D02*
X034497Y012526D01*
X034497Y012603D01*
X034420Y012680D01*
X034267Y012680D01*
X034190Y012603D01*
X035980Y012176D02*
X035980Y011716D01*
X035980Y011870D02*
X036210Y011870D01*
X036287Y011946D01*
X036287Y012100D01*
X036210Y012176D01*
X035980Y012176D01*
X036134Y011870D02*
X036287Y011716D01*
X036440Y011793D02*
X036517Y011716D01*
X036671Y011716D01*
X036747Y011793D01*
X036747Y011870D01*
X036671Y011946D01*
X036440Y011946D01*
X036440Y011793D01*
X036440Y011946D02*
X036594Y012100D01*
X036747Y012176D01*
X038303Y012806D02*
X038380Y012729D01*
X038533Y012729D01*
X038610Y012806D01*
X038763Y012806D02*
X038840Y012729D01*
X038993Y012729D01*
X039070Y012806D01*
X039070Y012883D01*
X038993Y012959D01*
X038917Y012959D01*
X038993Y012959D02*
X039070Y013036D01*
X039070Y013113D01*
X038993Y013189D01*
X038840Y013189D01*
X038763Y013113D01*
X038610Y013113D02*
X038533Y013189D01*
X038380Y013189D01*
X038303Y013113D01*
X038303Y012806D01*
X038510Y013735D02*
X038510Y014195D01*
X038741Y014195D01*
X038817Y014118D01*
X038817Y013965D01*
X038741Y013888D01*
X038510Y013888D01*
X038664Y013888D02*
X038817Y013735D01*
X038971Y013735D02*
X039278Y013735D01*
X039431Y013735D02*
X039738Y013735D01*
X039585Y013735D02*
X039585Y014195D01*
X039431Y014041D01*
X039124Y014195D02*
X039124Y013735D01*
X038971Y014041D02*
X039124Y014195D01*
X040073Y012245D02*
X039996Y012168D01*
X039996Y011861D01*
X040073Y011784D01*
X040226Y011784D01*
X040303Y011861D01*
X040456Y012014D02*
X040763Y012014D01*
X040686Y011784D02*
X040686Y012245D01*
X040456Y012014D01*
X040303Y012168D02*
X040226Y012245D01*
X040073Y012245D01*
X041263Y015697D02*
X041493Y015697D01*
X041416Y015850D01*
X041416Y015927D01*
X041493Y016004D01*
X041646Y016004D01*
X041723Y015927D01*
X041723Y015774D01*
X041646Y015697D01*
X041263Y015697D02*
X041263Y016004D01*
X041263Y016157D02*
X041570Y016157D01*
X041723Y016311D01*
X041570Y016464D01*
X041263Y016464D01*
X041339Y017078D02*
X041646Y017078D01*
X041723Y017155D01*
X041723Y017308D01*
X041646Y017385D01*
X041339Y017385D01*
X041263Y017308D01*
X041263Y017155D01*
X041339Y017078D01*
X041263Y017538D02*
X041646Y017538D01*
X041723Y017615D01*
X041723Y017769D01*
X041646Y017845D01*
X041263Y017845D01*
X041263Y017999D02*
X041263Y018306D01*
X041263Y018152D02*
X041723Y018152D01*
X039538Y019964D02*
X039461Y019887D01*
X039308Y019887D01*
X039231Y019964D01*
X039231Y020117D02*
X039385Y020194D01*
X039461Y020194D01*
X039538Y020117D01*
X039538Y019964D01*
X039231Y020117D02*
X039231Y020347D01*
X039538Y020347D01*
X039078Y020271D02*
X039078Y020194D01*
X038771Y019887D01*
X039078Y019887D01*
X039078Y020271D02*
X039001Y020347D01*
X038847Y020347D01*
X038771Y020271D01*
X038617Y020271D02*
X038541Y020347D01*
X038387Y020347D01*
X038310Y020271D01*
X038310Y019964D01*
X038387Y019887D01*
X038541Y019887D01*
X038617Y019964D01*
X037700Y019458D02*
X037700Y019382D01*
X037623Y019305D01*
X037700Y019228D01*
X037700Y019151D01*
X037623Y019075D01*
X037470Y019075D01*
X037393Y019151D01*
X037239Y019075D02*
X036932Y019535D01*
X037239Y019535D02*
X036932Y019075D01*
X037393Y019458D02*
X037470Y019535D01*
X037623Y019535D01*
X037700Y019458D01*
X037623Y019305D02*
X037546Y019305D01*
X034749Y018402D02*
X034749Y018095D01*
X034749Y017942D02*
X034596Y017789D01*
X034596Y017865D02*
X034596Y017635D01*
X034749Y017635D02*
X034289Y017635D01*
X034289Y017865D01*
X034365Y017942D01*
X034519Y017942D01*
X034596Y017865D01*
X034442Y018095D02*
X034289Y018249D01*
X034749Y018249D01*
X033368Y016832D02*
X033215Y016832D01*
X033138Y016755D01*
X033292Y016602D02*
X033368Y016602D01*
X033445Y016525D01*
X033445Y016448D01*
X033368Y016372D01*
X033215Y016372D01*
X033138Y016448D01*
X032985Y016372D02*
X032678Y016372D01*
X032831Y016372D02*
X032831Y016832D01*
X032678Y016679D01*
X032524Y016755D02*
X032524Y016602D01*
X032448Y016525D01*
X032217Y016525D01*
X032217Y016372D02*
X032217Y016832D01*
X032448Y016832D01*
X032524Y016755D01*
X032371Y016525D02*
X032524Y016372D01*
X032071Y016104D02*
X032071Y015951D01*
X031994Y015874D01*
X031687Y016181D01*
X031994Y016181D01*
X032071Y016104D01*
X031994Y015874D02*
X031687Y015874D01*
X031611Y015951D01*
X031611Y016104D01*
X031687Y016181D01*
X031249Y015969D02*
X031249Y015815D01*
X031172Y015738D01*
X031172Y015585D02*
X030788Y015585D01*
X030865Y015738D02*
X030788Y015815D01*
X030788Y015969D01*
X030865Y016045D01*
X030942Y016045D01*
X031019Y015969D01*
X031095Y016045D01*
X031172Y016045D01*
X031249Y015969D01*
X031019Y015969D02*
X031019Y015892D01*
X031172Y015585D02*
X031249Y015508D01*
X031249Y015355D01*
X031172Y015278D01*
X030788Y015278D01*
X031611Y015183D02*
X031611Y015030D01*
X031687Y014953D01*
X031994Y014953D01*
X032071Y015030D01*
X032071Y015183D01*
X031994Y015260D01*
X032071Y015413D02*
X032071Y015720D01*
X032071Y015567D02*
X031611Y015567D01*
X031764Y015413D01*
X031687Y015260D02*
X031611Y015183D01*
X031601Y014048D02*
X031371Y014048D01*
X031371Y013588D01*
X031371Y013741D02*
X031601Y013741D01*
X031678Y013818D01*
X031678Y013971D01*
X031601Y014048D01*
X031831Y013971D02*
X031831Y013895D01*
X031908Y013818D01*
X032138Y013818D01*
X032138Y013971D02*
X032138Y013664D01*
X032061Y013588D01*
X031908Y013588D01*
X031831Y013664D01*
X031678Y013588D02*
X031524Y013741D01*
X031219Y013821D02*
X030912Y013821D01*
X031142Y014051D01*
X031142Y013590D01*
X030759Y013821D02*
X030759Y013974D01*
X030682Y014051D01*
X030452Y014051D01*
X030452Y013590D01*
X030452Y013744D02*
X030682Y013744D01*
X030759Y013821D01*
X030298Y014051D02*
X029991Y014051D01*
X030145Y014051D02*
X030145Y013590D01*
X031831Y013971D02*
X031908Y014048D01*
X032061Y014048D01*
X032138Y013971D01*
X034376Y014325D02*
X034376Y014786D01*
X034607Y014786D01*
X034683Y014709D01*
X034683Y014555D01*
X034607Y014479D01*
X034376Y014479D01*
X034530Y014479D02*
X034683Y014325D01*
X034837Y014325D02*
X035144Y014325D01*
X034990Y014325D02*
X034990Y014786D01*
X034837Y014632D01*
X035297Y014555D02*
X035451Y014632D01*
X035527Y014632D01*
X035604Y014555D01*
X035604Y014402D01*
X035527Y014325D01*
X035374Y014325D01*
X035297Y014402D01*
X035297Y014555D02*
X035297Y014786D01*
X035604Y014786D01*
X033445Y016679D02*
X033368Y016602D01*
X033445Y016679D02*
X033445Y016755D01*
X033368Y016832D01*
X032504Y017562D02*
X032044Y017562D01*
X032044Y017792D01*
X032121Y017869D01*
X032274Y017869D01*
X032351Y017792D01*
X032351Y017562D01*
X032351Y017716D02*
X032504Y017869D01*
X032427Y018023D02*
X032504Y018099D01*
X032504Y018253D01*
X032427Y018329D01*
X032351Y018329D01*
X032274Y018253D01*
X032274Y018176D01*
X032274Y018253D02*
X032197Y018329D01*
X032121Y018329D01*
X032044Y018253D01*
X032044Y018099D01*
X032121Y018023D01*
X030495Y011766D02*
X030572Y011689D01*
X030572Y011536D01*
X030495Y011459D01*
X030418Y011459D01*
X030341Y011536D01*
X030341Y011689D01*
X030418Y011766D01*
X030495Y011766D01*
X030341Y011689D02*
X030265Y011766D01*
X030188Y011766D01*
X030111Y011689D01*
X030111Y011536D01*
X030188Y011459D01*
X030265Y011459D01*
X030341Y011536D01*
X030188Y011305D02*
X030111Y011229D01*
X030111Y011075D01*
X030188Y010998D01*
X030495Y010998D01*
X030572Y011075D01*
X030572Y011229D01*
X030495Y011305D01*
X028603Y011229D02*
X028526Y011305D01*
X028603Y011229D02*
X028603Y011075D01*
X028526Y010998D01*
X028219Y010998D01*
X028143Y011075D01*
X028143Y011229D01*
X028219Y011305D01*
X028143Y011459D02*
X028143Y011766D01*
X028219Y011766D01*
X028526Y011459D01*
X028603Y011459D01*
X028511Y009681D02*
X028818Y009681D01*
X028818Y009604D01*
X028511Y009297D01*
X028511Y009220D01*
X028357Y009451D02*
X028280Y009374D01*
X028050Y009374D01*
X028050Y009220D02*
X028050Y009681D01*
X028280Y009681D01*
X028357Y009604D01*
X028357Y009451D01*
X027897Y009681D02*
X027590Y009681D01*
X027743Y009681D02*
X027743Y009220D01*
X027989Y008757D02*
X028066Y008757D01*
X028373Y008450D01*
X028450Y008450D01*
X028450Y008296D02*
X028296Y008143D01*
X028296Y008220D02*
X028296Y007989D01*
X028450Y007989D02*
X027989Y007989D01*
X027989Y008220D01*
X028066Y008296D01*
X028220Y008296D01*
X028296Y008220D01*
X027989Y008450D02*
X027989Y008757D01*
X029195Y008910D02*
X029656Y008910D01*
X029656Y008757D02*
X029656Y009064D01*
X029656Y009217D02*
X029656Y009524D01*
X029656Y009371D02*
X029195Y009371D01*
X029349Y009217D01*
X029195Y008910D02*
X029349Y008757D01*
X029272Y008603D02*
X029195Y008527D01*
X029195Y008373D01*
X029272Y008296D01*
X029579Y008296D01*
X029656Y008373D01*
X029656Y008527D01*
X029579Y008603D01*
X025133Y006287D02*
X025133Y006210D01*
X024826Y005903D01*
X024826Y005827D01*
X024673Y005827D02*
X024366Y005827D01*
X024519Y005827D02*
X024519Y006287D01*
X024366Y006134D01*
X024212Y006210D02*
X024136Y006287D01*
X023982Y006287D01*
X023906Y006210D01*
X023906Y005903D01*
X023982Y005827D01*
X024136Y005827D01*
X024212Y005903D01*
X024826Y006287D02*
X025133Y006287D01*
X021199Y009648D02*
X021199Y009802D01*
X021123Y009878D01*
X021199Y010032D02*
X021199Y010339D01*
X021199Y010185D02*
X020739Y010185D01*
X020893Y010032D01*
X020816Y009878D02*
X020739Y009802D01*
X020739Y009648D01*
X020816Y009571D01*
X021123Y009571D01*
X021199Y009648D01*
X020697Y009077D02*
X020467Y008847D01*
X020774Y008847D01*
X020697Y009077D02*
X020697Y008616D01*
X020313Y008616D02*
X020160Y008770D01*
X020237Y008770D02*
X020006Y008770D01*
X020006Y008616D02*
X020006Y009077D01*
X020237Y009077D01*
X020313Y009000D01*
X020313Y008847D01*
X020237Y008770D01*
X019160Y008770D02*
X019160Y008693D01*
X019083Y008616D01*
X018929Y008616D01*
X018853Y008693D01*
X018853Y008770D01*
X018929Y008847D01*
X019083Y008847D01*
X019160Y008770D01*
X019083Y008847D02*
X019160Y008923D01*
X019160Y009000D01*
X019083Y009077D01*
X018929Y009077D01*
X018853Y009000D01*
X018853Y008923D01*
X018929Y008847D01*
X018699Y008847D02*
X018622Y008770D01*
X018392Y008770D01*
X018392Y008616D02*
X018392Y009077D01*
X018622Y009077D01*
X018699Y009000D01*
X018699Y008847D01*
X018546Y008770D02*
X018699Y008616D01*
X018889Y007602D02*
X018889Y007142D01*
X019196Y007142D01*
X019349Y007142D02*
X019579Y007142D01*
X019656Y007218D01*
X019656Y007525D01*
X019579Y007602D01*
X019349Y007602D01*
X019349Y007142D01*
X019042Y007372D02*
X018889Y007372D01*
X018889Y007602D02*
X019196Y007602D01*
X019810Y007525D02*
X019886Y007602D01*
X020040Y007602D01*
X020117Y007525D01*
X020117Y007449D01*
X020040Y007372D01*
X020117Y007295D01*
X020117Y007218D01*
X020040Y007142D01*
X019886Y007142D01*
X019810Y007218D01*
X019963Y007372D02*
X020040Y007372D01*
X019298Y006398D02*
X019298Y006091D01*
X018991Y006398D01*
X018914Y006398D01*
X018838Y006321D01*
X018838Y006167D01*
X018914Y006091D01*
X018914Y005937D02*
X018838Y005861D01*
X018838Y005630D01*
X019298Y005630D01*
X019298Y005861D01*
X019221Y005937D01*
X018914Y005937D01*
X018838Y005477D02*
X018838Y005170D01*
X019298Y005170D01*
X019298Y005477D01*
X019068Y005323D02*
X019068Y005170D01*
X019298Y005016D02*
X019298Y004710D01*
X018838Y004710D01*
X020115Y004773D02*
X020115Y005003D01*
X020192Y005080D01*
X020346Y005080D01*
X020422Y005003D01*
X020422Y004773D01*
X020422Y004927D02*
X020576Y005080D01*
X020576Y005233D02*
X020576Y005540D01*
X020576Y005387D02*
X020115Y005387D01*
X020269Y005233D01*
X020115Y004773D02*
X020576Y004773D01*
X020499Y005694D02*
X020576Y005771D01*
X020576Y005924D01*
X020499Y006001D01*
X020192Y006001D01*
X020115Y005924D01*
X020115Y005771D01*
X020192Y005694D01*
X020269Y005694D01*
X020346Y005771D01*
X020346Y006001D01*
X018735Y007142D02*
X018428Y007142D01*
X018428Y007602D01*
X017253Y006398D02*
X017329Y006321D01*
X017329Y006167D01*
X017253Y006091D01*
X017253Y005937D02*
X016946Y005937D01*
X016869Y005861D01*
X016869Y005630D01*
X017329Y005630D01*
X017329Y005861D01*
X017253Y005937D01*
X017099Y006091D02*
X017022Y006244D01*
X017022Y006321D01*
X017099Y006398D01*
X017253Y006398D01*
X017099Y006091D02*
X016869Y006091D01*
X016869Y006398D01*
X016869Y005477D02*
X016869Y005170D01*
X017329Y005170D01*
X017329Y005477D01*
X017099Y005323D02*
X017099Y005170D01*
X017329Y005016D02*
X017329Y004710D01*
X016869Y004710D01*
X015211Y006201D02*
X014751Y006201D01*
X014751Y006431D01*
X014827Y006508D01*
X014981Y006508D01*
X015057Y006431D01*
X015057Y006201D01*
X015057Y006354D02*
X015211Y006508D01*
X015134Y006661D02*
X015211Y006738D01*
X015211Y006892D01*
X015134Y006968D01*
X015057Y006968D01*
X014981Y006892D01*
X014981Y006815D01*
X014981Y006892D02*
X014904Y006968D01*
X014827Y006968D01*
X014751Y006892D01*
X014751Y006738D01*
X014827Y006661D01*
X014827Y007122D02*
X014751Y007199D01*
X014751Y007352D01*
X014827Y007429D01*
X014904Y007429D01*
X014981Y007352D01*
X015057Y007429D01*
X015134Y007429D01*
X015211Y007352D01*
X015211Y007199D01*
X015134Y007122D01*
X014981Y007275D02*
X014981Y007352D01*
X016325Y007776D02*
X016325Y008006D01*
X016402Y008083D01*
X016556Y008083D01*
X016632Y008006D01*
X016632Y007776D01*
X016632Y007929D02*
X016786Y008083D01*
X016709Y008236D02*
X016786Y008313D01*
X016786Y008466D01*
X016709Y008543D01*
X016632Y008543D01*
X016556Y008466D01*
X016556Y008390D01*
X016556Y008466D02*
X016479Y008543D01*
X016402Y008543D01*
X016325Y008466D01*
X016325Y008313D01*
X016402Y008236D01*
X016325Y007776D02*
X016786Y007776D01*
X016556Y008697D02*
X016325Y008927D01*
X016786Y008927D01*
X016556Y009004D02*
X016556Y008697D01*
X017988Y010732D02*
X017988Y011192D01*
X018218Y011192D01*
X018295Y011115D01*
X018295Y010962D01*
X018218Y010885D01*
X017988Y010885D01*
X018141Y010885D02*
X018295Y010732D01*
X018448Y010809D02*
X018525Y010732D01*
X018679Y010732D01*
X018755Y010809D01*
X018755Y010885D01*
X018679Y010962D01*
X018602Y010962D01*
X018679Y010962D02*
X018755Y011039D01*
X018755Y011115D01*
X018679Y011192D01*
X018525Y011192D01*
X018448Y011115D01*
X018909Y011192D02*
X018909Y010962D01*
X019062Y011039D01*
X019139Y011039D01*
X019216Y010962D01*
X019216Y010809D01*
X019139Y010732D01*
X018985Y010732D01*
X018909Y010809D01*
X018909Y011192D02*
X019216Y011192D01*
X019806Y011793D02*
X020036Y011563D01*
X020036Y011870D01*
X020190Y012023D02*
X020190Y012100D01*
X020266Y012100D01*
X020266Y012023D01*
X020190Y012023D01*
X020190Y012254D02*
X020266Y012330D01*
X020266Y012484D01*
X020190Y012560D01*
X020036Y012560D01*
X019959Y012484D01*
X019959Y012407D01*
X020036Y012254D01*
X019806Y012254D01*
X019806Y012560D01*
X019806Y012714D02*
X020113Y012714D01*
X020266Y012867D01*
X020113Y013021D01*
X019806Y013021D01*
X019216Y012570D02*
X019062Y012493D01*
X018909Y012340D01*
X019139Y012340D01*
X019216Y012263D01*
X019216Y012186D01*
X019139Y012110D01*
X018985Y012110D01*
X018909Y012186D01*
X018909Y012340D01*
X018755Y012417D02*
X018679Y012340D01*
X018755Y012263D01*
X018755Y012186D01*
X018679Y012110D01*
X018525Y012110D01*
X018448Y012186D01*
X018295Y012110D02*
X018141Y012263D01*
X018218Y012263D02*
X017988Y012263D01*
X017988Y012110D02*
X017988Y012570D01*
X018218Y012570D01*
X018295Y012493D01*
X018295Y012340D01*
X018218Y012263D01*
X018448Y012493D02*
X018525Y012570D01*
X018679Y012570D01*
X018755Y012493D01*
X018755Y012417D01*
X018679Y012340D02*
X018602Y012340D01*
X018679Y013094D02*
X018525Y013094D01*
X018448Y013171D01*
X018295Y013094D02*
X018141Y013247D01*
X018218Y013247D02*
X017988Y013247D01*
X017988Y013094D02*
X017988Y013554D01*
X018218Y013554D01*
X018295Y013478D01*
X018295Y013324D01*
X018218Y013247D01*
X018448Y013478D02*
X018525Y013554D01*
X018679Y013554D01*
X018755Y013478D01*
X018755Y013401D01*
X018679Y013324D01*
X018755Y013247D01*
X018755Y013171D01*
X018679Y013094D01*
X018909Y013094D02*
X018909Y013171D01*
X019216Y013478D01*
X019216Y013554D01*
X018909Y013554D01*
X018679Y013324D02*
X018602Y013324D01*
X019806Y013711D02*
X019806Y013865D01*
X019883Y013942D01*
X020036Y013942D01*
X020113Y013865D01*
X019959Y013865D01*
X019959Y013711D01*
X020113Y013711D01*
X020113Y013865D01*
X020190Y013942D02*
X020266Y013865D01*
X020266Y013711D01*
X020190Y013635D01*
X019883Y013635D01*
X019806Y013711D01*
X019883Y014555D02*
X019806Y014632D01*
X019806Y014786D01*
X019883Y014862D01*
X019959Y014862D01*
X020266Y014555D01*
X020266Y014862D01*
X020266Y015016D02*
X020266Y015093D01*
X020190Y015093D01*
X020190Y015016D01*
X020266Y015016D01*
X020190Y015246D02*
X020266Y015323D01*
X020266Y015476D01*
X020190Y015553D01*
X020036Y015553D01*
X019959Y015476D01*
X019959Y015400D01*
X020036Y015246D01*
X019806Y015246D01*
X019806Y015553D01*
X019959Y015706D02*
X019806Y015860D01*
X019959Y016013D01*
X020266Y016013D01*
X020036Y016013D02*
X020036Y015706D01*
X019959Y015706D02*
X020266Y015706D01*
X021380Y015109D02*
X021380Y014676D01*
X021467Y014589D01*
X021641Y014589D01*
X021727Y014676D01*
X021727Y015109D01*
X021896Y014849D02*
X022156Y014849D01*
X022243Y014762D01*
X022243Y014676D01*
X022156Y014589D01*
X021983Y014589D01*
X021896Y014676D01*
X021896Y014849D01*
X022070Y015023D01*
X022243Y015109D01*
X022305Y017220D02*
X022458Y017220D01*
X022535Y017296D01*
X022688Y017296D02*
X022765Y017220D01*
X022919Y017220D01*
X022995Y017296D01*
X022995Y017373D01*
X022919Y017450D01*
X022842Y017450D01*
X022919Y017450D02*
X022995Y017527D01*
X022995Y017603D01*
X022919Y017680D01*
X022765Y017680D01*
X022688Y017603D01*
X022535Y017603D02*
X022458Y017680D01*
X022305Y017680D01*
X022228Y017603D01*
X022228Y017296D01*
X022305Y017220D01*
X023149Y017220D02*
X023456Y017220D01*
X023302Y017220D02*
X023302Y017680D01*
X023149Y017527D01*
X023127Y019762D02*
X023281Y019762D01*
X023357Y019838D01*
X023511Y019762D02*
X023818Y019762D01*
X023664Y019762D02*
X023664Y020222D01*
X023511Y020069D01*
X023357Y020145D02*
X023281Y020222D01*
X023127Y020222D01*
X023050Y020145D01*
X023050Y019838D01*
X023127Y019762D01*
X022897Y019762D02*
X022743Y019762D01*
X022820Y019762D02*
X022820Y020222D01*
X022743Y020222D02*
X022897Y020222D01*
X019609Y021438D02*
X019609Y021745D01*
X019533Y021822D01*
X019379Y021822D01*
X019302Y021745D01*
X019302Y021669D01*
X019379Y021592D01*
X019609Y021592D01*
X019609Y021438D02*
X019533Y021362D01*
X019379Y021362D01*
X019302Y021438D01*
X019149Y021362D02*
X018842Y021362D01*
X019149Y021669D01*
X019149Y021745D01*
X019072Y021822D01*
X018919Y021822D01*
X018842Y021745D01*
X018689Y021745D02*
X018689Y021592D01*
X018612Y021515D01*
X018382Y021515D01*
X018535Y021515D02*
X018689Y021362D01*
X018382Y021362D02*
X018382Y021822D01*
X018612Y021822D01*
X018689Y021745D01*
X018157Y024104D02*
X018003Y024104D01*
X017927Y024181D01*
X017927Y024334D02*
X018080Y024411D01*
X018157Y024411D01*
X018234Y024334D01*
X018234Y024181D01*
X018157Y024104D01*
X017927Y024334D02*
X017927Y024565D01*
X018234Y024565D01*
X017773Y024565D02*
X017466Y024104D01*
X017773Y024104D02*
X017466Y024565D01*
X014007Y027325D02*
X014007Y027479D01*
X013930Y027555D01*
X013853Y027555D01*
X013700Y027479D01*
X013700Y027709D01*
X014007Y027709D01*
X014007Y027325D02*
X013930Y027248D01*
X013777Y027248D01*
X013700Y027325D01*
X013546Y027248D02*
X013240Y027248D01*
X013546Y027555D01*
X013546Y027632D01*
X013470Y027709D01*
X013316Y027709D01*
X013240Y027632D01*
X013086Y027632D02*
X013086Y027479D01*
X013009Y027402D01*
X012779Y027402D01*
X012933Y027402D02*
X013086Y027248D01*
X012779Y027248D02*
X012779Y027709D01*
X013009Y027709D01*
X013086Y027632D01*
X012432Y027603D02*
X012432Y027296D01*
X012355Y027220D01*
X012202Y027220D01*
X012125Y027296D01*
X011972Y027220D02*
X011665Y027220D01*
X011818Y027220D02*
X011818Y027680D01*
X011665Y027527D01*
X011511Y027603D02*
X011435Y027680D01*
X011281Y027680D01*
X011204Y027603D01*
X011204Y027296D01*
X011281Y027220D01*
X011435Y027220D01*
X011511Y027296D01*
X012125Y027527D02*
X012202Y027450D01*
X012432Y027450D01*
X012432Y027603D02*
X012355Y027680D01*
X012202Y027680D01*
X012125Y027603D01*
X012125Y027527D01*
X010481Y027547D02*
X010404Y027470D01*
X010251Y027470D01*
X010174Y027547D01*
X010174Y027624D01*
X010251Y027701D01*
X010404Y027701D01*
X010481Y027624D01*
X010481Y027547D01*
X010404Y027701D02*
X010481Y027777D01*
X010481Y027854D01*
X010404Y027931D01*
X010251Y027931D01*
X010174Y027854D01*
X010174Y027777D01*
X010251Y027701D01*
X010021Y027854D02*
X010021Y027547D01*
X009944Y027470D01*
X009791Y027470D01*
X009714Y027547D01*
X009714Y027854D01*
X009791Y027931D01*
X009944Y027931D01*
X010021Y027854D01*
X009867Y027624D02*
X010021Y027470D01*
X010901Y025365D02*
X011131Y025365D01*
X011208Y025289D01*
X011208Y025135D01*
X011131Y025059D01*
X010901Y025059D01*
X011055Y025059D02*
X011208Y024905D01*
X011362Y024905D02*
X011669Y025212D01*
X011669Y025289D01*
X011592Y025365D01*
X011438Y025365D01*
X011362Y025289D01*
X011362Y024905D02*
X011669Y024905D01*
X011822Y025135D02*
X012129Y025135D01*
X012052Y024905D02*
X012052Y025365D01*
X011822Y025135D01*
X010901Y024905D02*
X010901Y025365D01*
X008700Y025053D02*
X008624Y025130D01*
X008317Y025130D01*
X008240Y025053D01*
X008240Y024899D01*
X008317Y024823D01*
X008393Y024823D01*
X008470Y024899D01*
X008470Y025130D01*
X008700Y025053D02*
X008700Y024899D01*
X008624Y024823D01*
X008700Y024669D02*
X008700Y024362D01*
X008393Y024669D01*
X008317Y024669D01*
X008240Y024592D01*
X008240Y024439D01*
X008317Y024362D01*
X008317Y024209D02*
X008240Y024132D01*
X008240Y023979D01*
X008317Y023902D01*
X008624Y023902D01*
X008700Y023979D01*
X008700Y024132D01*
X008624Y024209D01*
X008809Y023047D02*
X008962Y022893D01*
X009116Y023047D01*
X009116Y022587D01*
X009269Y022663D02*
X009346Y022587D01*
X009499Y022587D01*
X009576Y022663D01*
X009576Y022817D01*
X009499Y022893D01*
X009346Y022893D01*
X009269Y022817D01*
X009269Y022663D01*
X009730Y022663D02*
X009730Y022817D01*
X009806Y022893D01*
X010036Y022893D01*
X010036Y023047D02*
X010036Y022587D01*
X009806Y022587D01*
X009730Y022663D01*
X010190Y022663D02*
X010190Y022893D01*
X010190Y022663D02*
X010267Y022587D01*
X010497Y022587D01*
X010497Y022893D01*
X010650Y023047D02*
X010727Y023047D01*
X010727Y022587D01*
X010650Y022587D02*
X010804Y022587D01*
X010957Y022663D02*
X010957Y022817D01*
X011034Y022893D01*
X011187Y022893D01*
X011264Y022817D01*
X011264Y022740D01*
X010957Y022740D01*
X010957Y022663D02*
X011034Y022587D01*
X011187Y022587D01*
X010074Y021419D02*
X010074Y021266D01*
X009997Y021189D01*
X009920Y021189D01*
X009844Y021266D01*
X009844Y021419D01*
X009920Y021496D01*
X009997Y021496D01*
X010074Y021419D01*
X009844Y021419D02*
X009767Y021496D01*
X009690Y021496D01*
X009614Y021419D01*
X009614Y021266D01*
X009690Y021189D01*
X009767Y021189D01*
X009844Y021266D01*
X009920Y021035D02*
X009997Y021035D01*
X010074Y020959D01*
X010074Y020805D01*
X009997Y020728D01*
X010074Y020575D02*
X009920Y020421D01*
X009920Y020498D02*
X009920Y020268D01*
X010074Y020268D02*
X009614Y020268D01*
X009614Y020498D01*
X009690Y020575D01*
X009844Y020575D01*
X009920Y020498D01*
X009690Y020728D02*
X009614Y020805D01*
X009614Y020959D01*
X009690Y021035D01*
X009767Y021035D01*
X009844Y020959D01*
X009920Y021035D01*
X009844Y020959D02*
X009844Y020882D01*
X008809Y022587D02*
X008809Y023047D01*
X008195Y023047D02*
X007888Y023047D01*
X007888Y022587D01*
X007735Y022587D02*
X007581Y022740D01*
X007658Y022740D02*
X007428Y022740D01*
X007428Y022587D02*
X007428Y023047D01*
X007658Y023047D01*
X007735Y022970D01*
X007735Y022817D01*
X007658Y022740D01*
X007888Y022817D02*
X008041Y022817D01*
X006814Y023047D02*
X006660Y023047D01*
X006737Y023047D02*
X006737Y022587D01*
X006660Y022587D02*
X006814Y022587D01*
X006507Y022817D02*
X006430Y022740D01*
X006200Y022740D01*
X006200Y022587D02*
X006200Y023047D01*
X006430Y023047D01*
X006507Y022970D01*
X006507Y022817D01*
X006046Y022740D02*
X006046Y022663D01*
X005970Y022587D01*
X005816Y022587D01*
X005739Y022663D01*
X005816Y022817D02*
X005970Y022817D01*
X006046Y022740D01*
X006046Y022970D02*
X005970Y023047D01*
X005816Y023047D01*
X005739Y022970D01*
X005739Y022893D01*
X005816Y022817D01*
X003542Y024044D02*
X003082Y024044D01*
X003082Y024274D01*
X003159Y024351D01*
X003312Y024351D01*
X003389Y024274D01*
X003389Y024044D01*
X003389Y024197D02*
X003542Y024351D01*
X003466Y024504D02*
X003542Y024581D01*
X003542Y024734D01*
X003466Y024811D01*
X003389Y024811D01*
X003312Y024734D01*
X003312Y024657D01*
X003312Y024734D02*
X003235Y024811D01*
X003159Y024811D01*
X003082Y024734D01*
X003082Y024581D01*
X003159Y024504D01*
X003235Y024964D02*
X003082Y025118D01*
X003542Y025118D01*
X003542Y025271D02*
X003542Y024964D01*
X003542Y025453D02*
X003082Y025453D01*
X003082Y025683D01*
X003159Y025760D01*
X003312Y025760D01*
X003389Y025683D01*
X003389Y025453D01*
X003389Y025607D02*
X003542Y025760D01*
X003466Y025913D02*
X003542Y025990D01*
X003542Y026144D01*
X003466Y026220D01*
X003389Y026220D01*
X003312Y026144D01*
X003312Y026067D01*
X003312Y026144D02*
X003235Y026220D01*
X003159Y026220D01*
X003082Y026144D01*
X003082Y025990D01*
X003159Y025913D01*
X003159Y026374D02*
X003082Y026451D01*
X003082Y026604D01*
X003159Y026681D01*
X003466Y026374D01*
X003542Y026451D01*
X003542Y026604D01*
X003466Y026681D01*
X003159Y026681D01*
X003159Y026374D02*
X003466Y026374D01*
X004876Y030273D02*
X005029Y030273D01*
X005106Y030350D01*
X005106Y030734D01*
X005259Y030734D02*
X005566Y030734D01*
X005566Y030657D01*
X005259Y030350D01*
X005259Y030273D01*
X004876Y030273D02*
X004799Y030350D01*
X004799Y030734D01*
X005102Y032760D02*
X005102Y033221D01*
X005332Y033221D01*
X005409Y033144D01*
X005409Y032990D01*
X005332Y032914D01*
X005102Y032914D01*
X005255Y032914D02*
X005409Y032760D01*
X005562Y032760D02*
X005869Y033067D01*
X005869Y033144D01*
X005793Y033221D01*
X005639Y033221D01*
X005562Y033144D01*
X005562Y032760D02*
X005869Y032760D01*
X006023Y032837D02*
X006100Y032760D01*
X006253Y032760D01*
X006330Y032837D01*
X006330Y032914D01*
X006253Y032990D01*
X006023Y032990D01*
X006023Y032837D01*
X006023Y032990D02*
X006176Y033144D01*
X006330Y033221D01*
X006253Y034188D02*
X006100Y034188D01*
X006023Y034265D01*
X005869Y034188D02*
X005562Y034188D01*
X005869Y034495D01*
X005869Y034572D01*
X005793Y034649D01*
X005639Y034649D01*
X005562Y034572D01*
X005409Y034572D02*
X005332Y034649D01*
X005179Y034649D01*
X005102Y034572D01*
X005102Y034265D01*
X005179Y034188D01*
X005332Y034188D01*
X005409Y034265D01*
X006023Y034572D02*
X006100Y034649D01*
X006253Y034649D01*
X006330Y034572D01*
X006330Y034495D01*
X006253Y034418D01*
X006330Y034342D01*
X006330Y034265D01*
X006253Y034188D01*
X006253Y034418D02*
X006176Y034418D01*
X008451Y032626D02*
X008451Y032319D01*
X008528Y032165D02*
X008451Y032088D01*
X008451Y031935D01*
X008528Y031858D01*
X008528Y031705D02*
X008681Y031705D01*
X008758Y031628D01*
X008758Y031398D01*
X008758Y031551D02*
X008912Y031705D01*
X008912Y031858D02*
X008605Y032165D01*
X008528Y032165D01*
X008835Y032319D02*
X008912Y032319D01*
X008835Y032319D02*
X008528Y032626D01*
X008451Y032626D01*
X008912Y032165D02*
X008912Y031858D01*
X008528Y031705D02*
X008451Y031628D01*
X008451Y031398D01*
X008912Y031398D01*
X008986Y031252D02*
X008909Y031175D01*
X008986Y031252D02*
X009139Y031252D01*
X009216Y031175D01*
X009216Y031099D01*
X008909Y030792D01*
X009216Y030792D01*
X009369Y030868D02*
X009369Y030945D01*
X009446Y031022D01*
X009599Y031022D01*
X009676Y030945D01*
X009676Y030868D01*
X009599Y030792D01*
X009446Y030792D01*
X009369Y030868D01*
X009446Y031022D02*
X009369Y031099D01*
X009369Y031175D01*
X009446Y031252D01*
X009599Y031252D01*
X009676Y031175D01*
X009676Y031099D01*
X009599Y031022D01*
X009599Y030318D02*
X009446Y030318D01*
X009369Y030241D01*
X009216Y030241D02*
X009139Y030318D01*
X008986Y030318D01*
X008909Y030241D01*
X008755Y030241D02*
X008679Y030318D01*
X008525Y030318D01*
X008448Y030241D01*
X008448Y029934D01*
X008525Y029857D01*
X008679Y029857D01*
X008755Y029934D01*
X008909Y029857D02*
X009216Y030164D01*
X009216Y030241D01*
X009216Y029857D02*
X008909Y029857D01*
X009369Y029857D02*
X009676Y030164D01*
X009676Y030241D01*
X009599Y030318D01*
X009676Y029857D02*
X009369Y029857D01*
X008755Y030792D02*
X008602Y030945D01*
X008679Y030945D02*
X008448Y030945D01*
X008448Y030792D02*
X008448Y031252D01*
X008679Y031252D01*
X008755Y031175D01*
X008755Y031022D01*
X008679Y030945D01*
X017556Y033977D02*
X018016Y034284D01*
X018016Y034437D02*
X018016Y034744D01*
X018016Y034591D02*
X017556Y034591D01*
X017709Y034437D01*
X017556Y034284D02*
X018016Y033977D01*
X018849Y030366D02*
X018849Y030059D01*
X019080Y030059D01*
X019003Y030213D01*
X019003Y030289D01*
X019080Y030366D01*
X019233Y030366D01*
X019310Y030289D01*
X019310Y030136D01*
X019233Y030059D01*
X019310Y029906D02*
X019310Y029599D01*
X019310Y029752D02*
X018849Y029752D01*
X019003Y029599D01*
X018926Y029445D02*
X018849Y029369D01*
X018849Y029215D01*
X018926Y029138D01*
X019233Y029138D01*
X019310Y029215D01*
X019310Y029369D01*
X019233Y029445D01*
X018155Y018229D02*
X017924Y017999D01*
X018231Y017999D01*
X018155Y018229D02*
X018155Y017768D01*
X017771Y017845D02*
X017694Y017768D01*
X017541Y017768D01*
X017464Y017845D01*
X017311Y017845D02*
X017234Y017768D01*
X017080Y017768D01*
X017004Y017845D01*
X017004Y018152D01*
X017080Y018229D01*
X017234Y018229D01*
X017311Y018152D01*
X017464Y018152D02*
X017541Y018229D01*
X017694Y018229D01*
X017771Y018152D01*
X017771Y018075D01*
X017694Y017999D01*
X017771Y017922D01*
X017771Y017845D01*
X017694Y017999D02*
X017618Y017999D01*
X017277Y015848D02*
X017353Y015771D01*
X017353Y015694D01*
X017277Y015618D01*
X017353Y015541D01*
X017353Y015464D01*
X017277Y015387D01*
X017123Y015387D01*
X017046Y015464D01*
X016893Y015464D02*
X016816Y015387D01*
X016663Y015387D01*
X016586Y015464D01*
X016433Y015464D02*
X016356Y015387D01*
X016202Y015387D01*
X016126Y015464D01*
X016126Y015771D01*
X016202Y015848D01*
X016356Y015848D01*
X016433Y015771D01*
X016586Y015771D02*
X016663Y015848D01*
X016816Y015848D01*
X016893Y015771D01*
X016893Y015694D01*
X016816Y015618D01*
X016893Y015541D01*
X016893Y015464D01*
X016816Y015618D02*
X016739Y015618D01*
X017046Y015771D02*
X017123Y015848D01*
X017277Y015848D01*
X017277Y015618D02*
X017200Y015618D01*
X013430Y015293D02*
X013430Y014986D01*
X013353Y014909D01*
X013199Y014909D01*
X013123Y014986D01*
X013430Y015293D01*
X013353Y015370D01*
X013199Y015370D01*
X013123Y015293D01*
X013123Y014986D01*
X012969Y014986D02*
X012969Y015293D01*
X012662Y014986D01*
X012739Y014909D01*
X012892Y014909D01*
X012969Y014986D01*
X012662Y014986D02*
X012662Y015293D01*
X012739Y015370D01*
X012892Y015370D01*
X012969Y015293D01*
X012509Y015293D02*
X012509Y014986D01*
X012432Y014909D01*
X012279Y014909D01*
X012202Y014986D01*
X012279Y015140D02*
X012509Y015140D01*
X012509Y015293D02*
X012432Y015370D01*
X012279Y015370D01*
X012202Y015293D01*
X012202Y015216D01*
X012279Y015140D01*
X012048Y015370D02*
X012048Y014909D01*
X011741Y014909D02*
X011741Y015370D01*
X011895Y015216D01*
X012048Y015370D01*
X011588Y015370D02*
X011435Y015370D01*
X011511Y015370D02*
X011511Y014909D01*
X011435Y014909D02*
X011588Y014909D01*
X011281Y014986D02*
X011204Y014909D01*
X011051Y014909D01*
X010974Y014986D01*
X011051Y015140D02*
X011204Y015140D01*
X011281Y015063D01*
X011281Y014986D01*
X011051Y015140D02*
X010974Y015216D01*
X010974Y015293D01*
X011051Y015370D01*
X011204Y015370D01*
X011281Y015293D01*
X010360Y015140D02*
X010360Y014909D01*
X010207Y014909D02*
X010207Y015140D01*
X010284Y015216D01*
X010360Y015140D01*
X010207Y015140D02*
X010130Y015216D01*
X010053Y015216D01*
X010053Y014909D01*
X009900Y014986D02*
X009900Y015140D01*
X009823Y015216D01*
X009670Y015216D01*
X009593Y015140D01*
X009593Y014986D01*
X009670Y014909D01*
X009823Y014909D01*
X009900Y014986D01*
X009439Y014986D02*
X009363Y014909D01*
X009209Y014909D01*
X009133Y014986D01*
X009133Y015293D01*
X009209Y015370D01*
X009363Y015370D01*
X009439Y015293D01*
X008979Y015140D02*
X008979Y014909D01*
X008826Y014909D02*
X008826Y015140D01*
X008902Y015216D01*
X008979Y015140D01*
X008826Y015140D02*
X008749Y015216D01*
X008672Y015216D01*
X008672Y014909D01*
X008519Y014909D02*
X008365Y014909D01*
X008442Y014909D02*
X008442Y015216D01*
X008365Y015216D01*
X008212Y015293D02*
X008135Y015370D01*
X007982Y015370D01*
X007905Y015293D01*
X007905Y015216D01*
X007982Y015140D01*
X008135Y015140D01*
X008212Y015063D01*
X008212Y014986D01*
X008135Y014909D01*
X007982Y014909D01*
X007905Y014986D01*
X008442Y015370D02*
X008442Y015446D01*
X008906Y007239D02*
X008906Y006932D01*
X008676Y007162D01*
X009136Y007162D01*
X009060Y006779D02*
X008753Y006779D01*
X008676Y006702D01*
X008676Y006472D01*
X009136Y006472D01*
X009136Y006702D01*
X009060Y006779D01*
X009373Y006434D02*
X009450Y006511D01*
X009526Y006511D01*
X009603Y006434D01*
X009603Y006281D01*
X009526Y006204D01*
X009450Y006204D01*
X009373Y006281D01*
X009373Y006434D01*
X009603Y006434D02*
X009680Y006511D01*
X009757Y006511D01*
X009833Y006434D01*
X009833Y006281D01*
X009757Y006204D01*
X009680Y006204D01*
X009603Y006281D01*
X009603Y006051D02*
X009680Y005974D01*
X009680Y005744D01*
X009833Y005744D02*
X009373Y005744D01*
X009373Y005974D01*
X009450Y006051D01*
X009603Y006051D01*
X009136Y006011D02*
X009136Y006318D01*
X008906Y006165D02*
X008906Y006011D01*
X008676Y006011D02*
X009136Y006011D01*
X009136Y005858D02*
X009136Y005551D01*
X008676Y005551D01*
X009373Y005590D02*
X009373Y005283D01*
X009373Y005437D02*
X009833Y005437D01*
X008676Y006011D02*
X008676Y006318D01*
X006814Y006401D02*
X006507Y006401D01*
X006814Y006708D01*
X006814Y006785D01*
X006737Y006861D01*
X006584Y006861D01*
X006507Y006785D01*
X006354Y006785D02*
X006354Y006708D01*
X006277Y006631D01*
X006354Y006555D01*
X006354Y006478D01*
X006277Y006401D01*
X006123Y006401D01*
X006047Y006478D01*
X005893Y006401D02*
X005740Y006555D01*
X005817Y006555D02*
X005586Y006555D01*
X005586Y006401D02*
X005586Y006861D01*
X005817Y006861D01*
X005893Y006785D01*
X005893Y006631D01*
X005817Y006555D01*
X006047Y006785D02*
X006123Y006861D01*
X006277Y006861D01*
X006354Y006785D01*
X006277Y006631D02*
X006200Y006631D01*
X005692Y006057D02*
X005768Y005980D01*
X005768Y005827D01*
X005692Y005750D01*
X005385Y006057D01*
X005692Y006057D01*
X005692Y005750D02*
X005385Y005750D01*
X005308Y005827D01*
X005308Y005980D01*
X005385Y006057D01*
X005768Y005597D02*
X005768Y005290D01*
X005768Y005443D02*
X005308Y005443D01*
X005461Y005290D01*
X005385Y005136D02*
X005692Y005136D01*
X005768Y005060D01*
X005768Y004906D01*
X005692Y004829D01*
X005385Y004829D01*
X005308Y004906D01*
X005308Y005060D01*
X005385Y005136D01*
X005615Y004983D02*
X005768Y005136D01*
X012198Y005170D02*
X012198Y005323D01*
X012274Y005400D01*
X012581Y005400D01*
X012658Y005323D01*
X012658Y005170D01*
X012581Y005093D01*
X012274Y005093D01*
X012198Y005170D01*
X012505Y005246D02*
X012658Y005400D01*
X012581Y005553D02*
X012658Y005630D01*
X012658Y005784D01*
X012581Y005860D01*
X012274Y005860D01*
X012198Y005784D01*
X012198Y005630D01*
X012274Y005553D01*
X012351Y005553D01*
X012428Y005630D01*
X012428Y005860D01*
X019806Y011793D02*
X020266Y011793D01*
X020816Y010799D02*
X020739Y010722D01*
X020739Y010569D01*
X020816Y010492D01*
X020969Y010646D02*
X020969Y010722D01*
X021046Y010799D01*
X021123Y010799D01*
X021199Y010722D01*
X021199Y010569D01*
X021123Y010492D01*
X020969Y010722D02*
X020893Y010799D01*
X020816Y010799D01*
X041700Y024205D02*
X041700Y024435D01*
X041777Y024512D01*
X041930Y024512D01*
X042007Y024435D01*
X042007Y024205D01*
X042007Y024359D02*
X042161Y024512D01*
X042161Y024665D02*
X042161Y024972D01*
X042161Y024819D02*
X041700Y024819D01*
X041854Y024665D01*
X041700Y024205D02*
X042161Y024205D01*
X042161Y025126D02*
X041854Y025433D01*
X041777Y025433D01*
X041700Y025356D01*
X041700Y025203D01*
X041777Y025126D01*
X042161Y025126D02*
X042161Y025433D01*
D13*
X040464Y015972D03*
D14*
X040464Y015972D03*
D15*
X037439Y020461D02*
X036851Y021048D01*
X036518Y020902D02*
X036371Y021048D01*
X036077Y021048D01*
X035931Y020902D01*
X035931Y020608D01*
X036077Y020461D01*
X036371Y020461D01*
X036518Y020608D01*
X036518Y020902D01*
X036851Y020461D02*
X037439Y021048D01*
X035597Y020902D02*
X035597Y020461D01*
X035597Y020902D02*
X035450Y021048D01*
X035010Y021048D01*
X035010Y020461D01*
X034690Y020461D02*
X034396Y020461D01*
X034543Y020461D02*
X034543Y021048D01*
X034396Y021048D01*
X034543Y021342D02*
X034543Y021489D01*
X034062Y021048D02*
X034062Y020461D01*
X033622Y020461D01*
X033475Y020608D01*
X033475Y021048D01*
X033142Y021048D02*
X032701Y021048D01*
X032554Y020902D01*
X032554Y020608D01*
X032701Y020461D01*
X033142Y020461D01*
X033142Y020168D02*
X033142Y021048D01*
X032241Y020608D02*
X032241Y020461D01*
X032094Y020461D01*
X032094Y020608D01*
X032241Y020608D01*
X031760Y020755D02*
X031173Y020755D01*
X031173Y020902D02*
X031320Y021048D01*
X031614Y021048D01*
X031760Y020902D01*
X031760Y020755D01*
X031614Y020461D02*
X031320Y020461D01*
X031173Y020608D01*
X031173Y020902D01*
D16*
X031217Y020084D02*
X031143Y020011D01*
X031143Y019717D01*
X031217Y019644D01*
X031363Y019644D01*
X031437Y019717D01*
X031437Y019864D01*
X031290Y019864D01*
X031437Y020011D02*
X031363Y020084D01*
X031217Y020084D01*
X031604Y020011D02*
X031604Y019937D01*
X031677Y019864D01*
X031824Y019864D01*
X031897Y019791D01*
X031897Y019717D01*
X031824Y019644D01*
X031677Y019644D01*
X031604Y019717D01*
X031604Y020011D02*
X031677Y020084D01*
X031824Y020084D01*
X031897Y020011D01*
X032064Y020084D02*
X032064Y019644D01*
X032358Y019644D02*
X032358Y020084D01*
X032211Y019937D01*
X032064Y020084D01*
X032985Y020011D02*
X032985Y019717D01*
X033058Y019644D01*
X033205Y019644D01*
X033278Y019717D01*
X033445Y019717D02*
X033445Y019864D01*
X033519Y019937D01*
X033665Y019937D01*
X033739Y019864D01*
X033739Y019717D01*
X033665Y019644D01*
X033519Y019644D01*
X033445Y019717D01*
X033278Y020011D02*
X033205Y020084D01*
X033058Y020084D01*
X032985Y020011D01*
X033906Y019937D02*
X033906Y019644D01*
X034199Y019644D02*
X034199Y019864D01*
X034126Y019937D01*
X033906Y019937D01*
X034366Y019937D02*
X034513Y019937D01*
X034439Y020011D02*
X034439Y019717D01*
X034513Y019644D01*
X034673Y019644D02*
X034673Y019937D01*
X034673Y019791D02*
X034820Y019937D01*
X034893Y019937D01*
X035057Y019864D02*
X035057Y019717D01*
X035130Y019644D01*
X035277Y019644D01*
X035350Y019717D01*
X035350Y019864D01*
X035277Y019937D01*
X035130Y019937D01*
X035057Y019864D01*
X035517Y020084D02*
X035590Y020084D01*
X035590Y019644D01*
X035517Y019644D02*
X035664Y019644D01*
X036284Y019717D02*
X036284Y020084D01*
X036578Y020084D02*
X036578Y019717D01*
X036504Y019644D01*
X036358Y019644D01*
X036284Y019717D01*
X036745Y019644D02*
X036745Y019937D01*
X036965Y019937D01*
X037038Y019864D01*
X037038Y019644D01*
X037205Y019644D02*
X037352Y019644D01*
X037278Y019644D02*
X037278Y019937D01*
X037205Y019937D01*
X037278Y020084D02*
X037278Y020158D01*
X037512Y019937D02*
X037659Y019937D01*
X037585Y020011D02*
X037585Y019717D01*
X037659Y019644D01*
X034900Y027704D02*
X034900Y028104D01*
X028338Y029503D02*
X027938Y029503D01*
X026577Y028385D02*
X026577Y027985D01*
X026967Y027755D02*
X026967Y027555D01*
X026967Y026775D02*
X026967Y026575D01*
X025787Y026575D02*
X025787Y026775D01*
X025787Y027555D02*
X025787Y027755D01*
X017858Y020429D02*
X016078Y020429D01*
X015378Y019679D02*
X014978Y019679D01*
X016078Y018429D02*
X016848Y018429D01*
X017088Y018429D01*
X017858Y018429D01*
X017088Y018429D02*
X017086Y018450D01*
X017081Y018470D01*
X017072Y018489D01*
X017060Y018506D01*
X017045Y018521D01*
X017028Y018533D01*
X017009Y018542D01*
X016989Y018547D01*
X016968Y018549D01*
X016947Y018547D01*
X016927Y018542D01*
X016908Y018533D01*
X016891Y018521D01*
X016876Y018506D01*
X016864Y018489D01*
X016855Y018470D01*
X016850Y018450D01*
X016848Y018429D01*
X018038Y017261D02*
X018038Y016901D01*
X018038Y017261D02*
X018428Y017261D01*
X018598Y016791D02*
X018598Y016531D01*
X018038Y016421D02*
X018038Y016061D01*
X018198Y016061D01*
X018428Y016061D01*
X018358Y016171D02*
X018338Y016177D01*
X018317Y016179D01*
X018296Y016177D01*
X018276Y016172D01*
X018257Y016164D01*
X018240Y016152D01*
X018226Y016137D01*
X018213Y016120D01*
X018205Y016102D01*
X018199Y016082D01*
X018197Y016061D01*
X022174Y012027D02*
X022176Y012060D01*
X022182Y012092D01*
X022191Y012124D01*
X022205Y012154D01*
X022221Y012182D01*
X022241Y012208D01*
X022264Y012232D01*
X022290Y012253D01*
X022318Y012270D01*
X022348Y012285D01*
X022379Y012295D01*
X022411Y012302D01*
X022444Y012305D01*
X022477Y012304D01*
X022509Y012299D01*
X022541Y012290D01*
X022572Y012278D01*
X022600Y012262D01*
X022627Y012243D01*
X022651Y012221D01*
X022673Y012196D01*
X022691Y012168D01*
X022706Y012139D01*
X022718Y012108D01*
X022726Y012076D01*
X022730Y012043D01*
X022730Y012011D01*
X022726Y011978D01*
X022718Y011946D01*
X022706Y011915D01*
X022691Y011886D01*
X022673Y011858D01*
X022651Y011833D01*
X022627Y011811D01*
X022600Y011792D01*
X022572Y011776D01*
X022541Y011764D01*
X022509Y011755D01*
X022477Y011750D01*
X022444Y011749D01*
X022411Y011752D01*
X022379Y011759D01*
X022348Y011769D01*
X022318Y011784D01*
X022290Y011801D01*
X022264Y011822D01*
X022241Y011846D01*
X022221Y011872D01*
X022205Y011900D01*
X022191Y011930D01*
X022182Y011962D01*
X022176Y011994D01*
X022174Y012027D01*
X007289Y025002D02*
X005709Y025002D01*
X005889Y025032D02*
X007109Y025032D01*
X007109Y026952D02*
X006619Y026952D01*
X006379Y026952D01*
X005889Y026952D01*
X005709Y026982D02*
X006379Y026982D01*
X006619Y026982D01*
X007289Y026982D01*
X006619Y026982D02*
X006617Y026961D01*
X006612Y026941D01*
X006603Y026922D01*
X006591Y026905D01*
X006576Y026890D01*
X006559Y026878D01*
X006540Y026869D01*
X006520Y026864D01*
X006499Y026862D01*
X006478Y026864D01*
X006458Y026869D01*
X006439Y026878D01*
X006422Y026890D01*
X006407Y026905D01*
X006395Y026922D01*
X006386Y026941D01*
X006381Y026961D01*
X006379Y026982D01*
X006379Y026952D02*
X006381Y026931D01*
X006386Y026911D01*
X006395Y026892D01*
X006407Y026875D01*
X006422Y026860D01*
X006439Y026848D01*
X006458Y026839D01*
X006478Y026834D01*
X006499Y026832D01*
X006520Y026834D01*
X006540Y026839D01*
X006559Y026848D01*
X006576Y026860D01*
X006591Y026875D01*
X006603Y026892D01*
X006612Y026911D01*
X006617Y026931D01*
X006619Y026952D01*
X004115Y016213D02*
X004115Y015920D01*
X003821Y016213D01*
X003748Y016213D01*
X003674Y016140D01*
X003674Y015993D01*
X003748Y015920D01*
X003674Y015606D02*
X004115Y015606D01*
X004115Y015459D02*
X004115Y015753D01*
X003821Y015459D02*
X003674Y015606D01*
X003748Y015293D02*
X004041Y014999D01*
X004115Y015072D01*
X004115Y015219D01*
X004041Y015293D01*
X003748Y015293D01*
X003674Y015219D01*
X003674Y015072D01*
X003748Y014999D01*
X004041Y014999D01*
X004115Y014832D02*
X004115Y014539D01*
X003821Y014832D01*
X003748Y014832D01*
X003674Y014759D01*
X003674Y014612D01*
X003748Y014539D01*
X003821Y013911D02*
X004188Y013911D01*
X004261Y013838D01*
X004261Y013765D01*
X004115Y013691D02*
X004115Y013911D01*
X004115Y013691D02*
X004041Y013618D01*
X003821Y013618D01*
X003894Y013451D02*
X003821Y013378D01*
X003821Y013231D01*
X003968Y013231D02*
X003968Y013451D01*
X003894Y013451D02*
X004115Y013451D01*
X004115Y013231D01*
X004041Y013157D01*
X003968Y013231D01*
X004115Y012991D02*
X003674Y012991D01*
X003821Y012844D01*
X003674Y012697D01*
X004115Y012697D01*
X004462Y012457D02*
X004462Y012237D01*
X004902Y012237D01*
X004755Y012237D02*
X004755Y012457D01*
X004682Y012530D01*
X004535Y012530D01*
X004462Y012457D01*
X004462Y012070D02*
X004535Y012070D01*
X004682Y011923D01*
X004902Y011923D01*
X004682Y011923D02*
X004535Y011776D01*
X004462Y011776D01*
X004462Y011609D02*
X004462Y011316D01*
X004902Y011316D01*
X004682Y011316D02*
X004682Y011463D01*
X004115Y011776D02*
X003674Y012070D01*
X003748Y011149D02*
X003821Y011149D01*
X003894Y011076D01*
X003894Y010929D01*
X003821Y010855D01*
X003748Y010855D01*
X003674Y010929D01*
X003674Y011076D01*
X003748Y011149D01*
X003894Y011076D02*
X003968Y011149D01*
X004041Y011149D01*
X004115Y011076D01*
X004115Y010929D01*
X004041Y010855D01*
X003968Y010855D01*
X003894Y010929D01*
X003748Y010689D02*
X004041Y010395D01*
X004115Y010468D01*
X004115Y010615D01*
X004041Y010689D01*
X003748Y010689D01*
X003674Y010615D01*
X003674Y010468D01*
X003748Y010395D01*
X004041Y010395D01*
X004041Y010228D02*
X004115Y010155D01*
X004115Y010008D01*
X004041Y009935D01*
X003894Y009935D02*
X003821Y010081D01*
X003821Y010155D01*
X003894Y010228D01*
X004041Y010228D01*
X003894Y009935D02*
X003674Y009935D01*
X003674Y010228D01*
X003894Y009768D02*
X004115Y009768D01*
X004115Y009548D01*
X004041Y009474D01*
X003968Y009548D01*
X003968Y009768D01*
X003894Y009768D02*
X003821Y009694D01*
X003821Y009548D01*
X003821Y009307D02*
X003821Y009087D01*
X003894Y009014D01*
X004041Y009014D01*
X004115Y009087D01*
X004115Y009307D01*
X004462Y009307D02*
X004462Y009014D01*
X004902Y009014D01*
X004902Y009307D01*
X004902Y009474D02*
X004462Y009474D01*
X004462Y009768D01*
X004682Y009621D02*
X004682Y009474D01*
X004902Y009474D02*
X004902Y009768D01*
X004682Y009935D02*
X004682Y010228D01*
X004902Y010155D02*
X004462Y010155D01*
X004682Y009935D01*
X004462Y010395D02*
X004462Y010689D01*
X004462Y010542D02*
X004902Y010542D01*
X004682Y009161D02*
X004682Y009014D01*
X034900Y034397D02*
X034900Y034797D01*
D17*
X030916Y034968D02*
X030916Y031819D01*
X024223Y031819D01*
X024223Y034968D01*
X030916Y034968D01*
X030389Y029947D02*
X030239Y029797D01*
X030389Y029947D02*
X030389Y029497D01*
X030239Y029497D02*
X030539Y029497D01*
X030078Y029572D02*
X030078Y029947D01*
X029778Y029947D02*
X029778Y029572D01*
X029853Y029497D01*
X030003Y029497D01*
X030078Y029572D01*
X028318Y027291D02*
X028003Y027291D01*
X027531Y026582D02*
X027531Y026031D01*
X028003Y025322D02*
X028318Y025322D01*
X028790Y026031D02*
X028790Y026582D01*
X017350Y016683D02*
X017275Y016758D01*
X017125Y016758D01*
X017050Y016683D01*
X017050Y016608D01*
X017125Y016533D01*
X017350Y016533D01*
X017350Y016383D02*
X017350Y016683D01*
X017350Y016383D02*
X017275Y016308D01*
X017125Y016308D01*
X017050Y016383D01*
X016889Y016383D02*
X016889Y016758D01*
X016589Y016758D02*
X016589Y016383D01*
X016664Y016308D01*
X016814Y016308D01*
X016889Y016383D01*
X015365Y016464D02*
X015365Y017645D01*
X014184Y017645D01*
X015856Y020733D02*
X016006Y020733D01*
X016081Y020808D01*
X016081Y021184D01*
X016241Y021034D02*
X016392Y021184D01*
X016392Y020733D01*
X016542Y020733D02*
X016241Y020733D01*
X015856Y020733D02*
X015781Y020808D01*
X015781Y021184D01*
X016702Y021109D02*
X016702Y020808D01*
X017002Y021109D01*
X017002Y020808D01*
X016927Y020733D01*
X016777Y020733D01*
X016702Y020808D01*
X016702Y021109D02*
X016777Y021184D01*
X016927Y021184D01*
X017002Y021109D01*
X016306Y028047D02*
X014456Y028047D01*
X014456Y027909D01*
X010814Y027909D01*
X010814Y028047D01*
X009180Y028047D01*
X009180Y029110D01*
X008729Y029110D01*
X008336Y029110D02*
X007885Y029110D01*
X007491Y029110D02*
X007040Y029110D01*
X006834Y029110D02*
X009180Y029110D01*
X009180Y031196D01*
X009042Y031196D01*
X009042Y034366D01*
X009180Y034366D01*
X009180Y034976D01*
X005723Y034976D01*
X005261Y034976D01*
X004867Y034976D02*
X004405Y034976D01*
X004011Y034976D02*
X003549Y034976D01*
X003155Y034976D02*
X002693Y034976D01*
X002299Y034976D02*
X001837Y034976D01*
X001443Y034976D02*
X000981Y034976D01*
X000587Y034976D02*
X000125Y034976D01*
X000125Y034494D01*
X000125Y034100D02*
X000125Y033618D01*
X000125Y033224D02*
X000125Y032742D01*
X000125Y032348D02*
X000125Y031866D01*
X000125Y031472D02*
X000125Y030990D01*
X000125Y030596D02*
X000125Y030114D01*
X000488Y029751D01*
X000766Y029473D02*
X001129Y029110D01*
X001580Y029110D01*
X001973Y029110D02*
X002424Y029110D01*
X002818Y029110D02*
X003269Y029110D01*
X003662Y029110D02*
X004113Y029110D01*
X004507Y029110D02*
X004958Y029110D01*
X005351Y029110D02*
X005802Y029110D01*
X006196Y029110D02*
X006647Y029110D01*
X006834Y029110D02*
X005723Y030220D01*
X005723Y034976D01*
X004829Y031925D02*
X004831Y031938D01*
X004836Y031951D01*
X004845Y031962D01*
X004856Y031969D01*
X004869Y031974D01*
X004882Y031975D01*
X004896Y031972D01*
X004908Y031966D01*
X004918Y031957D01*
X004925Y031945D01*
X004929Y031932D01*
X004929Y031918D01*
X004925Y031905D01*
X004918Y031893D01*
X004908Y031884D01*
X004896Y031878D01*
X004882Y031875D01*
X004869Y031876D01*
X004856Y031881D01*
X004845Y031888D01*
X004836Y031899D01*
X004831Y031912D01*
X004829Y031925D01*
X009180Y034976D02*
X009180Y035173D01*
X009830Y035173D01*
X009830Y035291D01*
X010676Y035291D01*
X010676Y035153D01*
X010680Y035173D01*
X010680Y035459D01*
X010680Y035173D02*
X010680Y034661D01*
X010680Y035173D02*
X015070Y035173D01*
X015070Y035529D01*
X015068Y035557D01*
X015063Y035585D01*
X015055Y035612D01*
X015043Y035638D01*
X015029Y035662D01*
X015011Y035684D01*
X014991Y035704D01*
X014969Y035722D01*
X014945Y035736D01*
X014919Y035748D01*
X014892Y035756D01*
X014864Y035761D01*
X014836Y035763D01*
X010985Y035763D01*
X010951Y035761D01*
X010917Y035755D01*
X010885Y035746D01*
X010853Y035733D01*
X010823Y035716D01*
X010795Y035697D01*
X010770Y035674D01*
X010747Y035649D01*
X010728Y035621D01*
X010711Y035591D01*
X010698Y035559D01*
X010689Y035527D01*
X010683Y035493D01*
X010681Y035459D01*
X010715Y034660D02*
X010997Y034561D01*
X011284Y034475D01*
X011574Y034404D01*
X011868Y034346D01*
X012164Y034303D01*
X012462Y034274D01*
X012760Y034260D01*
X013060Y034260D01*
X013358Y034274D01*
X013656Y034303D01*
X013952Y034346D01*
X014246Y034404D01*
X014536Y034475D01*
X014823Y034561D01*
X015105Y034660D01*
X015070Y034661D02*
X015070Y035173D01*
X016306Y035173D01*
X016306Y034976D01*
X016503Y034976D01*
X016503Y034228D01*
X016306Y034228D01*
X016306Y032693D01*
X015464Y032693D01*
X015416Y032691D01*
X015368Y032685D01*
X015320Y032676D01*
X015274Y032663D01*
X015229Y032646D01*
X015185Y032626D01*
X015143Y032602D01*
X015103Y032576D01*
X015065Y032546D01*
X015029Y032513D01*
X014996Y032477D01*
X014966Y032439D01*
X014940Y032399D01*
X014916Y032357D01*
X014896Y032313D01*
X014879Y032268D01*
X014866Y032222D01*
X014857Y032174D01*
X014851Y032126D01*
X014849Y032078D01*
X014849Y030717D01*
X014850Y030717D02*
X014852Y030668D01*
X014858Y030620D01*
X014867Y030572D01*
X014880Y030525D01*
X014897Y030479D01*
X014918Y030435D01*
X014942Y030392D01*
X014969Y030351D01*
X014999Y030313D01*
X015032Y030277D01*
X015068Y030244D01*
X015106Y030214D01*
X015147Y030187D01*
X015190Y030163D01*
X015234Y030142D01*
X015280Y030125D01*
X015327Y030112D01*
X015375Y030103D01*
X015423Y030097D01*
X015472Y030095D01*
X015472Y030094D02*
X016306Y030094D01*
X016306Y028047D01*
X016306Y030094D02*
X016306Y032693D01*
X013014Y033003D02*
X012955Y032945D01*
X012780Y032945D01*
X012780Y032828D02*
X012780Y033178D01*
X012955Y033178D01*
X013014Y033120D01*
X013014Y033003D01*
X012646Y032886D02*
X012646Y033120D01*
X012587Y033178D01*
X012470Y033178D01*
X012412Y033120D01*
X012412Y032886D01*
X012470Y032828D01*
X012587Y032828D01*
X012646Y032886D01*
X012277Y033178D02*
X012044Y033178D01*
X012160Y033178D02*
X012160Y032828D01*
X006606Y027659D02*
X006531Y027734D01*
X006381Y027734D01*
X006306Y027659D01*
X006306Y027584D01*
X006381Y027509D01*
X006531Y027509D01*
X006606Y027434D01*
X006606Y027359D01*
X006531Y027284D01*
X006381Y027284D01*
X006306Y027359D01*
X006306Y027434D01*
X006381Y027509D01*
X006531Y027509D02*
X006606Y027584D01*
X006606Y027659D01*
X006145Y027734D02*
X006145Y027359D01*
X006070Y027284D01*
X005920Y027284D01*
X005845Y027359D01*
X005845Y027734D01*
X005815Y024871D02*
X005815Y024495D01*
X005890Y024420D01*
X006040Y024420D01*
X006115Y024495D01*
X006115Y024871D01*
X006276Y024796D02*
X006276Y024721D01*
X006351Y024646D01*
X006501Y024646D01*
X006576Y024571D01*
X006576Y024495D01*
X006501Y024420D01*
X006351Y024420D01*
X006276Y024495D01*
X006276Y024571D01*
X006351Y024646D01*
X006501Y024646D02*
X006576Y024721D01*
X006576Y024796D01*
X006501Y024871D01*
X006351Y024871D01*
X006276Y024796D01*
X005916Y017645D02*
X005916Y016464D01*
X005916Y017645D02*
X007097Y017645D01*
X005916Y009378D02*
X005916Y008196D01*
X007097Y008196D01*
X009853Y006622D02*
X009853Y006543D01*
X009853Y005519D01*
X010365Y005519D01*
X010916Y005519D02*
X011428Y005519D01*
X011428Y006543D01*
X011428Y006622D01*
X010916Y006622D01*
X010916Y006543D01*
X011428Y006543D01*
X011428Y006582D02*
X010916Y006582D01*
X010365Y006582D02*
X009853Y006582D01*
X009853Y006543D02*
X010365Y006543D01*
X010365Y006622D01*
X009853Y006622D01*
X014184Y008196D02*
X015365Y008196D01*
X015365Y009378D01*
X036605Y011169D02*
X036605Y005618D01*
X041763Y005618D01*
X041763Y011169D01*
X036605Y011169D01*
D18*
X040829Y022656D02*
X040925Y022656D01*
X040973Y022705D01*
X040973Y022945D01*
X041074Y022897D02*
X041074Y022849D01*
X041122Y022801D01*
X041219Y022801D01*
X041267Y022753D01*
X041267Y022705D01*
X041219Y022656D01*
X041122Y022656D01*
X041074Y022705D01*
X041074Y022897D02*
X041122Y022945D01*
X041219Y022945D01*
X041267Y022897D01*
X041368Y022945D02*
X041512Y022945D01*
X041560Y022897D01*
X041560Y022849D01*
X041512Y022801D01*
X041368Y022801D01*
X041512Y022801D02*
X041560Y022753D01*
X041560Y022705D01*
X041512Y022656D01*
X041368Y022656D01*
X041368Y022945D01*
X041661Y022849D02*
X041758Y022945D01*
X041758Y022656D01*
X041854Y022656D02*
X041661Y022656D01*
X040829Y022656D02*
X040780Y022705D01*
X040780Y022945D01*
X035256Y027755D02*
X035063Y027755D01*
X035256Y027948D01*
X035256Y027997D01*
X035208Y028045D01*
X035111Y028045D01*
X035063Y027997D01*
X034962Y028045D02*
X034962Y027803D01*
X034913Y027755D01*
X034817Y027755D01*
X034768Y027803D01*
X034768Y028045D01*
X034499Y027561D02*
X034185Y027247D01*
X034342Y027247D02*
X034342Y027561D01*
X034185Y027561D02*
X034499Y027247D01*
X034499Y027404D02*
X034185Y027404D01*
X028794Y028788D02*
X028481Y029102D01*
X028638Y029102D02*
X028638Y028788D01*
X028481Y028788D02*
X028794Y029102D01*
X028794Y028945D02*
X028481Y028945D01*
X026425Y028050D02*
X026231Y028050D01*
X026328Y028050D02*
X026328Y028340D01*
X026231Y028243D01*
X026130Y028050D02*
X025937Y028050D01*
X026033Y028050D02*
X026033Y028340D01*
X025937Y028243D01*
X025836Y028340D02*
X025836Y028098D01*
X025787Y028050D01*
X025690Y028050D01*
X025642Y028098D01*
X025642Y028340D01*
X024358Y027038D02*
X024551Y026844D01*
X024600Y026844D01*
X024551Y026743D02*
X024600Y026695D01*
X024600Y026598D01*
X024551Y026550D01*
X024551Y026449D02*
X024600Y026400D01*
X024600Y026304D01*
X024551Y026255D01*
X024358Y026255D01*
X024310Y026304D01*
X024310Y026400D01*
X024358Y026449D01*
X024358Y026550D02*
X024310Y026598D01*
X024310Y026695D01*
X024358Y026743D01*
X024406Y026743D01*
X024455Y026695D01*
X024503Y026743D01*
X024551Y026743D01*
X024455Y026695D02*
X024455Y026647D01*
X024310Y026844D02*
X024310Y027038D01*
X024358Y027038D01*
X025580Y026344D02*
X025894Y026030D01*
X025894Y026187D02*
X025580Y026187D01*
X025580Y026030D02*
X025894Y026344D01*
X025737Y026344D02*
X025737Y026030D01*
X025061Y025758D02*
X025061Y025662D01*
X025012Y025613D01*
X024916Y025613D02*
X024867Y025710D01*
X024867Y025758D01*
X024916Y025807D01*
X025012Y025807D01*
X025061Y025758D01*
X024916Y025613D02*
X024770Y025613D01*
X024770Y025807D01*
X024819Y025512D02*
X024867Y025512D01*
X024916Y025464D01*
X024964Y025512D01*
X025012Y025512D01*
X025061Y025464D01*
X025061Y025367D01*
X025012Y025319D01*
X025012Y025217D02*
X025061Y025169D01*
X025061Y025072D01*
X025012Y025024D01*
X024819Y025024D01*
X024770Y025072D01*
X024770Y025169D01*
X024819Y025217D01*
X024819Y025319D02*
X024770Y025367D01*
X024770Y025464D01*
X024819Y025512D01*
X024916Y025464D02*
X024916Y025415D01*
X023944Y025392D02*
X023654Y025392D01*
X023751Y025295D01*
X023702Y025194D02*
X023654Y025145D01*
X023654Y025049D01*
X023702Y025000D01*
X023896Y025000D01*
X023944Y025049D01*
X023944Y025145D01*
X023896Y025194D01*
X023944Y025295D02*
X023944Y025488D01*
X023896Y025590D02*
X023847Y025590D01*
X023799Y025638D01*
X023799Y025735D01*
X023847Y025783D01*
X023896Y025783D01*
X023944Y025735D01*
X023944Y025638D01*
X023896Y025590D01*
X023799Y025638D02*
X023751Y025590D01*
X023702Y025590D01*
X023654Y025638D01*
X023654Y025735D01*
X023702Y025783D01*
X023751Y025783D01*
X023799Y025735D01*
X026850Y025215D02*
X026899Y025118D01*
X026996Y025022D01*
X026996Y025167D01*
X027044Y025215D01*
X027092Y025215D01*
X027141Y025167D01*
X027141Y025070D01*
X027092Y025022D01*
X026996Y025022D01*
X027044Y024920D02*
X027092Y024920D01*
X027141Y024872D01*
X027141Y024775D01*
X027092Y024727D01*
X027092Y024626D02*
X027141Y024577D01*
X027141Y024481D01*
X027092Y024432D01*
X026899Y024432D01*
X026850Y024481D01*
X026850Y024577D01*
X026899Y024626D01*
X026899Y024727D02*
X026850Y024775D01*
X026850Y024872D01*
X026899Y024920D01*
X026947Y024920D01*
X026996Y024872D01*
X027044Y024920D01*
X026996Y024872D02*
X026996Y024824D01*
X027068Y025337D02*
X027116Y025337D01*
X027213Y025434D01*
X027358Y025434D01*
X027213Y025434D02*
X027116Y025531D01*
X027068Y025531D01*
X027165Y025632D02*
X027068Y025729D01*
X027358Y025729D01*
X027358Y025632D02*
X027358Y025826D01*
X018433Y018475D02*
X018119Y018162D01*
X018119Y018319D02*
X018433Y018319D01*
X018433Y018162D02*
X018119Y018475D01*
X018276Y018475D02*
X018276Y018162D01*
X018749Y016028D02*
X019063Y015714D01*
X019063Y015871D02*
X018749Y015871D01*
X018749Y015714D02*
X019063Y016028D01*
X018906Y016028D02*
X018906Y015714D01*
X015006Y007890D02*
X014909Y007890D01*
X014861Y007842D01*
X014760Y007842D02*
X014712Y007890D01*
X014615Y007890D01*
X014566Y007842D01*
X014566Y007648D01*
X014615Y007600D01*
X014712Y007600D01*
X014760Y007648D01*
X014861Y007600D02*
X015055Y007794D01*
X015055Y007842D01*
X015006Y007890D01*
X015055Y007600D02*
X014861Y007600D01*
X014467Y007600D02*
X014370Y007600D01*
X014418Y007600D02*
X014418Y007890D01*
X014370Y007890D02*
X014467Y007890D01*
X005528Y027005D02*
X005214Y027319D01*
X005184Y027319D02*
X005498Y027005D01*
X005371Y027005D02*
X005371Y027319D01*
X005341Y027319D02*
X005341Y027005D01*
X005214Y027005D02*
X005528Y027319D01*
X005498Y027319D02*
X005184Y027005D01*
X005184Y027162D02*
X005498Y027162D01*
X005528Y027162D02*
X005214Y027162D01*
X033508Y035244D02*
X033557Y035196D01*
X033653Y035196D01*
X033702Y035244D01*
X033702Y035486D01*
X033803Y035341D02*
X033996Y035341D01*
X033948Y035486D02*
X033803Y035341D01*
X033948Y035196D02*
X033948Y035486D01*
X033508Y035486D02*
X033508Y035244D01*
X034185Y034254D02*
X034499Y033940D01*
X034342Y033940D02*
X034342Y034254D01*
X034499Y034254D02*
X034185Y033940D01*
X034185Y034097D02*
X034499Y034097D01*
D19*
X026531Y023303D02*
X022172Y023303D01*
X021916Y023047D01*
X021916Y018685D01*
X026531Y018685D01*
X026531Y023303D01*
X021970Y028216D02*
X019390Y028216D01*
X019390Y029516D01*
X021970Y029516D01*
X021970Y028216D01*
X018475Y026061D02*
X018475Y024683D01*
X018416Y024683D01*
X015464Y024683D01*
X015405Y024683D01*
X015405Y026061D01*
X015710Y026061D01*
X018170Y026061D02*
X018475Y026061D01*
X014245Y035973D02*
X014316Y036043D01*
X014316Y036323D01*
X014245Y036393D01*
X014035Y036393D01*
X014035Y035973D01*
X014245Y035973D01*
X013855Y036043D02*
X013785Y035973D01*
X013645Y035973D01*
X013575Y036043D01*
X013645Y036183D02*
X013785Y036183D01*
X013855Y036113D01*
X013855Y036043D01*
X013645Y036183D02*
X013575Y036253D01*
X013575Y036323D01*
X013645Y036393D01*
X013785Y036393D01*
X013855Y036323D01*
X013395Y036183D02*
X013325Y036253D01*
X013185Y036253D01*
X013115Y036183D01*
X013115Y036043D01*
X013185Y035973D01*
X013325Y035973D01*
X013395Y036043D01*
X013395Y036183D01*
X012941Y036253D02*
X012871Y036253D01*
X012731Y036113D01*
X012731Y035973D02*
X012731Y036253D01*
X012551Y036253D02*
X012341Y036253D01*
X012270Y036183D01*
X012270Y036043D01*
X012341Y035973D01*
X012551Y035973D01*
X012104Y035973D02*
X011964Y035973D01*
X012034Y035973D02*
X012034Y036253D01*
X011964Y036253D01*
X012034Y036393D02*
X012034Y036463D01*
X011783Y036393D02*
X011783Y035973D01*
X011503Y035973D02*
X011503Y036393D01*
X011643Y036253D01*
X011783Y036393D01*
X007002Y033537D02*
X007002Y033326D01*
X006932Y033256D01*
X006792Y033256D01*
X006722Y033326D01*
X006722Y033537D01*
X006582Y033537D02*
X007002Y033537D01*
X006722Y033083D02*
X006722Y033013D01*
X006862Y032873D01*
X007002Y032873D02*
X006722Y032873D01*
X006792Y032693D02*
X007002Y032693D01*
X007002Y032482D01*
X006932Y032412D01*
X006862Y032482D01*
X006862Y032693D01*
X006792Y032693D02*
X006722Y032622D01*
X006722Y032482D01*
X006652Y032232D02*
X006582Y032162D01*
X006582Y032022D01*
X006652Y031952D01*
X006932Y031952D01*
X007002Y032022D01*
X007002Y032162D01*
X006932Y032232D01*
X007002Y031311D02*
X006582Y031311D01*
X006722Y031171D01*
X006582Y031031D01*
X007002Y031031D01*
X007002Y030864D02*
X007002Y030724D01*
X007002Y030794D02*
X006582Y030794D01*
X006582Y030724D02*
X006582Y030864D01*
X006652Y030544D02*
X006582Y030474D01*
X006582Y030334D01*
X006652Y030264D01*
X006722Y030264D01*
X006792Y030334D01*
X006792Y030474D01*
X006862Y030544D01*
X006932Y030544D01*
X007002Y030474D01*
X007002Y030334D01*
X006932Y030264D01*
X021201Y013694D02*
X021201Y011334D01*
X021201Y011335D02*
X023703Y011335D01*
X023703Y013694D01*
X029578Y014732D02*
X030680Y014732D01*
X030680Y015834D01*
X029578Y015834D01*
X029578Y014732D01*
X032326Y009289D02*
X034481Y009289D01*
X034678Y009092D01*
X034678Y006907D01*
X034481Y006710D01*
X032326Y006710D01*
X032326Y009289D01*
D20*
X015838Y008984D02*
X015840Y009009D01*
X015846Y009033D01*
X015855Y009055D01*
X015868Y009076D01*
X015884Y009095D01*
X015903Y009111D01*
X015924Y009124D01*
X015946Y009133D01*
X015970Y009139D01*
X015995Y009141D01*
X016020Y009139D01*
X016044Y009133D01*
X016066Y009124D01*
X016087Y009111D01*
X016106Y009095D01*
X016122Y009076D01*
X016135Y009055D01*
X016144Y009033D01*
X016150Y009009D01*
X016152Y008984D01*
X016150Y008959D01*
X016144Y008935D01*
X016135Y008913D01*
X016122Y008892D01*
X016106Y008873D01*
X016087Y008857D01*
X016066Y008844D01*
X016044Y008835D01*
X016020Y008829D01*
X015995Y008827D01*
X015970Y008829D01*
X015946Y008835D01*
X015924Y008844D01*
X015903Y008857D01*
X015884Y008873D01*
X015868Y008892D01*
X015855Y008913D01*
X015846Y008935D01*
X015840Y008959D01*
X015838Y008984D01*
D21*
X017924Y006976D03*
X018515Y005401D03*
X016349Y005401D03*
X008279Y005480D03*
X028160Y005677D03*
D22*
X030438Y015466D02*
X030438Y015576D01*
X030438Y015575D02*
X030439Y015578D01*
X030438Y015581D01*
X030438Y015690D01*
X030439Y015691D01*
X030459Y015688D01*
X030478Y015682D01*
X030496Y015672D01*
X030512Y015660D01*
X030525Y015644D01*
X030536Y015627D01*
X030543Y015608D01*
X030547Y015588D01*
X030547Y015568D01*
X030543Y015548D01*
X030536Y015529D01*
X030525Y015512D01*
X030512Y015496D01*
X030496Y015484D01*
X030478Y015474D01*
X030459Y015468D01*
X030439Y015465D01*
X030439Y015474D01*
X030459Y015477D01*
X030477Y015483D01*
X030494Y015493D01*
X030509Y015506D01*
X030522Y015522D01*
X030531Y015539D01*
X030536Y015558D01*
X030538Y015578D01*
X030536Y015598D01*
X030531Y015617D01*
X030522Y015634D01*
X030509Y015650D01*
X030494Y015663D01*
X030477Y015673D01*
X030459Y015679D01*
X030439Y015682D01*
X030439Y015673D01*
X030458Y015670D01*
X030476Y015663D01*
X030492Y015653D01*
X030506Y015640D01*
X030517Y015624D01*
X030525Y015606D01*
X030529Y015588D01*
X030529Y015568D01*
X030525Y015550D01*
X030517Y015532D01*
X030506Y015516D01*
X030492Y015503D01*
X030476Y015493D01*
X030458Y015486D01*
X030439Y015483D01*
X030439Y015492D01*
X030456Y015495D01*
X030472Y015501D01*
X030487Y015510D01*
X030499Y015522D01*
X030509Y015536D01*
X030516Y015552D01*
X030520Y015569D01*
X030520Y015587D01*
X030516Y015604D01*
X030509Y015620D01*
X030499Y015634D01*
X030487Y015646D01*
X030472Y015655D01*
X030456Y015661D01*
X030439Y015664D01*
X030439Y015655D01*
X030455Y015652D01*
X030471Y015646D01*
X030484Y015636D01*
X030496Y015624D01*
X030504Y015610D01*
X030509Y015594D01*
X030511Y015578D01*
X030509Y015562D01*
X030504Y015546D01*
X030496Y015532D01*
X030484Y015520D01*
X030471Y015510D01*
X030455Y015504D01*
X030439Y015501D01*
X030439Y015510D01*
X030454Y015513D01*
X030469Y015519D01*
X030481Y015529D01*
X030491Y015541D01*
X030498Y015555D01*
X030502Y015570D01*
X030502Y015586D01*
X030498Y015601D01*
X030491Y015615D01*
X030481Y015627D01*
X030469Y015637D01*
X030454Y015643D01*
X030439Y015646D01*
X030439Y015637D01*
X030453Y015634D01*
X030466Y015627D01*
X030477Y015618D01*
X030486Y015606D01*
X030491Y015592D01*
X030493Y015578D01*
X030491Y015564D01*
X030486Y015550D01*
X030477Y015538D01*
X030466Y015529D01*
X030453Y015522D01*
X030439Y015519D01*
X030439Y015528D01*
X030452Y015531D01*
X030464Y015538D01*
X030473Y015547D01*
X030480Y015558D01*
X030484Y015571D01*
X030484Y015585D01*
X030480Y015598D01*
X030473Y015609D01*
X030464Y015618D01*
X030452Y015625D01*
X030439Y015628D01*
X030439Y015619D01*
X030450Y015616D01*
X030460Y015609D01*
X030468Y015600D01*
X030473Y015590D01*
X030475Y015578D01*
X030473Y015566D01*
X030468Y015556D01*
X030460Y015547D01*
X030450Y015540D01*
X030439Y015537D01*
X030439Y015546D01*
X030449Y015549D01*
X030457Y015555D01*
X030463Y015563D01*
X030466Y015573D01*
X030466Y015583D01*
X030463Y015593D01*
X030457Y015601D01*
X030449Y015607D01*
X030439Y015610D01*
X030439Y015600D01*
X030447Y015597D01*
X030453Y015591D01*
X030457Y015582D01*
X030457Y015574D01*
X030453Y015565D01*
X030447Y015559D01*
X030439Y015556D01*
X030439Y015565D01*
X030444Y015569D01*
X030448Y015575D01*
X030448Y015581D01*
X030444Y015587D01*
X030439Y015591D01*
X020938Y026936D02*
X020888Y026936D01*
X020863Y026961D01*
X020816Y026961D02*
X020816Y027086D01*
X020863Y027086D02*
X020863Y027011D01*
X020913Y027036D01*
X020938Y027036D01*
X020963Y027011D01*
X020963Y026961D01*
X020938Y026936D01*
X020816Y026961D02*
X020791Y026936D01*
X020740Y026936D01*
X020715Y026961D01*
X020715Y027086D01*
X020863Y027086D02*
X020963Y027086D01*
D23*
X032132Y008000D03*
D24*
X023349Y010964D03*
X022901Y010964D03*
X022464Y010964D03*
X022003Y010964D03*
X021554Y010964D03*
D25*
X021554Y011063D03*
X022004Y011063D03*
X022466Y011067D03*
X022904Y011063D03*
X023354Y011063D03*
D26*
X040168Y018826D02*
X042137Y018826D01*
X040168Y018826D02*
X040168Y022370D01*
X042137Y022370D01*
X038968Y025657D02*
X037826Y025657D01*
X037826Y027074D01*
X038968Y027074D01*
X038968Y025657D01*
X037590Y025657D02*
X037590Y027074D01*
X036448Y027074D01*
X036448Y025657D01*
X037590Y025657D01*
X037590Y032350D02*
X036448Y032350D01*
X036448Y033767D01*
X037590Y033767D01*
X037590Y032350D01*
X037826Y032350D02*
X037826Y033767D01*
X038968Y033767D01*
X038968Y032350D01*
X037826Y032350D01*
D27*
X027051Y016753D02*
X027051Y016532D01*
X026831Y016753D01*
X026776Y016753D01*
X026721Y016698D01*
X026721Y016587D01*
X026776Y016532D01*
X026721Y016384D02*
X026721Y016274D01*
X026721Y016329D02*
X026996Y016329D01*
X027051Y016274D01*
X027051Y016219D01*
X026996Y016164D01*
X014480Y019361D02*
X014260Y019361D01*
X014370Y019361D02*
X014370Y019691D01*
X014260Y019581D01*
X014112Y019691D02*
X014002Y019691D01*
X014057Y019691D02*
X014057Y019416D01*
X014002Y019361D01*
X013947Y019361D01*
X013892Y019416D01*
D28*
X015464Y024683D02*
X015611Y024830D01*
X015611Y025126D01*
X015414Y025126D01*
X015611Y024830D02*
X018269Y024830D01*
X018416Y024683D01*
X018269Y024830D02*
X018269Y025126D01*
X018466Y025126D01*
X018466Y025618D02*
X018269Y025618D01*
X018269Y025913D01*
X018170Y025913D01*
X018170Y026061D01*
X015710Y026061D01*
X015710Y025913D01*
X015611Y025913D01*
X015414Y025913D01*
X015611Y025913D02*
X015611Y025618D01*
X015414Y025618D01*
X018269Y025913D02*
X018466Y025913D01*
D29*
X017924Y025249D03*
X017432Y025249D03*
X016940Y025249D03*
X016448Y025249D03*
X015956Y025249D03*
M02*
